<?xml version="1.0" encoding="utf-8" standalone="no"?>
<!DOCTYPE svg PUBLIC "-//W3C//DTD SVG 1.1//EN"
  "http://www.w3.org/Graphics/SVG/1.1/DTD/svg11.dtd">
<!-- Created with matplotlib (https://matplotlib.org/) -->
<svg height="345.6pt" version="1.1" viewBox="0 0 460.8 345.6" width="460.8pt" xmlns="http://www.w3.org/2000/svg" xmlns:xlink="http://www.w3.org/1999/xlink">
 <defs>
  <style type="text/css">
*{stroke-linecap:butt;stroke-linejoin:round;}
  </style>
 </defs>
 <g id="figure_1">
  <g id="patch_1">
   <path d="M 0 345.6 
L 460.8 345.6 
L 460.8 0 
L 0 0 
z
" style="fill:#ffffff;"/>
  </g>
  <g id="axes_1">
   <g id="patch_2">
    <path d="M 57.6 307.584 
L 414.72 307.584 
L 414.72 41.472 
L 57.6 41.472 
z
" style="fill:#ffffff;"/>
   </g>
   <g id="matplotlib.axis_1">
    <g id="xtick_1">
     <g id="line2d_1">
      <path clip-path="url(#p5e53fe2b9a)" d="M 73.832727 307.584 
L 73.832727 41.472 
" style="fill:none;stroke:#b0b0b0;stroke-linecap:square;stroke-width:0.8;"/>
     </g>
     <g id="line2d_2">
      <defs>
       <path d="M 0 0 
L 0 3.5 
" id="m3cd45bd509" style="stroke:#000000;stroke-width:0.8;"/>
      </defs>
      <g>
       <use style="stroke:#000000;stroke-width:0.8;" x="73.832727" xlink:href="#m3cd45bd509" y="307.584"/>
      </g>
     </g>
     <g id="text_1">
      <!-- 0 -->
      <defs>
       <path d="M 31.78125 66.40625 
Q 24.171875 66.40625 20.328125 58.90625 
Q 16.5 51.421875 16.5 36.375 
Q 16.5 21.390625 20.328125 13.890625 
Q 24.171875 6.390625 31.78125 6.390625 
Q 39.453125 6.390625 43.28125 13.890625 
Q 47.125 21.390625 47.125 36.375 
Q 47.125 51.421875 43.28125 58.90625 
Q 39.453125 66.40625 31.78125 66.40625 
z
M 31.78125 74.21875 
Q 44.046875 74.21875 50.515625 64.515625 
Q 56.984375 54.828125 56.984375 36.375 
Q 56.984375 17.96875 50.515625 8.265625 
Q 44.046875 -1.421875 31.78125 -1.421875 
Q 19.53125 -1.421875 13.0625 8.265625 
Q 6.59375 17.96875 6.59375 36.375 
Q 6.59375 54.828125 13.0625 64.515625 
Q 19.53125 74.21875 31.78125 74.21875 
z
" id="DejaVuSans-48"/>
      </defs>
      <g transform="translate(70.651477 322.182437)scale(0.1 -0.1)">
       <use xlink:href="#DejaVuSans-48"/>
      </g>
     </g>
    </g>
    <g id="xtick_2">
     <g id="line2d_3">
      <path clip-path="url(#p5e53fe2b9a)" d="M 138.828632 307.584 
L 138.828632 41.472 
" style="fill:none;stroke:#b0b0b0;stroke-linecap:square;stroke-width:0.8;"/>
     </g>
     <g id="line2d_4">
      <g>
       <use style="stroke:#000000;stroke-width:0.8;" x="138.828632" xlink:href="#m3cd45bd509" y="307.584"/>
      </g>
     </g>
     <g id="text_2">
      <!-- 200 -->
      <defs>
       <path d="M 19.1875 8.296875 
L 53.609375 8.296875 
L 53.609375 0 
L 7.328125 0 
L 7.328125 8.296875 
Q 12.9375 14.109375 22.625 23.890625 
Q 32.328125 33.6875 34.8125 36.53125 
Q 39.546875 41.84375 41.421875 45.53125 
Q 43.3125 49.21875 43.3125 52.78125 
Q 43.3125 58.59375 39.234375 62.25 
Q 35.15625 65.921875 28.609375 65.921875 
Q 23.96875 65.921875 18.8125 64.3125 
Q 13.671875 62.703125 7.8125 59.421875 
L 7.8125 69.390625 
Q 13.765625 71.78125 18.9375 73 
Q 24.125 74.21875 28.421875 74.21875 
Q 39.75 74.21875 46.484375 68.546875 
Q 53.21875 62.890625 53.21875 53.421875 
Q 53.21875 48.921875 51.53125 44.890625 
Q 49.859375 40.875 45.40625 35.40625 
Q 44.1875 33.984375 37.640625 27.21875 
Q 31.109375 20.453125 19.1875 8.296875 
z
" id="DejaVuSans-50"/>
      </defs>
      <g transform="translate(129.284882 322.182437)scale(0.1 -0.1)">
       <use xlink:href="#DejaVuSans-50"/>
       <use x="63.623047" xlink:href="#DejaVuSans-48"/>
       <use x="127.246094" xlink:href="#DejaVuSans-48"/>
      </g>
     </g>
    </g>
    <g id="xtick_3">
     <g id="line2d_5">
      <path clip-path="url(#p5e53fe2b9a)" d="M 203.824537 307.584 
L 203.824537 41.472 
" style="fill:none;stroke:#b0b0b0;stroke-linecap:square;stroke-width:0.8;"/>
     </g>
     <g id="line2d_6">
      <g>
       <use style="stroke:#000000;stroke-width:0.8;" x="203.824537" xlink:href="#m3cd45bd509" y="307.584"/>
      </g>
     </g>
     <g id="text_3">
      <!-- 400 -->
      <defs>
       <path d="M 37.796875 64.3125 
L 12.890625 25.390625 
L 37.796875 25.390625 
z
M 35.203125 72.90625 
L 47.609375 72.90625 
L 47.609375 25.390625 
L 58.015625 25.390625 
L 58.015625 17.1875 
L 47.609375 17.1875 
L 47.609375 0 
L 37.796875 0 
L 37.796875 17.1875 
L 4.890625 17.1875 
L 4.890625 26.703125 
z
" id="DejaVuSans-52"/>
      </defs>
      <g transform="translate(194.280787 322.182437)scale(0.1 -0.1)">
       <use xlink:href="#DejaVuSans-52"/>
       <use x="63.623047" xlink:href="#DejaVuSans-48"/>
       <use x="127.246094" xlink:href="#DejaVuSans-48"/>
      </g>
     </g>
    </g>
    <g id="xtick_4">
     <g id="line2d_7">
      <path clip-path="url(#p5e53fe2b9a)" d="M 268.820442 307.584 
L 268.820442 41.472 
" style="fill:none;stroke:#b0b0b0;stroke-linecap:square;stroke-width:0.8;"/>
     </g>
     <g id="line2d_8">
      <g>
       <use style="stroke:#000000;stroke-width:0.8;" x="268.820442" xlink:href="#m3cd45bd509" y="307.584"/>
      </g>
     </g>
     <g id="text_4">
      <!-- 600 -->
      <defs>
       <path d="M 33.015625 40.375 
Q 26.375 40.375 22.484375 35.828125 
Q 18.609375 31.296875 18.609375 23.390625 
Q 18.609375 15.53125 22.484375 10.953125 
Q 26.375 6.390625 33.015625 6.390625 
Q 39.65625 6.390625 43.53125 10.953125 
Q 47.40625 15.53125 47.40625 23.390625 
Q 47.40625 31.296875 43.53125 35.828125 
Q 39.65625 40.375 33.015625 40.375 
z
M 52.59375 71.296875 
L 52.59375 62.3125 
Q 48.875 64.0625 45.09375 64.984375 
Q 41.3125 65.921875 37.59375 65.921875 
Q 27.828125 65.921875 22.671875 59.328125 
Q 17.53125 52.734375 16.796875 39.40625 
Q 19.671875 43.65625 24.015625 45.921875 
Q 28.375 48.1875 33.59375 48.1875 
Q 44.578125 48.1875 50.953125 41.515625 
Q 57.328125 34.859375 57.328125 23.390625 
Q 57.328125 12.15625 50.6875 5.359375 
Q 44.046875 -1.421875 33.015625 -1.421875 
Q 20.359375 -1.421875 13.671875 8.265625 
Q 6.984375 17.96875 6.984375 36.375 
Q 6.984375 53.65625 15.1875 63.9375 
Q 23.390625 74.21875 37.203125 74.21875 
Q 40.921875 74.21875 44.703125 73.484375 
Q 48.484375 72.75 52.59375 71.296875 
z
" id="DejaVuSans-54"/>
      </defs>
      <g transform="translate(259.276692 322.182437)scale(0.1 -0.1)">
       <use xlink:href="#DejaVuSans-54"/>
       <use x="63.623047" xlink:href="#DejaVuSans-48"/>
       <use x="127.246094" xlink:href="#DejaVuSans-48"/>
      </g>
     </g>
    </g>
    <g id="xtick_5">
     <g id="line2d_9">
      <path clip-path="url(#p5e53fe2b9a)" d="M 333.816347 307.584 
L 333.816347 41.472 
" style="fill:none;stroke:#b0b0b0;stroke-linecap:square;stroke-width:0.8;"/>
     </g>
     <g id="line2d_10">
      <g>
       <use style="stroke:#000000;stroke-width:0.8;" x="333.816347" xlink:href="#m3cd45bd509" y="307.584"/>
      </g>
     </g>
     <g id="text_5">
      <!-- 800 -->
      <defs>
       <path d="M 31.78125 34.625 
Q 24.75 34.625 20.71875 30.859375 
Q 16.703125 27.09375 16.703125 20.515625 
Q 16.703125 13.921875 20.71875 10.15625 
Q 24.75 6.390625 31.78125 6.390625 
Q 38.8125 6.390625 42.859375 10.171875 
Q 46.921875 13.96875 46.921875 20.515625 
Q 46.921875 27.09375 42.890625 30.859375 
Q 38.875 34.625 31.78125 34.625 
z
M 21.921875 38.8125 
Q 15.578125 40.375 12.03125 44.71875 
Q 8.5 49.078125 8.5 55.328125 
Q 8.5 64.0625 14.71875 69.140625 
Q 20.953125 74.21875 31.78125 74.21875 
Q 42.671875 74.21875 48.875 69.140625 
Q 55.078125 64.0625 55.078125 55.328125 
Q 55.078125 49.078125 51.53125 44.71875 
Q 48 40.375 41.703125 38.8125 
Q 48.828125 37.15625 52.796875 32.3125 
Q 56.78125 27.484375 56.78125 20.515625 
Q 56.78125 9.90625 50.3125 4.234375 
Q 43.84375 -1.421875 31.78125 -1.421875 
Q 19.734375 -1.421875 13.25 4.234375 
Q 6.78125 9.90625 6.78125 20.515625 
Q 6.78125 27.484375 10.78125 32.3125 
Q 14.796875 37.15625 21.921875 38.8125 
z
M 18.3125 54.390625 
Q 18.3125 48.734375 21.84375 45.5625 
Q 25.390625 42.390625 31.78125 42.390625 
Q 38.140625 42.390625 41.71875 45.5625 
Q 45.3125 48.734375 45.3125 54.390625 
Q 45.3125 60.0625 41.71875 63.234375 
Q 38.140625 66.40625 31.78125 66.40625 
Q 25.390625 66.40625 21.84375 63.234375 
Q 18.3125 60.0625 18.3125 54.390625 
z
" id="DejaVuSans-56"/>
      </defs>
      <g transform="translate(324.272597 322.182437)scale(0.1 -0.1)">
       <use xlink:href="#DejaVuSans-56"/>
       <use x="63.623047" xlink:href="#DejaVuSans-48"/>
       <use x="127.246094" xlink:href="#DejaVuSans-48"/>
      </g>
     </g>
    </g>
    <g id="xtick_6">
     <g id="line2d_11">
      <path clip-path="url(#p5e53fe2b9a)" d="M 398.812252 307.584 
L 398.812252 41.472 
" style="fill:none;stroke:#b0b0b0;stroke-linecap:square;stroke-width:0.8;"/>
     </g>
     <g id="line2d_12">
      <g>
       <use style="stroke:#000000;stroke-width:0.8;" x="398.812252" xlink:href="#m3cd45bd509" y="307.584"/>
      </g>
     </g>
     <g id="text_6">
      <!-- 1000 -->
      <defs>
       <path d="M 12.40625 8.296875 
L 28.515625 8.296875 
L 28.515625 63.921875 
L 10.984375 60.40625 
L 10.984375 69.390625 
L 28.421875 72.90625 
L 38.28125 72.90625 
L 38.28125 8.296875 
L 54.390625 8.296875 
L 54.390625 0 
L 12.40625 0 
z
" id="DejaVuSans-49"/>
      </defs>
      <g transform="translate(386.087252 322.182437)scale(0.1 -0.1)">
       <use xlink:href="#DejaVuSans-49"/>
       <use x="63.623047" xlink:href="#DejaVuSans-48"/>
       <use x="127.246094" xlink:href="#DejaVuSans-48"/>
       <use x="190.869141" xlink:href="#DejaVuSans-48"/>
      </g>
     </g>
    </g>
    <g id="text_7">
     <!-- Iteration -->
     <defs>
      <path d="M 9.8125 72.90625 
L 19.671875 72.90625 
L 19.671875 0 
L 9.8125 0 
z
" id="DejaVuSans-73"/>
      <path d="M 18.3125 70.21875 
L 18.3125 54.6875 
L 36.8125 54.6875 
L 36.8125 47.703125 
L 18.3125 47.703125 
L 18.3125 18.015625 
Q 18.3125 11.328125 20.140625 9.421875 
Q 21.96875 7.515625 27.59375 7.515625 
L 36.8125 7.515625 
L 36.8125 0 
L 27.59375 0 
Q 17.1875 0 13.234375 3.875 
Q 9.28125 7.765625 9.28125 18.015625 
L 9.28125 47.703125 
L 2.6875 47.703125 
L 2.6875 54.6875 
L 9.28125 54.6875 
L 9.28125 70.21875 
z
" id="DejaVuSans-116"/>
      <path d="M 56.203125 29.59375 
L 56.203125 25.203125 
L 14.890625 25.203125 
Q 15.484375 15.921875 20.484375 11.0625 
Q 25.484375 6.203125 34.421875 6.203125 
Q 39.59375 6.203125 44.453125 7.46875 
Q 49.3125 8.734375 54.109375 11.28125 
L 54.109375 2.78125 
Q 49.265625 0.734375 44.1875 -0.34375 
Q 39.109375 -1.421875 33.890625 -1.421875 
Q 20.796875 -1.421875 13.15625 6.1875 
Q 5.515625 13.8125 5.515625 26.8125 
Q 5.515625 40.234375 12.765625 48.109375 
Q 20.015625 56 32.328125 56 
Q 43.359375 56 49.78125 48.890625 
Q 56.203125 41.796875 56.203125 29.59375 
z
M 47.21875 32.234375 
Q 47.125 39.59375 43.09375 43.984375 
Q 39.0625 48.390625 32.421875 48.390625 
Q 24.90625 48.390625 20.390625 44.140625 
Q 15.875 39.890625 15.1875 32.171875 
z
" id="DejaVuSans-101"/>
      <path d="M 41.109375 46.296875 
Q 39.59375 47.171875 37.8125 47.578125 
Q 36.03125 48 33.890625 48 
Q 26.265625 48 22.1875 43.046875 
Q 18.109375 38.09375 18.109375 28.8125 
L 18.109375 0 
L 9.078125 0 
L 9.078125 54.6875 
L 18.109375 54.6875 
L 18.109375 46.1875 
Q 20.953125 51.171875 25.484375 53.578125 
Q 30.03125 56 36.53125 56 
Q 37.453125 56 38.578125 55.875 
Q 39.703125 55.765625 41.0625 55.515625 
z
" id="DejaVuSans-114"/>
      <path d="M 34.28125 27.484375 
Q 23.390625 27.484375 19.1875 25 
Q 14.984375 22.515625 14.984375 16.5 
Q 14.984375 11.71875 18.140625 8.90625 
Q 21.296875 6.109375 26.703125 6.109375 
Q 34.1875 6.109375 38.703125 11.40625 
Q 43.21875 16.703125 43.21875 25.484375 
L 43.21875 27.484375 
z
M 52.203125 31.203125 
L 52.203125 0 
L 43.21875 0 
L 43.21875 8.296875 
Q 40.140625 3.328125 35.546875 0.953125 
Q 30.953125 -1.421875 24.3125 -1.421875 
Q 15.921875 -1.421875 10.953125 3.296875 
Q 6 8.015625 6 15.921875 
Q 6 25.140625 12.171875 29.828125 
Q 18.359375 34.515625 30.609375 34.515625 
L 43.21875 34.515625 
L 43.21875 35.40625 
Q 43.21875 41.609375 39.140625 45 
Q 35.0625 48.390625 27.6875 48.390625 
Q 23 48.390625 18.546875 47.265625 
Q 14.109375 46.140625 10.015625 43.890625 
L 10.015625 52.203125 
Q 14.9375 54.109375 19.578125 55.046875 
Q 24.21875 56 28.609375 56 
Q 40.484375 56 46.34375 49.84375 
Q 52.203125 43.703125 52.203125 31.203125 
z
" id="DejaVuSans-97"/>
      <path d="M 9.421875 54.6875 
L 18.40625 54.6875 
L 18.40625 0 
L 9.421875 0 
z
M 9.421875 75.984375 
L 18.40625 75.984375 
L 18.40625 64.59375 
L 9.421875 64.59375 
z
" id="DejaVuSans-105"/>
      <path d="M 30.609375 48.390625 
Q 23.390625 48.390625 19.1875 42.75 
Q 14.984375 37.109375 14.984375 27.296875 
Q 14.984375 17.484375 19.15625 11.84375 
Q 23.34375 6.203125 30.609375 6.203125 
Q 37.796875 6.203125 41.984375 11.859375 
Q 46.1875 17.53125 46.1875 27.296875 
Q 46.1875 37.015625 41.984375 42.703125 
Q 37.796875 48.390625 30.609375 48.390625 
z
M 30.609375 56 
Q 42.328125 56 49.015625 48.375 
Q 55.71875 40.765625 55.71875 27.296875 
Q 55.71875 13.875 49.015625 6.21875 
Q 42.328125 -1.421875 30.609375 -1.421875 
Q 18.84375 -1.421875 12.171875 6.21875 
Q 5.515625 13.875 5.515625 27.296875 
Q 5.515625 40.765625 12.171875 48.375 
Q 18.84375 56 30.609375 56 
z
" id="DejaVuSans-111"/>
      <path d="M 54.890625 33.015625 
L 54.890625 0 
L 45.90625 0 
L 45.90625 32.71875 
Q 45.90625 40.484375 42.875 44.328125 
Q 39.84375 48.1875 33.796875 48.1875 
Q 26.515625 48.1875 22.3125 43.546875 
Q 18.109375 38.921875 18.109375 30.90625 
L 18.109375 0 
L 9.078125 0 
L 9.078125 54.6875 
L 18.109375 54.6875 
L 18.109375 46.1875 
Q 21.34375 51.125 25.703125 53.5625 
Q 30.078125 56 35.796875 56 
Q 45.21875 56 50.046875 50.171875 
Q 54.890625 44.34375 54.890625 33.015625 
z
" id="DejaVuSans-110"/>
     </defs>
     <g transform="translate(214.951406 335.860562)scale(0.1 -0.1)">
      <use xlink:href="#DejaVuSans-73"/>
      <use x="29.492188" xlink:href="#DejaVuSans-116"/>
      <use x="68.701172" xlink:href="#DejaVuSans-101"/>
      <use x="130.224609" xlink:href="#DejaVuSans-114"/>
      <use x="171.337891" xlink:href="#DejaVuSans-97"/>
      <use x="232.617188" xlink:href="#DejaVuSans-116"/>
      <use x="271.826172" xlink:href="#DejaVuSans-105"/>
      <use x="299.609375" xlink:href="#DejaVuSans-111"/>
      <use x="360.791016" xlink:href="#DejaVuSans-110"/>
     </g>
    </g>
   </g>
   <g id="matplotlib.axis_2">
    <g id="ytick_1">
     <g id="line2d_13">
      <path clip-path="url(#p5e53fe2b9a)" d="M 57.6 261.861154 
L 414.72 261.861154 
" style="fill:none;stroke:#b0b0b0;stroke-linecap:square;stroke-width:0.8;"/>
     </g>
     <g id="line2d_14">
      <defs>
       <path d="M 0 0 
L -3.5 0 
" id="mc77f0432be" style="stroke:#000000;stroke-width:0.8;"/>
      </defs>
      <g>
       <use style="stroke:#000000;stroke-width:0.8;" x="57.6" xlink:href="#mc77f0432be" y="261.861154"/>
      </g>
     </g>
     <g id="text_8">
      <!-- $\mathdefault{10^{-4}}$ -->
      <defs>
       <path d="M 10.59375 35.5 
L 73.1875 35.5 
L 73.1875 27.203125 
L 10.59375 27.203125 
z
" id="DejaVuSans-8722"/>
      </defs>
      <g transform="translate(27.1 265.660373)scale(0.1 -0.1)">
       <use transform="translate(0 0.684375)" xlink:href="#DejaVuSans-49"/>
       <use transform="translate(63.623047 0.684375)" xlink:href="#DejaVuSans-48"/>
       <use transform="translate(128.203125 38.965625)scale(0.7)" xlink:href="#DejaVuSans-8722"/>
       <use transform="translate(186.855469 38.965625)scale(0.7)" xlink:href="#DejaVuSans-52"/>
      </g>
     </g>
    </g>
    <g id="ytick_2">
     <g id="line2d_15">
      <path clip-path="url(#p5e53fe2b9a)" d="M 57.6 202.237102 
L 414.72 202.237102 
" style="fill:none;stroke:#b0b0b0;stroke-linecap:square;stroke-width:0.8;"/>
     </g>
     <g id="line2d_16">
      <g>
       <use style="stroke:#000000;stroke-width:0.8;" x="57.6" xlink:href="#mc77f0432be" y="202.237102"/>
      </g>
     </g>
     <g id="text_9">
      <!-- $\mathdefault{10^{-3}}$ -->
      <defs>
       <path d="M 40.578125 39.3125 
Q 47.65625 37.796875 51.625 33 
Q 55.609375 28.21875 55.609375 21.1875 
Q 55.609375 10.40625 48.1875 4.484375 
Q 40.765625 -1.421875 27.09375 -1.421875 
Q 22.515625 -1.421875 17.65625 -0.515625 
Q 12.796875 0.390625 7.625 2.203125 
L 7.625 11.71875 
Q 11.71875 9.328125 16.59375 8.109375 
Q 21.484375 6.890625 26.8125 6.890625 
Q 36.078125 6.890625 40.9375 10.546875 
Q 45.796875 14.203125 45.796875 21.1875 
Q 45.796875 27.640625 41.28125 31.265625 
Q 36.765625 34.90625 28.71875 34.90625 
L 20.21875 34.90625 
L 20.21875 43.015625 
L 29.109375 43.015625 
Q 36.375 43.015625 40.234375 45.921875 
Q 44.09375 48.828125 44.09375 54.296875 
Q 44.09375 59.90625 40.109375 62.90625 
Q 36.140625 65.921875 28.71875 65.921875 
Q 24.65625 65.921875 20.015625 65.03125 
Q 15.375 64.15625 9.8125 62.3125 
L 9.8125 71.09375 
Q 15.4375 72.65625 20.34375 73.4375 
Q 25.25 74.21875 29.59375 74.21875 
Q 40.828125 74.21875 47.359375 69.109375 
Q 53.90625 64.015625 53.90625 55.328125 
Q 53.90625 49.265625 50.4375 45.09375 
Q 46.96875 40.921875 40.578125 39.3125 
z
" id="DejaVuSans-51"/>
      </defs>
      <g transform="translate(27.1 206.03632)scale(0.1 -0.1)">
       <use transform="translate(0 0.765625)" xlink:href="#DejaVuSans-49"/>
       <use transform="translate(63.623047 0.765625)" xlink:href="#DejaVuSans-48"/>
       <use transform="translate(128.203125 39.046875)scale(0.7)" xlink:href="#DejaVuSans-8722"/>
       <use transform="translate(186.855469 39.046875)scale(0.7)" xlink:href="#DejaVuSans-51"/>
      </g>
     </g>
    </g>
    <g id="ytick_3">
     <g id="line2d_17">
      <path clip-path="url(#p5e53fe2b9a)" d="M 57.6 142.613049 
L 414.72 142.613049 
" style="fill:none;stroke:#b0b0b0;stroke-linecap:square;stroke-width:0.8;"/>
     </g>
     <g id="line2d_18">
      <g>
       <use style="stroke:#000000;stroke-width:0.8;" x="57.6" xlink:href="#mc77f0432be" y="142.613049"/>
      </g>
     </g>
     <g id="text_10">
      <!-- $\mathdefault{10^{-2}}$ -->
      <g transform="translate(27.1 146.412268)scale(0.1 -0.1)">
       <use transform="translate(0 0.765625)" xlink:href="#DejaVuSans-49"/>
       <use transform="translate(63.623047 0.765625)" xlink:href="#DejaVuSans-48"/>
       <use transform="translate(128.203125 39.046875)scale(0.7)" xlink:href="#DejaVuSans-8722"/>
       <use transform="translate(186.855469 39.046875)scale(0.7)" xlink:href="#DejaVuSans-50"/>
      </g>
     </g>
    </g>
    <g id="ytick_4">
     <g id="line2d_19">
      <path clip-path="url(#p5e53fe2b9a)" d="M 57.6 82.988996 
L 414.72 82.988996 
" style="fill:none;stroke:#b0b0b0;stroke-linecap:square;stroke-width:0.8;"/>
     </g>
     <g id="line2d_20">
      <g>
       <use style="stroke:#000000;stroke-width:0.8;" x="57.6" xlink:href="#mc77f0432be" y="82.988996"/>
      </g>
     </g>
     <g id="text_11">
      <!-- $\mathdefault{10^{-1}}$ -->
      <g transform="translate(27.1 86.788215)scale(0.1 -0.1)">
       <use transform="translate(0 0.684375)" xlink:href="#DejaVuSans-49"/>
       <use transform="translate(63.623047 0.684375)" xlink:href="#DejaVuSans-48"/>
       <use transform="translate(128.203125 38.965625)scale(0.7)" xlink:href="#DejaVuSans-8722"/>
       <use transform="translate(186.855469 38.965625)scale(0.7)" xlink:href="#DejaVuSans-49"/>
      </g>
     </g>
    </g>
    <g id="ytick_5">
     <g id="line2d_21">
      <defs>
       <path d="M 0 0 
L -2 0 
" id="m87e01fffb3" style="stroke:#000000;stroke-width:0.6;"/>
      </defs>
      <g>
       <use style="stroke:#000000;stroke-width:0.6;" x="57.6" xlink:href="#m87e01fffb3" y="303.536579"/>
      </g>
     </g>
    </g>
    <g id="ytick_6">
     <g id="line2d_22">
      <g>
       <use style="stroke:#000000;stroke-width:0.6;" x="57.6" xlink:href="#m87e01fffb3" y="293.037304"/>
      </g>
     </g>
    </g>
    <g id="ytick_7">
     <g id="line2d_23">
      <g>
       <use style="stroke:#000000;stroke-width:0.6;" x="57.6" xlink:href="#m87e01fffb3" y="285.58795"/>
      </g>
     </g>
    </g>
    <g id="ytick_8">
     <g id="line2d_24">
      <g>
       <use style="stroke:#000000;stroke-width:0.6;" x="57.6" xlink:href="#m87e01fffb3" y="279.809783"/>
      </g>
     </g>
    </g>
    <g id="ytick_9">
     <g id="line2d_25">
      <g>
       <use style="stroke:#000000;stroke-width:0.6;" x="57.6" xlink:href="#m87e01fffb3" y="275.088676"/>
      </g>
     </g>
    </g>
    <g id="ytick_10">
     <g id="line2d_26">
      <g>
       <use style="stroke:#000000;stroke-width:0.6;" x="57.6" xlink:href="#m87e01fffb3" y="271.097037"/>
      </g>
     </g>
    </g>
    <g id="ytick_11">
     <g id="line2d_27">
      <g>
       <use style="stroke:#000000;stroke-width:0.6;" x="57.6" xlink:href="#m87e01fffb3" y="267.639322"/>
      </g>
     </g>
    </g>
    <g id="ytick_12">
     <g id="line2d_28">
      <g>
       <use style="stroke:#000000;stroke-width:0.6;" x="57.6" xlink:href="#m87e01fffb3" y="264.589401"/>
      </g>
     </g>
    </g>
    <g id="ytick_13">
     <g id="line2d_29">
      <g>
       <use style="stroke:#000000;stroke-width:0.6;" x="57.6" xlink:href="#m87e01fffb3" y="243.912526"/>
      </g>
     </g>
    </g>
    <g id="ytick_14">
     <g id="line2d_30">
      <g>
       <use style="stroke:#000000;stroke-width:0.6;" x="57.6" xlink:href="#m87e01fffb3" y="233.413252"/>
      </g>
     </g>
    </g>
    <g id="ytick_15">
     <g id="line2d_31">
      <g>
       <use style="stroke:#000000;stroke-width:0.6;" x="57.6" xlink:href="#m87e01fffb3" y="225.963898"/>
      </g>
     </g>
    </g>
    <g id="ytick_16">
     <g id="line2d_32">
      <g>
       <use style="stroke:#000000;stroke-width:0.6;" x="57.6" xlink:href="#m87e01fffb3" y="220.18573"/>
      </g>
     </g>
    </g>
    <g id="ytick_17">
     <g id="line2d_33">
      <g>
       <use style="stroke:#000000;stroke-width:0.6;" x="57.6" xlink:href="#m87e01fffb3" y="215.464623"/>
      </g>
     </g>
    </g>
    <g id="ytick_18">
     <g id="line2d_34">
      <g>
       <use style="stroke:#000000;stroke-width:0.6;" x="57.6" xlink:href="#m87e01fffb3" y="211.472984"/>
      </g>
     </g>
    </g>
    <g id="ytick_19">
     <g id="line2d_35">
      <g>
       <use style="stroke:#000000;stroke-width:0.6;" x="57.6" xlink:href="#m87e01fffb3" y="208.015269"/>
      </g>
     </g>
    </g>
    <g id="ytick_20">
     <g id="line2d_36">
      <g>
       <use style="stroke:#000000;stroke-width:0.6;" x="57.6" xlink:href="#m87e01fffb3" y="204.965349"/>
      </g>
     </g>
    </g>
    <g id="ytick_21">
     <g id="line2d_37">
      <g>
       <use style="stroke:#000000;stroke-width:0.6;" x="57.6" xlink:href="#m87e01fffb3" y="184.288473"/>
      </g>
     </g>
    </g>
    <g id="ytick_22">
     <g id="line2d_38">
      <g>
       <use style="stroke:#000000;stroke-width:0.6;" x="57.6" xlink:href="#m87e01fffb3" y="173.789199"/>
      </g>
     </g>
    </g>
    <g id="ytick_23">
     <g id="line2d_39">
      <g>
       <use style="stroke:#000000;stroke-width:0.6;" x="57.6" xlink:href="#m87e01fffb3" y="166.339845"/>
      </g>
     </g>
    </g>
    <g id="ytick_24">
     <g id="line2d_40">
      <g>
       <use style="stroke:#000000;stroke-width:0.6;" x="57.6" xlink:href="#m87e01fffb3" y="160.561677"/>
      </g>
     </g>
    </g>
    <g id="ytick_25">
     <g id="line2d_41">
      <g>
       <use style="stroke:#000000;stroke-width:0.6;" x="57.6" xlink:href="#m87e01fffb3" y="155.840571"/>
      </g>
     </g>
    </g>
    <g id="ytick_26">
     <g id="line2d_42">
      <g>
       <use style="stroke:#000000;stroke-width:0.6;" x="57.6" xlink:href="#m87e01fffb3" y="151.848932"/>
      </g>
     </g>
    </g>
    <g id="ytick_27">
     <g id="line2d_43">
      <g>
       <use style="stroke:#000000;stroke-width:0.6;" x="57.6" xlink:href="#m87e01fffb3" y="148.391217"/>
      </g>
     </g>
    </g>
    <g id="ytick_28">
     <g id="line2d_44">
      <g>
       <use style="stroke:#000000;stroke-width:0.6;" x="57.6" xlink:href="#m87e01fffb3" y="145.341296"/>
      </g>
     </g>
    </g>
    <g id="ytick_29">
     <g id="line2d_45">
      <g>
       <use style="stroke:#000000;stroke-width:0.6;" x="57.6" xlink:href="#m87e01fffb3" y="124.664421"/>
      </g>
     </g>
    </g>
    <g id="ytick_30">
     <g id="line2d_46">
      <g>
       <use style="stroke:#000000;stroke-width:0.6;" x="57.6" xlink:href="#m87e01fffb3" y="114.165146"/>
      </g>
     </g>
    </g>
    <g id="ytick_31">
     <g id="line2d_47">
      <g>
       <use style="stroke:#000000;stroke-width:0.6;" x="57.6" xlink:href="#m87e01fffb3" y="106.715792"/>
      </g>
     </g>
    </g>
    <g id="ytick_32">
     <g id="line2d_48">
      <g>
       <use style="stroke:#000000;stroke-width:0.6;" x="57.6" xlink:href="#m87e01fffb3" y="100.937625"/>
      </g>
     </g>
    </g>
    <g id="ytick_33">
     <g id="line2d_49">
      <g>
       <use style="stroke:#000000;stroke-width:0.6;" x="57.6" xlink:href="#m87e01fffb3" y="96.216518"/>
      </g>
     </g>
    </g>
    <g id="ytick_34">
     <g id="line2d_50">
      <g>
       <use style="stroke:#000000;stroke-width:0.6;" x="57.6" xlink:href="#m87e01fffb3" y="92.224879"/>
      </g>
     </g>
    </g>
    <g id="ytick_35">
     <g id="line2d_51">
      <g>
       <use style="stroke:#000000;stroke-width:0.6;" x="57.6" xlink:href="#m87e01fffb3" y="88.767164"/>
      </g>
     </g>
    </g>
    <g id="ytick_36">
     <g id="line2d_52">
      <g>
       <use style="stroke:#000000;stroke-width:0.6;" x="57.6" xlink:href="#m87e01fffb3" y="85.717243"/>
      </g>
     </g>
    </g>
    <g id="ytick_37">
     <g id="line2d_53">
      <g>
       <use style="stroke:#000000;stroke-width:0.6;" x="57.6" xlink:href="#m87e01fffb3" y="65.040368"/>
      </g>
     </g>
    </g>
    <g id="ytick_38">
     <g id="line2d_54">
      <g>
       <use style="stroke:#000000;stroke-width:0.6;" x="57.6" xlink:href="#m87e01fffb3" y="54.541093"/>
      </g>
     </g>
    </g>
    <g id="ytick_39">
     <g id="line2d_55">
      <g>
       <use style="stroke:#000000;stroke-width:0.6;" x="57.6" xlink:href="#m87e01fffb3" y="47.09174"/>
      </g>
     </g>
    </g>
    <g id="text_12">
     <!-- Loss -->
     <defs>
      <path d="M 9.8125 72.90625 
L 19.671875 72.90625 
L 19.671875 8.296875 
L 55.171875 8.296875 
L 55.171875 0 
L 9.8125 0 
z
" id="DejaVuSans-76"/>
      <path d="M 44.28125 53.078125 
L 44.28125 44.578125 
Q 40.484375 46.53125 36.375 47.5 
Q 32.28125 48.484375 27.875 48.484375 
Q 21.1875 48.484375 17.84375 46.4375 
Q 14.5 44.390625 14.5 40.28125 
Q 14.5 37.15625 16.890625 35.375 
Q 19.28125 33.59375 26.515625 31.984375 
L 29.59375 31.296875 
Q 39.15625 29.25 43.1875 25.515625 
Q 47.21875 21.78125 47.21875 15.09375 
Q 47.21875 7.46875 41.1875 3.015625 
Q 35.15625 -1.421875 24.609375 -1.421875 
Q 20.21875 -1.421875 15.453125 -0.5625 
Q 10.6875 0.296875 5.421875 2 
L 5.421875 11.28125 
Q 10.40625 8.6875 15.234375 7.390625 
Q 20.0625 6.109375 24.8125 6.109375 
Q 31.15625 6.109375 34.5625 8.28125 
Q 37.984375 10.453125 37.984375 14.40625 
Q 37.984375 18.0625 35.515625 20.015625 
Q 33.0625 21.96875 24.703125 23.78125 
L 21.578125 24.515625 
Q 13.234375 26.265625 9.515625 29.90625 
Q 5.8125 33.546875 5.8125 39.890625 
Q 5.8125 47.609375 11.28125 51.796875 
Q 16.75 56 26.8125 56 
Q 31.78125 56 36.171875 55.265625 
Q 40.578125 54.546875 44.28125 53.078125 
z
" id="DejaVuSans-115"/>
     </defs>
     <g transform="translate(21.020313 185.581906)rotate(-90)scale(0.1 -0.1)">
      <use xlink:href="#DejaVuSans-76"/>
      <use x="55.697266" xlink:href="#DejaVuSans-111"/>
      <use x="116.878906" xlink:href="#DejaVuSans-115"/>
      <use x="168.978516" xlink:href="#DejaVuSans-115"/>
     </g>
    </g>
   </g>
   <g id="line2d_56">
    <path clip-path="url(#p5e53fe2b9a)" d="M 73.832727 53.568 
L 74.157707 66.770632 
L 74.482686 63.230482 
L 74.807666 65.565236 
L 75.132645 85.046969 
L 75.457625 64.037316 
L 76.107584 69.302744 
L 76.432563 63.205701 
L 76.757543 90.35394 
L 77.082523 63.357478 
L 77.407502 80.049841 
L 77.732482 67.049993 
L 78.057461 65.185778 
L 78.382441 65.792098 
L 78.70742 82.561105 
L 79.0324 80.456144 
L 79.357379 80.062019 
L 79.682359 75.357299 
L 80.007338 79.515227 
L 80.332318 86.033376 
L 80.657297 88.978826 
L 80.982277 107.347716 
L 81.307256 82.76482 
L 81.632236 88.143541 
L 81.957215 83.499992 
L 82.282195 72.178219 
L 82.607174 84.408532 
L 82.932154 84.252943 
L 83.257133 88.909749 
L 83.907093 83.361753 
L 84.232072 81.879217 
L 84.557052 80.973461 
L 84.882031 99.800542 
L 85.207011 90.294255 
L 85.53199 111.075415 
L 85.85697 112.93763 
L 86.181949 74.82349 
L 86.506929 116.138762 
L 86.831908 100.822504 
L 87.156888 105.687827 
L 87.481867 93.204564 
L 87.806847 126.838745 
L 88.131826 114.27395 
L 88.456806 106.118437 
L 88.781785 106.631216 
L 89.106765 86.800402 
L 89.756724 113.738327 
L 90.081704 109.361692 
L 90.406683 109.071504 
L 90.731663 103.487766 
L 91.056642 87.633624 
L 91.381622 93.477162 
L 91.706601 115.814259 
L 92.031581 110.889805 
L 92.35656 114.782877 
L 92.68154 104.761609 
L 93.006519 104.945082 
L 93.331499 130.428161 
L 93.656478 117.726355 
L 93.981458 127.184938 
L 94.306437 124.221771 
L 94.631417 120.013448 
L 94.956396 120.057881 
L 95.281376 109.958592 
L 95.606355 135.174623 
L 95.931335 133.06113 
L 96.256314 120.392359 
L 96.581294 119.200645 
L 96.906274 124.924741 
L 97.231253 111.723492 
L 97.556233 123.775977 
L 97.881212 128.573214 
L 98.206192 138.434812 
L 98.531171 140.328758 
L 98.856151 130.261313 
L 99.18113 152.548934 
L 99.50611 129.372741 
L 99.831089 128.272537 
L 100.156069 145.814139 
L 100.806028 131.027316 
L 101.131007 146.935382 
L 101.455987 140.87643 
L 101.780966 138.147407 
L 102.430925 144.64751 
L 102.755905 184.439407 
L 103.080885 137.659511 
L 103.405864 156.601624 
L 103.730844 142.449784 
L 104.055823 133.528169 
L 104.380803 135.332003 
L 104.705782 149.485684 
L 105.030762 143.157879 
L 105.355741 148.508713 
L 105.680721 172.813138 
L 106.0057 160.983124 
L 106.33068 157.003636 
L 106.655659 151.278594 
L 106.980639 164.465041 
L 107.305618 163.457214 
L 107.630598 145.209472 
L 107.955577 158.776125 
L 108.280557 167.098509 
L 108.930516 153.124451 
L 109.255495 169.738291 
L 109.580475 168.967398 
L 110.230434 188.009842 
L 110.555414 164.044587 
L 110.880393 171.038121 
L 111.205373 171.436667 
L 111.530352 168.474324 
L 111.855332 168.866924 
L 112.180311 166.067641 
L 112.505291 164.895012 
L 112.83027 181.722726 
L 113.15525 161.397693 
L 113.480229 179.681396 
L 113.805209 171.33152 
L 114.130188 167.572812 
L 114.455168 184.227942 
L 114.780147 165.107531 
L 115.105127 180.715335 
L 115.430106 181.971722 
L 116.080066 202.756778 
L 116.405045 217.660209 
L 116.730025 169.6494 
L 117.055004 202.914647 
L 117.379984 206.707477 
L 117.704963 179.296121 
L 118.029943 187.568235 
L 118.354922 186.25816 
L 118.679902 189.157676 
L 119.004881 226.78035 
L 119.329861 187.671882 
L 119.65484 182.872094 
L 119.97982 186.202187 
L 120.304799 191.924912 
L 120.629779 189.979541 
L 120.954758 206.469509 
L 121.279738 214.428294 
L 121.604717 191.139149 
L 121.929697 204.610182 
L 122.254676 211.849648 
L 122.579656 189.511714 
L 122.904636 216.297874 
L 123.229615 213.272812 
L 123.554595 213.136124 
L 124.204554 188.467042 
L 124.529533 193.437204 
L 124.854513 202.561568 
L 125.179492 202.597836 
L 125.504472 194.492767 
L 125.829451 197.310496 
L 126.154431 193.224831 
L 126.47941 215.009449 
L 126.80439 198.842907 
L 127.454349 209.575566 
L 127.779328 196.20644 
L 128.104308 214.436545 
L 128.429287 206.007368 
L 128.754267 224.967424 
L 129.079247 230.361289 
L 129.404226 197.935628 
L 129.729206 193.453409 
L 130.054185 219.959774 
L 130.379165 220.962583 
L 130.704144 197.949358 
L 131.029124 201.743445 
L 131.354103 234.546369 
L 131.679083 209.86537 
L 132.329042 257.768005 
L 132.654021 208.885667 
L 132.979001 208.943578 
L 133.30398 211.202371 
L 133.62896 207.864572 
L 133.953939 230.234581 
L 134.278919 212.859614 
L 134.603898 231.581641 
L 134.928878 227.901592 
L 135.253857 206.566879 
L 135.578837 211.000425 
L 135.903817 207.609674 
L 136.228796 221.389332 
L 136.553776 202.18258 
L 137.203735 222.457443 
L 137.528714 210.237806 
L 137.853694 224.366461 
L 138.178673 229.282586 
L 138.503653 214.540864 
L 138.828632 217.829032 
L 139.153612 229.755922 
L 139.478591 196.305748 
L 139.803571 242.763799 
L 140.12855 235.540729 
L 140.45353 235.73115 
L 140.778509 231.420483 
L 141.103489 203.629453 
L 141.428468 240.155099 
L 141.753448 223.596713 
L 142.078428 218.121234 
L 142.403407 235.837735 
L 142.728387 208.445147 
L 143.053366 228.818997 
L 143.378346 238.141831 
L 143.703325 202.231991 
L 144.028305 211.056141 
L 144.353284 215.406427 
L 144.678264 210.86182 
L 145.003243 230.614877 
L 145.328223 223.115939 
L 145.653202 207.585708 
L 145.978182 211.280135 
L 146.303161 221.557749 
L 146.628141 244.821835 
L 146.95312 222.936869 
L 147.2781 208.762701 
L 147.603079 217.45968 
L 147.928059 214.996504 
L 148.253038 231.477144 
L 148.578018 225.151483 
L 148.902998 226.354866 
L 149.227977 232.328065 
L 149.552957 232.338785 
L 149.877936 223.933722 
L 150.202916 241.963583 
L 150.527895 233.795784 
L 150.852875 199.68223 
L 151.177854 210.397345 
L 151.502834 217.100419 
L 152.152793 244.650905 
L 152.477772 237.733734 
L 152.802752 235.433147 
L 153.127731 225.544879 
L 153.452711 270.5185 
L 153.77769 206.69541 
L 154.10267 238.228548 
L 154.427649 224.090603 
L 154.752629 217.349698 
L 155.077609 215.175091 
L 155.727568 227.208298 
L 156.052547 214.157705 
L 156.377527 239.249963 
L 156.702506 226.110645 
L 157.027486 223.93217 
L 157.352465 230.292112 
L 157.677445 227.875932 
L 158.002424 200.159746 
L 158.327404 209.914913 
L 158.652383 204.178063 
L 158.977363 210.353644 
L 159.302342 234.117814 
L 159.952301 208.725382 
L 160.277281 214.173423 
L 160.60226 228.981159 
L 160.92724 229.601581 
L 161.252219 221.282931 
L 161.577199 236.186091 
L 161.902179 206.48729 
L 162.227158 218.684715 
L 162.552138 218.313907 
L 162.877117 231.600314 
L 163.202097 228.470417 
L 163.527076 241.572961 
L 163.852056 213.461636 
L 164.177035 198.825149 
L 164.502015 247.375522 
L 164.826994 223.232446 
L 165.151974 235.944286 
L 165.476953 215.534331 
L 165.801933 217.465585 
L 166.126912 233.845797 
L 166.451892 212.72818 
L 166.776871 225.964141 
L 167.101851 227.701115 
L 167.42683 245.402297 
L 167.75181 201.473739 
L 168.07679 234.450257 
L 168.401769 224.346205 
L 168.726749 247.963766 
L 169.376708 208.382443 
L 169.701687 202.770591 
L 170.026667 228.468024 
L 170.351646 225.348952 
L 170.676626 242.429938 
L 171.001605 229.335718 
L 171.326585 244.389708 
L 171.651564 217.508079 
L 171.976544 215.093258 
L 172.301523 237.421541 
L 172.626503 226.749955 
L 173.276462 230.065047 
L 173.601441 220.363127 
L 173.926421 222.77069 
L 174.2514 212.355547 
L 174.57638 277.825511 
L 174.90136 228.117342 
L 175.226339 219.462146 
L 175.551319 244.301499 
L 175.876298 218.505386 
L 176.201278 217.438547 
L 176.526257 204.110699 
L 176.851237 222.667478 
L 177.176216 219.401404 
L 177.501196 203.895574 
L 177.826175 246.107208 
L 178.151155 221.424265 
L 178.476134 227.081637 
L 178.801114 242.979798 
L 179.126093 287.762085 
L 179.451073 205.257612 
L 179.776052 237.167071 
L 180.101032 204.982851 
L 180.426011 225.285167 
L 181.075971 203.146558 
L 181.40095 222.796383 
L 181.72593 233.023442 
L 182.050909 233.543755 
L 182.375889 228.830868 
L 182.700868 218.98432 
L 183.025848 225.536796 
L 183.350827 237.100826 
L 183.675807 212.756402 
L 184.000786 214.514129 
L 184.325766 227.013175 
L 184.650745 207.966148 
L 184.975725 228.600302 
L 185.300704 204.806344 
L 185.625684 237.33511 
L 185.950663 221.825508 
L 186.275643 225.766418 
L 186.600622 247.61123 
L 186.925602 221.090716 
L 187.250581 238.50977 
L 187.575561 228.097004 
L 187.900541 247.823165 
L 188.22552 220.944679 
L 188.5505 253.074593 
L 189.525438 209.756638 
L 189.850418 230.776408 
L 190.175397 243.0134 
L 190.500377 208.420227 
L 190.825356 207.759573 
L 191.150336 220.794537 
L 191.475315 245.471548 
L 191.800295 224.055225 
L 192.125274 236.926085 
L 192.450254 200.332724 
L 192.775233 220.753809 
L 193.100213 211.313898 
L 193.750172 239.400775 
L 194.075152 246.874819 
L 194.400131 209.241199 
L 194.725111 248.624962 
L 195.05009 233.91214 
L 195.37507 211.552475 
L 195.700049 233.546722 
L 196.025029 214.814928 
L 196.350008 219.738617 
L 196.674988 212.226654 
L 196.999967 225.761736 
L 197.324947 211.375387 
L 197.649926 234.8618 
L 197.974906 242.953653 
L 198.299885 215.627547 
L 198.624865 199.550022 
L 199.274824 233.828277 
L 199.599803 250.315923 
L 199.924783 209.905 
L 200.249762 204.940378 
L 200.574742 234.616192 
L 200.899722 230.92804 
L 201.224701 211.200969 
L 201.549681 201.328145 
L 202.524619 248.641201 
L 202.849599 246.686426 
L 203.174578 216.38456 
L 203.499558 230.896373 
L 203.824537 197.856488 
L 204.149517 196.363099 
L 204.474496 202.340938 
L 204.799476 223.88628 
L 205.124455 227.438488 
L 205.449435 237.155292 
L 205.774414 232.261819 
L 206.099394 249.489868 
L 206.424373 219.345947 
L 206.749353 236.400948 
L 207.074333 235.373526 
L 207.399312 235.277949 
L 207.724292 213.743189 
L 208.049271 230.725065 
L 208.374251 223.748619 
L 208.69923 210.548837 
L 209.02421 220.265985 
L 209.349189 221.856121 
L 209.674169 217.974395 
L 209.999148 240.578211 
L 210.324128 193.918995 
L 210.649107 192.836186 
L 210.974087 233.086565 
L 211.299066 226.672951 
L 211.624046 227.139312 
L 211.949025 214.806732 
L 212.274005 239.689708 
L 212.598984 242.794852 
L 212.923964 214.877995 
L 213.248943 241.095837 
L 213.573923 219.401475 
L 213.898903 212.855075 
L 214.223882 231.876342 
L 214.548862 222.998017 
L 214.873841 238.699776 
L 215.198821 236.877876 
L 215.84878 210.890544 
L 216.173759 201.748689 
L 216.498739 225.989763 
L 216.823718 220.69003 
L 217.148698 230.289947 
L 217.473677 228.121511 
L 217.798657 213.731035 
L 218.123636 232.049484 
L 218.448616 201.730902 
L 218.773595 205.832749 
L 219.098575 199.786672 
L 219.423554 239.70451 
L 219.748534 233.818043 
L 220.073514 234.128513 
L 220.398493 256.323085 
L 220.723473 202.081978 
L 221.048452 208.226643 
L 221.373432 224.601604 
L 221.698411 218.85668 
L 222.023391 223.932926 
L 222.34837 237.175697 
L 222.67335 235.065158 
L 222.998329 258.393197 
L 223.648288 190.97986 
L 223.973268 206.696574 
L 224.298247 203.533747 
L 224.623227 204.356957 
L 225.273186 236.881506 
L 225.598165 241.100053 
L 225.923145 239.194918 
L 226.248124 224.95195 
L 226.573104 237.500079 
L 226.898084 230.888732 
L 227.223063 217.893672 
L 227.548043 261.680603 
L 227.873022 232.657073 
L 228.198002 217.235494 
L 228.847961 257.58432 
L 229.49792 221.194723 
L 229.822899 228.808724 
L 230.147879 204.14127 
L 230.472858 221.938093 
L 230.797838 208.423559 
L 231.122817 229.280209 
L 231.447797 228.736028 
L 231.772776 202.516854 
L 232.097756 219.305679 
L 232.422735 216.541348 
L 232.747715 225.366062 
L 233.072695 201.675876 
L 233.397674 198.953887 
L 233.722654 269.069238 
L 234.047633 237.393039 
L 234.372613 229.290734 
L 234.697592 265.218917 
L 235.022572 233.282123 
L 235.347551 254.563528 
L 235.672531 225.024032 
L 236.32249 213.981501 
L 236.647469 200.790801 
L 236.972449 213.643826 
L 237.297428 201.559688 
L 237.622408 223.767463 
L 237.947387 229.433601 
L 238.272367 211.113464 
L 238.597346 226.32754 
L 238.922326 215.651903 
L 239.247305 212.206653 
L 239.572285 195.880346 
L 239.897265 222.043456 
L 240.222244 233.085419 
L 240.547224 237.811181 
L 240.872203 224.329383 
L 241.197183 215.536517 
L 241.522162 258.727713 
L 241.847142 235.557635 
L 242.172121 237.494349 
L 242.497101 224.150837 
L 242.82208 205.736705 
L 243.14706 230.651665 
L 243.472039 236.710602 
L 243.797019 232.167739 
L 244.121998 219.608002 
L 244.446978 251.040133 
L 244.771957 219.055667 
L 245.096937 224.363108 
L 245.421916 215.899406 
L 245.746896 245.350303 
L 246.071876 210.230534 
L 246.396855 206.716937 
L 246.721835 230.129937 
L 247.046814 212.501361 
L 247.371794 237.371628 
L 247.696773 224.470499 
L 248.346732 239.973963 
L 248.671712 252.089183 
L 248.996691 215.194102 
L 249.321671 222.865107 
L 249.64665 222.44638 
L 249.97163 226.546022 
L 250.296609 222.399535 
L 250.621589 240.09069 
L 250.946568 217.369231 
L 251.271548 207.211091 
L 251.596527 246.819044 
L 251.921507 232.747894 
L 252.246486 232.585335 
L 252.571466 220.415805 
L 252.896446 216.237806 
L 253.221425 213.699011 
L 253.546405 194.371577 
L 254.196364 224.836499 
L 254.521343 228.380581 
L 254.846323 220.691213 
L 255.171302 248.255938 
L 255.496282 252.903271 
L 256.146241 226.813441 
L 256.47122 251.819652 
L 256.7962 206.74214 
L 257.121179 214.187606 
L 257.771138 262.983708 
L 258.096118 221.203636 
L 258.421097 238.640758 
L 258.746077 240.993312 
L 259.071057 212.704355 
L 259.396036 239.895724 
L 259.721016 225.490841 
L 260.045995 231.747912 
L 260.370975 199.996492 
L 260.695954 222.332453 
L 261.020934 214.719567 
L 261.345913 222.405044 
L 261.670893 225.45275 
L 261.995872 221.158626 
L 262.320852 245.449677 
L 262.645831 252.028828 
L 262.970811 234.830259 
L 263.29579 204.92466 
L 263.62077 222.868117 
L 263.945749 217.962433 
L 264.270729 220.62664 
L 264.595708 228.877541 
L 264.920688 233.397098 
L 265.245667 248.055597 
L 265.895627 214.743389 
L 266.220606 208.012414 
L 266.545586 206.525924 
L 266.870565 213.865157 
L 267.195545 256.237162 
L 267.520524 227.416584 
L 267.845504 226.631583 
L 268.170483 233.632965 
L 268.495463 231.656229 
L 268.820442 233.841005 
L 269.145422 238.017271 
L 269.795381 204.614216 
L 270.12036 230.390815 
L 270.44534 208.798586 
L 270.770319 215.760494 
L 271.420278 241.549799 
L 271.745258 233.069767 
L 272.070238 229.966234 
L 272.395217 217.514275 
L 272.720197 234.94693 
L 273.045176 230.003318 
L 273.370156 198.829338 
L 274.020115 216.607921 
L 274.345094 235.714924 
L 274.670074 222.292509 
L 274.995053 225.385416 
L 275.320033 262.996287 
L 276.294971 222.393399 
L 276.619951 235.921311 
L 276.94493 226.923402 
L 277.26991 211.527103 
L 277.594889 231.607859 
L 277.919869 217.922939 
L 278.244848 218.571566 
L 278.569828 215.845427 
L 278.894808 255.554687 
L 279.219787 222.595914 
L 279.544767 227.96282 
L 279.869746 226.815795 
L 280.194726 242.049005 
L 280.519705 200.15917 
L 280.844685 241.329912 
L 281.169664 240.135825 
L 281.494644 204.934221 
L 281.819623 227.576395 
L 282.144603 235.284769 
L 282.469582 218.698471 
L 282.794562 245.645422 
L 283.119541 215.312151 
L 283.444521 269.426463 
L 283.7695 248.758542 
L 284.09448 209.675388 
L 284.744439 243.528568 
L 285.069419 204.641463 
L 285.394398 211.103667 
L 285.719378 233.979836 
L 286.044357 229.871197 
L 286.369337 233.019542 
L 286.694316 220.95375 
L 287.019296 239.901245 
L 287.344275 209.126935 
L 287.669255 212.512357 
L 288.319214 252.729592 
L 288.644193 217.027563 
L 288.969173 270.240424 
L 289.294152 240.613664 
L 289.619132 239.99063 
L 289.944111 207.448578 
L 290.269091 247.697079 
L 290.59407 255.690683 
L 290.91905 243.075904 
L 291.244029 240.133359 
L 291.569009 226.244727 
L 291.893989 227.037081 
L 292.218968 196.779347 
L 292.543948 231.232966 
L 292.868927 232.907815 
L 293.193907 220.107082 
L 293.518886 220.514922 
L 293.843866 215.396103 
L 294.168845 231.851013 
L 294.493825 201.026144 
L 294.818804 235.871349 
L 295.143784 232.511061 
L 295.468763 232.216179 
L 296.118722 203.009758 
L 296.443702 206.71534 
L 296.768681 234.97562 
L 297.093661 238.03691 
L 297.41864 244.628774 
L 297.74362 239.608867 
L 298.0686 240.522839 
L 298.718559 209.670375 
L 299.043538 242.313791 
L 299.368518 210.439799 
L 299.693497 228.579834 
L 300.018477 213.780144 
L 300.343456 236.614763 
L 300.668436 217.576307 
L 300.993415 211.107349 
L 301.318395 279.948088 
L 301.643374 234.328501 
L 301.968354 213.402504 
L 302.293333 233.942049 
L 302.618313 228.354369 
L 302.943292 216.039353 
L 303.268272 208.363678 
L 303.593251 228.686139 
L 303.918231 217.215043 
L 304.24321 215.011411 
L 304.56819 295.488 
L 304.89317 239.941262 
L 305.218149 213.430982 
L 305.543129 207.530664 
L 305.868108 211.280302 
L 306.193088 221.154115 
L 306.518067 279.064078 
L 306.843047 198.785758 
L 307.168026 215.753017 
L 307.493006 244.786768 
L 307.817985 248.413366 
L 308.142965 239.24512 
L 308.467944 267.431515 
L 308.792924 221.107418 
L 309.117903 210.821882 
L 309.442883 206.484237 
L 309.767862 258.068562 
L 310.092842 218.891216 
L 310.417821 235.856865 
L 310.742801 208.32409 
L 311.067781 247.201481 
L 311.71774 207.060353 
L 312.042719 213.404142 
L 312.367699 230.570334 
L 312.692678 202.682673 
L 313.017658 214.474422 
L 313.342637 236.027876 
L 313.667617 218.621983 
L 313.992596 228.379232 
L 314.317576 204.170828 
L 314.642555 226.83428 
L 314.967535 198.157213 
L 315.617494 217.036909 
L 315.942473 211.010118 
L 316.267453 250.00927 
L 316.592432 225.691754 
L 316.917412 252.816135 
L 317.242391 222.017486 
L 317.567371 217.21135 
L 317.892351 234.774436 
L 318.21733 200.226952 
L 318.54231 243.603675 
L 319.192269 209.837623 
L 319.517248 225.167318 
L 319.842228 246.068298 
L 320.167207 230.468509 
L 320.492187 237.285903 
L 320.817166 222.845747 
L 321.142146 240.553985 
L 321.467125 250.055384 
L 321.792105 186.000406 
L 322.117084 202.621972 
L 322.442064 232.06455 
L 322.767043 223.98086 
L 323.092023 227.318693 
L 323.417002 214.433761 
L 323.741982 256.788111 
L 324.066962 223.885451 
L 324.391941 238.034787 
L 324.716921 237.608363 
L 325.0419 194.14704 
L 325.36688 234.969753 
L 325.691859 214.962581 
L 326.016839 214.046142 
L 326.341818 248.627783 
L 326.666798 242.268706 
L 326.991777 221.380261 
L 327.316757 214.899222 
L 327.641736 217.43248 
L 327.966716 280.119309 
L 328.291695 214.727965 
L 328.616675 218.798644 
L 328.941654 237.321578 
L 329.266634 231.68761 
L 329.591613 241.044424 
L 329.916593 223.841606 
L 330.241572 250.435399 
L 330.566552 216.77679 
L 331.216511 226.62002 
L 331.541491 225.51245 
L 331.86647 199.776988 
L 332.19145 236.612787 
L 332.841409 206.89016 
L 333.166388 234.336013 
L 333.491368 250.187001 
L 333.816347 218.717359 
L 334.466306 244.669611 
L 334.791286 205.825503 
L 335.441245 257.019926 
L 336.091204 233.032644 
L 336.741163 180.788838 
L 337.066143 206.757974 
L 337.391122 208.318691 
L 337.716102 230.604841 
L 338.041081 242.170976 
L 338.366061 224.043412 
L 338.69104 230.336236 
L 339.01602 234.108491 
L 339.340999 210.530883 
L 339.665979 234.014592 
L 339.990958 218.824215 
L 340.315938 220.337831 
L 340.640917 203.750551 
L 340.965897 208.990498 
L 341.290876 253.228211 
L 341.615856 232.963563 
L 341.940835 237.836165 
L 342.265815 207.444125 
L 342.590794 201.854652 
L 342.915774 225.227553 
L 343.240753 227.112179 
L 343.565733 223.766179 
L 343.890713 207.332309 
L 344.215692 229.485822 
L 344.540672 231.987908 
L 344.865651 235.634729 
L 345.190631 228.270954 
L 345.51561 217.442977 
L 345.84059 225.659089 
L 346.165569 246.046803 
L 346.815528 203.373245 
L 347.140508 245.314124 
L 347.465487 216.497092 
L 347.790467 215.664793 
L 348.115446 230.139778 
L 348.440426 224.166937 
L 348.765405 220.705179 
L 349.090385 228.360155 
L 349.415364 223.716757 
L 349.740344 195.740013 
L 350.065324 210.254496 
L 350.715283 224.833325 
L 351.040262 221.922565 
L 351.365242 246.198745 
L 351.690221 223.3211 
L 352.015201 213.312368 
L 352.34018 239.483758 
L 352.66516 235.932192 
L 352.990139 240.920938 
L 353.315119 233.89843 
L 353.640098 238.896454 
L 353.965078 227.384112 
L 354.290057 251.717827 
L 354.615037 216.900158 
L 354.940016 214.967657 
L 355.264996 219.059309 
L 355.589975 221.55934 
L 355.914955 211.905711 
L 356.239934 226.842942 
L 356.889894 232.683521 
L 357.214873 243.511058 
L 357.539853 222.187548 
L 357.864832 233.31858 
L 358.189812 254.143738 
L 358.514791 216.536925 
L 358.839771 231.431122 
L 359.16475 232.39375 
L 359.48973 220.814582 
L 359.814709 227.597691 
L 360.139689 212.676855 
L 360.464668 230.431637 
L 361.114627 215.352279 
L 361.439607 215.634958 
L 361.764586 211.579975 
L 362.089566 218.44031 
L 362.414545 259.830137 
L 362.739525 238.375467 
L 363.064505 203.922701 
L 363.389484 193.748642 
L 363.714464 190.933419 
L 364.039443 263.621058 
L 364.364423 243.285272 
L 364.689402 215.847895 
L 365.014382 228.717669 
L 365.339361 219.928096 
L 365.664341 230.852386 
L 365.98932 268.152348 
L 366.3143 221.704568 
L 366.639279 215.172224 
L 366.964259 260.833952 
L 367.289238 226.962243 
L 367.614218 240.974306 
L 367.939197 227.77216 
L 368.264177 204.340166 
L 368.914136 235.274494 
L 369.239115 219.978999 
L 369.564095 240.193145 
L 369.889075 246.463995 
L 370.214054 210.450067 
L 370.539034 254.757766 
L 370.864013 253.730547 
L 371.513972 194.420603 
L 371.838952 226.937252 
L 372.163931 212.548125 
L 372.488911 253.512942 
L 372.81389 249.979492 
L 373.463849 229.394323 
L 373.788829 207.703281 
L 374.113808 216.605673 
L 374.438788 246.310228 
L 374.763767 229.325749 
L 375.088747 227.579427 
L 375.413726 240.443857 
L 375.738706 240.545035 
L 376.063686 226.7706 
L 376.388665 223.275069 
L 376.713645 237.145143 
L 377.038624 205.71204 
L 377.363604 189.025508 
L 377.688583 219.432719 
L 378.013563 231.848461 
L 378.338542 203.95671 
L 378.663522 230.850497 
L 378.988501 225.934185 
L 379.313481 242.053103 
L 379.96344 211.5113 
L 380.288419 205.655038 
L 380.613399 193.383434 
L 380.938378 233.394145 
L 381.263358 232.259858 
L 381.588337 225.29385 
L 381.913317 231.352713 
L 382.238296 230.280163 
L 382.563276 221.293093 
L 382.888256 186.187895 
L 383.213235 183.635933 
L 383.538215 256.742872 
L 383.863194 228.52179 
L 384.188174 242.486376 
L 384.513153 220.928603 
L 384.838133 221.392032 
L 385.163112 223.392056 
L 385.488092 223.85659 
L 385.813071 212.573042 
L 386.138051 207.130662 
L 386.46303 231.694786 
L 387.437969 211.584224 
L 387.762948 210.152104 
L 388.087928 224.032785 
L 388.412907 270.108144 
L 388.737887 236.53601 
L 389.062867 247.351365 
L 389.387846 210.8812 
L 389.712826 240.267567 
L 390.037805 224.012169 
L 390.362785 255.321023 
L 390.687764 227.377384 
L 391.012744 250.837685 
L 391.337723 223.807698 
L 391.662703 243.130426 
L 391.987682 223.415312 
L 392.312662 238.486694 
L 392.637641 200.498533 
L 392.962621 208.109804 
L 393.2876 205.240432 
L 393.61258 196.238177 
L 393.937559 220.298487 
L 394.262539 217.121487 
L 394.587518 219.73356 
L 394.912498 219.727669 
L 395.237477 226.555627 
L 395.562457 208.201149 
L 395.887437 222.359044 
L 396.212416 206.108328 
L 396.537396 222.2863 
L 396.862375 228.074385 
L 397.187355 223.757952 
L 397.512334 229.300752 
L 397.837314 229.804178 
L 398.162293 235.340695 
L 398.487273 235.379114 
L 398.487273 235.379114 
" style="fill:none;stroke:#1f77b4;stroke-linecap:square;stroke-width:1.5;"/>
   </g>
   <g id="patch_3">
    <path d="M 57.6 307.584 
L 57.6 41.472 
" style="fill:none;stroke:#000000;stroke-linecap:square;stroke-linejoin:miter;stroke-width:0.8;"/>
   </g>
   <g id="patch_4">
    <path d="M 414.72 307.584 
L 414.72 41.472 
" style="fill:none;stroke:#000000;stroke-linecap:square;stroke-linejoin:miter;stroke-width:0.8;"/>
   </g>
   <g id="patch_5">
    <path d="M 57.6 307.584 
L 414.72 307.584 
" style="fill:none;stroke:#000000;stroke-linecap:square;stroke-linejoin:miter;stroke-width:0.8;"/>
   </g>
   <g id="patch_6">
    <path d="M 57.6 41.472 
L 414.72 41.472 
" style="fill:none;stroke:#000000;stroke-linecap:square;stroke-linejoin:miter;stroke-width:0.8;"/>
   </g>
  </g>
 </g>
 <defs>
  <clipPath id="p5e53fe2b9a">
   <rect height="266.112" width="357.12" x="57.6" y="41.472"/>
  </clipPath>
 </defs>
</svg>
