<?xml version="1.0" encoding="utf-8" standalone="no"?>
<!DOCTYPE svg PUBLIC "-//W3C//DTD SVG 1.1//EN"
  "http://www.w3.org/Graphics/SVG/1.1/DTD/svg11.dtd">
<!-- Created with matplotlib (https://matplotlib.org/) -->
<svg height="345.6pt" version="1.1" viewBox="0 0 460.8 345.6" width="460.8pt" xmlns="http://www.w3.org/2000/svg" xmlns:xlink="http://www.w3.org/1999/xlink">
 <defs>
  <style type="text/css">
*{stroke-linecap:butt;stroke-linejoin:round;}
  </style>
 </defs>
 <g id="figure_1">
  <g id="patch_1">
   <path d="M 0 345.6 
L 460.8 345.6 
L 460.8 0 
L 0 0 
z
" style="fill:#ffffff;"/>
  </g>
  <g id="axes_1">
   <g id="patch_2">
    <path d="M 57.6 307.584 
L 414.72 307.584 
L 414.72 41.472 
L 57.6 41.472 
z
" style="fill:#ffffff;"/>
   </g>
   <g id="matplotlib.axis_1">
    <g id="xtick_1">
     <g id="line2d_1">
      <path clip-path="url(#p574502f87e)" d="M 73.832727 307.584 
L 73.832727 41.472 
" style="fill:none;stroke:#b0b0b0;stroke-linecap:square;stroke-width:0.8;"/>
     </g>
     <g id="line2d_2">
      <defs>
       <path d="M 0 0 
L 0 3.5 
" id="m65b82fa816" style="stroke:#000000;stroke-width:0.8;"/>
      </defs>
      <g>
       <use style="stroke:#000000;stroke-width:0.8;" x="73.832727" xlink:href="#m65b82fa816" y="307.584"/>
      </g>
     </g>
     <g id="text_1">
      <!-- 0 -->
      <defs>
       <path d="M 31.78125 66.40625 
Q 24.171875 66.40625 20.328125 58.90625 
Q 16.5 51.421875 16.5 36.375 
Q 16.5 21.390625 20.328125 13.890625 
Q 24.171875 6.390625 31.78125 6.390625 
Q 39.453125 6.390625 43.28125 13.890625 
Q 47.125 21.390625 47.125 36.375 
Q 47.125 51.421875 43.28125 58.90625 
Q 39.453125 66.40625 31.78125 66.40625 
z
M 31.78125 74.21875 
Q 44.046875 74.21875 50.515625 64.515625 
Q 56.984375 54.828125 56.984375 36.375 
Q 56.984375 17.96875 50.515625 8.265625 
Q 44.046875 -1.421875 31.78125 -1.421875 
Q 19.53125 -1.421875 13.0625 8.265625 
Q 6.59375 17.96875 6.59375 36.375 
Q 6.59375 54.828125 13.0625 64.515625 
Q 19.53125 74.21875 31.78125 74.21875 
z
" id="DejaVuSans-48"/>
      </defs>
      <g transform="translate(70.651477 322.182437)scale(0.1 -0.1)">
       <use xlink:href="#DejaVuSans-48"/>
      </g>
     </g>
    </g>
    <g id="xtick_2">
     <g id="line2d_3">
      <path clip-path="url(#p574502f87e)" d="M 138.828632 307.584 
L 138.828632 41.472 
" style="fill:none;stroke:#b0b0b0;stroke-linecap:square;stroke-width:0.8;"/>
     </g>
     <g id="line2d_4">
      <g>
       <use style="stroke:#000000;stroke-width:0.8;" x="138.828632" xlink:href="#m65b82fa816" y="307.584"/>
      </g>
     </g>
     <g id="text_2">
      <!-- 200 -->
      <defs>
       <path d="M 19.1875 8.296875 
L 53.609375 8.296875 
L 53.609375 0 
L 7.328125 0 
L 7.328125 8.296875 
Q 12.9375 14.109375 22.625 23.890625 
Q 32.328125 33.6875 34.8125 36.53125 
Q 39.546875 41.84375 41.421875 45.53125 
Q 43.3125 49.21875 43.3125 52.78125 
Q 43.3125 58.59375 39.234375 62.25 
Q 35.15625 65.921875 28.609375 65.921875 
Q 23.96875 65.921875 18.8125 64.3125 
Q 13.671875 62.703125 7.8125 59.421875 
L 7.8125 69.390625 
Q 13.765625 71.78125 18.9375 73 
Q 24.125 74.21875 28.421875 74.21875 
Q 39.75 74.21875 46.484375 68.546875 
Q 53.21875 62.890625 53.21875 53.421875 
Q 53.21875 48.921875 51.53125 44.890625 
Q 49.859375 40.875 45.40625 35.40625 
Q 44.1875 33.984375 37.640625 27.21875 
Q 31.109375 20.453125 19.1875 8.296875 
z
" id="DejaVuSans-50"/>
      </defs>
      <g transform="translate(129.284882 322.182437)scale(0.1 -0.1)">
       <use xlink:href="#DejaVuSans-50"/>
       <use x="63.623047" xlink:href="#DejaVuSans-48"/>
       <use x="127.246094" xlink:href="#DejaVuSans-48"/>
      </g>
     </g>
    </g>
    <g id="xtick_3">
     <g id="line2d_5">
      <path clip-path="url(#p574502f87e)" d="M 203.824537 307.584 
L 203.824537 41.472 
" style="fill:none;stroke:#b0b0b0;stroke-linecap:square;stroke-width:0.8;"/>
     </g>
     <g id="line2d_6">
      <g>
       <use style="stroke:#000000;stroke-width:0.8;" x="203.824537" xlink:href="#m65b82fa816" y="307.584"/>
      </g>
     </g>
     <g id="text_3">
      <!-- 400 -->
      <defs>
       <path d="M 37.796875 64.3125 
L 12.890625 25.390625 
L 37.796875 25.390625 
z
M 35.203125 72.90625 
L 47.609375 72.90625 
L 47.609375 25.390625 
L 58.015625 25.390625 
L 58.015625 17.1875 
L 47.609375 17.1875 
L 47.609375 0 
L 37.796875 0 
L 37.796875 17.1875 
L 4.890625 17.1875 
L 4.890625 26.703125 
z
" id="DejaVuSans-52"/>
      </defs>
      <g transform="translate(194.280787 322.182437)scale(0.1 -0.1)">
       <use xlink:href="#DejaVuSans-52"/>
       <use x="63.623047" xlink:href="#DejaVuSans-48"/>
       <use x="127.246094" xlink:href="#DejaVuSans-48"/>
      </g>
     </g>
    </g>
    <g id="xtick_4">
     <g id="line2d_7">
      <path clip-path="url(#p574502f87e)" d="M 268.820442 307.584 
L 268.820442 41.472 
" style="fill:none;stroke:#b0b0b0;stroke-linecap:square;stroke-width:0.8;"/>
     </g>
     <g id="line2d_8">
      <g>
       <use style="stroke:#000000;stroke-width:0.8;" x="268.820442" xlink:href="#m65b82fa816" y="307.584"/>
      </g>
     </g>
     <g id="text_4">
      <!-- 600 -->
      <defs>
       <path d="M 33.015625 40.375 
Q 26.375 40.375 22.484375 35.828125 
Q 18.609375 31.296875 18.609375 23.390625 
Q 18.609375 15.53125 22.484375 10.953125 
Q 26.375 6.390625 33.015625 6.390625 
Q 39.65625 6.390625 43.53125 10.953125 
Q 47.40625 15.53125 47.40625 23.390625 
Q 47.40625 31.296875 43.53125 35.828125 
Q 39.65625 40.375 33.015625 40.375 
z
M 52.59375 71.296875 
L 52.59375 62.3125 
Q 48.875 64.0625 45.09375 64.984375 
Q 41.3125 65.921875 37.59375 65.921875 
Q 27.828125 65.921875 22.671875 59.328125 
Q 17.53125 52.734375 16.796875 39.40625 
Q 19.671875 43.65625 24.015625 45.921875 
Q 28.375 48.1875 33.59375 48.1875 
Q 44.578125 48.1875 50.953125 41.515625 
Q 57.328125 34.859375 57.328125 23.390625 
Q 57.328125 12.15625 50.6875 5.359375 
Q 44.046875 -1.421875 33.015625 -1.421875 
Q 20.359375 -1.421875 13.671875 8.265625 
Q 6.984375 17.96875 6.984375 36.375 
Q 6.984375 53.65625 15.1875 63.9375 
Q 23.390625 74.21875 37.203125 74.21875 
Q 40.921875 74.21875 44.703125 73.484375 
Q 48.484375 72.75 52.59375 71.296875 
z
" id="DejaVuSans-54"/>
      </defs>
      <g transform="translate(259.276692 322.182437)scale(0.1 -0.1)">
       <use xlink:href="#DejaVuSans-54"/>
       <use x="63.623047" xlink:href="#DejaVuSans-48"/>
       <use x="127.246094" xlink:href="#DejaVuSans-48"/>
      </g>
     </g>
    </g>
    <g id="xtick_5">
     <g id="line2d_9">
      <path clip-path="url(#p574502f87e)" d="M 333.816347 307.584 
L 333.816347 41.472 
" style="fill:none;stroke:#b0b0b0;stroke-linecap:square;stroke-width:0.8;"/>
     </g>
     <g id="line2d_10">
      <g>
       <use style="stroke:#000000;stroke-width:0.8;" x="333.816347" xlink:href="#m65b82fa816" y="307.584"/>
      </g>
     </g>
     <g id="text_5">
      <!-- 800 -->
      <defs>
       <path d="M 31.78125 34.625 
Q 24.75 34.625 20.71875 30.859375 
Q 16.703125 27.09375 16.703125 20.515625 
Q 16.703125 13.921875 20.71875 10.15625 
Q 24.75 6.390625 31.78125 6.390625 
Q 38.8125 6.390625 42.859375 10.171875 
Q 46.921875 13.96875 46.921875 20.515625 
Q 46.921875 27.09375 42.890625 30.859375 
Q 38.875 34.625 31.78125 34.625 
z
M 21.921875 38.8125 
Q 15.578125 40.375 12.03125 44.71875 
Q 8.5 49.078125 8.5 55.328125 
Q 8.5 64.0625 14.71875 69.140625 
Q 20.953125 74.21875 31.78125 74.21875 
Q 42.671875 74.21875 48.875 69.140625 
Q 55.078125 64.0625 55.078125 55.328125 
Q 55.078125 49.078125 51.53125 44.71875 
Q 48 40.375 41.703125 38.8125 
Q 48.828125 37.15625 52.796875 32.3125 
Q 56.78125 27.484375 56.78125 20.515625 
Q 56.78125 9.90625 50.3125 4.234375 
Q 43.84375 -1.421875 31.78125 -1.421875 
Q 19.734375 -1.421875 13.25 4.234375 
Q 6.78125 9.90625 6.78125 20.515625 
Q 6.78125 27.484375 10.78125 32.3125 
Q 14.796875 37.15625 21.921875 38.8125 
z
M 18.3125 54.390625 
Q 18.3125 48.734375 21.84375 45.5625 
Q 25.390625 42.390625 31.78125 42.390625 
Q 38.140625 42.390625 41.71875 45.5625 
Q 45.3125 48.734375 45.3125 54.390625 
Q 45.3125 60.0625 41.71875 63.234375 
Q 38.140625 66.40625 31.78125 66.40625 
Q 25.390625 66.40625 21.84375 63.234375 
Q 18.3125 60.0625 18.3125 54.390625 
z
" id="DejaVuSans-56"/>
      </defs>
      <g transform="translate(324.272597 322.182437)scale(0.1 -0.1)">
       <use xlink:href="#DejaVuSans-56"/>
       <use x="63.623047" xlink:href="#DejaVuSans-48"/>
       <use x="127.246094" xlink:href="#DejaVuSans-48"/>
      </g>
     </g>
    </g>
    <g id="xtick_6">
     <g id="line2d_11">
      <path clip-path="url(#p574502f87e)" d="M 398.812252 307.584 
L 398.812252 41.472 
" style="fill:none;stroke:#b0b0b0;stroke-linecap:square;stroke-width:0.8;"/>
     </g>
     <g id="line2d_12">
      <g>
       <use style="stroke:#000000;stroke-width:0.8;" x="398.812252" xlink:href="#m65b82fa816" y="307.584"/>
      </g>
     </g>
     <g id="text_6">
      <!-- 1000 -->
      <defs>
       <path d="M 12.40625 8.296875 
L 28.515625 8.296875 
L 28.515625 63.921875 
L 10.984375 60.40625 
L 10.984375 69.390625 
L 28.421875 72.90625 
L 38.28125 72.90625 
L 38.28125 8.296875 
L 54.390625 8.296875 
L 54.390625 0 
L 12.40625 0 
z
" id="DejaVuSans-49"/>
      </defs>
      <g transform="translate(386.087252 322.182437)scale(0.1 -0.1)">
       <use xlink:href="#DejaVuSans-49"/>
       <use x="63.623047" xlink:href="#DejaVuSans-48"/>
       <use x="127.246094" xlink:href="#DejaVuSans-48"/>
       <use x="190.869141" xlink:href="#DejaVuSans-48"/>
      </g>
     </g>
    </g>
    <g id="text_7">
     <!-- Iteration -->
     <defs>
      <path d="M 9.8125 72.90625 
L 19.671875 72.90625 
L 19.671875 0 
L 9.8125 0 
z
" id="DejaVuSans-73"/>
      <path d="M 18.3125 70.21875 
L 18.3125 54.6875 
L 36.8125 54.6875 
L 36.8125 47.703125 
L 18.3125 47.703125 
L 18.3125 18.015625 
Q 18.3125 11.328125 20.140625 9.421875 
Q 21.96875 7.515625 27.59375 7.515625 
L 36.8125 7.515625 
L 36.8125 0 
L 27.59375 0 
Q 17.1875 0 13.234375 3.875 
Q 9.28125 7.765625 9.28125 18.015625 
L 9.28125 47.703125 
L 2.6875 47.703125 
L 2.6875 54.6875 
L 9.28125 54.6875 
L 9.28125 70.21875 
z
" id="DejaVuSans-116"/>
      <path d="M 56.203125 29.59375 
L 56.203125 25.203125 
L 14.890625 25.203125 
Q 15.484375 15.921875 20.484375 11.0625 
Q 25.484375 6.203125 34.421875 6.203125 
Q 39.59375 6.203125 44.453125 7.46875 
Q 49.3125 8.734375 54.109375 11.28125 
L 54.109375 2.78125 
Q 49.265625 0.734375 44.1875 -0.34375 
Q 39.109375 -1.421875 33.890625 -1.421875 
Q 20.796875 -1.421875 13.15625 6.1875 
Q 5.515625 13.8125 5.515625 26.8125 
Q 5.515625 40.234375 12.765625 48.109375 
Q 20.015625 56 32.328125 56 
Q 43.359375 56 49.78125 48.890625 
Q 56.203125 41.796875 56.203125 29.59375 
z
M 47.21875 32.234375 
Q 47.125 39.59375 43.09375 43.984375 
Q 39.0625 48.390625 32.421875 48.390625 
Q 24.90625 48.390625 20.390625 44.140625 
Q 15.875 39.890625 15.1875 32.171875 
z
" id="DejaVuSans-101"/>
      <path d="M 41.109375 46.296875 
Q 39.59375 47.171875 37.8125 47.578125 
Q 36.03125 48 33.890625 48 
Q 26.265625 48 22.1875 43.046875 
Q 18.109375 38.09375 18.109375 28.8125 
L 18.109375 0 
L 9.078125 0 
L 9.078125 54.6875 
L 18.109375 54.6875 
L 18.109375 46.1875 
Q 20.953125 51.171875 25.484375 53.578125 
Q 30.03125 56 36.53125 56 
Q 37.453125 56 38.578125 55.875 
Q 39.703125 55.765625 41.0625 55.515625 
z
" id="DejaVuSans-114"/>
      <path d="M 34.28125 27.484375 
Q 23.390625 27.484375 19.1875 25 
Q 14.984375 22.515625 14.984375 16.5 
Q 14.984375 11.71875 18.140625 8.90625 
Q 21.296875 6.109375 26.703125 6.109375 
Q 34.1875 6.109375 38.703125 11.40625 
Q 43.21875 16.703125 43.21875 25.484375 
L 43.21875 27.484375 
z
M 52.203125 31.203125 
L 52.203125 0 
L 43.21875 0 
L 43.21875 8.296875 
Q 40.140625 3.328125 35.546875 0.953125 
Q 30.953125 -1.421875 24.3125 -1.421875 
Q 15.921875 -1.421875 10.953125 3.296875 
Q 6 8.015625 6 15.921875 
Q 6 25.140625 12.171875 29.828125 
Q 18.359375 34.515625 30.609375 34.515625 
L 43.21875 34.515625 
L 43.21875 35.40625 
Q 43.21875 41.609375 39.140625 45 
Q 35.0625 48.390625 27.6875 48.390625 
Q 23 48.390625 18.546875 47.265625 
Q 14.109375 46.140625 10.015625 43.890625 
L 10.015625 52.203125 
Q 14.9375 54.109375 19.578125 55.046875 
Q 24.21875 56 28.609375 56 
Q 40.484375 56 46.34375 49.84375 
Q 52.203125 43.703125 52.203125 31.203125 
z
" id="DejaVuSans-97"/>
      <path d="M 9.421875 54.6875 
L 18.40625 54.6875 
L 18.40625 0 
L 9.421875 0 
z
M 9.421875 75.984375 
L 18.40625 75.984375 
L 18.40625 64.59375 
L 9.421875 64.59375 
z
" id="DejaVuSans-105"/>
      <path d="M 30.609375 48.390625 
Q 23.390625 48.390625 19.1875 42.75 
Q 14.984375 37.109375 14.984375 27.296875 
Q 14.984375 17.484375 19.15625 11.84375 
Q 23.34375 6.203125 30.609375 6.203125 
Q 37.796875 6.203125 41.984375 11.859375 
Q 46.1875 17.53125 46.1875 27.296875 
Q 46.1875 37.015625 41.984375 42.703125 
Q 37.796875 48.390625 30.609375 48.390625 
z
M 30.609375 56 
Q 42.328125 56 49.015625 48.375 
Q 55.71875 40.765625 55.71875 27.296875 
Q 55.71875 13.875 49.015625 6.21875 
Q 42.328125 -1.421875 30.609375 -1.421875 
Q 18.84375 -1.421875 12.171875 6.21875 
Q 5.515625 13.875 5.515625 27.296875 
Q 5.515625 40.765625 12.171875 48.375 
Q 18.84375 56 30.609375 56 
z
" id="DejaVuSans-111"/>
      <path d="M 54.890625 33.015625 
L 54.890625 0 
L 45.90625 0 
L 45.90625 32.71875 
Q 45.90625 40.484375 42.875 44.328125 
Q 39.84375 48.1875 33.796875 48.1875 
Q 26.515625 48.1875 22.3125 43.546875 
Q 18.109375 38.921875 18.109375 30.90625 
L 18.109375 0 
L 9.078125 0 
L 9.078125 54.6875 
L 18.109375 54.6875 
L 18.109375 46.1875 
Q 21.34375 51.125 25.703125 53.5625 
Q 30.078125 56 35.796875 56 
Q 45.21875 56 50.046875 50.171875 
Q 54.890625 44.34375 54.890625 33.015625 
z
" id="DejaVuSans-110"/>
     </defs>
     <g transform="translate(214.951406 335.860562)scale(0.1 -0.1)">
      <use xlink:href="#DejaVuSans-73"/>
      <use x="29.492188" xlink:href="#DejaVuSans-116"/>
      <use x="68.701172" xlink:href="#DejaVuSans-101"/>
      <use x="130.224609" xlink:href="#DejaVuSans-114"/>
      <use x="171.337891" xlink:href="#DejaVuSans-97"/>
      <use x="232.617188" xlink:href="#DejaVuSans-116"/>
      <use x="271.826172" xlink:href="#DejaVuSans-105"/>
      <use x="299.609375" xlink:href="#DejaVuSans-111"/>
      <use x="360.791016" xlink:href="#DejaVuSans-110"/>
     </g>
    </g>
   </g>
   <g id="matplotlib.axis_2">
    <g id="ytick_1">
     <g id="line2d_13">
      <path clip-path="url(#p574502f87e)" d="M 57.6 248.947132 
L 414.72 248.947132 
" style="fill:none;stroke:#b0b0b0;stroke-linecap:square;stroke-width:0.8;"/>
     </g>
     <g id="line2d_14">
      <defs>
       <path d="M 0 0 
L -3.5 0 
" id="mb5e851fdd0" style="stroke:#000000;stroke-width:0.8;"/>
      </defs>
      <g>
       <use style="stroke:#000000;stroke-width:0.8;" x="57.6" xlink:href="#mb5e851fdd0" y="248.947132"/>
      </g>
     </g>
     <g id="text_8">
      <!-- $\mathdefault{10^{-3}}$ -->
      <defs>
       <path d="M 10.59375 35.5 
L 73.1875 35.5 
L 73.1875 27.203125 
L 10.59375 27.203125 
z
" id="DejaVuSans-8722"/>
       <path d="M 40.578125 39.3125 
Q 47.65625 37.796875 51.625 33 
Q 55.609375 28.21875 55.609375 21.1875 
Q 55.609375 10.40625 48.1875 4.484375 
Q 40.765625 -1.421875 27.09375 -1.421875 
Q 22.515625 -1.421875 17.65625 -0.515625 
Q 12.796875 0.390625 7.625 2.203125 
L 7.625 11.71875 
Q 11.71875 9.328125 16.59375 8.109375 
Q 21.484375 6.890625 26.8125 6.890625 
Q 36.078125 6.890625 40.9375 10.546875 
Q 45.796875 14.203125 45.796875 21.1875 
Q 45.796875 27.640625 41.28125 31.265625 
Q 36.765625 34.90625 28.71875 34.90625 
L 20.21875 34.90625 
L 20.21875 43.015625 
L 29.109375 43.015625 
Q 36.375 43.015625 40.234375 45.921875 
Q 44.09375 48.828125 44.09375 54.296875 
Q 44.09375 59.90625 40.109375 62.90625 
Q 36.140625 65.921875 28.71875 65.921875 
Q 24.65625 65.921875 20.015625 65.03125 
Q 15.375 64.15625 9.8125 62.3125 
L 9.8125 71.09375 
Q 15.4375 72.65625 20.34375 73.4375 
Q 25.25 74.21875 29.59375 74.21875 
Q 40.828125 74.21875 47.359375 69.109375 
Q 53.90625 64.015625 53.90625 55.328125 
Q 53.90625 49.265625 50.4375 45.09375 
Q 46.96875 40.921875 40.578125 39.3125 
z
" id="DejaVuSans-51"/>
      </defs>
      <g transform="translate(27.1 252.746351)scale(0.1 -0.1)">
       <use transform="translate(0 0.765625)" xlink:href="#DejaVuSans-49"/>
       <use transform="translate(63.623047 0.765625)" xlink:href="#DejaVuSans-48"/>
       <use transform="translate(128.203125 39.046875)scale(0.7)" xlink:href="#DejaVuSans-8722"/>
       <use transform="translate(186.855469 39.046875)scale(0.7)" xlink:href="#DejaVuSans-51"/>
      </g>
     </g>
    </g>
    <g id="ytick_2">
     <g id="line2d_15">
      <path clip-path="url(#p574502f87e)" d="M 57.6 183.204095 
L 414.72 183.204095 
" style="fill:none;stroke:#b0b0b0;stroke-linecap:square;stroke-width:0.8;"/>
     </g>
     <g id="line2d_16">
      <g>
       <use style="stroke:#000000;stroke-width:0.8;" x="57.6" xlink:href="#mb5e851fdd0" y="183.204095"/>
      </g>
     </g>
     <g id="text_9">
      <!-- $\mathdefault{10^{-2}}$ -->
      <g transform="translate(27.1 187.003314)scale(0.1 -0.1)">
       <use transform="translate(0 0.765625)" xlink:href="#DejaVuSans-49"/>
       <use transform="translate(63.623047 0.765625)" xlink:href="#DejaVuSans-48"/>
       <use transform="translate(128.203125 39.046875)scale(0.7)" xlink:href="#DejaVuSans-8722"/>
       <use transform="translate(186.855469 39.046875)scale(0.7)" xlink:href="#DejaVuSans-50"/>
      </g>
     </g>
    </g>
    <g id="ytick_3">
     <g id="line2d_17">
      <path clip-path="url(#p574502f87e)" d="M 57.6 117.461058 
L 414.72 117.461058 
" style="fill:none;stroke:#b0b0b0;stroke-linecap:square;stroke-width:0.8;"/>
     </g>
     <g id="line2d_18">
      <g>
       <use style="stroke:#000000;stroke-width:0.8;" x="57.6" xlink:href="#mb5e851fdd0" y="117.461058"/>
      </g>
     </g>
     <g id="text_10">
      <!-- $\mathdefault{10^{-1}}$ -->
      <g transform="translate(27.1 121.260277)scale(0.1 -0.1)">
       <use transform="translate(0 0.684375)" xlink:href="#DejaVuSans-49"/>
       <use transform="translate(63.623047 0.684375)" xlink:href="#DejaVuSans-48"/>
       <use transform="translate(128.203125 38.965625)scale(0.7)" xlink:href="#DejaVuSans-8722"/>
       <use transform="translate(186.855469 38.965625)scale(0.7)" xlink:href="#DejaVuSans-49"/>
      </g>
     </g>
    </g>
    <g id="ytick_4">
     <g id="line2d_19">
      <path clip-path="url(#p574502f87e)" d="M 57.6 51.718021 
L 414.72 51.718021 
" style="fill:none;stroke:#b0b0b0;stroke-linecap:square;stroke-width:0.8;"/>
     </g>
     <g id="line2d_20">
      <g>
       <use style="stroke:#000000;stroke-width:0.8;" x="57.6" xlink:href="#mb5e851fdd0" y="51.718021"/>
      </g>
     </g>
     <g id="text_11">
      <!-- $\mathdefault{10^{0}}$ -->
      <g transform="translate(33 55.51724)scale(0.1 -0.1)">
       <use transform="translate(0 0.765625)" xlink:href="#DejaVuSans-49"/>
       <use transform="translate(63.623047 0.765625)" xlink:href="#DejaVuSans-48"/>
       <use transform="translate(128.203125 39.046875)scale(0.7)" xlink:href="#DejaVuSans-48"/>
      </g>
     </g>
    </g>
    <g id="ytick_5">
     <g id="line2d_21">
      <defs>
       <path d="M 0 0 
L -2 0 
" id="m0494aa794c" style="stroke:#000000;stroke-width:0.6;"/>
      </defs>
      <g>
       <use style="stroke:#000000;stroke-width:0.6;" x="57.6" xlink:href="#m0494aa794c" y="294.899543"/>
      </g>
     </g>
    </g>
    <g id="ytick_6">
     <g id="line2d_22">
      <g>
       <use style="stroke:#000000;stroke-width:0.6;" x="57.6" xlink:href="#m0494aa794c" y="283.322769"/>
      </g>
     </g>
    </g>
    <g id="ytick_7">
     <g id="line2d_23">
      <g>
       <use style="stroke:#000000;stroke-width:0.6;" x="57.6" xlink:href="#m0494aa794c" y="275.108917"/>
      </g>
     </g>
    </g>
    <g id="ytick_8">
     <g id="line2d_24">
      <g>
       <use style="stroke:#000000;stroke-width:0.6;" x="57.6" xlink:href="#m0494aa794c" y="268.737758"/>
      </g>
     </g>
    </g>
    <g id="ytick_9">
     <g id="line2d_25">
      <g>
       <use style="stroke:#000000;stroke-width:0.6;" x="57.6" xlink:href="#m0494aa794c" y="263.532143"/>
      </g>
     </g>
    </g>
    <g id="ytick_10">
     <g id="line2d_26">
      <g>
       <use style="stroke:#000000;stroke-width:0.6;" x="57.6" xlink:href="#m0494aa794c" y="259.130857"/>
      </g>
     </g>
    </g>
    <g id="ytick_11">
     <g id="line2d_27">
      <g>
       <use style="stroke:#000000;stroke-width:0.6;" x="57.6" xlink:href="#m0494aa794c" y="255.318291"/>
      </g>
     </g>
    </g>
    <g id="ytick_12">
     <g id="line2d_28">
      <g>
       <use style="stroke:#000000;stroke-width:0.6;" x="57.6" xlink:href="#m0494aa794c" y="251.955368"/>
      </g>
     </g>
    </g>
    <g id="ytick_13">
     <g id="line2d_29">
      <g>
       <use style="stroke:#000000;stroke-width:0.6;" x="57.6" xlink:href="#m0494aa794c" y="229.156506"/>
      </g>
     </g>
    </g>
    <g id="ytick_14">
     <g id="line2d_30">
      <g>
       <use style="stroke:#000000;stroke-width:0.6;" x="57.6" xlink:href="#m0494aa794c" y="217.579732"/>
      </g>
     </g>
    </g>
    <g id="ytick_15">
     <g id="line2d_31">
      <g>
       <use style="stroke:#000000;stroke-width:0.6;" x="57.6" xlink:href="#m0494aa794c" y="209.36588"/>
      </g>
     </g>
    </g>
    <g id="ytick_16">
     <g id="line2d_32">
      <g>
       <use style="stroke:#000000;stroke-width:0.6;" x="57.6" xlink:href="#m0494aa794c" y="202.994721"/>
      </g>
     </g>
    </g>
    <g id="ytick_17">
     <g id="line2d_33">
      <g>
       <use style="stroke:#000000;stroke-width:0.6;" x="57.6" xlink:href="#m0494aa794c" y="197.789106"/>
      </g>
     </g>
    </g>
    <g id="ytick_18">
     <g id="line2d_34">
      <g>
       <use style="stroke:#000000;stroke-width:0.6;" x="57.6" xlink:href="#m0494aa794c" y="193.38782"/>
      </g>
     </g>
    </g>
    <g id="ytick_19">
     <g id="line2d_35">
      <g>
       <use style="stroke:#000000;stroke-width:0.6;" x="57.6" xlink:href="#m0494aa794c" y="189.575254"/>
      </g>
     </g>
    </g>
    <g id="ytick_20">
     <g id="line2d_36">
      <g>
       <use style="stroke:#000000;stroke-width:0.6;" x="57.6" xlink:href="#m0494aa794c" y="186.212331"/>
      </g>
     </g>
    </g>
    <g id="ytick_21">
     <g id="line2d_37">
      <g>
       <use style="stroke:#000000;stroke-width:0.6;" x="57.6" xlink:href="#m0494aa794c" y="163.413469"/>
      </g>
     </g>
    </g>
    <g id="ytick_22">
     <g id="line2d_38">
      <g>
       <use style="stroke:#000000;stroke-width:0.6;" x="57.6" xlink:href="#m0494aa794c" y="151.836695"/>
      </g>
     </g>
    </g>
    <g id="ytick_23">
     <g id="line2d_39">
      <g>
       <use style="stroke:#000000;stroke-width:0.6;" x="57.6" xlink:href="#m0494aa794c" y="143.622843"/>
      </g>
     </g>
    </g>
    <g id="ytick_24">
     <g id="line2d_40">
      <g>
       <use style="stroke:#000000;stroke-width:0.6;" x="57.6" xlink:href="#m0494aa794c" y="137.251684"/>
      </g>
     </g>
    </g>
    <g id="ytick_25">
     <g id="line2d_41">
      <g>
       <use style="stroke:#000000;stroke-width:0.6;" x="57.6" xlink:href="#m0494aa794c" y="132.046069"/>
      </g>
     </g>
    </g>
    <g id="ytick_26">
     <g id="line2d_42">
      <g>
       <use style="stroke:#000000;stroke-width:0.6;" x="57.6" xlink:href="#m0494aa794c" y="127.644783"/>
      </g>
     </g>
    </g>
    <g id="ytick_27">
     <g id="line2d_43">
      <g>
       <use style="stroke:#000000;stroke-width:0.6;" x="57.6" xlink:href="#m0494aa794c" y="123.832217"/>
      </g>
     </g>
    </g>
    <g id="ytick_28">
     <g id="line2d_44">
      <g>
       <use style="stroke:#000000;stroke-width:0.6;" x="57.6" xlink:href="#m0494aa794c" y="120.469294"/>
      </g>
     </g>
    </g>
    <g id="ytick_29">
     <g id="line2d_45">
      <g>
       <use style="stroke:#000000;stroke-width:0.6;" x="57.6" xlink:href="#m0494aa794c" y="97.670432"/>
      </g>
     </g>
    </g>
    <g id="ytick_30">
     <g id="line2d_46">
      <g>
       <use style="stroke:#000000;stroke-width:0.6;" x="57.6" xlink:href="#m0494aa794c" y="86.093658"/>
      </g>
     </g>
    </g>
    <g id="ytick_31">
     <g id="line2d_47">
      <g>
       <use style="stroke:#000000;stroke-width:0.6;" x="57.6" xlink:href="#m0494aa794c" y="77.879806"/>
      </g>
     </g>
    </g>
    <g id="ytick_32">
     <g id="line2d_48">
      <g>
       <use style="stroke:#000000;stroke-width:0.6;" x="57.6" xlink:href="#m0494aa794c" y="71.508647"/>
      </g>
     </g>
    </g>
    <g id="ytick_33">
     <g id="line2d_49">
      <g>
       <use style="stroke:#000000;stroke-width:0.6;" x="57.6" xlink:href="#m0494aa794c" y="66.303032"/>
      </g>
     </g>
    </g>
    <g id="ytick_34">
     <g id="line2d_50">
      <g>
       <use style="stroke:#000000;stroke-width:0.6;" x="57.6" xlink:href="#m0494aa794c" y="61.901746"/>
      </g>
     </g>
    </g>
    <g id="ytick_35">
     <g id="line2d_51">
      <g>
       <use style="stroke:#000000;stroke-width:0.6;" x="57.6" xlink:href="#m0494aa794c" y="58.08918"/>
      </g>
     </g>
    </g>
    <g id="ytick_36">
     <g id="line2d_52">
      <g>
       <use style="stroke:#000000;stroke-width:0.6;" x="57.6" xlink:href="#m0494aa794c" y="54.726257"/>
      </g>
     </g>
    </g>
    <g id="text_12">
     <!-- Loss -->
     <defs>
      <path d="M 9.8125 72.90625 
L 19.671875 72.90625 
L 19.671875 8.296875 
L 55.171875 8.296875 
L 55.171875 0 
L 9.8125 0 
z
" id="DejaVuSans-76"/>
      <path d="M 44.28125 53.078125 
L 44.28125 44.578125 
Q 40.484375 46.53125 36.375 47.5 
Q 32.28125 48.484375 27.875 48.484375 
Q 21.1875 48.484375 17.84375 46.4375 
Q 14.5 44.390625 14.5 40.28125 
Q 14.5 37.15625 16.890625 35.375 
Q 19.28125 33.59375 26.515625 31.984375 
L 29.59375 31.296875 
Q 39.15625 29.25 43.1875 25.515625 
Q 47.21875 21.78125 47.21875 15.09375 
Q 47.21875 7.46875 41.1875 3.015625 
Q 35.15625 -1.421875 24.609375 -1.421875 
Q 20.21875 -1.421875 15.453125 -0.5625 
Q 10.6875 0.296875 5.421875 2 
L 5.421875 11.28125 
Q 10.40625 8.6875 15.234375 7.390625 
Q 20.0625 6.109375 24.8125 6.109375 
Q 31.15625 6.109375 34.5625 8.28125 
Q 37.984375 10.453125 37.984375 14.40625 
Q 37.984375 18.0625 35.515625 20.015625 
Q 33.0625 21.96875 24.703125 23.78125 
L 21.578125 24.515625 
Q 13.234375 26.265625 9.515625 29.90625 
Q 5.8125 33.546875 5.8125 39.890625 
Q 5.8125 47.609375 11.28125 51.796875 
Q 16.75 56 26.8125 56 
Q 31.78125 56 36.171875 55.265625 
Q 40.578125 54.546875 44.28125 53.078125 
z
" id="DejaVuSans-115"/>
     </defs>
     <g transform="translate(21.020313 185.581906)rotate(-90)scale(0.1 -0.1)">
      <use xlink:href="#DejaVuSans-76"/>
      <use x="55.697266" xlink:href="#DejaVuSans-111"/>
      <use x="116.878906" xlink:href="#DejaVuSans-115"/>
      <use x="168.978516" xlink:href="#DejaVuSans-115"/>
     </g>
    </g>
   </g>
   <g id="line2d_53">
    <path clip-path="url(#p574502f87e)" d="M 73.832727 62.191466 
L 74.157707 68.61004 
L 74.482686 62.29333 
L 75.132645 74.055146 
L 75.457625 70.829524 
L 75.782604 76.612586 
L 76.107584 72.6779 
L 76.432563 60.494049 
L 76.757543 81.015311 
L 77.082523 62.271715 
L 77.407502 77.534513 
L 77.732482 71.771246 
L 78.057461 53.568 
L 78.382441 55.483031 
L 78.70742 75.505671 
L 79.0324 77.460842 
L 79.357379 67.003982 
L 80.007338 76.854296 
L 80.657297 95.911682 
L 80.982277 102.730588 
L 81.307256 83.254194 
L 81.632236 89.310286 
L 81.957215 65.874096 
L 82.282195 62.081611 
L 82.607174 73.946379 
L 82.932154 71.923905 
L 83.582113 84.353577 
L 83.907093 72.573274 
L 84.232072 79.294958 
L 84.557052 74.223902 
L 84.882031 91.001838 
L 85.207011 82.346715 
L 85.53199 96.959791 
L 85.85697 101.058931 
L 86.181949 70.40409 
L 86.506929 94.63002 
L 87.156888 92.351552 
L 87.481867 81.018611 
L 87.806847 96.430987 
L 88.131826 99.374711 
L 88.456806 95.394382 
L 88.781785 106.781104 
L 89.106765 85.080782 
L 89.431744 76.160299 
L 89.756724 88.522437 
L 90.081704 110.195517 
L 90.406683 86.126506 
L 90.731663 86.410085 
L 91.056642 86.136293 
L 91.381622 78.578063 
L 91.706601 94.030892 
L 92.031581 101.243247 
L 92.35656 96.836 
L 92.68154 95.604744 
L 93.006519 98.044315 
L 93.331499 127.656926 
L 93.656478 97.858794 
L 93.981458 114.883999 
L 94.956396 120.808827 
L 95.281376 95.453742 
L 95.606355 124.545676 
L 95.931335 122.013356 
L 96.256314 116.226426 
L 96.581294 88.435774 
L 96.906274 100.711543 
L 97.231253 99.842406 
L 97.556233 116.008379 
L 97.881212 124.483391 
L 98.206192 129.429254 
L 98.531171 126.383326 
L 98.856151 114.594056 
L 99.18113 129.813082 
L 99.50611 111.329149 
L 99.831089 131.426029 
L 100.156069 132.142272 
L 100.481048 95.563725 
L 100.806028 96.905577 
L 101.131007 116.593332 
L 101.455987 113.670058 
L 101.780966 137.152553 
L 102.105946 122.821214 
L 102.430925 126.039959 
L 102.755905 160.412194 
L 103.080885 123.692251 
L 103.730844 149.45964 
L 104.055823 149.037218 
L 104.380803 117.721658 
L 104.705782 127.296202 
L 105.030762 127.893003 
L 105.680721 178.720805 
L 106.33068 139.632632 
L 106.655659 136.291631 
L 106.980639 136.58684 
L 107.630598 148.300442 
L 107.955577 158.700175 
L 108.280557 153.122913 
L 108.605536 153.802237 
L 108.930516 152.553137 
L 109.255495 143.451427 
L 109.580475 177.287996 
L 109.905455 172.150742 
L 110.230434 163.58628 
L 110.555414 175.629814 
L 110.880393 175.392556 
L 111.205373 146.293867 
L 111.530352 152.475103 
L 111.855332 148.78386 
L 112.180311 156.842677 
L 112.505291 158.951914 
L 112.83027 193.256756 
L 113.15525 156.924163 
L 113.480229 182.768993 
L 113.805209 160.677526 
L 114.130188 154.896615 
L 114.455168 203.442467 
L 114.780147 187.685529 
L 115.105127 141.814228 
L 115.430106 133.091798 
L 116.080066 177.06042 
L 116.730025 156.008336 
L 117.055004 203.130146 
L 117.379984 193.200755 
L 117.704963 190.449113 
L 118.029943 190.289187 
L 118.354922 182.502743 
L 118.679902 189.361983 
L 119.329861 168.456608 
L 119.65484 191.322613 
L 119.97982 201.466289 
L 120.304799 174.02117 
L 120.629779 201.67348 
L 120.954758 184.85081 
L 121.279738 194.949844 
L 121.929697 159.872514 
L 122.254676 152.444003 
L 122.579656 192.332591 
L 122.904636 210.199662 
L 123.229615 196.090009 
L 123.554595 211.469052 
L 123.879574 199.108909 
L 124.204554 193.233028 
L 124.529533 202.84948 
L 124.854513 184.180155 
L 125.504472 195.310222 
L 125.829451 197.676396 
L 126.154431 215.653408 
L 126.47941 185.381599 
L 126.80439 208.846797 
L 127.129369 192.254195 
L 127.454349 215.601517 
L 127.779328 186.8764 
L 128.104308 221.700955 
L 128.429287 190.433594 
L 128.754267 201.878999 
L 129.079247 180.340295 
L 129.404226 186.826075 
L 129.729206 167.632958 
L 130.379165 182.022981 
L 130.704144 181.074018 
L 131.029124 186.18862 
L 131.354103 181.930968 
L 131.679083 240.20341 
L 132.004062 197.109466 
L 132.654021 247.801745 
L 132.979001 207.930056 
L 133.30398 187.654635 
L 133.62896 195.103086 
L 133.953939 205.317604 
L 134.278919 209.501515 
L 134.603898 193.767888 
L 134.928878 212.507024 
L 135.253857 175.097911 
L 135.578837 182.249955 
L 135.903817 176.842168 
L 136.228796 256.165723 
L 136.553776 191.195996 
L 136.878755 182.116155 
L 137.203735 190.810642 
L 137.528714 209.881143 
L 137.853694 219.037751 
L 138.178673 188.563022 
L 138.503653 181.994813 
L 138.828632 199.476055 
L 139.153612 198.194904 
L 139.478591 209.101756 
L 139.803571 229.40129 
L 140.12855 228.03665 
L 140.45353 228.944344 
L 140.778509 230.617887 
L 141.103489 215.261207 
L 141.428468 231.452046 
L 141.753448 219.114814 
L 142.078428 235.115878 
L 142.403407 198.369432 
L 142.728387 217.507213 
L 143.703325 174.14428 
L 144.028305 188.588195 
L 144.353284 167.350024 
L 144.678264 177.767415 
L 145.003243 207.924114 
L 145.328223 198.714074 
L 145.653202 156.296763 
L 145.978182 193.257525 
L 146.303161 209.259398 
L 146.628141 213.144042 
L 146.95312 211.016323 
L 147.2781 181.788433 
L 147.603079 201.863353 
L 147.928059 181.797296 
L 148.253038 219.475821 
L 148.578018 194.307564 
L 148.902998 228.085998 
L 149.227977 182.547101 
L 149.552957 189.601283 
L 149.877936 268.128897 
L 150.202916 201.069821 
L 150.527895 208.823002 
L 150.852875 177.13904 
L 151.177854 167.967622 
L 151.502834 175.565652 
L 151.827813 196.641162 
L 152.477772 188.088825 
L 152.802752 186.262589 
L 153.127731 217.321732 
L 153.452711 231.709781 
L 153.77769 202.822045 
L 154.427649 198.108037 
L 154.752629 214.25965 
L 155.077609 197.086802 
L 155.402588 215.52907 
L 155.727568 207.973304 
L 156.052547 222.235074 
L 156.702506 170.676142 
L 157.027486 216.273239 
L 157.352465 174.905947 
L 157.677445 200.998111 
L 158.002424 171.270233 
L 158.327404 194.954543 
L 158.652383 181.876513 
L 158.977363 174.231763 
L 159.302342 170.161817 
L 159.627322 208.114135 
L 159.952301 166.925194 
L 160.277281 220.774743 
L 160.92724 191.501276 
L 161.252219 188.234235 
L 161.577199 206.604858 
L 161.902179 204.761511 
L 162.227158 219.178506 
L 162.552138 201.049229 
L 162.877117 202.768343 
L 163.202097 217.568258 
L 163.527076 189.117786 
L 163.852056 183.068602 
L 164.177035 165.849631 
L 164.502015 220.580016 
L 164.826994 204.436767 
L 165.151974 210.701342 
L 165.476953 195.63333 
L 165.801933 223.970055 
L 166.126912 192.623743 
L 166.451892 178.694701 
L 166.776871 217.386558 
L 167.101851 200.626421 
L 167.42683 250.100311 
L 167.75181 202.184925 
L 168.07679 190.294746 
L 168.401769 192.275235 
L 168.726749 189.305367 
L 169.051728 168.356495 
L 169.701687 208.506525 
L 170.026667 198.57678 
L 170.351646 198.156078 
L 170.676626 179.61942 
L 171.326585 244.806895 
L 171.651564 230.285324 
L 171.976544 181.745983 
L 172.301523 181.07755 
L 172.626503 189.904145 
L 172.951482 239.480258 
L 173.276462 222.557347 
L 173.601441 188.547028 
L 173.926421 182.079498 
L 174.2514 182.579662 
L 174.57638 204.085585 
L 174.90136 181.66227 
L 175.226339 225.432953 
L 175.551319 187.619519 
L 175.876298 204.295749 
L 176.201278 236.523603 
L 176.526257 183.048609 
L 176.851237 255.044588 
L 177.176216 230.557552 
L 177.501196 182.426986 
L 177.826175 183.887885 
L 178.151155 221.386462 
L 178.476134 219.703053 
L 178.801114 221.833083 
L 179.126093 226.856049 
L 179.451073 191.248799 
L 179.776052 173.958861 
L 180.101032 209.067089 
L 180.426011 207.716547 
L 180.750991 207.051501 
L 181.40095 177.780004 
L 181.72593 184.230363 
L 182.050909 188.380648 
L 182.375889 176.44733 
L 182.700868 230.715141 
L 183.025848 173.466487 
L 183.350827 200.827075 
L 183.675807 179.935478 
L 184.000786 196.166309 
L 184.325766 163.504398 
L 184.650745 217.894207 
L 184.975725 172.774827 
L 185.300704 198.966305 
L 185.625684 182.225684 
L 185.950663 188.593846 
L 186.275643 185.969371 
L 186.600622 211.163824 
L 186.925602 216.85166 
L 187.250581 188.42647 
L 187.575561 227.521065 
L 187.900541 247.66262 
L 188.22552 180.365962 
L 188.5505 187.979937 
L 188.875479 186.617144 
L 189.200459 178.51907 
L 189.525438 211.299057 
L 189.850418 225.23674 
L 190.175397 185.238156 
L 190.500377 207.061373 
L 190.825356 185.826671 
L 191.150336 250.76564 
L 191.475315 180.928377 
L 191.800295 196.54392 
L 192.125274 205.585635 
L 192.450254 184.375518 
L 192.775233 178.128788 
L 193.100213 211.362644 
L 193.425192 211.767482 
L 193.750172 177.62296 
L 194.075152 171.64473 
L 194.400131 206.13252 
L 194.725111 165.151394 
L 195.05009 186.790075 
L 195.37507 180.142002 
L 195.700049 210.130512 
L 196.025029 206.701034 
L 196.350008 235.852405 
L 196.674988 217.960666 
L 196.999967 188.148822 
L 197.324947 190.448431 
L 197.649926 203.236197 
L 197.974906 204.946242 
L 198.299885 189.915553 
L 198.624865 189.478578 
L 198.949844 167.705507 
L 199.274824 249.474294 
L 199.599803 204.502392 
L 199.924783 196.593777 
L 200.249762 180.301348 
L 200.574742 174.211476 
L 200.899722 203.411815 
L 201.224701 176.12833 
L 201.549681 202.929319 
L 201.87466 189.540791 
L 202.19964 199.881628 
L 202.524619 205.143355 
L 202.849599 181.206537 
L 203.174578 172.672762 
L 203.499558 206.470636 
L 203.824537 165.329524 
L 204.149517 173.249591 
L 204.474496 141.155257 
L 204.799476 182.299452 
L 205.449435 209.110524 
L 206.099394 151.153085 
L 206.424373 181.561032 
L 206.749353 192.833063 
L 207.074333 158.912137 
L 207.399312 168.472055 
L 207.724292 214.070938 
L 208.049271 236.028392 
L 208.374251 187.98613 
L 208.69923 255.657524 
L 209.02421 191.491627 
L 209.349189 233.877626 
L 209.674169 182.385962 
L 209.999148 220.278558 
L 210.324128 163.646482 
L 210.649107 179.272718 
L 210.974087 164.918093 
L 211.299066 218.853568 
L 211.624046 202.758186 
L 211.949025 171.896104 
L 212.274005 188.381668 
L 212.598984 170.967871 
L 212.923964 163.953765 
L 213.248943 177.891242 
L 213.573923 202.323664 
L 214.223882 166.620324 
L 214.548862 199.375195 
L 214.873841 161.317378 
L 215.198821 193.899994 
L 215.5238 177.119306 
L 216.173759 270.091144 
L 216.823718 167.974647 
L 217.148698 182.801342 
L 217.473677 174.137051 
L 217.798657 216.162597 
L 218.123636 199.361979 
L 218.448616 194.43596 
L 219.098575 268.117508 
L 219.423554 160.890073 
L 220.398493 212.214648 
L 220.723473 216.672973 
L 221.048452 171.850347 
L 221.373432 156.119335 
L 221.698411 200.723224 
L 222.023391 178.799035 
L 222.67335 197.996192 
L 222.998329 194.295577 
L 223.323309 220.475544 
L 223.648288 204.966866 
L 223.973268 159.33883 
L 224.298247 214.96433 
L 224.623227 226.067165 
L 225.273186 174.612398 
L 225.598165 190.385433 
L 225.923145 165.463513 
L 226.573104 220.896155 
L 226.898084 167.923639 
L 227.223063 187.889178 
L 227.548043 152.837852 
L 227.873022 178.476379 
L 228.198002 175.669306 
L 228.522981 180.434802 
L 228.847961 167.805664 
L 229.17294 209.28679 
L 229.822899 161.245369 
L 230.147879 190.485926 
L 230.472858 165.490039 
L 230.797838 214.863742 
L 231.122817 164.23258 
L 231.447797 205.057348 
L 231.772776 162.753333 
L 232.097756 164.053916 
L 232.422735 213.430689 
L 232.747715 191.90076 
L 233.072695 240.622447 
L 233.397674 200.285257 
L 233.722654 207.351078 
L 234.047633 158.235108 
L 234.372613 183.870821 
L 234.697592 156.506607 
L 235.022572 186.603521 
L 235.347551 146.069446 
L 235.672531 256.340102 
L 235.99751 194.236552 
L 236.32249 235.381809 
L 236.972449 166.042269 
L 237.297428 173.554598 
L 237.622408 165.180774 
L 237.947387 166.426443 
L 238.272367 168.129419 
L 238.597346 203.246335 
L 238.922326 178.669098 
L 239.247305 232.91015 
L 239.572285 190.127044 
L 239.897265 168.904848 
L 240.222244 174.156032 
L 240.547224 192.599285 
L 240.872203 183.002948 
L 241.197183 186.338065 
L 241.522162 164.293957 
L 241.847142 169.809436 
L 242.172121 153.623465 
L 242.82208 178.836941 
L 243.14706 163.783749 
L 243.472039 184.056084 
L 243.797019 168.513678 
L 244.121998 197.183796 
L 244.446978 184.562194 
L 244.771957 165.421169 
L 245.096937 227.679949 
L 245.421916 190.15567 
L 245.746896 219.766388 
L 246.071876 215.404572 
L 246.396855 175.118386 
L 246.721835 180.254724 
L 247.046814 238.188955 
L 247.371794 151.398364 
L 247.696773 173.299398 
L 248.021753 162.099657 
L 248.346732 183.532262 
L 248.671712 180.028663 
L 248.996691 189.052998 
L 249.321671 147.045627 
L 249.64665 151.850373 
L 249.97163 182.584303 
L 250.296609 128.989258 
L 250.621589 199.772618 
L 250.946568 144.73711 
L 251.271548 127.624411 
L 251.596527 133.759146 
L 251.921507 143.674223 
L 252.246486 172.448856 
L 252.571466 158.989275 
L 252.896446 193.246234 
L 253.221425 132.538653 
L 253.546405 187.528944 
L 253.871384 159.700625 
L 254.196364 169.444763 
L 254.521343 197.490752 
L 254.846323 166.967192 
L 255.171302 211.979701 
L 255.496282 213.058734 
L 256.146241 166.360984 
L 256.47122 183.251704 
L 256.7962 193.218025 
L 257.121179 188.691938 
L 257.446159 167.70267 
L 257.771138 185.088399 
L 259.071057 156.86445 
L 259.396036 177.981719 
L 259.721016 208.718631 
L 260.045995 159.153622 
L 260.370975 181.977606 
L 260.695954 171.487542 
L 261.020934 165.655028 
L 261.345913 186.393702 
L 261.670893 189.184436 
L 261.995872 181.023078 
L 262.645831 197.92059 
L 262.970811 170.780029 
L 263.29579 163.131105 
L 263.945749 192.665679 
L 264.270729 154.21363 
L 264.595708 157.001408 
L 264.920688 172.274316 
L 265.245667 165.385018 
L 265.570647 200.497768 
L 265.895627 170.507633 
L 266.545586 146.66814 
L 266.870565 158.497636 
L 267.195545 157.711694 
L 267.845504 174.439337 
L 268.170483 147.773206 
L 268.495463 158.054702 
L 268.820442 161.513397 
L 269.145422 172.315935 
L 269.470401 192.889094 
L 269.795381 174.521124 
L 270.12036 167.014528 
L 270.44534 199.591883 
L 270.770319 197.306334 
L 271.095299 198.455493 
L 271.420278 152.317075 
L 271.745258 144.913656 
L 272.070238 169.326722 
L 272.395217 173.82464 
L 272.720197 142.018106 
L 273.045176 163.717346 
L 273.370156 148.719173 
L 273.695135 166.972189 
L 274.020115 148.839244 
L 274.345094 174.966067 
L 274.670074 170.391083 
L 274.995053 175.947194 
L 275.320033 166.785366 
L 275.645012 173.85225 
L 275.969992 155.742545 
L 276.294971 167.213964 
L 276.619951 164.255636 
L 276.94493 209.636701 
L 277.26991 185.81958 
L 277.594889 147.914704 
L 277.919869 151.269764 
L 278.244848 148.913702 
L 278.569828 161.823153 
L 278.894808 165.204575 
L 279.219787 145.889759 
L 279.544767 163.975506 
L 279.869746 131.503838 
L 280.194726 150.644932 
L 280.519705 150.836757 
L 281.169664 182.917474 
L 281.494644 176.627472 
L 281.819623 156.054938 
L 282.144603 172.880105 
L 282.794562 169.023977 
L 283.119541 165.538097 
L 283.444521 152.954525 
L 284.09448 202.785127 
L 284.419459 135.25153 
L 284.744439 159.693668 
L 285.069419 199.808651 
L 285.394398 167.846897 
L 285.719378 172.247566 
L 286.044357 169.089951 
L 286.369337 180.365367 
L 286.694316 184.441276 
L 287.344275 142.759464 
L 287.669255 107.122766 
L 287.994234 121.702524 
L 288.319214 173.354783 
L 288.644193 157.884072 
L 288.969173 153.603166 
L 289.294152 190.238262 
L 289.619132 202.241981 
L 289.944111 183.361041 
L 290.269091 178.89447 
L 290.59407 187.755301 
L 290.91905 200.92064 
L 291.244029 236.552385 
L 291.569009 231.975471 
L 291.893989 230.786888 
L 292.218968 197.815842 
L 292.543948 191.88341 
L 292.868927 212.345166 
L 293.518886 241.468686 
L 293.843866 145.849699 
L 294.168845 143.812614 
L 294.493825 136.7761 
L 294.818804 146.117609 
L 295.143784 164.334328 
L 295.468763 164.998638 
L 295.793743 158.996639 
L 296.118722 146.702996 
L 296.443702 170.544548 
L 296.768681 205.582569 
L 297.093661 199.237657 
L 297.41864 170.020951 
L 297.74362 204.974954 
L 298.0686 152.039389 
L 298.393579 142.983946 
L 299.043538 250.43438 
L 299.368518 191.190602 
L 299.693497 206.330385 
L 300.018477 254.998463 
L 300.343456 213.194302 
L 300.668436 215.120916 
L 300.993415 212.475846 
L 301.318395 193.026011 
L 301.643374 208.493027 
L 301.968354 213.120106 
L 302.293333 189.671958 
L 302.618313 211.890042 
L 302.943292 204.367542 
L 303.918231 222.901518 
L 304.24321 187.331422 
L 304.56819 171.555653 
L 304.89317 232.106631 
L 305.218149 234.215953 
L 305.543129 200.763812 
L 305.868108 217.416196 
L 306.193088 223.750819 
L 306.518067 240.400843 
L 306.843047 172.922872 
L 307.168026 198.914538 
L 307.493006 239.193136 
L 307.817985 211.270873 
L 308.142965 231.568156 
L 308.467944 233.353317 
L 308.792924 255.951839 
L 309.117903 192.764332 
L 309.442883 200.790204 
L 309.767862 214.702939 
L 310.092842 199.009679 
L 310.417821 218.008929 
L 310.742801 196.083577 
L 311.067781 228.842671 
L 311.39276 211.306396 
L 311.71774 203.85803 
L 312.042719 191.415595 
L 312.367699 205.672696 
L 312.692678 243.964027 
L 313.017658 216.054093 
L 313.342637 233.910878 
L 313.667617 225.447123 
L 313.992596 212.078911 
L 314.317576 185.862164 
L 314.642555 218.785861 
L 314.967535 219.111054 
L 315.617494 189.364313 
L 315.942473 171.469611 
L 316.267453 245.55564 
L 316.592432 246.369492 
L 316.917412 214.294025 
L 317.242391 208.537592 
L 317.567371 205.133896 
L 318.21733 248.675853 
L 318.54231 192.113512 
L 318.867289 194.184693 
L 319.192269 207.886643 
L 319.517248 264.368857 
L 319.842228 227.9571 
L 320.167207 227.078529 
L 320.492187 210.32222 
L 320.817166 263.120872 
L 321.142146 230.42471 
L 321.467125 216.846636 
L 321.792105 168.041928 
L 322.117084 170.264316 
L 322.442064 225.993229 
L 322.767043 215.684462 
L 323.092023 237.523584 
L 323.417002 207.53532 
L 323.741982 230.377463 
L 324.066962 232.462717 
L 324.391941 220.608642 
L 324.716921 219.858148 
L 325.0419 198.911855 
L 325.36688 191.813085 
L 325.691859 227.375207 
L 326.016839 212.566583 
L 326.341818 216.405215 
L 326.666798 215.651248 
L 326.991777 248.268716 
L 327.316757 216.612767 
L 327.641736 224.14513 
L 327.966716 214.406668 
L 328.291695 216.595678 
L 328.616675 191.268464 
L 328.941654 217.74668 
L 329.266634 258.271284 
L 329.591613 222.847036 
L 329.916593 262.656021 
L 330.241572 213.276529 
L 330.566552 224.954002 
L 330.891532 231.6829 
L 331.216511 230.743575 
L 331.541491 224.53304 
L 331.86647 196.26294 
L 332.19145 208.158195 
L 332.841409 262.570085 
L 333.166388 225.050248 
L 333.491368 227.934847 
L 333.816347 261.960705 
L 334.141327 235.832801 
L 334.466306 258.136224 
L 334.791286 246.36021 
L 335.116265 240.271169 
L 335.441245 209.738691 
L 335.766224 222.73955 
L 336.091204 255.191891 
L 336.416183 191.131336 
L 336.741163 172.20442 
L 337.066143 180.022951 
L 337.391122 160.347062 
L 337.716102 170.764284 
L 338.041081 192.067678 
L 338.366061 233.447036 
L 338.69104 206.343999 
L 339.01602 226.888586 
L 339.340999 223.529956 
L 339.665979 223.876882 
L 339.990958 203.460224 
L 340.315938 191.911033 
L 340.640917 187.657261 
L 340.965897 220.100028 
L 341.290876 219.134168 
L 341.615856 232.009279 
L 341.940835 240.019607 
L 342.265815 195.261 
L 342.590794 202.999237 
L 342.915774 218.704259 
L 343.240753 200.637059 
L 343.565733 202.476061 
L 343.890713 211.116652 
L 344.215692 259.572577 
L 344.540672 221.432916 
L 344.865651 241.914383 
L 345.190631 225.080467 
L 345.51561 215.506673 
L 345.84059 231.549855 
L 346.165569 236.974326 
L 346.490549 267.480867 
L 346.815528 192.660925 
L 347.140508 194.56609 
L 347.790467 225.442191 
L 348.115446 221.168073 
L 348.765405 240.636697 
L 349.090385 240.170685 
L 349.415364 229.057028 
L 350.065324 181.912061 
L 350.390303 203.951326 
L 350.715283 194.828848 
L 351.040262 236.233792 
L 351.365242 230.526866 
L 352.015201 198.341362 
L 352.34018 225.337946 
L 352.66516 241.76451 
L 352.990139 224.531754 
L 353.640098 229.072895 
L 353.965078 226.154255 
L 354.290057 215.80061 
L 354.615037 195.001608 
L 354.940016 190.246704 
L 355.264996 295.488 
L 355.589975 210.696445 
L 355.914955 223.228534 
L 356.564914 268.601994 
L 357.214873 228.476467 
L 357.539853 223.765351 
L 357.864832 223.467759 
L 358.189812 233.786535 
L 358.514791 214.87771 
L 358.839771 231.527297 
L 359.16475 232.993829 
L 359.48973 190.827071 
L 359.814709 207.159452 
L 360.139689 252.065058 
L 360.464668 222.845208 
L 360.789648 222.404314 
L 361.114627 194.092186 
L 361.439607 188.142338 
L 361.764586 217.911876 
L 362.089566 218.512612 
L 362.414545 242.725749 
L 362.739525 237.824337 
L 363.064505 212.897166 
L 363.389484 221.249995 
L 363.714464 223.368801 
L 364.039443 218.819326 
L 364.364423 220.346548 
L 364.689402 219.197453 
L 365.014382 253.280868 
L 365.339361 223.725063 
L 365.98932 205.762103 
L 366.3143 238.088502 
L 366.639279 226.30051 
L 366.964259 246.737784 
L 367.289238 212.691479 
L 367.614218 225.144682 
L 367.939197 226.91029 
L 368.264177 226.31056 
L 368.589156 232.800954 
L 368.914136 234.202805 
L 369.239115 237.009528 
L 369.564095 251.137828 
L 370.214054 221.314713 
L 370.539034 228.079717 
L 370.864013 215.514284 
L 371.188993 224.252984 
L 371.513972 216.685592 
L 371.838952 202.588759 
L 372.163931 227.71871 
L 372.488911 228.102132 
L 372.81389 213.80936 
L 373.13887 217.225213 
L 373.463849 216.856788 
L 373.788829 208.758242 
L 374.113808 204.880661 
L 374.438788 231.110282 
L 374.763767 205.630195 
L 375.088747 247.586306 
L 375.413726 237.753873 
L 375.738706 221.507322 
L 376.063686 236.830342 
L 376.388665 224.489519 
L 376.713645 239.938022 
L 377.038624 229.413764 
L 377.363604 227.340237 
L 378.013563 200.293584 
L 378.338542 207.618405 
L 378.988501 250.191859 
L 379.63846 224.006629 
L 379.96344 246.348354 
L 380.288419 217.064711 
L 380.613399 211.737243 
L 380.938378 219.708983 
L 381.263358 236.851063 
L 381.588337 202.499524 
L 381.913317 228.499328 
L 382.238296 223.013115 
L 382.563276 213.114373 
L 383.213235 161.993748 
L 383.538215 213.329853 
L 383.863194 223.597837 
L 384.188174 228.304028 
L 384.513153 256.350762 
L 384.838133 241.074117 
L 385.163112 240.785335 
L 385.488092 218.246648 
L 385.813071 228.305558 
L 386.138051 222.587908 
L 386.46303 244.128599 
L 386.78801 236.790122 
L 387.112989 194.758658 
L 387.437969 218.078216 
L 387.762948 216.144702 
L 388.087928 207.343478 
L 388.412907 227.963759 
L 388.737887 228.415854 
L 389.062867 245.737158 
L 389.387846 231.954244 
L 389.712826 224.246465 
L 390.037805 227.133944 
L 390.362785 224.641686 
L 391.012744 245.332632 
L 391.337723 215.299368 
L 391.662703 234.178969 
L 391.987682 220.110365 
L 392.312662 220.65816 
L 392.637641 196.895436 
L 392.962621 222.457846 
L 393.2876 223.670179 
L 393.61258 196.773466 
L 393.937559 238.073708 
L 394.262539 221.776206 
L 394.587518 266.724509 
L 395.237477 204.038236 
L 395.562457 214.410253 
L 395.887437 240.53543 
L 396.212416 249.00665 
L 396.537396 198.998705 
L 397.187355 244.219649 
L 397.512334 224.500066 
L 397.837314 220.694347 
L 398.162293 247.846677 
L 398.487273 220.485054 
L 398.487273 220.485054 
" style="fill:none;stroke:#1f77b4;stroke-linecap:square;stroke-width:1.5;"/>
   </g>
   <g id="patch_3">
    <path d="M 57.6 307.584 
L 57.6 41.472 
" style="fill:none;stroke:#000000;stroke-linecap:square;stroke-linejoin:miter;stroke-width:0.8;"/>
   </g>
   <g id="patch_4">
    <path d="M 414.72 307.584 
L 414.72 41.472 
" style="fill:none;stroke:#000000;stroke-linecap:square;stroke-linejoin:miter;stroke-width:0.8;"/>
   </g>
   <g id="patch_5">
    <path d="M 57.6 307.584 
L 414.72 307.584 
" style="fill:none;stroke:#000000;stroke-linecap:square;stroke-linejoin:miter;stroke-width:0.8;"/>
   </g>
   <g id="patch_6">
    <path d="M 57.6 41.472 
L 414.72 41.472 
" style="fill:none;stroke:#000000;stroke-linecap:square;stroke-linejoin:miter;stroke-width:0.8;"/>
   </g>
  </g>
 </g>
 <defs>
  <clipPath id="p574502f87e">
   <rect height="266.112" width="357.12" x="57.6" y="41.472"/>
  </clipPath>
 </defs>
</svg>
