<?xml version="1.0" encoding="utf-8" standalone="no"?>
<!DOCTYPE svg PUBLIC "-//W3C//DTD SVG 1.1//EN"
  "http://www.w3.org/Graphics/SVG/1.1/DTD/svg11.dtd">
<!-- Created with matplotlib (https://matplotlib.org/) -->
<svg height="345.6pt" version="1.1" viewBox="0 0 460.8 345.6" width="460.8pt" xmlns="http://www.w3.org/2000/svg" xmlns:xlink="http://www.w3.org/1999/xlink">
 <defs>
  <style type="text/css">
*{stroke-linecap:butt;stroke-linejoin:round;}
  </style>
 </defs>
 <g id="figure_1">
  <g id="patch_1">
   <path d="M 0 345.6 
L 460.8 345.6 
L 460.8 0 
L 0 0 
z
" style="fill:#ffffff;"/>
  </g>
  <g id="axes_1">
   <g id="patch_2">
    <path d="M 57.6 307.584 
L 414.72 307.584 
L 414.72 41.472 
L 57.6 41.472 
z
" style="fill:#ffffff;"/>
   </g>
   <g id="matplotlib.axis_1">
    <g id="xtick_1">
     <g id="line2d_1">
      <path clip-path="url(#p30cd357bc8)" d="M 73.832727 307.584 
L 73.832727 41.472 
" style="fill:none;stroke:#b0b0b0;stroke-linecap:square;stroke-width:0.8;"/>
     </g>
     <g id="line2d_2">
      <defs>
       <path d="M 0 0 
L 0 3.5 
" id="mb6ed281c19" style="stroke:#000000;stroke-width:0.8;"/>
      </defs>
      <g>
       <use style="stroke:#000000;stroke-width:0.8;" x="73.832727" xlink:href="#mb6ed281c19" y="307.584"/>
      </g>
     </g>
     <g id="text_1">
      <!-- 0 -->
      <defs>
       <path d="M 31.78125 66.40625 
Q 24.171875 66.40625 20.328125 58.90625 
Q 16.5 51.421875 16.5 36.375 
Q 16.5 21.390625 20.328125 13.890625 
Q 24.171875 6.390625 31.78125 6.390625 
Q 39.453125 6.390625 43.28125 13.890625 
Q 47.125 21.390625 47.125 36.375 
Q 47.125 51.421875 43.28125 58.90625 
Q 39.453125 66.40625 31.78125 66.40625 
z
M 31.78125 74.21875 
Q 44.046875 74.21875 50.515625 64.515625 
Q 56.984375 54.828125 56.984375 36.375 
Q 56.984375 17.96875 50.515625 8.265625 
Q 44.046875 -1.421875 31.78125 -1.421875 
Q 19.53125 -1.421875 13.0625 8.265625 
Q 6.59375 17.96875 6.59375 36.375 
Q 6.59375 54.828125 13.0625 64.515625 
Q 19.53125 74.21875 31.78125 74.21875 
z
" id="DejaVuSans-48"/>
      </defs>
      <g transform="translate(70.651477 322.182437)scale(0.1 -0.1)">
       <use xlink:href="#DejaVuSans-48"/>
      </g>
     </g>
    </g>
    <g id="xtick_2">
     <g id="line2d_3">
      <path clip-path="url(#p30cd357bc8)" d="M 138.828632 307.584 
L 138.828632 41.472 
" style="fill:none;stroke:#b0b0b0;stroke-linecap:square;stroke-width:0.8;"/>
     </g>
     <g id="line2d_4">
      <g>
       <use style="stroke:#000000;stroke-width:0.8;" x="138.828632" xlink:href="#mb6ed281c19" y="307.584"/>
      </g>
     </g>
     <g id="text_2">
      <!-- 200 -->
      <defs>
       <path d="M 19.1875 8.296875 
L 53.609375 8.296875 
L 53.609375 0 
L 7.328125 0 
L 7.328125 8.296875 
Q 12.9375 14.109375 22.625 23.890625 
Q 32.328125 33.6875 34.8125 36.53125 
Q 39.546875 41.84375 41.421875 45.53125 
Q 43.3125 49.21875 43.3125 52.78125 
Q 43.3125 58.59375 39.234375 62.25 
Q 35.15625 65.921875 28.609375 65.921875 
Q 23.96875 65.921875 18.8125 64.3125 
Q 13.671875 62.703125 7.8125 59.421875 
L 7.8125 69.390625 
Q 13.765625 71.78125 18.9375 73 
Q 24.125 74.21875 28.421875 74.21875 
Q 39.75 74.21875 46.484375 68.546875 
Q 53.21875 62.890625 53.21875 53.421875 
Q 53.21875 48.921875 51.53125 44.890625 
Q 49.859375 40.875 45.40625 35.40625 
Q 44.1875 33.984375 37.640625 27.21875 
Q 31.109375 20.453125 19.1875 8.296875 
z
" id="DejaVuSans-50"/>
      </defs>
      <g transform="translate(129.284882 322.182437)scale(0.1 -0.1)">
       <use xlink:href="#DejaVuSans-50"/>
       <use x="63.623047" xlink:href="#DejaVuSans-48"/>
       <use x="127.246094" xlink:href="#DejaVuSans-48"/>
      </g>
     </g>
    </g>
    <g id="xtick_3">
     <g id="line2d_5">
      <path clip-path="url(#p30cd357bc8)" d="M 203.824537 307.584 
L 203.824537 41.472 
" style="fill:none;stroke:#b0b0b0;stroke-linecap:square;stroke-width:0.8;"/>
     </g>
     <g id="line2d_6">
      <g>
       <use style="stroke:#000000;stroke-width:0.8;" x="203.824537" xlink:href="#mb6ed281c19" y="307.584"/>
      </g>
     </g>
     <g id="text_3">
      <!-- 400 -->
      <defs>
       <path d="M 37.796875 64.3125 
L 12.890625 25.390625 
L 37.796875 25.390625 
z
M 35.203125 72.90625 
L 47.609375 72.90625 
L 47.609375 25.390625 
L 58.015625 25.390625 
L 58.015625 17.1875 
L 47.609375 17.1875 
L 47.609375 0 
L 37.796875 0 
L 37.796875 17.1875 
L 4.890625 17.1875 
L 4.890625 26.703125 
z
" id="DejaVuSans-52"/>
      </defs>
      <g transform="translate(194.280787 322.182437)scale(0.1 -0.1)">
       <use xlink:href="#DejaVuSans-52"/>
       <use x="63.623047" xlink:href="#DejaVuSans-48"/>
       <use x="127.246094" xlink:href="#DejaVuSans-48"/>
      </g>
     </g>
    </g>
    <g id="xtick_4">
     <g id="line2d_7">
      <path clip-path="url(#p30cd357bc8)" d="M 268.820442 307.584 
L 268.820442 41.472 
" style="fill:none;stroke:#b0b0b0;stroke-linecap:square;stroke-width:0.8;"/>
     </g>
     <g id="line2d_8">
      <g>
       <use style="stroke:#000000;stroke-width:0.8;" x="268.820442" xlink:href="#mb6ed281c19" y="307.584"/>
      </g>
     </g>
     <g id="text_4">
      <!-- 600 -->
      <defs>
       <path d="M 33.015625 40.375 
Q 26.375 40.375 22.484375 35.828125 
Q 18.609375 31.296875 18.609375 23.390625 
Q 18.609375 15.53125 22.484375 10.953125 
Q 26.375 6.390625 33.015625 6.390625 
Q 39.65625 6.390625 43.53125 10.953125 
Q 47.40625 15.53125 47.40625 23.390625 
Q 47.40625 31.296875 43.53125 35.828125 
Q 39.65625 40.375 33.015625 40.375 
z
M 52.59375 71.296875 
L 52.59375 62.3125 
Q 48.875 64.0625 45.09375 64.984375 
Q 41.3125 65.921875 37.59375 65.921875 
Q 27.828125 65.921875 22.671875 59.328125 
Q 17.53125 52.734375 16.796875 39.40625 
Q 19.671875 43.65625 24.015625 45.921875 
Q 28.375 48.1875 33.59375 48.1875 
Q 44.578125 48.1875 50.953125 41.515625 
Q 57.328125 34.859375 57.328125 23.390625 
Q 57.328125 12.15625 50.6875 5.359375 
Q 44.046875 -1.421875 33.015625 -1.421875 
Q 20.359375 -1.421875 13.671875 8.265625 
Q 6.984375 17.96875 6.984375 36.375 
Q 6.984375 53.65625 15.1875 63.9375 
Q 23.390625 74.21875 37.203125 74.21875 
Q 40.921875 74.21875 44.703125 73.484375 
Q 48.484375 72.75 52.59375 71.296875 
z
" id="DejaVuSans-54"/>
      </defs>
      <g transform="translate(259.276692 322.182437)scale(0.1 -0.1)">
       <use xlink:href="#DejaVuSans-54"/>
       <use x="63.623047" xlink:href="#DejaVuSans-48"/>
       <use x="127.246094" xlink:href="#DejaVuSans-48"/>
      </g>
     </g>
    </g>
    <g id="xtick_5">
     <g id="line2d_9">
      <path clip-path="url(#p30cd357bc8)" d="M 333.816347 307.584 
L 333.816347 41.472 
" style="fill:none;stroke:#b0b0b0;stroke-linecap:square;stroke-width:0.8;"/>
     </g>
     <g id="line2d_10">
      <g>
       <use style="stroke:#000000;stroke-width:0.8;" x="333.816347" xlink:href="#mb6ed281c19" y="307.584"/>
      </g>
     </g>
     <g id="text_5">
      <!-- 800 -->
      <defs>
       <path d="M 31.78125 34.625 
Q 24.75 34.625 20.71875 30.859375 
Q 16.703125 27.09375 16.703125 20.515625 
Q 16.703125 13.921875 20.71875 10.15625 
Q 24.75 6.390625 31.78125 6.390625 
Q 38.8125 6.390625 42.859375 10.171875 
Q 46.921875 13.96875 46.921875 20.515625 
Q 46.921875 27.09375 42.890625 30.859375 
Q 38.875 34.625 31.78125 34.625 
z
M 21.921875 38.8125 
Q 15.578125 40.375 12.03125 44.71875 
Q 8.5 49.078125 8.5 55.328125 
Q 8.5 64.0625 14.71875 69.140625 
Q 20.953125 74.21875 31.78125 74.21875 
Q 42.671875 74.21875 48.875 69.140625 
Q 55.078125 64.0625 55.078125 55.328125 
Q 55.078125 49.078125 51.53125 44.71875 
Q 48 40.375 41.703125 38.8125 
Q 48.828125 37.15625 52.796875 32.3125 
Q 56.78125 27.484375 56.78125 20.515625 
Q 56.78125 9.90625 50.3125 4.234375 
Q 43.84375 -1.421875 31.78125 -1.421875 
Q 19.734375 -1.421875 13.25 4.234375 
Q 6.78125 9.90625 6.78125 20.515625 
Q 6.78125 27.484375 10.78125 32.3125 
Q 14.796875 37.15625 21.921875 38.8125 
z
M 18.3125 54.390625 
Q 18.3125 48.734375 21.84375 45.5625 
Q 25.390625 42.390625 31.78125 42.390625 
Q 38.140625 42.390625 41.71875 45.5625 
Q 45.3125 48.734375 45.3125 54.390625 
Q 45.3125 60.0625 41.71875 63.234375 
Q 38.140625 66.40625 31.78125 66.40625 
Q 25.390625 66.40625 21.84375 63.234375 
Q 18.3125 60.0625 18.3125 54.390625 
z
" id="DejaVuSans-56"/>
      </defs>
      <g transform="translate(324.272597 322.182437)scale(0.1 -0.1)">
       <use xlink:href="#DejaVuSans-56"/>
       <use x="63.623047" xlink:href="#DejaVuSans-48"/>
       <use x="127.246094" xlink:href="#DejaVuSans-48"/>
      </g>
     </g>
    </g>
    <g id="xtick_6">
     <g id="line2d_11">
      <path clip-path="url(#p30cd357bc8)" d="M 398.812252 307.584 
L 398.812252 41.472 
" style="fill:none;stroke:#b0b0b0;stroke-linecap:square;stroke-width:0.8;"/>
     </g>
     <g id="line2d_12">
      <g>
       <use style="stroke:#000000;stroke-width:0.8;" x="398.812252" xlink:href="#mb6ed281c19" y="307.584"/>
      </g>
     </g>
     <g id="text_6">
      <!-- 1000 -->
      <defs>
       <path d="M 12.40625 8.296875 
L 28.515625 8.296875 
L 28.515625 63.921875 
L 10.984375 60.40625 
L 10.984375 69.390625 
L 28.421875 72.90625 
L 38.28125 72.90625 
L 38.28125 8.296875 
L 54.390625 8.296875 
L 54.390625 0 
L 12.40625 0 
z
" id="DejaVuSans-49"/>
      </defs>
      <g transform="translate(386.087252 322.182437)scale(0.1 -0.1)">
       <use xlink:href="#DejaVuSans-49"/>
       <use x="63.623047" xlink:href="#DejaVuSans-48"/>
       <use x="127.246094" xlink:href="#DejaVuSans-48"/>
       <use x="190.869141" xlink:href="#DejaVuSans-48"/>
      </g>
     </g>
    </g>
    <g id="text_7">
     <!-- Iteration -->
     <defs>
      <path d="M 9.8125 72.90625 
L 19.671875 72.90625 
L 19.671875 0 
L 9.8125 0 
z
" id="DejaVuSans-73"/>
      <path d="M 18.3125 70.21875 
L 18.3125 54.6875 
L 36.8125 54.6875 
L 36.8125 47.703125 
L 18.3125 47.703125 
L 18.3125 18.015625 
Q 18.3125 11.328125 20.140625 9.421875 
Q 21.96875 7.515625 27.59375 7.515625 
L 36.8125 7.515625 
L 36.8125 0 
L 27.59375 0 
Q 17.1875 0 13.234375 3.875 
Q 9.28125 7.765625 9.28125 18.015625 
L 9.28125 47.703125 
L 2.6875 47.703125 
L 2.6875 54.6875 
L 9.28125 54.6875 
L 9.28125 70.21875 
z
" id="DejaVuSans-116"/>
      <path d="M 56.203125 29.59375 
L 56.203125 25.203125 
L 14.890625 25.203125 
Q 15.484375 15.921875 20.484375 11.0625 
Q 25.484375 6.203125 34.421875 6.203125 
Q 39.59375 6.203125 44.453125 7.46875 
Q 49.3125 8.734375 54.109375 11.28125 
L 54.109375 2.78125 
Q 49.265625 0.734375 44.1875 -0.34375 
Q 39.109375 -1.421875 33.890625 -1.421875 
Q 20.796875 -1.421875 13.15625 6.1875 
Q 5.515625 13.8125 5.515625 26.8125 
Q 5.515625 40.234375 12.765625 48.109375 
Q 20.015625 56 32.328125 56 
Q 43.359375 56 49.78125 48.890625 
Q 56.203125 41.796875 56.203125 29.59375 
z
M 47.21875 32.234375 
Q 47.125 39.59375 43.09375 43.984375 
Q 39.0625 48.390625 32.421875 48.390625 
Q 24.90625 48.390625 20.390625 44.140625 
Q 15.875 39.890625 15.1875 32.171875 
z
" id="DejaVuSans-101"/>
      <path d="M 41.109375 46.296875 
Q 39.59375 47.171875 37.8125 47.578125 
Q 36.03125 48 33.890625 48 
Q 26.265625 48 22.1875 43.046875 
Q 18.109375 38.09375 18.109375 28.8125 
L 18.109375 0 
L 9.078125 0 
L 9.078125 54.6875 
L 18.109375 54.6875 
L 18.109375 46.1875 
Q 20.953125 51.171875 25.484375 53.578125 
Q 30.03125 56 36.53125 56 
Q 37.453125 56 38.578125 55.875 
Q 39.703125 55.765625 41.0625 55.515625 
z
" id="DejaVuSans-114"/>
      <path d="M 34.28125 27.484375 
Q 23.390625 27.484375 19.1875 25 
Q 14.984375 22.515625 14.984375 16.5 
Q 14.984375 11.71875 18.140625 8.90625 
Q 21.296875 6.109375 26.703125 6.109375 
Q 34.1875 6.109375 38.703125 11.40625 
Q 43.21875 16.703125 43.21875 25.484375 
L 43.21875 27.484375 
z
M 52.203125 31.203125 
L 52.203125 0 
L 43.21875 0 
L 43.21875 8.296875 
Q 40.140625 3.328125 35.546875 0.953125 
Q 30.953125 -1.421875 24.3125 -1.421875 
Q 15.921875 -1.421875 10.953125 3.296875 
Q 6 8.015625 6 15.921875 
Q 6 25.140625 12.171875 29.828125 
Q 18.359375 34.515625 30.609375 34.515625 
L 43.21875 34.515625 
L 43.21875 35.40625 
Q 43.21875 41.609375 39.140625 45 
Q 35.0625 48.390625 27.6875 48.390625 
Q 23 48.390625 18.546875 47.265625 
Q 14.109375 46.140625 10.015625 43.890625 
L 10.015625 52.203125 
Q 14.9375 54.109375 19.578125 55.046875 
Q 24.21875 56 28.609375 56 
Q 40.484375 56 46.34375 49.84375 
Q 52.203125 43.703125 52.203125 31.203125 
z
" id="DejaVuSans-97"/>
      <path d="M 9.421875 54.6875 
L 18.40625 54.6875 
L 18.40625 0 
L 9.421875 0 
z
M 9.421875 75.984375 
L 18.40625 75.984375 
L 18.40625 64.59375 
L 9.421875 64.59375 
z
" id="DejaVuSans-105"/>
      <path d="M 30.609375 48.390625 
Q 23.390625 48.390625 19.1875 42.75 
Q 14.984375 37.109375 14.984375 27.296875 
Q 14.984375 17.484375 19.15625 11.84375 
Q 23.34375 6.203125 30.609375 6.203125 
Q 37.796875 6.203125 41.984375 11.859375 
Q 46.1875 17.53125 46.1875 27.296875 
Q 46.1875 37.015625 41.984375 42.703125 
Q 37.796875 48.390625 30.609375 48.390625 
z
M 30.609375 56 
Q 42.328125 56 49.015625 48.375 
Q 55.71875 40.765625 55.71875 27.296875 
Q 55.71875 13.875 49.015625 6.21875 
Q 42.328125 -1.421875 30.609375 -1.421875 
Q 18.84375 -1.421875 12.171875 6.21875 
Q 5.515625 13.875 5.515625 27.296875 
Q 5.515625 40.765625 12.171875 48.375 
Q 18.84375 56 30.609375 56 
z
" id="DejaVuSans-111"/>
      <path d="M 54.890625 33.015625 
L 54.890625 0 
L 45.90625 0 
L 45.90625 32.71875 
Q 45.90625 40.484375 42.875 44.328125 
Q 39.84375 48.1875 33.796875 48.1875 
Q 26.515625 48.1875 22.3125 43.546875 
Q 18.109375 38.921875 18.109375 30.90625 
L 18.109375 0 
L 9.078125 0 
L 9.078125 54.6875 
L 18.109375 54.6875 
L 18.109375 46.1875 
Q 21.34375 51.125 25.703125 53.5625 
Q 30.078125 56 35.796875 56 
Q 45.21875 56 50.046875 50.171875 
Q 54.890625 44.34375 54.890625 33.015625 
z
" id="DejaVuSans-110"/>
     </defs>
     <g transform="translate(214.951406 335.860562)scale(0.1 -0.1)">
      <use xlink:href="#DejaVuSans-73"/>
      <use x="29.492188" xlink:href="#DejaVuSans-116"/>
      <use x="68.701172" xlink:href="#DejaVuSans-101"/>
      <use x="130.224609" xlink:href="#DejaVuSans-114"/>
      <use x="171.337891" xlink:href="#DejaVuSans-97"/>
      <use x="232.617188" xlink:href="#DejaVuSans-116"/>
      <use x="271.826172" xlink:href="#DejaVuSans-105"/>
      <use x="299.609375" xlink:href="#DejaVuSans-111"/>
      <use x="360.791016" xlink:href="#DejaVuSans-110"/>
     </g>
    </g>
   </g>
   <g id="matplotlib.axis_2">
    <g id="ytick_1">
     <g id="line2d_13">
      <path clip-path="url(#p30cd357bc8)" d="M 57.6 278.268174 
L 414.72 278.268174 
" style="fill:none;stroke:#b0b0b0;stroke-linecap:square;stroke-width:0.8;"/>
     </g>
     <g id="line2d_14">
      <defs>
       <path d="M 0 0 
L -3.5 0 
" id="m811e8e9b6d" style="stroke:#000000;stroke-width:0.8;"/>
      </defs>
      <g>
       <use style="stroke:#000000;stroke-width:0.8;" x="57.6" xlink:href="#m811e8e9b6d" y="278.268174"/>
      </g>
     </g>
     <g id="text_8">
      <!-- $\mathdefault{10^{-8}}$ -->
      <defs>
       <path d="M 10.59375 35.5 
L 73.1875 35.5 
L 73.1875 27.203125 
L 10.59375 27.203125 
z
" id="DejaVuSans-8722"/>
      </defs>
      <g transform="translate(27.1 282.067392)scale(0.1 -0.1)">
       <use transform="translate(0 0.765625)" xlink:href="#DejaVuSans-49"/>
       <use transform="translate(63.623047 0.765625)" xlink:href="#DejaVuSans-48"/>
       <use transform="translate(128.203125 39.046875)scale(0.7)" xlink:href="#DejaVuSans-8722"/>
       <use transform="translate(186.855469 39.046875)scale(0.7)" xlink:href="#DejaVuSans-56"/>
      </g>
     </g>
    </g>
    <g id="ytick_2">
     <g id="line2d_15">
      <path clip-path="url(#p30cd357bc8)" d="M 57.6 220.930524 
L 414.72 220.930524 
" style="fill:none;stroke:#b0b0b0;stroke-linecap:square;stroke-width:0.8;"/>
     </g>
     <g id="line2d_16">
      <g>
       <use style="stroke:#000000;stroke-width:0.8;" x="57.6" xlink:href="#m811e8e9b6d" y="220.930524"/>
      </g>
     </g>
     <g id="text_9">
      <!-- $\mathdefault{10^{-6}}$ -->
      <g transform="translate(27.1 224.729743)scale(0.1 -0.1)">
       <use transform="translate(0 0.765625)" xlink:href="#DejaVuSans-49"/>
       <use transform="translate(63.623047 0.765625)" xlink:href="#DejaVuSans-48"/>
       <use transform="translate(128.203125 39.046875)scale(0.7)" xlink:href="#DejaVuSans-8722"/>
       <use transform="translate(186.855469 39.046875)scale(0.7)" xlink:href="#DejaVuSans-54"/>
      </g>
     </g>
    </g>
    <g id="ytick_3">
     <g id="line2d_17">
      <path clip-path="url(#p30cd357bc8)" d="M 57.6 163.592874 
L 414.72 163.592874 
" style="fill:none;stroke:#b0b0b0;stroke-linecap:square;stroke-width:0.8;"/>
     </g>
     <g id="line2d_18">
      <g>
       <use style="stroke:#000000;stroke-width:0.8;" x="57.6" xlink:href="#m811e8e9b6d" y="163.592874"/>
      </g>
     </g>
     <g id="text_10">
      <!-- $\mathdefault{10^{-4}}$ -->
      <g transform="translate(27.1 167.392093)scale(0.1 -0.1)">
       <use transform="translate(0 0.684375)" xlink:href="#DejaVuSans-49"/>
       <use transform="translate(63.623047 0.684375)" xlink:href="#DejaVuSans-48"/>
       <use transform="translate(128.203125 38.965625)scale(0.7)" xlink:href="#DejaVuSans-8722"/>
       <use transform="translate(186.855469 38.965625)scale(0.7)" xlink:href="#DejaVuSans-52"/>
      </g>
     </g>
    </g>
    <g id="ytick_4">
     <g id="line2d_19">
      <path clip-path="url(#p30cd357bc8)" d="M 57.6 106.255225 
L 414.72 106.255225 
" style="fill:none;stroke:#b0b0b0;stroke-linecap:square;stroke-width:0.8;"/>
     </g>
     <g id="line2d_20">
      <g>
       <use style="stroke:#000000;stroke-width:0.8;" x="57.6" xlink:href="#m811e8e9b6d" y="106.255225"/>
      </g>
     </g>
     <g id="text_11">
      <!-- $\mathdefault{10^{-2}}$ -->
      <g transform="translate(27.1 110.054443)scale(0.1 -0.1)">
       <use transform="translate(0 0.765625)" xlink:href="#DejaVuSans-49"/>
       <use transform="translate(63.623047 0.765625)" xlink:href="#DejaVuSans-48"/>
       <use transform="translate(128.203125 39.046875)scale(0.7)" xlink:href="#DejaVuSans-8722"/>
       <use transform="translate(186.855469 39.046875)scale(0.7)" xlink:href="#DejaVuSans-50"/>
      </g>
     </g>
    </g>
    <g id="ytick_5">
     <g id="line2d_21">
      <path clip-path="url(#p30cd357bc8)" d="M 57.6 48.917575 
L 414.72 48.917575 
" style="fill:none;stroke:#b0b0b0;stroke-linecap:square;stroke-width:0.8;"/>
     </g>
     <g id="line2d_22">
      <g>
       <use style="stroke:#000000;stroke-width:0.8;" x="57.6" xlink:href="#m811e8e9b6d" y="48.917575"/>
      </g>
     </g>
     <g id="text_12">
      <!-- $\mathdefault{10^{0}}$ -->
      <g transform="translate(33 52.716794)scale(0.1 -0.1)">
       <use transform="translate(0 0.765625)" xlink:href="#DejaVuSans-49"/>
       <use transform="translate(63.623047 0.765625)" xlink:href="#DejaVuSans-48"/>
       <use transform="translate(128.203125 39.046875)scale(0.7)" xlink:href="#DejaVuSans-48"/>
      </g>
     </g>
    </g>
    <g id="text_13">
     <!-- Loss -->
     <defs>
      <path d="M 9.8125 72.90625 
L 19.671875 72.90625 
L 19.671875 8.296875 
L 55.171875 8.296875 
L 55.171875 0 
L 9.8125 0 
z
" id="DejaVuSans-76"/>
      <path d="M 44.28125 53.078125 
L 44.28125 44.578125 
Q 40.484375 46.53125 36.375 47.5 
Q 32.28125 48.484375 27.875 48.484375 
Q 21.1875 48.484375 17.84375 46.4375 
Q 14.5 44.390625 14.5 40.28125 
Q 14.5 37.15625 16.890625 35.375 
Q 19.28125 33.59375 26.515625 31.984375 
L 29.59375 31.296875 
Q 39.15625 29.25 43.1875 25.515625 
Q 47.21875 21.78125 47.21875 15.09375 
Q 47.21875 7.46875 41.1875 3.015625 
Q 35.15625 -1.421875 24.609375 -1.421875 
Q 20.21875 -1.421875 15.453125 -0.5625 
Q 10.6875 0.296875 5.421875 2 
L 5.421875 11.28125 
Q 10.40625 8.6875 15.234375 7.390625 
Q 20.0625 6.109375 24.8125 6.109375 
Q 31.15625 6.109375 34.5625 8.28125 
Q 37.984375 10.453125 37.984375 14.40625 
Q 37.984375 18.0625 35.515625 20.015625 
Q 33.0625 21.96875 24.703125 23.78125 
L 21.578125 24.515625 
Q 13.234375 26.265625 9.515625 29.90625 
Q 5.8125 33.546875 5.8125 39.890625 
Q 5.8125 47.609375 11.28125 51.796875 
Q 16.75 56 26.8125 56 
Q 31.78125 56 36.171875 55.265625 
Q 40.578125 54.546875 44.28125 53.078125 
z
" id="DejaVuSans-115"/>
     </defs>
     <g transform="translate(21.020313 185.581906)rotate(-90)scale(0.1 -0.1)">
      <use xlink:href="#DejaVuSans-76"/>
      <use x="55.697266" xlink:href="#DejaVuSans-111"/>
      <use x="116.878906" xlink:href="#DejaVuSans-115"/>
      <use x="168.978516" xlink:href="#DejaVuSans-115"/>
     </g>
    </g>
   </g>
   <g id="line2d_23">
    <path clip-path="url(#p30cd357bc8)" d="M 73.832727 53.568 
L 74.157707 73.272052 
L 74.482686 74.405827 
L 75.132645 104.035327 
L 75.457625 81.377166 
L 75.782604 86.654119 
L 76.432563 86.727308 
L 76.757543 102.561658 
L 77.082523 85.643777 
L 77.407502 87.714024 
L 77.732482 87.698341 
L 78.057461 91.242969 
L 78.382441 85.257261 
L 78.70742 90.56452 
L 79.0324 92.055992 
L 79.357379 104.352339 
L 79.682359 86.925884 
L 80.007338 94.185556 
L 80.657297 100.129224 
L 80.982277 113.846789 
L 81.307256 97.390876 
L 81.632236 98.000638 
L 81.957215 96.748801 
L 82.282195 90.262185 
L 82.607174 102.16197 
L 83.257133 95.947343 
L 83.582113 91.186514 
L 83.907093 93.747282 
L 84.232072 92.562186 
L 84.557052 89.15393 
L 84.882031 110.735147 
L 85.207011 90.188202 
L 85.53199 113.316405 
L 85.85697 121.439826 
L 86.181949 90.628671 
L 86.506929 121.556665 
L 86.831908 105.225772 
L 87.156888 117.3854 
L 87.481867 104.206056 
L 87.806847 131.735552 
L 88.131826 131.188015 
L 88.456806 104.909281 
L 88.781785 112.679266 
L 89.106765 95.075673 
L 89.431744 107.466484 
L 89.756724 115.070309 
L 90.081704 118.592541 
L 90.406683 117.876121 
L 90.731663 101.320558 
L 91.056642 94.448152 
L 91.381622 93.281123 
L 91.706601 112.504762 
L 92.031581 103.391678 
L 92.35656 118.42413 
L 93.006519 96.435754 
L 93.331499 131.132304 
L 93.656478 111.504161 
L 93.981458 118.962489 
L 94.306437 103.387905 
L 94.631417 106.095038 
L 94.956396 103.344601 
L 95.606355 121.291813 
L 95.931335 122.693647 
L 96.256314 101.737409 
L 96.906274 130.928436 
L 97.231253 101.281407 
L 98.206192 134.119167 
L 98.856151 120.873139 
L 99.18113 142.091942 
L 99.50611 109.248888 
L 99.831089 128.49763 
L 100.156069 105.876118 
L 100.481048 140.47653 
L 101.131007 111.691607 
L 101.455987 146.587062 
L 101.780966 109.43181 
L 102.105946 137.877623 
L 102.430925 129.91926 
L 102.755905 130.876501 
L 103.080885 122.272482 
L 103.405864 140.946941 
L 103.730844 111.208783 
L 104.055823 114.968956 
L 104.380803 111.640801 
L 104.705782 110.077159 
L 105.030762 110.183409 
L 105.355741 127.318674 
L 105.680721 124.000694 
L 106.0057 114.704879 
L 106.33068 133.989795 
L 106.655659 122.991136 
L 106.980639 134.499834 
L 107.305618 112.217398 
L 107.630598 113.528088 
L 107.955577 137.561203 
L 108.280557 152.666871 
L 108.605536 125.161424 
L 108.930516 124.139447 
L 109.255495 106.407051 
L 109.905455 141.145276 
L 110.230434 138.110949 
L 110.880393 114.84242 
L 111.205373 135.111256 
L 112.180311 113.99494 
L 112.505291 113.410146 
L 112.83027 135.327662 
L 113.15525 105.16212 
L 113.480229 110.310388 
L 113.805209 120.614396 
L 114.130188 109.177669 
L 114.455168 135.916274 
L 114.780147 140.621241 
L 115.105127 132.228783 
L 115.430106 116.74825 
L 115.755086 119.6121 
L 116.080066 136.631363 
L 116.405045 143.136713 
L 116.730025 157.165008 
L 117.055004 144.542143 
L 117.379984 156.903793 
L 117.704963 130.526589 
L 118.029943 123.767419 
L 118.354922 143.8389 
L 118.679902 126.324728 
L 119.004881 120.706442 
L 119.329861 111.862587 
L 119.65484 127.871817 
L 119.97982 159.142945 
L 120.304799 118.898987 
L 120.629779 129.223505 
L 120.954758 121.884071 
L 121.279738 130.943654 
L 121.604717 115.82003 
L 121.929697 119.320966 
L 122.254676 141.062778 
L 122.579656 130.65629 
L 123.229615 118.8518 
L 123.554595 119.900039 
L 123.879574 134.689706 
L 124.529533 119.827059 
L 124.854513 119.346578 
L 125.179492 131.796177 
L 125.504472 131.217953 
L 125.829451 120.739339 
L 126.154431 126.113669 
L 126.47941 115.094553 
L 126.80439 136.369037 
L 127.129369 134.375224 
L 127.779328 149.065739 
L 128.104308 141.779107 
L 128.429287 120.521446 
L 128.754267 116.082373 
L 129.079247 119.311451 
L 129.404226 141.7625 
L 129.729206 135.594622 
L 130.054185 125.828489 
L 130.379165 131.296798 
L 130.704144 139.814614 
L 131.029124 118.191081 
L 131.354103 117.148175 
L 131.679083 126.742805 
L 132.004062 112.985183 
L 132.329042 129.929753 
L 132.654021 133.036926 
L 132.979001 127.689117 
L 133.30398 128.957855 
L 133.953939 120.177986 
L 134.278919 125.179632 
L 134.603898 114.277645 
L 134.928878 128.723704 
L 135.253857 110.050785 
L 135.578837 121.261258 
L 135.903817 121.051711 
L 136.553776 158.2645 
L 136.878755 131.054809 
L 137.203735 130.654197 
L 137.528714 132.725126 
L 137.853694 149.295572 
L 138.178673 122.954976 
L 138.503653 119.150758 
L 138.828632 130.301664 
L 139.153612 155.718306 
L 139.478591 147.343003 
L 139.803571 123.01767 
L 140.12855 121.922056 
L 140.45353 131.204029 
L 140.778509 136.031645 
L 141.103489 147.529474 
L 141.428468 126.288615 
L 141.753448 130.25767 
L 142.403407 116.224984 
L 142.728387 139.471029 
L 143.053366 117.045254 
L 143.378346 109.823913 
L 143.703325 137.775401 
L 144.028305 122.365968 
L 144.353284 175.823639 
L 144.678264 122.760496 
L 145.003243 125.542682 
L 145.328223 138.586804 
L 145.653202 116.129517 
L 145.978182 128.396065 
L 146.303161 122.905571 
L 146.628141 121.763907 
L 146.95312 118.814278 
L 147.2781 132.451618 
L 147.603079 131.941021 
L 147.928059 138.406318 
L 148.253038 139.306192 
L 148.578018 135.283483 
L 148.902998 121.691793 
L 149.227977 129.816731 
L 149.552957 127.845328 
L 149.877936 130.389022 
L 150.202916 114.32316 
L 150.527895 117.825543 
L 150.852875 124.583247 
L 151.177854 115.03985 
L 151.502834 133.003568 
L 151.827813 117.950649 
L 152.152793 111.231617 
L 152.477772 116.602923 
L 152.802752 124.056662 
L 153.127731 147.045798 
L 153.452711 119.301438 
L 153.77769 129.774212 
L 154.10267 144.278765 
L 154.427649 127.890217 
L 155.077609 134.313883 
L 155.402588 120.829387 
L 155.727568 135.416151 
L 156.052547 142.456444 
L 156.377527 126.491098 
L 156.702506 138.429353 
L 157.027486 124.87444 
L 157.352465 121.760394 
L 157.677445 136.257757 
L 158.002424 144.382341 
L 158.327404 135.855236 
L 158.652383 123.92334 
L 159.302342 131.909185 
L 159.627322 156.28199 
L 159.952301 119.450188 
L 160.277281 142.905463 
L 160.60226 120.514927 
L 160.92724 117.352091 
L 161.252219 128.700562 
L 161.577199 128.017765 
L 161.902179 125.629066 
L 162.227158 127.299383 
L 162.552138 137.652726 
L 162.877117 120.789932 
L 163.202097 132.295779 
L 163.527076 117.264976 
L 163.852056 131.77113 
L 164.177035 116.859857 
L 164.502015 127.307797 
L 164.826994 123.408889 
L 165.151974 126.897638 
L 165.476953 124.798631 
L 165.801933 135.577301 
L 166.126912 120.856465 
L 166.451892 127.65957 
L 166.776871 142.361792 
L 167.101851 131.61531 
L 167.42683 131.98023 
L 167.75181 127.622014 
L 168.07679 119.053737 
L 168.401769 133.742966 
L 168.726749 113.170519 
L 169.051728 126.769042 
L 169.376708 125.585254 
L 169.701687 127.415078 
L 170.026667 121.023881 
L 170.351646 140.654044 
L 170.676626 142.717713 
L 171.001605 132.276444 
L 171.326585 142.224476 
L 171.651564 128.723402 
L 171.976544 138.050048 
L 172.301523 126.782822 
L 172.626503 130.911464 
L 172.951482 130.52255 
L 173.276462 121.972132 
L 173.601441 119.482258 
L 173.926421 163.204851 
L 174.2514 116.146475 
L 174.57638 119.951975 
L 174.90136 131.310904 
L 175.226339 129.043544 
L 175.551319 148.284805 
L 175.876298 126.833493 
L 176.201278 132.814017 
L 176.526257 126.223066 
L 176.851237 127.680216 
L 177.176216 124.022403 
L 177.501196 115.656069 
L 177.826175 121.184651 
L 178.151155 136.763668 
L 178.476134 125.585923 
L 178.801114 127.299568 
L 179.126093 126.1805 
L 179.451073 133.85967 
L 179.776052 134.694926 
L 180.101032 128.254104 
L 180.426011 127.074706 
L 180.750991 121.224705 
L 181.075971 130.723054 
L 181.40095 131.187595 
L 181.72593 142.353414 
L 182.050909 144.035838 
L 182.375889 112.993215 
L 182.700868 128.56575 
L 183.025848 130.094371 
L 183.350827 132.19302 
L 183.675807 138.622817 
L 184.000786 130.35452 
L 184.325766 128.095747 
L 184.650745 133.311862 
L 184.975725 144.580623 
L 185.300704 129.534641 
L 185.625684 143.233045 
L 185.950663 129.653166 
L 186.275643 122.511164 
L 186.600622 145.891072 
L 186.925602 134.846762 
L 187.250581 141.183532 
L 187.575561 128.656661 
L 187.900541 133.250287 
L 188.22552 140.501831 
L 188.5505 114.342589 
L 188.875479 123.858377 
L 189.200459 126.385094 
L 189.525438 119.050672 
L 189.850418 125.657486 
L 190.175397 139.255855 
L 190.500377 117.797484 
L 190.825356 169.69894 
L 191.150336 126.635134 
L 191.475315 115.212536 
L 191.800295 144.482716 
L 192.450254 116.604373 
L 192.775233 135.137223 
L 193.100213 129.92308 
L 193.425192 132.570036 
L 193.750172 141.714331 
L 194.075152 120.905713 
L 194.400131 130.799128 
L 194.725111 158.216831 
L 195.05009 130.332632 
L 195.37507 133.9072 
L 195.700049 133.637064 
L 196.025029 126.724905 
L 196.350008 130.171002 
L 196.674988 123.517769 
L 197.324947 149.081862 
L 197.649926 133.507533 
L 197.974906 124.382671 
L 198.299885 137.906204 
L 198.624865 139.307966 
L 198.949844 120.462271 
L 199.274824 131.590362 
L 199.924783 119.267552 
L 200.249762 130.547255 
L 200.574742 127.375968 
L 200.899722 128.040352 
L 201.224701 131.543666 
L 201.87466 130.141273 
L 202.19964 129.8715 
L 202.524619 135.899 
L 202.849599 124.114061 
L 203.499558 137.61018 
L 203.824537 120.249113 
L 204.149517 121.934326 
L 204.474496 136.079167 
L 204.799476 141.962423 
L 205.124455 132.004753 
L 205.449435 131.579364 
L 205.774414 164.185145 
L 206.099394 121.39813 
L 206.424373 143.756348 
L 206.749353 133.152202 
L 207.074333 148.519315 
L 207.399312 124.336312 
L 207.724292 131.117305 
L 208.049271 129.356854 
L 209.02421 140.105358 
L 209.349189 131.632693 
L 209.674169 119.155234 
L 209.999148 124.369942 
L 210.324128 114.750884 
L 210.649107 123.32948 
L 210.974087 152.375453 
L 211.299066 129.534818 
L 211.949025 131.802191 
L 212.274005 140.918244 
L 212.598984 122.526934 
L 212.923964 136.110278 
L 213.248943 158.363065 
L 213.573923 135.560953 
L 213.898903 131.77736 
L 214.223882 141.624941 
L 214.548862 134.100808 
L 214.873841 133.443855 
L 215.198821 134.182859 
L 215.5238 150.571899 
L 215.84878 124.297087 
L 216.173759 135.861715 
L 216.498739 130.071619 
L 216.823718 137.654412 
L 217.148698 136.785849 
L 217.473677 132.486828 
L 217.798657 146.348374 
L 218.123636 149.310831 
L 218.448616 131.134922 
L 218.773595 135.20659 
L 219.098575 130.714908 
L 219.423554 169.282298 
L 219.748534 133.80903 
L 220.073514 135.128541 
L 221.048452 120.435437 
L 221.373432 130.222675 
L 221.698411 134.503472 
L 222.023391 128.873684 
L 222.67335 138.040605 
L 222.998329 129.065689 
L 223.323309 145.516583 
L 223.648288 121.265748 
L 223.973268 125.625307 
L 224.298247 135.523702 
L 224.623227 135.050759 
L 224.948206 130.838136 
L 225.273186 130.455484 
L 225.598165 137.73887 
L 225.923145 158.992487 
L 226.248124 155.154964 
L 226.573104 134.828031 
L 226.898084 158.307099 
L 227.548043 130.856647 
L 227.873022 136.069192 
L 228.198002 144.575877 
L 228.522981 169.381965 
L 228.847961 147.7588 
L 229.17294 159.827354 
L 229.49792 128.85418 
L 229.822899 140.983237 
L 230.147879 145.209453 
L 230.472858 128.639829 
L 230.797838 142.084672 
L 231.122817 133.168152 
L 231.447797 129.989378 
L 231.772776 124.19778 
L 232.422735 147.621499 
L 232.747715 136.442741 
L 233.397674 126.53348 
L 233.722654 154.191855 
L 234.047633 129.851246 
L 234.372613 155.379654 
L 234.697592 155.814992 
L 235.022572 146.593361 
L 235.347551 129.938083 
L 235.672531 162.244381 
L 235.99751 159.800961 
L 236.32249 130.62675 
L 236.647469 149.021115 
L 236.972449 129.465272 
L 237.297428 139.786879 
L 237.622408 156.060604 
L 237.947387 184.114406 
L 238.272367 161.128242 
L 238.597346 152.623651 
L 238.922326 163.868267 
L 239.247305 125.091846 
L 239.572285 137.081341 
L 239.897265 131.085884 
L 240.222244 132.105941 
L 240.547224 152.584018 
L 240.872203 136.760735 
L 241.197183 132.833021 
L 241.847142 161.263322 
L 242.172121 128.169541 
L 242.497101 138.637193 
L 242.82208 124.886399 
L 243.14706 143.848531 
L 243.797019 168.613689 
L 244.121998 166.912379 
L 244.446978 172.768014 
L 244.771957 135.468478 
L 245.096937 163.139082 
L 245.421916 165.225696 
L 246.071876 129.261999 
L 246.396855 161.914151 
L 246.721835 141.893966 
L 247.046814 135.062691 
L 247.371794 146.865326 
L 247.696773 147.477671 
L 248.021753 152.041941 
L 248.346732 150.991872 
L 248.671712 159.108435 
L 248.996691 127.078894 
L 249.321671 153.162199 
L 249.97163 131.305936 
L 250.296609 170.044951 
L 250.621589 173.258266 
L 250.946568 172.227464 
L 251.271548 124.80226 
L 251.596527 133.73925 
L 251.921507 167.82302 
L 252.571466 129.276725 
L 252.896446 169.084044 
L 253.546405 130.908866 
L 253.871384 152.89697 
L 254.196364 160.647546 
L 254.521343 175.688095 
L 254.846323 171.214926 
L 255.171302 194.524109 
L 255.496282 145.618297 
L 255.821261 177.33359 
L 256.146241 134.599696 
L 256.47122 141.477761 
L 256.7962 131.525807 
L 257.121179 149.69079 
L 257.446159 156.515113 
L 257.771138 187.997081 
L 258.096118 185.533104 
L 258.421097 193.450982 
L 258.746077 143.841359 
L 259.071057 145.289276 
L 259.721016 171.061583 
L 260.045995 163.688508 
L 260.370975 171.491971 
L 260.695954 144.021071 
L 261.020934 130.773371 
L 261.345913 137.556446 
L 261.670893 179.09521 
L 261.995872 138.627212 
L 262.320852 143.034107 
L 262.645831 199.459881 
L 262.970811 181.756757 
L 263.29579 130.92147 
L 263.945749 156.000995 
L 264.270729 186.140721 
L 264.595708 187.783231 
L 264.920688 183.703394 
L 265.245667 160.022863 
L 265.570647 148.167189 
L 265.895627 124.704838 
L 266.220606 141.758858 
L 266.545586 136.371399 
L 266.870565 159.72717 
L 267.195545 142.666977 
L 267.520524 150.251455 
L 267.845504 190.56954 
L 268.170483 200.983659 
L 268.495463 152.791368 
L 268.820442 168.562911 
L 269.145422 152.997942 
L 269.470401 183.719002 
L 269.795381 188.368747 
L 270.12036 136.405926 
L 270.44534 131.988878 
L 270.770319 137.474231 
L 271.095299 193.136935 
L 271.420278 148.950156 
L 271.745258 178.69162 
L 272.070238 191.893728 
L 272.395217 193.390354 
L 272.720197 156.511821 
L 273.045176 144.611383 
L 273.370156 179.748413 
L 273.695135 140.354024 
L 274.020115 180.119117 
L 274.345094 137.155772 
L 274.670074 184.93056 
L 274.995053 197.572709 
L 275.320033 149.800266 
L 275.645012 155.731669 
L 275.969992 199.772896 
L 276.294971 199.830497 
L 276.94493 214.686054 
L 277.26991 142.591256 
L 277.594889 153.02334 
L 277.919869 136.451664 
L 278.244848 147.362556 
L 278.569828 177.100638 
L 278.894808 191.56813 
L 279.219787 198.543403 
L 279.544767 200.058475 
L 279.869746 195.706994 
L 280.194726 150.135083 
L 280.519705 188.63338 
L 280.844685 134.758615 
L 281.169664 189.72143 
L 281.494644 130.779732 
L 281.819623 142.103438 
L 282.144603 140.932413 
L 282.469582 178.114745 
L 282.794562 194.870191 
L 283.119541 157.18605 
L 283.444521 134.520203 
L 283.7695 199.48864 
L 284.09448 223.882719 
L 284.419459 145.426998 
L 284.744439 200.805245 
L 285.069419 157.110493 
L 285.394398 169.595321 
L 285.719378 216.094112 
L 286.044357 207.78066 
L 286.369337 142.267552 
L 286.694316 211.844854 
L 287.019296 209.932539 
L 287.344275 130.106445 
L 287.669255 133.130444 
L 287.994234 209.93029 
L 288.319214 213.530646 
L 288.644193 207.779075 
L 288.969173 142.666595 
L 289.294152 144.222686 
L 289.619132 185.33302 
L 289.944111 142.472533 
L 290.269091 152.440061 
L 290.59407 193.772034 
L 290.91905 211.572796 
L 291.244029 141.658161 
L 291.569009 204.141606 
L 291.893989 177.771102 
L 292.543948 223.369394 
L 292.868927 217.719861 
L 293.193907 138.025389 
L 293.843866 183.964118 
L 294.168845 225.972174 
L 294.493825 146.699666 
L 294.818804 212.663473 
L 295.143784 156.428543 
L 295.468763 197.825331 
L 295.793743 176.763817 
L 296.118722 214.092914 
L 296.443702 237.190628 
L 296.768681 150.763076 
L 297.093661 133.332047 
L 297.41864 152.992867 
L 297.74362 199.749691 
L 298.0686 143.339278 
L 298.393579 207.689821 
L 298.718559 295.454143 
L 299.043538 141.007997 
L 299.368518 145.468521 
L 300.018477 177.773964 
L 300.343456 158.733995 
L 300.668436 168.667135 
L 300.993415 213.019608 
L 301.318395 146.333285 
L 302.293333 262.10868 
L 302.618313 141.081283 
L 302.943292 145.654196 
L 303.268272 157.841414 
L 303.593251 164.040305 
L 303.918231 213.986848 
L 304.24321 231.030661 
L 304.56819 234.744328 
L 304.89317 150.387294 
L 305.218149 203.341087 
L 305.868108 235.468089 
L 306.193088 222.450672 
L 306.518067 152.303463 
L 306.843047 192.152015 
L 307.168026 130.746396 
L 307.817985 209.162647 
L 308.142965 137.793187 
L 308.467944 159.227067 
L 308.792924 140.004007 
L 309.117903 154.038364 
L 309.442883 208.611901 
L 309.767862 295.488 
L 310.092842 258.625957 
L 310.417821 259.177106 
L 310.742801 152.957387 
L 311.067781 139.352234 
L 311.71774 242.312512 
L 312.042719 149.602151 
L 312.367699 207.547773 
L 312.692678 223.332178 
L 313.017658 169.331083 
L 313.342637 162.74913 
L 313.667617 226.499039 
L 313.992596 143.489714 
L 314.317576 209.805887 
L 314.967535 273.80059 
L 315.292514 170.205917 
L 315.617494 190.412845 
L 315.942473 259.900178 
L 316.267453 143.87873 
L 316.592432 187.493018 
L 316.917412 148.867095 
L 317.242391 142.478759 
L 317.567371 153.501216 
L 317.892351 241.005251 
L 318.21733 140.56237 
L 318.54231 191.713031 
L 318.867289 135.317333 
L 319.192269 241.956146 
L 319.517248 250.634175 
L 319.842228 149.446101 
L 320.167207 159.109088 
L 320.492187 252.87399 
L 320.817166 271.452551 
L 321.142146 135.13256 
L 321.467125 211.010887 
L 322.117084 270.893281 
L 322.442064 162.758096 
L 322.767043 138.073478 
L 323.092023 176.106633 
L 323.417002 167.636079 
L 323.741982 156.115799 
L 324.066962 209.446102 
L 324.391941 158.911155 
L 324.716921 232.71486 
L 325.0419 227.384239 
L 325.36688 132.692572 
L 326.016839 237.842348 
L 326.341818 274.216175 
L 326.666798 153.87326 
L 326.991777 214.268326 
L 327.316757 233.155718 
L 327.641736 154.841734 
L 327.966716 207.583961 
L 328.291695 280.107632 
L 328.616675 149.492115 
L 328.941654 181.674702 
L 329.266634 258.506698 
L 329.591613 139.789972 
L 329.916593 211.664283 
L 330.241572 162.997839 
L 330.566552 270.269707 
L 330.891532 163.149102 
L 331.541491 261.950723 
L 331.86647 272.258207 
L 332.19145 143.576545 
L 332.516429 140.727503 
L 332.841409 201.252157 
L 333.166388 147.916924 
L 333.491368 137.997725 
L 333.816347 193.128852 
L 334.141327 144.422258 
L 334.466306 149.312455 
L 334.791286 193.769658 
L 335.116265 148.301848 
L 335.441245 171.485629 
L 335.766224 154.279886 
L 336.091204 217.191568 
L 336.416183 229.350651 
L 336.741163 223.929242 
L 337.066143 241.195942 
L 337.391122 232.639822 
L 337.716102 154.359784 
L 338.041081 157.227584 
L 338.366061 140.665267 
L 338.69104 139.676272 
L 339.01602 231.155943 
L 339.340999 237.419642 
L 339.665979 161.407823 
L 339.990958 143.988442 
L 340.315938 206.956927 
L 340.640917 135.200814 
L 340.965897 158.72534 
L 341.290876 155.004928 
L 341.615856 140.027252 
L 341.940835 144.156243 
L 342.265815 219.160179 
L 342.590794 215.961392 
L 342.915774 217.893841 
L 343.565733 227.18718 
L 343.890713 218.992585 
L 344.215692 223.772127 
L 344.540672 148.946393 
L 344.865651 148.872448 
L 345.190631 168.101929 
L 345.51561 144.601742 
L 345.84059 198.473958 
L 346.165569 172.73187 
L 346.490549 232.646311 
L 346.815528 232.455441 
L 347.140508 186.94899 
L 347.465487 237.553555 
L 347.790467 253.134508 
L 348.115446 172.753755 
L 348.765405 144.693877 
L 349.090385 145.894548 
L 349.415364 140.70187 
L 349.740344 188.602306 
L 350.065324 162.548757 
L 350.390303 220.264431 
L 350.715283 140.070932 
L 351.040262 205.160274 
L 351.365242 149.321985 
L 351.690221 203.195692 
L 352.015201 143.905243 
L 352.34018 187.067438 
L 352.66516 154.150882 
L 352.990139 154.394664 
L 353.315119 140.918025 
L 353.640098 187.737269 
L 353.965078 155.87037 
L 354.290057 211.570607 
L 354.615037 219.940638 
L 354.940016 145.371827 
L 355.264996 197.961526 
L 355.589975 138.493087 
L 355.914955 203.784393 
L 356.564914 236.79494 
L 356.889894 267.562536 
L 357.214873 149.879979 
L 357.539853 138.687302 
L 357.864832 169.698697 
L 358.189812 142.082339 
L 358.514791 198.787302 
L 359.48973 252.570061 
L 359.814709 154.856211 
L 360.139689 211.277731 
L 360.464668 144.971857 
L 360.789648 198.008764 
L 361.114627 226.803039 
L 361.439607 163.168921 
L 361.764586 221.306356 
L 362.089566 238.023417 
L 362.414545 229.626807 
L 362.739525 141.355222 
L 363.064505 198.441055 
L 363.389484 209.029619 
L 363.714464 251.618851 
L 364.039443 146.530775 
L 364.364423 133.037184 
L 364.689402 160.952391 
L 365.339361 229.757695 
L 365.664341 235.328195 
L 365.98932 141.478276 
L 366.3143 149.075098 
L 366.639279 204.064165 
L 366.964259 161.051793 
L 367.289238 140.736229 
L 367.614218 190.470187 
L 367.939197 145.002625 
L 368.264177 201.770664 
L 368.589156 143.718129 
L 368.914136 214.179688 
L 369.239115 186.74324 
L 369.564095 234.431474 
L 369.889075 170.754038 
L 370.214054 230.237091 
L 370.539034 137.755848 
L 371.188993 229.322764 
L 371.513972 232.43695 
L 371.838952 148.848547 
L 372.163931 154.847877 
L 372.488911 153.855524 
L 372.81389 144.449799 
L 373.13887 218.966595 
L 373.463849 154.190986 
L 373.788829 148.835703 
L 374.113808 148.394531 
L 374.438788 171.423636 
L 374.763767 225.229622 
L 375.088747 230.599559 
L 375.413726 140.707199 
L 375.738706 140.029568 
L 376.063686 207.01121 
L 376.388665 157.341637 
L 376.713645 161.239953 
L 377.038624 216.302329 
L 377.363604 219.800376 
L 377.688583 144.591965 
L 378.013563 153.810307 
L 378.338542 231.563914 
L 378.663522 189.27624 
L 378.988501 233.682124 
L 379.313481 144.797218 
L 379.63846 141.450904 
L 379.96344 186.63093 
L 380.288419 137.023882 
L 380.613399 238.215645 
L 380.938378 144.122673 
L 381.263358 161.626195 
L 381.588337 207.345862 
L 381.913317 226.203934 
L 382.238296 149.316789 
L 382.563276 163.264246 
L 382.888256 171.38389 
L 383.213235 170.069687 
L 383.538215 154.09837 
L 383.863194 148.996653 
L 384.513153 241.555429 
L 384.838133 189.146666 
L 385.163112 188.093769 
L 385.488092 233.961172 
L 385.813071 144.575359 
L 386.138051 162.524095 
L 386.46303 135.536495 
L 386.78801 144.21833 
L 387.112989 201.338572 
L 387.437969 233.771172 
L 387.762948 208.99801 
L 388.087928 154.727623 
L 388.412907 161.141215 
L 388.737887 224.756223 
L 389.062867 140.812395 
L 389.387846 203.954159 
L 389.712826 186.672686 
L 390.037805 148.878175 
L 390.362785 162.793802 
L 390.687764 222.232352 
L 391.012744 219.691691 
L 391.337723 237.520952 
L 391.662703 226.84835 
L 391.987682 154.72796 
L 392.312662 137.075711 
L 392.962621 214.815161 
L 393.2876 230.040608 
L 393.61258 282.943949 
L 393.937559 282.397613 
L 394.262539 290.637263 
L 394.587518 289.481924 
L 394.912498 133.273018 
L 395.237477 154.545421 
L 395.562457 148.58705 
L 395.887437 207.836411 
L 396.212416 236.769413 
L 396.537396 189.635858 
L 396.862375 171.207906 
L 397.187355 161.787169 
L 397.512334 161.405668 
L 397.837314 144.586189 
L 398.162293 148.183923 
L 398.487273 230.405769 
L 398.487273 230.405769 
" style="fill:none;stroke:#1f77b4;stroke-linecap:square;stroke-width:1.5;"/>
   </g>
   <g id="patch_3">
    <path d="M 57.6 307.584 
L 57.6 41.472 
" style="fill:none;stroke:#000000;stroke-linecap:square;stroke-linejoin:miter;stroke-width:0.8;"/>
   </g>
   <g id="patch_4">
    <path d="M 414.72 307.584 
L 414.72 41.472 
" style="fill:none;stroke:#000000;stroke-linecap:square;stroke-linejoin:miter;stroke-width:0.8;"/>
   </g>
   <g id="patch_5">
    <path d="M 57.6 307.584 
L 414.72 307.584 
" style="fill:none;stroke:#000000;stroke-linecap:square;stroke-linejoin:miter;stroke-width:0.8;"/>
   </g>
   <g id="patch_6">
    <path d="M 57.6 41.472 
L 414.72 41.472 
" style="fill:none;stroke:#000000;stroke-linecap:square;stroke-linejoin:miter;stroke-width:0.8;"/>
   </g>
  </g>
 </g>
 <defs>
  <clipPath id="p30cd357bc8">
   <rect height="266.112" width="357.12" x="57.6" y="41.472"/>
  </clipPath>
 </defs>
</svg>
