<?xml version="1.0" encoding="utf-8" standalone="no"?>
<!DOCTYPE svg PUBLIC "-//W3C//DTD SVG 1.1//EN"
  "http://www.w3.org/Graphics/SVG/1.1/DTD/svg11.dtd">
<!-- Created with matplotlib (https://matplotlib.org/) -->
<svg height="345.6pt" version="1.1" viewBox="0 0 460.8 345.6" width="460.8pt" xmlns="http://www.w3.org/2000/svg" xmlns:xlink="http://www.w3.org/1999/xlink">
 <defs>
  <style type="text/css">
*{stroke-linecap:butt;stroke-linejoin:round;}
  </style>
 </defs>
 <g id="figure_1">
  <g id="patch_1">
   <path d="M 0 345.6 
L 460.8 345.6 
L 460.8 0 
L 0 0 
z
" style="fill:#ffffff;"/>
  </g>
  <g id="axes_1">
   <g id="patch_2">
    <path d="M 57.6 307.584 
L 343.296 307.584 
L 343.296 41.472 
L 57.6 41.472 
z
" style="fill:#ffffff;"/>
   </g>
   <g id="PathCollection_1">
    <path clip-path="url(#p955c9618ba)" d="M 89.344 307.584 
L 121.088 307.584 
L 152.832 307.584 
L 184.576 307.584 
L 216.32 307.584 
L 248.064 307.584 
L 279.808 307.584 
L 311.552 307.584 
L 343.296 307.584 
L 343.296 278.016 
L 343.296 248.448 
L 343.296 218.88 
L 343.296 189.312 
L 343.296 159.744 
L 343.296 130.176 
L 343.296 100.608 
L 343.296 71.04 
L 343.296 41.472 
L 311.552 41.472 
L 279.808 41.472 
L 248.064 41.472 
L 216.32 41.472 
L 184.576 41.472 
L 152.832 41.472 
L 121.088 41.472 
L 89.344 41.472 
L 57.6 41.472 
L 57.6 71.04 
L 57.6 100.608 
L 57.6 130.176 
L 57.6 159.744 
L 57.6 189.312 
L 57.6 218.88 
L 57.6 248.448 
L 57.6 278.016 
L 57.6 307.584 
z
M 71.717345 278.016 
L 64.642727 248.448 
L 62.298937 218.88 
L 61.165519 189.312 
L 60.557128 159.744 
L 60.284156 130.176 
L 60.381087 100.608 
L 61.474919 71.04 
L 89.344 45.081299 
L 121.088 43.392468 
L 152.832 42.897424 
L 184.576 42.725497 
L 216.32 42.725497 
L 248.064 42.897424 
L 279.808 43.392468 
L 311.552 45.081299 
L 339.421081 71.04 
L 340.514913 100.608 
L 340.611844 130.176 
L 340.338872 159.744 
L 339.730481 189.312 
L 338.597063 218.88 
L 336.253273 248.448 
L 329.178655 278.016 
L 311.552 294.434376 
L 279.808 300.587231 
L 248.064 302.390808 
L 216.32 303.017184 
L 184.576 303.017184 
L 152.832 302.390808 
L 121.088 300.587231 
L 89.344 294.434376 
z
" style="fill:#3e51c5;"/>
   </g>
   <g id="PathCollection_2">
    <path clip-path="url(#p955c9618ba)" d="M 89.344 294.434376 
L 121.088 300.587231 
L 152.832 302.390808 
L 184.576 303.017184 
L 216.32 303.017184 
L 248.064 302.390808 
L 279.808 300.587231 
L 311.552 294.434376 
L 329.178655 278.016 
L 336.253273 248.448 
L 338.597063 218.88 
L 339.730481 189.312 
L 340.338872 159.744 
L 340.611844 130.176 
L 340.514913 100.608 
L 339.421081 71.04 
L 311.552 45.081299 
L 279.808 43.392468 
L 248.064 42.897424 
L 216.32 42.725497 
L 184.576 42.725497 
L 152.832 42.897424 
L 121.088 43.392468 
L 89.344 45.081299 
L 61.474919 71.04 
L 60.381087 100.608 
L 60.284156 130.176 
L 60.557128 159.744 
L 61.165519 189.312 
L 62.298937 218.88 
L 64.642727 248.448 
L 71.717345 278.016 
z
M 85.83469 278.016 
L 71.685454 248.448 
L 66.997874 218.88 
L 64.731037 189.312 
L 63.514257 159.744 
L 62.968312 130.176 
L 63.162174 100.608 
L 65.349838 71.04 
L 89.344 48.690599 
L 121.088 45.312936 
L 152.832 44.322847 
L 184.576 43.978993 
L 216.32 43.978993 
L 248.064 44.322847 
L 279.808 45.312936 
L 311.552 48.690599 
L 335.546162 71.04 
L 337.733826 100.608 
L 337.927688 130.176 
L 337.381743 159.744 
L 336.164963 189.312 
L 333.898126 218.88 
L 329.210546 248.448 
L 315.06131 278.016 
L 311.552 281.284752 
L 279.808 293.590463 
L 248.064 297.197616 
L 216.32 298.450367 
L 184.576 298.450367 
L 152.832 297.197616 
L 121.088 293.590463 
L 89.344 281.284752 
z
" style="fill:#465ecf;"/>
   </g>
   <g id="PathCollection_3">
    <path clip-path="url(#p955c9618ba)" d="M 89.344 281.284752 
L 121.088 293.590463 
L 152.832 297.197616 
L 184.576 298.450367 
L 216.32 298.450367 
L 248.064 297.197616 
L 279.808 293.590463 
L 311.552 281.284752 
L 315.06131 278.016 
L 329.210546 248.448 
L 333.898126 218.88 
L 336.164963 189.312 
L 337.381743 159.744 
L 337.927688 130.176 
L 337.733826 100.608 
L 335.546162 71.04 
L 311.552 48.690599 
L 279.808 45.312936 
L 248.064 44.322847 
L 216.32 43.978993 
L 184.576 43.978993 
L 152.832 44.322847 
L 121.088 45.312936 
L 89.344 48.690599 
L 65.349838 71.04 
L 63.162174 100.608 
L 62.968312 130.176 
L 63.514257 159.744 
L 64.731037 189.312 
L 66.997874 218.88 
L 71.685454 248.448 
L 85.83469 278.016 
z
M 101.407012 278.016 
L 89.344 268.17967 
L 78.728181 248.448 
L 71.696811 218.88 
L 68.296556 189.312 
L 66.471385 159.744 
L 65.652469 130.176 
L 65.943261 100.608 
L 69.224757 71.04 
L 89.344 52.299898 
L 121.088 47.233404 
L 152.832 45.748271 
L 184.576 45.23249 
L 216.32 45.23249 
L 248.064 45.748271 
L 279.808 47.233404 
L 311.552 52.299898 
L 331.671243 71.04 
L 334.952739 100.608 
L 335.243531 130.176 
L 334.424615 159.744 
L 332.599444 189.312 
L 329.199189 218.88 
L 322.167819 248.448 
L 311.552 268.17967 
L 299.488988 278.016 
L 279.808 286.593694 
L 248.064 292.004424 
L 216.32 293.883551 
L 184.576 293.883551 
L 152.832 292.004424 
L 121.088 286.593694 
z
" style="fill:#506bda;"/>
   </g>
   <g id="PathCollection_4">
    <path clip-path="url(#p955c9618ba)" d="M 121.088 286.593694 
L 152.832 292.004424 
L 184.576 293.883551 
L 216.32 293.883551 
L 248.064 292.004424 
L 279.808 286.593694 
L 299.488988 278.016 
L 311.552 268.17967 
L 322.167819 248.448 
L 329.199189 218.88 
L 332.599444 189.312 
L 334.424615 159.744 
L 335.243531 130.176 
L 334.952739 100.608 
L 331.671243 71.04 
L 311.552 52.299898 
L 279.808 47.233404 
L 248.064 45.748271 
L 216.32 45.23249 
L 184.576 45.23249 
L 152.832 45.748271 
L 121.088 47.233404 
L 89.344 52.299898 
L 69.224757 71.04 
L 65.943261 100.608 
L 65.652469 130.176 
L 66.471385 159.744 
L 68.296556 189.312 
L 71.696811 218.88 
L 78.728181 248.448 
L 89.344 268.17967 
L 101.407012 278.016 
z
M 117.460665 278.016 
L 89.344 255.089322 
L 85.770908 248.448 
L 76.395748 218.88 
L 71.862074 189.312 
L 69.428514 159.744 
L 68.336625 130.176 
L 68.724348 100.608 
L 73.099676 71.04 
L 89.344 55.909198 
L 121.088 49.153873 
L 152.832 47.173695 
L 184.576 46.485986 
L 216.32 46.485986 
L 248.064 47.173695 
L 279.808 49.153873 
L 311.552 55.909198 
L 327.796324 71.04 
L 332.171652 100.608 
L 332.559375 130.176 
L 331.467486 159.744 
L 329.033926 189.312 
L 324.500252 218.88 
L 315.125092 248.448 
L 311.552 255.089322 
L 283.435335 278.016 
L 279.808 279.596925 
L 248.064 286.811232 
L 216.32 289.316734 
L 184.576 289.316734 
L 152.832 286.811232 
L 121.088 279.596925 
z
" style="fill:#5977e3;"/>
   </g>
   <g id="PathCollection_5">
    <path clip-path="url(#p955c9618ba)" d="M 121.088 279.596925 
L 152.832 286.811232 
L 184.576 289.316734 
L 216.32 289.316734 
L 248.064 286.811232 
L 279.808 279.596925 
L 283.435335 278.016 
L 311.552 255.089322 
L 315.125092 248.448 
L 324.500252 218.88 
L 329.033926 189.312 
L 331.467486 159.744 
L 332.559375 130.176 
L 332.171652 100.608 
L 327.796324 71.04 
L 311.552 55.909198 
L 279.808 49.153873 
L 248.064 47.173695 
L 216.32 46.485986 
L 184.576 46.485986 
L 152.832 47.173695 
L 121.088 49.153873 
L 89.344 55.909198 
L 73.099676 71.04 
L 68.724348 100.608 
L 68.336625 130.176 
L 69.428514 159.744 
L 71.862074 189.312 
L 76.395748 218.88 
L 85.770908 248.448 
L 89.344 255.089322 
L 117.460665 278.016 
z
M 137.829932 278.016 
L 121.088 272.62457 
L 93.289524 248.448 
L 89.344 241.968746 
L 81.094685 218.88 
L 75.427593 189.312 
L 72.385642 159.744 
L 71.020781 130.176 
L 71.505435 100.608 
L 76.974595 71.04 
L 89.344 59.518497 
L 121.088 51.074341 
L 152.832 48.599118 
L 184.576 47.739483 
L 216.32 47.739483 
L 248.064 48.599118 
L 279.808 51.074341 
L 311.552 59.518497 
L 323.921405 71.04 
L 329.390565 100.608 
L 329.875219 130.176 
L 328.510358 159.744 
L 325.468407 189.312 
L 319.801315 218.88 
L 311.552 241.968746 
L 307.606476 248.448 
L 279.808 272.62457 
L 263.066068 278.016 
L 248.064 281.61804 
L 216.32 284.749918 
L 184.576 284.749918 
L 152.832 281.61804 
z
" style="fill:#6282ea;"/>
   </g>
   <g id="PathCollection_6">
    <path clip-path="url(#p955c9618ba)" d="M 152.832 281.61804 
L 184.576 284.749918 
L 216.32 284.749918 
L 248.064 281.61804 
L 263.066068 278.016 
L 279.808 272.62457 
L 307.606476 248.448 
L 311.552 241.968746 
L 319.801315 218.88 
L 325.468407 189.312 
L 328.510358 159.744 
L 329.875219 130.176 
L 329.390565 100.608 
L 323.921405 71.04 
L 311.552 59.518497 
L 279.808 51.074341 
L 248.064 48.599118 
L 216.32 47.739483 
L 184.576 47.739483 
L 152.832 48.599118 
L 121.088 51.074341 
L 89.344 59.518497 
L 76.974595 71.04 
L 71.505435 100.608 
L 71.020781 130.176 
L 72.385642 159.744 
L 75.427593 189.312 
L 81.094685 218.88 
L 89.344 241.968746 
L 93.289524 248.448 
L 121.088 272.62457 
L 137.829932 278.016 
z
M 165.286609 278.016 
L 152.832 276.432021 
L 121.088 265.659341 
L 101.298217 248.448 
L 89.344 228.817041 
L 85.793621 218.88 
L 78.993111 189.312 
L 75.342771 159.744 
L 73.704937 130.176 
L 74.286522 100.608 
L 80.849514 71.04 
L 89.344 63.127797 
L 121.088 52.994809 
L 152.832 50.024542 
L 184.576 48.992979 
L 216.32 48.992979 
L 248.064 50.024542 
L 279.808 52.994809 
L 311.552 63.127797 
L 320.046486 71.04 
L 326.609478 100.608 
L 327.191063 130.176 
L 325.553229 159.744 
L 321.902889 189.312 
L 315.102379 218.88 
L 311.552 228.817041 
L 299.597783 248.448 
L 279.808 265.659341 
L 248.064 276.432021 
L 235.609391 278.016 
L 216.32 280.183102 
L 184.576 280.183102 
z
" style="fill:#6c8ff1;"/>
   </g>
   <g id="PathCollection_7">
    <path clip-path="url(#p955c9618ba)" d="M 184.576 280.183102 
L 216.32 280.183102 
L 235.609391 278.016 
L 248.064 276.432021 
L 279.808 265.659341 
L 299.597783 248.448 
L 311.552 228.817041 
L 315.102379 218.88 
L 321.902889 189.312 
L 325.553229 159.744 
L 327.191063 130.176 
L 326.609478 100.608 
L 320.046486 71.04 
L 311.552 63.127797 
L 279.808 52.994809 
L 248.064 50.024542 
L 216.32 48.992979 
L 184.576 48.992979 
L 152.832 50.024542 
L 121.088 52.994809 
L 89.344 63.127797 
L 80.849514 71.04 
L 74.286522 100.608 
L 73.704937 130.176 
L 75.342771 159.744 
L 78.993111 189.312 
L 85.793621 218.88 
L 89.344 228.817041 
L 101.298217 248.448 
L 121.088 265.659341 
L 152.832 276.432021 
L 165.286609 278.016 
z
M 109.306911 248.448 
L 90.650092 218.88 
L 89.344 215.514529 
L 82.55863 189.312 
L 78.299899 159.744 
L 76.389093 130.176 
L 77.067609 100.608 
L 84.724432 71.04 
L 89.344 66.737096 
L 121.088 54.915277 
L 152.832 51.449966 
L 184.576 50.246476 
L 216.32 50.246476 
L 248.064 51.449966 
L 279.808 54.915277 
L 311.552 66.737096 
L 316.171568 71.04 
L 323.828391 100.608 
L 324.506907 130.176 
L 322.596101 159.744 
L 318.33737 189.312 
L 311.552 215.514529 
L 310.245908 218.88 
L 291.589089 248.448 
L 279.808 258.694113 
L 248.064 271.262238 
L 216.32 275.627103 
L 184.576 275.627103 
L 152.832 271.262238 
L 121.088 258.694113 
z
" style="fill:#7699f6;"/>
   </g>
   <g id="PathCollection_8">
    <path clip-path="url(#p955c9618ba)" d="M 121.088 258.694113 
L 152.832 271.262238 
L 184.576 275.627103 
L 216.32 275.627103 
L 248.064 271.262238 
L 279.808 258.694113 
L 291.589089 248.448 
L 310.245908 218.88 
L 311.552 215.514529 
L 318.33737 189.312 
L 322.596101 159.744 
L 324.506907 130.176 
L 323.828391 100.608 
L 316.171568 71.04 
L 311.552 66.737096 
L 279.808 54.915277 
L 248.064 51.449966 
L 216.32 50.246476 
L 184.576 50.246476 
L 152.832 51.449966 
L 121.088 54.915277 
L 89.344 66.737096 
L 84.724432 71.04 
L 77.067609 100.608 
L 76.389093 130.176 
L 78.299899 159.744 
L 82.55863 189.312 
L 89.344 215.514529 
L 90.650092 218.88 
L 109.306911 248.448 
z
M 117.315605 248.448 
L 95.993526 218.88 
L 89.344 201.745847 
L 86.124149 189.312 
L 81.257027 159.744 
L 79.07325 130.176 
L 79.848696 100.608 
L 88.599351 71.04 
L 89.344 70.346396 
L 121.088 56.835745 
L 152.832 52.87539 
L 184.576 51.499972 
L 216.32 51.499972 
L 248.064 52.87539 
L 279.808 56.835745 
L 311.552 70.346396 
L 312.296649 71.04 
L 321.047304 100.608 
L 321.82275 130.176 
L 319.638973 159.744 
L 314.771851 189.312 
L 311.552 201.745847 
L 304.902474 218.88 
L 283.580395 248.448 
L 279.808 251.728884 
L 248.064 266.092456 
L 216.32 271.080872 
L 184.576 271.080872 
L 152.832 266.092456 
L 121.088 251.728884 
z
" style="fill:#80a3fa;"/>
   </g>
   <g id="PathCollection_9">
    <path clip-path="url(#p955c9618ba)" d="M 121.088 251.728884 
L 152.832 266.092456 
L 184.576 271.080872 
L 216.32 271.080872 
L 248.064 266.092456 
L 279.808 251.728884 
L 283.580395 248.448 
L 304.902474 218.88 
L 311.552 201.745847 
L 314.771851 189.312 
L 319.638973 159.744 
L 321.82275 130.176 
L 321.047304 100.608 
L 312.296649 71.04 
L 311.552 70.346396 
L 279.808 56.835745 
L 248.064 52.87539 
L 216.32 51.499972 
L 184.576 51.499972 
L 152.832 52.87539 
L 121.088 56.835745 
L 89.344 70.346396 
L 88.599351 71.04 
L 79.848696 100.608 
L 79.07325 130.176 
L 81.257027 159.744 
L 86.124149 189.312 
L 89.344 201.745847 
L 95.993526 218.88 
L 117.315605 248.448 
z
M 126.795549 248.448 
L 121.088 244.746386 
L 101.33696 218.88 
L 89.737078 189.312 
L 89.344 187.747028 
L 84.214156 159.744 
L 81.757406 130.176 
L 82.629783 100.608 
L 89.344 78.453207 
L 92.903612 71.04 
L 121.088 58.756213 
L 152.832 54.300813 
L 184.576 52.753469 
L 216.32 52.753469 
L 248.064 54.300813 
L 279.808 58.756213 
L 307.992388 71.04 
L 311.552 78.453207 
L 318.266217 100.608 
L 319.138594 130.176 
L 316.681844 159.744 
L 311.552 187.747028 
L 311.158922 189.312 
L 299.55904 218.88 
L 279.808 244.746386 
L 274.100451 248.448 
L 248.064 260.922674 
L 216.32 266.534642 
L 184.576 266.534642 
L 152.832 260.922674 
z
" style="fill:#8badfd;"/>
   </g>
   <g id="PathCollection_10">
    <path clip-path="url(#p955c9618ba)" d="M 152.832 260.922674 
L 184.576 266.534642 
L 216.32 266.534642 
L 248.064 260.922674 
L 274.100451 248.448 
L 279.808 244.746386 
L 299.55904 218.88 
L 311.158922 189.312 
L 311.552 187.747028 
L 316.681844 159.744 
L 319.138594 130.176 
L 318.266217 100.608 
L 311.552 78.453207 
L 307.992388 71.04 
L 279.808 58.756213 
L 248.064 54.300813 
L 216.32 52.753469 
L 184.576 52.753469 
L 152.832 54.300813 
L 121.088 58.756213 
L 92.903612 71.04 
L 89.344 78.453207 
L 82.629783 100.608 
L 81.757406 130.176 
L 84.214156 159.744 
L 89.344 187.747028 
L 89.737078 189.312 
L 101.33696 218.88 
L 121.088 244.746386 
L 126.795549 248.448 
z
M 137.585633 248.448 
L 121.088 237.74851 
L 106.680394 218.88 
L 93.791636 189.312 
L 89.344 171.60452 
L 87.171284 159.744 
L 84.441562 130.176 
L 85.410871 100.608 
L 89.344 87.629916 
L 97.310007 71.04 
L 121.088 60.676681 
L 152.832 55.726237 
L 184.576 54.006966 
L 216.32 54.006966 
L 248.064 55.726237 
L 279.808 60.676681 
L 303.585993 71.04 
L 311.552 87.629916 
L 315.485129 100.608 
L 316.454438 130.176 
L 313.724716 159.744 
L 311.552 171.60452 
L 307.104364 189.312 
L 294.215606 218.88 
L 279.808 237.74851 
L 263.310367 248.448 
L 248.064 255.752892 
L 216.32 261.988412 
L 184.576 261.988412 
L 152.832 255.752892 
z
" style="fill:#94b6ff;"/>
   </g>
   <g id="PathCollection_11">
    <path clip-path="url(#p955c9618ba)" d="M 152.832 255.752892 
L 184.576 261.988412 
L 216.32 261.988412 
L 248.064 255.752892 
L 263.310367 248.448 
L 279.808 237.74851 
L 294.215606 218.88 
L 307.104364 189.312 
L 311.552 171.60452 
L 313.724716 159.744 
L 316.454438 130.176 
L 315.485129 100.608 
L 311.552 87.629916 
L 303.585993 71.04 
L 279.808 60.676681 
L 248.064 55.726237 
L 216.32 54.006966 
L 184.576 54.006966 
L 152.832 55.726237 
L 121.088 60.676681 
L 97.310007 71.04 
L 89.344 87.629916 
L 85.410871 100.608 
L 84.441562 130.176 
L 87.171284 159.744 
L 89.344 171.60452 
L 93.791636 189.312 
L 106.680394 218.88 
L 121.088 237.74851 
L 137.585633 248.448 
z
M 148.375717 248.448 
L 121.088 230.750635 
L 112.023828 218.88 
L 97.846194 189.312 
L 90.236001 159.744 
L 89.344 152.559538 
L 87.125718 130.176 
L 88.191958 100.608 
L 89.344 96.806624 
L 101.716402 71.04 
L 121.088 62.59715 
L 152.832 57.151661 
L 184.576 55.260462 
L 216.32 55.260462 
L 248.064 57.151661 
L 279.808 62.59715 
L 299.179598 71.04 
L 311.552 96.806624 
L 312.704042 100.608 
L 313.770282 130.176 
L 311.552 152.559538 
L 310.659999 159.744 
L 303.049806 189.312 
L 288.872172 218.88 
L 279.808 230.750635 
L 252.520283 248.448 
L 248.064 250.58311 
L 216.32 257.442182 
L 184.576 257.442182 
L 152.832 250.58311 
z
" style="fill:#9ebeff;"/>
   </g>
   <g id="PathCollection_12">
    <path clip-path="url(#p955c9618ba)" d="M 152.832 250.58311 
L 184.576 257.442182 
L 216.32 257.442182 
L 248.064 250.58311 
L 252.520283 248.448 
L 279.808 230.750635 
L 288.872172 218.88 
L 303.049806 189.312 
L 310.659999 159.744 
L 311.552 152.559538 
L 313.770282 130.176 
L 312.704042 100.608 
L 311.552 96.806624 
L 299.179598 71.04 
L 279.808 62.59715 
L 248.064 57.151661 
L 216.32 55.260462 
L 184.576 55.260462 
L 152.832 57.151661 
L 121.088 62.59715 
L 101.716402 71.04 
L 89.344 96.806624 
L 88.191958 100.608 
L 87.125718 130.176 
L 89.344 152.559538 
L 90.236001 159.744 
L 97.846194 189.312 
L 112.023828 218.88 
L 121.088 230.750635 
L 148.375717 248.448 
z
M 164.735652 248.448 
L 152.832 245.399103 
L 121.088 223.752759 
L 117.367262 218.88 
L 101.900753 189.312 
L 93.598724 159.744 
L 89.873773 130.176 
L 91.196481 100.608 
L 106.122798 71.04 
L 121.088 64.517618 
L 152.832 58.577084 
L 184.576 56.513959 
L 216.32 56.513959 
L 248.064 58.577084 
L 279.808 64.517618 
L 294.773202 71.04 
L 309.699519 100.608 
L 311.022227 130.176 
L 307.297276 159.744 
L 298.995247 189.312 
L 283.528738 218.88 
L 279.808 223.752759 
L 248.064 245.399103 
L 236.160348 248.448 
L 216.32 252.895952 
L 184.576 252.895952 
z
" style="fill:#a9c6fd;"/>
   </g>
   <g id="PathCollection_13">
    <path clip-path="url(#p955c9618ba)" d="M 184.576 252.895952 
L 216.32 252.895952 
L 236.160348 248.448 
L 248.064 245.399103 
L 279.808 223.752759 
L 283.528738 218.88 
L 298.995247 189.312 
L 307.297276 159.744 
L 311.022227 130.176 
L 309.699519 100.608 
L 294.773202 71.04 
L 279.808 64.517618 
L 248.064 58.577084 
L 216.32 56.513959 
L 184.576 56.513959 
L 152.832 58.577084 
L 121.088 64.517618 
L 106.122798 71.04 
L 91.196481 100.608 
L 89.873773 130.176 
L 93.598724 159.744 
L 101.900753 189.312 
L 117.367262 218.88 
L 121.088 223.752759 
L 152.832 245.399103 
L 164.735652 248.448 
z
M 123.274252 218.88 
L 121.088 216.655188 
L 105.955311 189.312 
L 96.961446 159.744 
L 92.926083 130.176 
L 94.359017 100.608 
L 110.529193 71.04 
L 121.088 66.438086 
L 152.832 60.002508 
L 184.576 57.767455 
L 216.32 57.767455 
L 248.064 60.002508 
L 279.808 66.438086 
L 290.366807 71.04 
L 306.536983 100.608 
L 307.969917 130.176 
L 303.934554 159.744 
L 294.940689 189.312 
L 279.808 216.655188 
L 277.621748 218.88 
L 248.064 240.20509 
L 216.32 248.349261 
L 184.576 248.349261 
L 152.832 240.20509 
z
" style="fill:#b2ccfb;"/>
   </g>
   <g id="PathCollection_14">
    <path clip-path="url(#p955c9618ba)" d="M 152.832 240.20509 
L 184.576 248.349261 
L 216.32 248.349261 
L 248.064 240.20509 
L 277.621748 218.88 
L 279.808 216.655188 
L 294.940689 189.312 
L 303.934554 159.744 
L 307.969917 130.176 
L 306.536983 100.608 
L 290.366807 71.04 
L 279.808 66.438086 
L 248.064 60.002508 
L 216.32 57.767455 
L 184.576 57.767455 
L 152.832 60.002508 
L 121.088 66.438086 
L 110.529193 71.04 
L 94.359017 100.608 
L 92.926083 130.176 
L 96.961446 159.744 
L 105.955311 189.312 
L 121.088 216.655188 
L 123.274252 218.88 
z
M 130.473441 218.88 
L 121.088 209.329026 
L 110.009869 189.312 
L 100.324168 159.744 
L 95.978392 130.176 
L 97.521552 100.608 
L 114.935588 71.04 
L 121.088 68.358554 
L 152.832 61.427932 
L 184.576 59.020952 
L 216.32 59.020952 
L 248.064 61.427932 
L 279.808 68.358554 
L 285.960412 71.04 
L 303.374448 100.608 
L 304.917608 130.176 
L 300.571832 159.744 
L 290.886131 189.312 
L 279.808 209.329026 
L 270.422559 218.88 
L 248.064 235.011076 
L 216.32 243.781722 
L 184.576 243.781722 
L 152.832 235.011076 
z
" style="fill:#bbd1f8;"/>
   </g>
   <g id="PathCollection_15">
    <path clip-path="url(#p955c9618ba)" d="M 152.832 235.011076 
L 184.576 243.781722 
L 216.32 243.781722 
L 248.064 235.011076 
L 270.422559 218.88 
L 279.808 209.329026 
L 290.886131 189.312 
L 300.571832 159.744 
L 304.917608 130.176 
L 303.374448 100.608 
L 285.960412 71.04 
L 279.808 68.358554 
L 248.064 61.427932 
L 216.32 59.020952 
L 184.576 59.020952 
L 152.832 61.427932 
L 121.088 68.358554 
L 114.935588 71.04 
L 97.521552 100.608 
L 95.978392 130.176 
L 100.324168 159.744 
L 110.009869 189.312 
L 121.088 209.329026 
L 130.473441 218.88 
z
M 137.67263 218.88 
L 121.088 202.002863 
L 114.064427 189.312 
L 103.686891 159.744 
L 99.030702 130.176 
L 100.684088 100.608 
L 119.341983 71.04 
L 121.088 70.279022 
L 152.832 62.853355 
L 184.576 60.274448 
L 216.32 60.274448 
L 248.064 62.853355 
L 279.808 70.279022 
L 281.554017 71.04 
L 300.211912 100.608 
L 301.865298 130.176 
L 297.209109 159.744 
L 286.831573 189.312 
L 279.808 202.002863 
L 263.22337 218.88 
L 248.064 229.817062 
L 216.32 239.214183 
L 184.576 239.214183 
L 152.832 229.817062 
z
" style="fill:#c5d6f2;"/>
   </g>
   <g id="PathCollection_16">
    <path clip-path="url(#p955c9618ba)" d="M 152.832 229.817062 
L 184.576 239.214183 
L 216.32 239.214183 
L 248.064 229.817062 
L 263.22337 218.88 
L 279.808 202.002863 
L 286.831573 189.312 
L 297.209109 159.744 
L 301.865298 130.176 
L 300.211912 100.608 
L 281.554017 71.04 
L 279.808 70.279022 
L 248.064 62.853355 
L 216.32 60.274448 
L 184.576 60.274448 
L 152.832 62.853355 
L 121.088 70.279022 
L 119.341983 71.04 
L 100.684088 100.608 
L 99.030702 130.176 
L 103.686891 159.744 
L 114.064427 189.312 
L 121.088 202.002863 
L 137.67263 218.88 
z
M 144.871819 218.88 
L 121.088 194.6767 
L 118.118985 189.312 
L 107.049613 159.744 
L 102.083012 130.176 
L 103.846623 100.608 
L 121.088 73.988025 
L 124.672318 71.04 
L 152.832 64.278779 
L 184.576 61.527945 
L 216.32 61.527945 
L 248.064 64.278779 
L 276.223682 71.04 
L 279.808 73.988025 
L 297.049377 100.608 
L 298.812988 130.176 
L 293.846387 159.744 
L 282.777015 189.312 
L 279.808 194.6767 
L 256.024181 218.88 
L 248.064 224.623048 
L 216.32 234.646644 
L 184.576 234.646644 
L 152.832 224.623048 
z
" style="fill:#cdd9ec;"/>
   </g>
   <g id="PathCollection_17">
    <path clip-path="url(#p955c9618ba)" d="M 152.832 224.623048 
L 184.576 234.646644 
L 216.32 234.646644 
L 248.064 224.623048 
L 256.024181 218.88 
L 279.808 194.6767 
L 282.777015 189.312 
L 293.846387 159.744 
L 298.812988 130.176 
L 297.049377 100.608 
L 279.808 73.988025 
L 276.223682 71.04 
L 248.064 64.278779 
L 216.32 61.527945 
L 184.576 61.527945 
L 152.832 64.278779 
L 124.672318 71.04 
L 121.088 73.988025 
L 103.846623 100.608 
L 102.083012 130.176 
L 107.049613 159.744 
L 118.118985 189.312 
L 121.088 194.6767 
L 144.871819 218.88 
z
M 152.071008 218.88 
L 122.550548 189.312 
L 121.088 187.012366 
L 110.412335 159.744 
L 105.135322 130.176 
L 107.009159 100.608 
L 121.088 78.870849 
L 130.609038 71.04 
L 152.832 65.704203 
L 184.576 62.781441 
L 216.32 62.781441 
L 248.064 65.704203 
L 270.286962 71.04 
L 279.808 78.870849 
L 293.886841 100.608 
L 295.760678 130.176 
L 290.483665 159.744 
L 279.808 187.012366 
L 278.345452 189.312 
L 248.824992 218.88 
L 248.064 219.429034 
L 216.32 230.079105 
L 184.576 230.079105 
L 152.832 219.429034 
z
" style="fill:#d5dbe5;"/>
   </g>
   <g id="PathCollection_18">
    <path clip-path="url(#p955c9618ba)" d="M 152.832 219.429034 
L 184.576 230.079105 
L 216.32 230.079105 
L 248.064 219.429034 
L 248.824992 218.88 
L 278.345452 189.312 
L 279.808 187.012366 
L 290.483665 159.744 
L 295.760678 130.176 
L 293.886841 100.608 
L 279.808 78.870849 
L 270.286962 71.04 
L 248.064 65.704203 
L 216.32 62.781441 
L 184.576 62.781441 
L 152.832 65.704203 
L 130.609038 71.04 
L 121.088 78.870849 
L 107.009159 100.608 
L 105.135322 130.176 
L 110.412335 159.744 
L 121.088 187.012366 
L 122.550548 189.312 
L 152.071008 218.88 
z
M 164.931853 218.88 
L 152.832 214.017114 
L 128.01324 189.312 
L 121.088 178.423116 
L 113.775058 159.744 
L 108.187632 130.176 
L 110.171694 100.608 
L 121.088 83.753674 
L 136.545759 71.04 
L 152.832 67.129626 
L 184.576 64.034938 
L 216.32 64.034938 
L 248.064 67.129626 
L 264.350241 71.04 
L 279.808 83.753674 
L 290.724306 100.608 
L 292.708368 130.176 
L 287.120942 159.744 
L 279.808 178.423116 
L 272.88276 189.312 
L 248.064 214.017114 
L 235.964147 218.88 
L 216.32 225.511566 
L 184.576 225.511566 
z
" style="fill:#dddcdc;"/>
   </g>
   <g id="PathCollection_19">
    <path clip-path="url(#p955c9618ba)" d="M 184.576 225.511566 
L 216.32 225.511566 
L 235.964147 218.88 
L 248.064 214.017114 
L 272.88276 189.312 
L 279.808 178.423116 
L 287.120942 159.744 
L 292.708368 130.176 
L 290.724306 100.608 
L 279.808 83.753674 
L 264.350241 71.04 
L 248.064 67.129626 
L 216.32 64.034938 
L 184.576 64.034938 
L 152.832 67.129626 
L 136.545759 71.04 
L 121.088 83.753674 
L 110.171694 100.608 
L 108.187632 130.176 
L 113.775058 159.744 
L 121.088 178.423116 
L 128.01324 189.312 
L 152.832 214.017114 
L 164.931853 218.88 
z
M 178.461902 218.88 
L 152.832 208.579436 
L 133.475931 189.312 
L 121.088 169.833867 
L 117.13778 159.744 
L 111.239942 130.176 
L 113.33423 100.608 
L 121.088 88.636498 
L 142.482479 71.04 
L 152.832 68.55505 
L 184.576 65.288435 
L 216.32 65.288435 
L 248.064 68.55505 
L 258.413521 71.04 
L 279.808 88.636498 
L 287.56177 100.608 
L 289.656058 130.176 
L 283.75822 159.744 
L 279.808 169.833867 
L 267.420069 189.312 
L 248.064 208.579436 
L 222.434098 218.88 
L 216.32 220.944026 
L 184.576 220.944026 
z
" style="fill:#e4d9d2;"/>
   </g>
   <g id="PathCollection_20">
    <path clip-path="url(#p955c9618ba)" d="M 184.576 220.944026 
L 216.32 220.944026 
L 222.434098 218.88 
L 248.064 208.579436 
L 267.420069 189.312 
L 279.808 169.833867 
L 283.75822 159.744 
L 289.656058 130.176 
L 287.56177 100.608 
L 279.808 88.636498 
L 258.413521 71.04 
L 248.064 68.55505 
L 216.32 65.288435 
L 184.576 65.288435 
L 152.832 68.55505 
L 142.482479 71.04 
L 121.088 88.636498 
L 113.33423 100.608 
L 111.239942 130.176 
L 117.13778 159.744 
L 121.088 169.833867 
L 133.475931 189.312 
L 152.832 208.579436 
L 178.461902 218.88 
z
M 138.938623 189.312 
L 121.088 161.244618 
L 120.500503 159.744 
L 114.292251 130.176 
L 116.496765 100.608 
L 121.088 93.519323 
L 148.419199 71.04 
L 152.832 69.980474 
L 184.576 66.541931 
L 216.32 66.541931 
L 248.064 69.980474 
L 252.476801 71.04 
L 279.808 93.519323 
L 284.399235 100.608 
L 286.603749 130.176 
L 280.395497 159.744 
L 279.808 161.244618 
L 261.957377 189.312 
L 248.064 203.141759 
L 216.32 216.259042 
L 184.576 216.259042 
L 152.832 203.141759 
z
" style="fill:#ead4c8;"/>
   </g>
   <g id="PathCollection_21">
    <path clip-path="url(#p955c9618ba)" d="M 152.832 203.141759 
L 184.576 216.259042 
L 216.32 216.259042 
L 248.064 203.141759 
L 261.957377 189.312 
L 279.808 161.244618 
L 280.395497 159.744 
L 286.603749 130.176 
L 284.399235 100.608 
L 279.808 93.519323 
L 252.476801 71.04 
L 248.064 69.980474 
L 216.32 66.541931 
L 184.576 66.541931 
L 152.832 69.980474 
L 148.419199 71.04 
L 121.088 93.519323 
L 116.496765 100.608 
L 114.292251 130.176 
L 120.500503 159.744 
L 121.088 161.244618 
L 138.938623 189.312 
z
M 144.401314 189.312 
L 124.82705 159.744 
L 121.088 147.850459 
L 117.344561 130.176 
L 119.659301 100.608 
L 121.088 98.402147 
L 152.832 71.970301 
L 155.696032 71.04 
L 184.576 67.795428 
L 216.32 67.795428 
L 245.199968 71.04 
L 248.064 71.970301 
L 279.808 98.402147 
L 281.236699 100.608 
L 283.551439 130.176 
L 279.808 147.850459 
L 276.06895 159.744 
L 256.494686 189.312 
L 248.064 197.704081 
L 216.32 211.477228 
L 184.576 211.477228 
L 152.832 197.704081 
z
" style="fill:#efcebd;"/>
   </g>
   <g id="PathCollection_22">
    <path clip-path="url(#p955c9618ba)" d="M 152.832 197.704081 
L 184.576 211.477228 
L 216.32 211.477228 
L 248.064 197.704081 
L 256.494686 189.312 
L 276.06895 159.744 
L 279.808 147.850459 
L 283.551439 130.176 
L 281.236699 100.608 
L 279.808 98.402147 
L 248.064 71.970301 
L 245.199968 71.04 
L 216.32 67.795428 
L 184.576 67.795428 
L 155.696032 71.04 
L 152.832 71.970301 
L 121.088 98.402147 
L 119.659301 100.608 
L 117.344561 130.176 
L 121.088 147.850459 
L 124.82705 159.744 
L 144.401314 189.312 
z
M 149.864005 189.312 
L 129.357634 159.744 
L 121.088 133.439131 
L 120.396871 130.176 
L 121.088 121.53358 
L 123.423991 100.608 
L 152.832 75.594466 
L 166.853416 71.04 
L 184.576 69.048924 
L 216.32 69.048924 
L 234.042584 71.04 
L 248.064 75.594466 
L 277.472009 100.608 
L 279.808 121.53358 
L 280.499129 130.176 
L 279.808 133.439131 
L 271.538366 159.744 
L 251.031995 189.312 
L 248.064 192.266404 
L 216.32 206.695415 
L 184.576 206.695415 
L 152.832 192.266404 
z
" style="fill:#f3c7b1;"/>
   </g>
   <g id="PathCollection_23">
    <path clip-path="url(#p955c9618ba)" d="M 152.832 192.266404 
L 184.576 206.695415 
L 216.32 206.695415 
L 248.064 192.266404 
L 251.031995 189.312 
L 271.538366 159.744 
L 279.808 133.439131 
L 280.499129 130.176 
L 279.808 121.53358 
L 277.472009 100.608 
L 248.064 75.594466 
L 234.042584 71.04 
L 216.32 69.048924 
L 184.576 69.048924 
L 166.853416 71.04 
L 152.832 75.594466 
L 123.423991 100.608 
L 121.088 121.53358 
L 120.396871 130.176 
L 121.088 133.439131 
L 129.357634 159.744 
L 149.864005 189.312 
z
M 157.520496 189.312 
L 152.832 186.400591 
L 133.888218 159.744 
L 124.26921 130.176 
L 127.684864 100.608 
L 152.832 79.218631 
L 178.0108 71.04 
L 184.576 70.302421 
L 216.32 70.302421 
L 222.8852 71.04 
L 248.064 79.218631 
L 273.211136 100.608 
L 276.62679 130.176 
L 267.007782 159.744 
L 248.064 186.400591 
L 243.375504 189.312 
L 216.32 201.913602 
L 184.576 201.913602 
z
" style="fill:#f6bfa6;"/>
   </g>
   <g id="PathCollection_24">
    <path clip-path="url(#p955c9618ba)" d="M 184.576 201.913602 
L 216.32 201.913602 
L 243.375504 189.312 
L 248.064 186.400591 
L 267.007782 159.744 
L 276.62679 130.176 
L 273.211136 100.608 
L 248.064 79.218631 
L 222.8852 71.04 
L 216.32 70.302421 
L 184.576 70.302421 
L 178.0108 71.04 
L 152.832 79.218631 
L 127.684864 100.608 
L 124.26921 130.176 
L 133.888218 159.744 
L 152.832 186.400591 
L 157.520496 189.312 
z
M 167.786998 189.312 
L 152.832 180.025417 
L 138.418801 159.744 
L 128.381576 130.176 
L 131.945736 100.608 
L 152.832 82.842796 
L 184.576 72.351729 
L 216.32 72.351729 
L 248.064 82.842796 
L 268.950264 100.608 
L 272.514424 130.176 
L 262.477199 159.744 
L 248.064 180.025417 
L 233.109002 189.312 
L 216.32 197.131789 
L 184.576 197.131789 
z
" style="fill:#f7b79b;"/>
   </g>
   <g id="PathCollection_25">
    <path clip-path="url(#p955c9618ba)" d="M 184.576 197.131789 
L 216.32 197.131789 
L 233.109002 189.312 
L 248.064 180.025417 
L 262.477199 159.744 
L 272.514424 130.176 
L 268.950264 100.608 
L 248.064 82.842796 
L 216.32 72.351729 
L 184.576 72.351729 
L 152.832 82.842796 
L 131.945736 100.608 
L 128.381576 130.176 
L 138.418801 159.744 
L 152.832 180.025417 
L 167.786998 189.312 
z
M 178.053499 189.312 
L 152.832 173.650243 
L 142.949385 159.744 
L 132.493942 130.176 
L 136.206609 100.608 
L 152.832 86.466961 
L 184.576 75.538766 
L 216.32 75.538766 
L 248.064 86.466961 
L 264.689391 100.608 
L 268.402058 130.176 
L 257.946615 159.744 
L 248.064 173.650243 
L 222.842501 189.312 
L 216.32 192.349975 
L 184.576 192.349975 
z
" style="fill:#f7ac8e;"/>
   </g>
   <g id="PathCollection_26">
    <path clip-path="url(#p955c9618ba)" d="M 184.576 192.349975 
L 216.32 192.349975 
L 222.842501 189.312 
L 248.064 173.650243 
L 257.946615 159.744 
L 268.402058 130.176 
L 264.689391 100.608 
L 248.064 86.466961 
L 216.32 75.538766 
L 184.576 75.538766 
L 152.832 86.466961 
L 136.206609 100.608 
L 132.493942 130.176 
L 142.949385 159.744 
L 152.832 173.650243 
L 178.053499 189.312 
z
M 147.479968 159.744 
L 136.606308 130.176 
L 140.467481 100.608 
L 152.832 90.091127 
L 184.576 78.725804 
L 216.32 78.725804 
L 248.064 90.091127 
L 260.428519 100.608 
L 264.289692 130.176 
L 253.416032 159.744 
L 248.064 167.275068 
L 216.32 187.267511 
L 184.576 187.267511 
L 152.832 167.275068 
z
" style="fill:#f6a283;"/>
   </g>
   <g id="PathCollection_27">
    <path clip-path="url(#p955c9618ba)" d="M 152.832 167.275068 
L 184.576 187.267511 
L 216.32 187.267511 
L 248.064 167.275068 
L 253.416032 159.744 
L 264.289692 130.176 
L 260.428519 100.608 
L 248.064 90.091127 
L 216.32 78.725804 
L 184.576 78.725804 
L 152.832 90.091127 
L 140.467481 100.608 
L 136.606308 130.176 
L 147.479968 159.744 
z
M 152.010552 159.744 
L 140.718674 130.176 
L 144.728354 100.608 
L 152.832 93.715292 
L 184.576 81.912841 
L 216.32 81.912841 
L 248.064 93.715292 
L 256.167646 100.608 
L 260.177326 130.176 
L 248.885448 159.744 
L 248.064 160.899894 
L 216.32 181.661277 
L 184.576 181.661277 
L 152.832 160.899894 
z
" style="fill:#f39778;"/>
   </g>
   <g id="PathCollection_28">
    <path clip-path="url(#p955c9618ba)" d="M 152.832 160.899894 
L 184.576 181.661277 
L 216.32 181.661277 
L 248.064 160.899894 
L 248.885448 159.744 
L 260.177326 130.176 
L 256.167646 100.608 
L 248.064 93.715292 
L 216.32 81.912841 
L 184.576 81.912841 
L 152.832 93.715292 
L 144.728354 100.608 
L 140.718674 130.176 
L 152.010552 159.744 
z
M 159.802895 159.744 
L 152.832 150.986918 
L 144.83104 130.176 
L 148.989227 100.608 
L 152.832 97.339457 
L 184.576 85.099878 
L 216.32 85.099878 
L 248.064 97.339457 
L 251.906773 100.608 
L 256.06496 130.176 
L 248.064 150.986918 
L 241.093105 159.744 
L 216.32 176.055043 
L 184.576 176.055043 
z
" style="fill:#f08a6c;"/>
   </g>
   <g id="PathCollection_29">
    <path clip-path="url(#p955c9618ba)" d="M 184.576 176.055043 
L 216.32 176.055043 
L 241.093105 159.744 
L 248.064 150.986918 
L 256.06496 130.176 
L 251.906773 100.608 
L 248.064 97.339457 
L 216.32 85.099878 
L 184.576 85.099878 
L 152.832 97.339457 
L 148.989227 100.608 
L 144.83104 130.176 
L 152.832 150.986918 
L 159.802895 159.744 
z
M 168.317607 159.744 
L 152.832 140.290438 
L 148.943406 130.176 
L 152.832 103.387857 
L 153.617769 100.608 
L 184.576 88.286916 
L 216.32 88.286916 
L 247.278231 100.608 
L 248.064 103.387857 
L 251.952594 130.176 
L 248.064 140.290438 
L 232.578393 159.744 
L 216.32 170.448808 
L 184.576 170.448808 
z
" style="fill:#eb7d62;"/>
   </g>
   <g id="PathCollection_30">
    <path clip-path="url(#p955c9618ba)" d="M 184.576 170.448808 
L 216.32 170.448808 
L 232.578393 159.744 
L 248.064 140.290438 
L 251.952594 130.176 
L 248.064 103.387857 
L 247.278231 100.608 
L 216.32 88.286916 
L 184.576 88.286916 
L 153.617769 100.608 
L 152.832 103.387857 
L 148.943406 130.176 
L 152.832 140.290438 
L 168.317607 159.744 
z
M 176.832319 159.744 
L 153.252553 130.176 
L 161.62559 100.608 
L 184.576 91.473953 
L 216.32 91.473953 
L 239.27041 100.608 
L 247.643447 130.176 
L 224.063681 159.744 
L 216.32 164.842574 
L 184.576 164.842574 
z
" style="fill:#e57058;"/>
   </g>
   <g id="PathCollection_31">
    <path clip-path="url(#p955c9618ba)" d="M 184.576 164.842574 
L 216.32 164.842574 
L 224.063681 159.744 
L 247.643447 130.176 
L 239.27041 100.608 
L 216.32 91.473953 
L 184.576 91.473953 
L 161.62559 100.608 
L 153.252553 130.176 
L 176.832319 159.744 
z
M 160.981273 130.176 
L 169.633411 100.608 
L 184.576 94.66099 
L 216.32 94.66099 
L 231.262589 100.608 
L 239.914727 130.176 
L 216.32 158.892231 
L 184.576 158.892231 
z
" style="fill:#de614d;"/>
   </g>
   <g id="PathCollection_32">
    <path clip-path="url(#p955c9618ba)" d="M 184.576 158.892231 
L 216.32 158.892231 
L 239.914727 130.176 
L 231.262589 100.608 
L 216.32 94.66099 
L 184.576 94.66099 
L 169.633411 100.608 
L 160.981273 130.176 
z
M 168.709992 130.176 
L 177.641232 100.608 
L 184.576 97.848028 
L 216.32 97.848028 
L 223.254768 100.608 
L 232.186008 130.176 
L 216.32 149.485905 
L 184.576 149.485905 
z
" style="fill:#d65244;"/>
   </g>
   <g id="PathCollection_33">
    <path clip-path="url(#p955c9618ba)" d="M 184.576 149.485905 
L 216.32 149.485905 
L 232.186008 130.176 
L 223.254768 100.608 
L 216.32 97.848028 
L 184.576 97.848028 
L 177.641232 100.608 
L 168.709992 130.176 
z
M 176.438712 130.176 
L 184.576 103.946319 
L 216.32 103.946319 
L 224.457288 130.176 
L 216.32 140.079579 
L 184.576 140.079579 
z
" style="fill:#cd423b;"/>
   </g>
   <g id="PathCollection_34">
    <path clip-path="url(#p955c9618ba)" d="M 184.576 140.079579 
L 216.32 140.079579 
L 224.457288 130.176 
L 216.32 103.946319 
L 184.576 103.946319 
L 176.438712 130.176 
z
M 184.167432 130.176 
L 184.576 128.859024 
L 216.32 128.859024 
L 216.728568 130.176 
L 216.32 130.673252 
L 184.576 130.673252 
z
" style="fill:#c32e31;"/>
   </g>
   <g id="PathCollection_35">
    <path clip-path="url(#p955c9618ba)" d="M 184.576 130.673252 
L 216.32 130.673252 
L 216.728568 130.176 
L 216.32 128.859024 
L 184.576 128.859024 
L 184.167432 130.176 
z
" style="fill:#b8122a;"/>
   </g>
   <g id="matplotlib.axis_1">
    <g id="xtick_1">
     <g id="line2d_1">
      <defs>
       <path d="M 0 0 
L 0 3.5 
" id="m77b3123d83" style="stroke:#000000;stroke-width:0.8;"/>
      </defs>
      <g>
       <use style="stroke:#000000;stroke-width:0.8;" x="57.6" xlink:href="#m77b3123d83" y="307.584"/>
      </g>
     </g>
     <g id="text_1">
      <!-- 0.0 -->
      <defs>
       <path d="M 31.78125 66.40625 
Q 24.171875 66.40625 20.328125 58.90625 
Q 16.5 51.421875 16.5 36.375 
Q 16.5 21.390625 20.328125 13.890625 
Q 24.171875 6.390625 31.78125 6.390625 
Q 39.453125 6.390625 43.28125 13.890625 
Q 47.125 21.390625 47.125 36.375 
Q 47.125 51.421875 43.28125 58.90625 
Q 39.453125 66.40625 31.78125 66.40625 
z
M 31.78125 74.21875 
Q 44.046875 74.21875 50.515625 64.515625 
Q 56.984375 54.828125 56.984375 36.375 
Q 56.984375 17.96875 50.515625 8.265625 
Q 44.046875 -1.421875 31.78125 -1.421875 
Q 19.53125 -1.421875 13.0625 8.265625 
Q 6.59375 17.96875 6.59375 36.375 
Q 6.59375 54.828125 13.0625 64.515625 
Q 19.53125 74.21875 31.78125 74.21875 
z
" id="DejaVuSans-48"/>
       <path d="M 10.6875 12.40625 
L 21 12.40625 
L 21 0 
L 10.6875 0 
z
" id="DejaVuSans-46"/>
      </defs>
      <g transform="translate(49.648438 322.182437)scale(0.1 -0.1)">
       <use xlink:href="#DejaVuSans-48"/>
       <use x="63.623047" xlink:href="#DejaVuSans-46"/>
       <use x="95.410156" xlink:href="#DejaVuSans-48"/>
      </g>
     </g>
    </g>
    <g id="xtick_2">
     <g id="line2d_2">
      <g>
       <use style="stroke:#000000;stroke-width:0.8;" x="114.7392" xlink:href="#m77b3123d83" y="307.584"/>
      </g>
     </g>
     <g id="text_2">
      <!-- 0.2 -->
      <defs>
       <path d="M 19.1875 8.296875 
L 53.609375 8.296875 
L 53.609375 0 
L 7.328125 0 
L 7.328125 8.296875 
Q 12.9375 14.109375 22.625 23.890625 
Q 32.328125 33.6875 34.8125 36.53125 
Q 39.546875 41.84375 41.421875 45.53125 
Q 43.3125 49.21875 43.3125 52.78125 
Q 43.3125 58.59375 39.234375 62.25 
Q 35.15625 65.921875 28.609375 65.921875 
Q 23.96875 65.921875 18.8125 64.3125 
Q 13.671875 62.703125 7.8125 59.421875 
L 7.8125 69.390625 
Q 13.765625 71.78125 18.9375 73 
Q 24.125 74.21875 28.421875 74.21875 
Q 39.75 74.21875 46.484375 68.546875 
Q 53.21875 62.890625 53.21875 53.421875 
Q 53.21875 48.921875 51.53125 44.890625 
Q 49.859375 40.875 45.40625 35.40625 
Q 44.1875 33.984375 37.640625 27.21875 
Q 31.109375 20.453125 19.1875 8.296875 
z
" id="DejaVuSans-50"/>
      </defs>
      <g transform="translate(106.787638 322.182437)scale(0.1 -0.1)">
       <use xlink:href="#DejaVuSans-48"/>
       <use x="63.623047" xlink:href="#DejaVuSans-46"/>
       <use x="95.410156" xlink:href="#DejaVuSans-50"/>
      </g>
     </g>
    </g>
    <g id="xtick_3">
     <g id="line2d_3">
      <g>
       <use style="stroke:#000000;stroke-width:0.8;" x="171.8784" xlink:href="#m77b3123d83" y="307.584"/>
      </g>
     </g>
     <g id="text_3">
      <!-- 0.4 -->
      <defs>
       <path d="M 37.796875 64.3125 
L 12.890625 25.390625 
L 37.796875 25.390625 
z
M 35.203125 72.90625 
L 47.609375 72.90625 
L 47.609375 25.390625 
L 58.015625 25.390625 
L 58.015625 17.1875 
L 47.609375 17.1875 
L 47.609375 0 
L 37.796875 0 
L 37.796875 17.1875 
L 4.890625 17.1875 
L 4.890625 26.703125 
z
" id="DejaVuSans-52"/>
      </defs>
      <g transform="translate(163.926838 322.182437)scale(0.1 -0.1)">
       <use xlink:href="#DejaVuSans-48"/>
       <use x="63.623047" xlink:href="#DejaVuSans-46"/>
       <use x="95.410156" xlink:href="#DejaVuSans-52"/>
      </g>
     </g>
    </g>
    <g id="xtick_4">
     <g id="line2d_4">
      <g>
       <use style="stroke:#000000;stroke-width:0.8;" x="229.0176" xlink:href="#m77b3123d83" y="307.584"/>
      </g>
     </g>
     <g id="text_4">
      <!-- 0.6 -->
      <defs>
       <path d="M 33.015625 40.375 
Q 26.375 40.375 22.484375 35.828125 
Q 18.609375 31.296875 18.609375 23.390625 
Q 18.609375 15.53125 22.484375 10.953125 
Q 26.375 6.390625 33.015625 6.390625 
Q 39.65625 6.390625 43.53125 10.953125 
Q 47.40625 15.53125 47.40625 23.390625 
Q 47.40625 31.296875 43.53125 35.828125 
Q 39.65625 40.375 33.015625 40.375 
z
M 52.59375 71.296875 
L 52.59375 62.3125 
Q 48.875 64.0625 45.09375 64.984375 
Q 41.3125 65.921875 37.59375 65.921875 
Q 27.828125 65.921875 22.671875 59.328125 
Q 17.53125 52.734375 16.796875 39.40625 
Q 19.671875 43.65625 24.015625 45.921875 
Q 28.375 48.1875 33.59375 48.1875 
Q 44.578125 48.1875 50.953125 41.515625 
Q 57.328125 34.859375 57.328125 23.390625 
Q 57.328125 12.15625 50.6875 5.359375 
Q 44.046875 -1.421875 33.015625 -1.421875 
Q 20.359375 -1.421875 13.671875 8.265625 
Q 6.984375 17.96875 6.984375 36.375 
Q 6.984375 53.65625 15.1875 63.9375 
Q 23.390625 74.21875 37.203125 74.21875 
Q 40.921875 74.21875 44.703125 73.484375 
Q 48.484375 72.75 52.59375 71.296875 
z
" id="DejaVuSans-54"/>
      </defs>
      <g transform="translate(221.066038 322.182437)scale(0.1 -0.1)">
       <use xlink:href="#DejaVuSans-48"/>
       <use x="63.623047" xlink:href="#DejaVuSans-46"/>
       <use x="95.410156" xlink:href="#DejaVuSans-54"/>
      </g>
     </g>
    </g>
    <g id="xtick_5">
     <g id="line2d_5">
      <g>
       <use style="stroke:#000000;stroke-width:0.8;" x="286.1568" xlink:href="#m77b3123d83" y="307.584"/>
      </g>
     </g>
     <g id="text_5">
      <!-- 0.8 -->
      <defs>
       <path d="M 31.78125 34.625 
Q 24.75 34.625 20.71875 30.859375 
Q 16.703125 27.09375 16.703125 20.515625 
Q 16.703125 13.921875 20.71875 10.15625 
Q 24.75 6.390625 31.78125 6.390625 
Q 38.8125 6.390625 42.859375 10.171875 
Q 46.921875 13.96875 46.921875 20.515625 
Q 46.921875 27.09375 42.890625 30.859375 
Q 38.875 34.625 31.78125 34.625 
z
M 21.921875 38.8125 
Q 15.578125 40.375 12.03125 44.71875 
Q 8.5 49.078125 8.5 55.328125 
Q 8.5 64.0625 14.71875 69.140625 
Q 20.953125 74.21875 31.78125 74.21875 
Q 42.671875 74.21875 48.875 69.140625 
Q 55.078125 64.0625 55.078125 55.328125 
Q 55.078125 49.078125 51.53125 44.71875 
Q 48 40.375 41.703125 38.8125 
Q 48.828125 37.15625 52.796875 32.3125 
Q 56.78125 27.484375 56.78125 20.515625 
Q 56.78125 9.90625 50.3125 4.234375 
Q 43.84375 -1.421875 31.78125 -1.421875 
Q 19.734375 -1.421875 13.25 4.234375 
Q 6.78125 9.90625 6.78125 20.515625 
Q 6.78125 27.484375 10.78125 32.3125 
Q 14.796875 37.15625 21.921875 38.8125 
z
M 18.3125 54.390625 
Q 18.3125 48.734375 21.84375 45.5625 
Q 25.390625 42.390625 31.78125 42.390625 
Q 38.140625 42.390625 41.71875 45.5625 
Q 45.3125 48.734375 45.3125 54.390625 
Q 45.3125 60.0625 41.71875 63.234375 
Q 38.140625 66.40625 31.78125 66.40625 
Q 25.390625 66.40625 21.84375 63.234375 
Q 18.3125 60.0625 18.3125 54.390625 
z
" id="DejaVuSans-56"/>
      </defs>
      <g transform="translate(278.205238 322.182437)scale(0.1 -0.1)">
       <use xlink:href="#DejaVuSans-48"/>
       <use x="63.623047" xlink:href="#DejaVuSans-46"/>
       <use x="95.410156" xlink:href="#DejaVuSans-56"/>
      </g>
     </g>
    </g>
    <g id="xtick_6">
     <g id="line2d_6">
      <g>
       <use style="stroke:#000000;stroke-width:0.8;" x="343.296" xlink:href="#m77b3123d83" y="307.584"/>
      </g>
     </g>
     <g id="text_6">
      <!-- 1.0 -->
      <defs>
       <path d="M 12.40625 8.296875 
L 28.515625 8.296875 
L 28.515625 63.921875 
L 10.984375 60.40625 
L 10.984375 69.390625 
L 28.421875 72.90625 
L 38.28125 72.90625 
L 38.28125 8.296875 
L 54.390625 8.296875 
L 54.390625 0 
L 12.40625 0 
z
" id="DejaVuSans-49"/>
      </defs>
      <g transform="translate(335.344438 322.182437)scale(0.1 -0.1)">
       <use xlink:href="#DejaVuSans-49"/>
       <use x="63.623047" xlink:href="#DejaVuSans-46"/>
       <use x="95.410156" xlink:href="#DejaVuSans-48"/>
      </g>
     </g>
    </g>
    <g id="text_7">
     <!-- x -->
     <defs>
      <path d="M 54.890625 54.6875 
L 35.109375 28.078125 
L 55.90625 0 
L 45.3125 0 
L 29.390625 21.484375 
L 13.484375 0 
L 2.875 0 
L 24.125 28.609375 
L 4.6875 54.6875 
L 15.28125 54.6875 
L 29.78125 35.203125 
L 44.28125 54.6875 
z
" id="DejaVuSans-120"/>
     </defs>
     <g transform="translate(197.488625 335.860562)scale(0.1 -0.1)">
      <use xlink:href="#DejaVuSans-120"/>
     </g>
    </g>
   </g>
   <g id="matplotlib.axis_2">
    <g id="ytick_1">
     <g id="line2d_7">
      <defs>
       <path d="M 0 0 
L -3.5 0 
" id="m7bfed12355" style="stroke:#000000;stroke-width:0.8;"/>
      </defs>
      <g>
       <use style="stroke:#000000;stroke-width:0.8;" x="57.6" xlink:href="#m7bfed12355" y="307.584"/>
      </g>
     </g>
     <g id="text_8">
      <!-- 0.0 -->
      <g transform="translate(34.696875 311.383219)scale(0.1 -0.1)">
       <use xlink:href="#DejaVuSans-48"/>
       <use x="63.623047" xlink:href="#DejaVuSans-46"/>
       <use x="95.410156" xlink:href="#DejaVuSans-48"/>
      </g>
     </g>
    </g>
    <g id="ytick_2">
     <g id="line2d_8">
      <g>
       <use style="stroke:#000000;stroke-width:0.8;" x="57.6" xlink:href="#m7bfed12355" y="254.3616"/>
      </g>
     </g>
     <g id="text_9">
      <!-- 0.2 -->
      <g transform="translate(34.696875 258.160819)scale(0.1 -0.1)">
       <use xlink:href="#DejaVuSans-48"/>
       <use x="63.623047" xlink:href="#DejaVuSans-46"/>
       <use x="95.410156" xlink:href="#DejaVuSans-50"/>
      </g>
     </g>
    </g>
    <g id="ytick_3">
     <g id="line2d_9">
      <g>
       <use style="stroke:#000000;stroke-width:0.8;" x="57.6" xlink:href="#m7bfed12355" y="201.1392"/>
      </g>
     </g>
     <g id="text_10">
      <!-- 0.4 -->
      <g transform="translate(34.696875 204.938419)scale(0.1 -0.1)">
       <use xlink:href="#DejaVuSans-48"/>
       <use x="63.623047" xlink:href="#DejaVuSans-46"/>
       <use x="95.410156" xlink:href="#DejaVuSans-52"/>
      </g>
     </g>
    </g>
    <g id="ytick_4">
     <g id="line2d_10">
      <g>
       <use style="stroke:#000000;stroke-width:0.8;" x="57.6" xlink:href="#m7bfed12355" y="147.9168"/>
      </g>
     </g>
     <g id="text_11">
      <!-- 0.6 -->
      <g transform="translate(34.696875 151.716019)scale(0.1 -0.1)">
       <use xlink:href="#DejaVuSans-48"/>
       <use x="63.623047" xlink:href="#DejaVuSans-46"/>
       <use x="95.410156" xlink:href="#DejaVuSans-54"/>
      </g>
     </g>
    </g>
    <g id="ytick_5">
     <g id="line2d_11">
      <g>
       <use style="stroke:#000000;stroke-width:0.8;" x="57.6" xlink:href="#m7bfed12355" y="94.6944"/>
      </g>
     </g>
     <g id="text_12">
      <!-- 0.8 -->
      <g transform="translate(34.696875 98.493619)scale(0.1 -0.1)">
       <use xlink:href="#DejaVuSans-48"/>
       <use x="63.623047" xlink:href="#DejaVuSans-46"/>
       <use x="95.410156" xlink:href="#DejaVuSans-56"/>
      </g>
     </g>
    </g>
    <g id="ytick_6">
     <g id="line2d_12">
      <g>
       <use style="stroke:#000000;stroke-width:0.8;" x="57.6" xlink:href="#m7bfed12355" y="41.472"/>
      </g>
     </g>
     <g id="text_13">
      <!-- 1.0 -->
      <g transform="translate(34.696875 45.271219)scale(0.1 -0.1)">
       <use xlink:href="#DejaVuSans-49"/>
       <use x="63.623047" xlink:href="#DejaVuSans-46"/>
       <use x="95.410156" xlink:href="#DejaVuSans-48"/>
      </g>
     </g>
    </g>
    <g id="text_14">
     <!-- y -->
     <defs>
      <path d="M 32.171875 -5.078125 
Q 28.375 -14.84375 24.75 -17.8125 
Q 21.140625 -20.796875 15.09375 -20.796875 
L 7.90625 -20.796875 
L 7.90625 -13.28125 
L 13.1875 -13.28125 
Q 16.890625 -13.28125 18.9375 -11.515625 
Q 21 -9.765625 23.484375 -3.21875 
L 25.09375 0.875 
L 2.984375 54.6875 
L 12.5 54.6875 
L 29.59375 11.921875 
L 46.6875 54.6875 
L 56.203125 54.6875 
z
" id="DejaVuSans-121"/>
     </defs>
     <g transform="translate(28.617188 177.487375)rotate(-90)scale(0.1 -0.1)">
      <use xlink:href="#DejaVuSans-121"/>
     </g>
    </g>
   </g>
   <g id="LineCollection_1">
    <path clip-path="url(#p955c9618ba)" d="M 343.296 307.584 
" style="fill:none;stroke:#000000;"/>
    <path clip-path="url(#p955c9618ba)" d="M 57.6 278.016 
L 57.6 307.584 
" style="fill:none;stroke:#000000;"/>
    <path clip-path="url(#p955c9618ba)" d="M 121.088 41.472 
L 89.344 41.472 
L 57.6 41.472 
" style="fill:none;stroke:#000000;"/>
    <path clip-path="url(#p955c9618ba)" d="M 311.552 41.472 
L 279.808 41.472 
L 248.064 41.472 
" style="fill:none;stroke:#000000;"/>
   </g>
   <g id="LineCollection_2">
    <path clip-path="url(#p955c9618ba)" d="M 89.344 294.434376 
L 121.088 300.587231 
L 152.832 302.390808 
L 184.576 303.017184 
L 216.32 303.017184 
L 248.064 302.390808 
L 279.808 300.587231 
L 311.552 294.434376 
L 329.178655 278.016 
L 336.253273 248.448 
L 338.597063 218.88 
L 339.730481 189.312 
L 340.338872 159.744 
L 340.611844 130.176 
L 340.514913 100.608 
L 339.421081 71.04 
L 311.552 45.081299 
L 279.808 43.392468 
L 248.064 42.897424 
L 216.32 42.725497 
L 184.576 42.725497 
L 152.832 42.897424 
L 121.088 43.392468 
L 89.344 45.081299 
L 61.474919 71.04 
L 60.381087 100.608 
L 60.284156 130.176 
L 60.557128 159.744 
L 61.165519 189.312 
L 62.298937 218.88 
L 64.642727 248.448 
L 71.717345 278.016 
L 89.344 294.434376 
" style="fill:none;stroke:#000000;"/>
   </g>
   <g id="LineCollection_3">
    <path clip-path="url(#p955c9618ba)" d="M 89.344 281.284752 
L 121.088 293.590463 
L 152.832 297.197616 
L 184.576 298.450367 
L 216.32 298.450367 
L 248.064 297.197616 
L 279.808 293.590463 
L 311.552 281.284752 
L 315.06131 278.016 
L 329.210546 248.448 
L 333.898126 218.88 
L 336.164963 189.312 
L 337.381743 159.744 
L 337.927688 130.176 
L 337.733826 100.608 
L 335.546162 71.04 
L 311.552 48.690599 
L 279.808 45.312936 
L 248.064 44.322847 
L 216.32 43.978993 
L 184.576 43.978993 
L 152.832 44.322847 
L 121.088 45.312936 
L 89.344 48.690599 
L 65.349838 71.04 
L 63.162174 100.608 
L 62.968312 130.176 
L 63.514257 159.744 
L 64.731037 189.312 
L 66.997874 218.88 
L 71.685454 248.448 
L 85.83469 278.016 
L 89.344 281.284752 
" style="fill:none;stroke:#000000;"/>
   </g>
   <g id="LineCollection_4">
    <path clip-path="url(#p955c9618ba)" d="M 121.088 286.593694 
L 152.832 292.004424 
L 184.576 293.883551 
L 216.32 293.883551 
L 248.064 292.004424 
L 279.808 286.593694 
L 299.488988 278.016 
L 311.552 268.17967 
L 322.167819 248.448 
L 329.199189 218.88 
L 332.599444 189.312 
L 334.424615 159.744 
L 335.243531 130.176 
L 334.952739 100.608 
L 331.671243 71.04 
L 311.552 52.299898 
L 279.808 47.233404 
L 248.064 45.748271 
L 216.32 45.23249 
L 184.576 45.23249 
L 152.832 45.748271 
L 121.088 47.233404 
L 89.344 52.299898 
L 69.224757 71.04 
L 65.943261 100.608 
L 65.652469 130.176 
L 66.471385 159.744 
L 68.296556 189.312 
L 71.696811 218.88 
L 78.728181 248.448 
L 89.344 268.17967 
L 101.407012 278.016 
L 121.088 286.593694 
" style="fill:none;stroke:#000000;"/>
   </g>
   <g id="LineCollection_5">
    <path clip-path="url(#p955c9618ba)" d="M 121.088 279.596925 
L 152.832 286.811232 
L 184.576 289.316734 
L 216.32 289.316734 
L 248.064 286.811232 
L 279.808 279.596925 
L 283.435335 278.016 
L 311.552 255.089322 
L 315.125092 248.448 
L 324.500252 218.88 
L 329.033926 189.312 
L 331.467486 159.744 
L 332.559375 130.176 
L 332.171652 100.608 
L 327.796324 71.04 
L 311.552 55.909198 
L 279.808 49.153873 
L 248.064 47.173695 
L 216.32 46.485986 
L 184.576 46.485986 
L 152.832 47.173695 
L 121.088 49.153873 
L 89.344 55.909198 
L 73.099676 71.04 
L 68.724348 100.608 
L 68.336625 130.176 
L 69.428514 159.744 
L 71.862074 189.312 
L 76.395748 218.88 
L 85.770908 248.448 
L 89.344 255.089322 
L 117.460665 278.016 
L 121.088 279.596925 
" style="fill:none;stroke:#000000;"/>
   </g>
   <g id="LineCollection_6">
    <path clip-path="url(#p955c9618ba)" d="M 152.832 281.61804 
L 184.576 284.749918 
L 216.32 284.749918 
L 248.064 281.61804 
L 263.066068 278.016 
L 279.808 272.62457 
L 307.606476 248.448 
L 311.552 241.968746 
L 319.801315 218.88 
L 325.468407 189.312 
L 328.510358 159.744 
L 329.875219 130.176 
L 329.390565 100.608 
L 323.921405 71.04 
L 311.552 59.518497 
L 279.808 51.074341 
L 248.064 48.599118 
L 216.32 47.739483 
L 184.576 47.739483 
L 152.832 48.599118 
L 121.088 51.074341 
L 89.344 59.518497 
L 76.974595 71.04 
L 71.505435 100.608 
L 71.020781 130.176 
L 72.385642 159.744 
L 75.427593 189.312 
L 81.094685 218.88 
L 89.344 241.968746 
L 93.289524 248.448 
L 121.088 272.62457 
L 137.829932 278.016 
L 152.832 281.61804 
" style="fill:none;stroke:#000000;"/>
   </g>
   <g id="LineCollection_7">
    <path clip-path="url(#p955c9618ba)" d="M 184.576 280.183102 
L 216.32 280.183102 
L 235.609391 278.016 
L 248.064 276.432021 
L 279.808 265.659341 
L 299.597783 248.448 
L 311.552 228.817041 
L 315.102379 218.88 
L 321.902889 189.312 
L 325.553229 159.744 
L 327.191063 130.176 
L 326.609478 100.608 
L 320.046486 71.04 
L 311.552 63.127797 
L 279.808 52.994809 
L 248.064 50.024542 
L 216.32 48.992979 
L 184.576 48.992979 
L 152.832 50.024542 
L 121.088 52.994809 
L 89.344 63.127797 
L 80.849514 71.04 
L 74.286522 100.608 
L 73.704937 130.176 
L 75.342771 159.744 
L 78.993111 189.312 
L 85.793621 218.88 
L 89.344 228.817041 
L 101.298217 248.448 
L 121.088 265.659341 
L 152.832 276.432021 
L 165.286609 278.016 
L 184.576 280.183102 
" style="fill:none;stroke:#000000;"/>
   </g>
   <g id="LineCollection_8">
    <path clip-path="url(#p955c9618ba)" d="M 121.088 258.694113 
L 152.832 271.262238 
L 184.576 275.627103 
L 216.32 275.627103 
L 248.064 271.262238 
L 279.808 258.694113 
L 291.589089 248.448 
L 310.245908 218.88 
L 311.552 215.514529 
L 318.33737 189.312 
L 322.596101 159.744 
L 324.506907 130.176 
L 323.828391 100.608 
L 316.171568 71.04 
L 311.552 66.737096 
L 279.808 54.915277 
L 248.064 51.449966 
L 216.32 50.246476 
L 184.576 50.246476 
L 152.832 51.449966 
L 121.088 54.915277 
L 89.344 66.737096 
L 84.724432 71.04 
L 77.067609 100.608 
L 76.389093 130.176 
L 78.299899 159.744 
L 82.55863 189.312 
L 89.344 215.514529 
L 90.650092 218.88 
L 109.306911 248.448 
L 121.088 258.694113 
" style="fill:none;stroke:#000000;"/>
   </g>
   <g id="LineCollection_9">
    <path clip-path="url(#p955c9618ba)" d="M 121.088 251.728884 
L 152.832 266.092456 
L 184.576 271.080872 
L 216.32 271.080872 
L 248.064 266.092456 
L 279.808 251.728884 
L 283.580395 248.448 
L 304.902474 218.88 
L 311.552 201.745847 
L 314.771851 189.312 
L 319.638973 159.744 
L 321.82275 130.176 
L 321.047304 100.608 
L 312.296649 71.04 
L 311.552 70.346396 
L 279.808 56.835745 
L 248.064 52.87539 
L 216.32 51.499972 
L 184.576 51.499972 
L 152.832 52.87539 
L 121.088 56.835745 
L 89.344 70.346396 
L 88.599351 71.04 
L 79.848696 100.608 
L 79.07325 130.176 
L 81.257027 159.744 
L 86.124149 189.312 
L 89.344 201.745847 
L 95.993526 218.88 
L 117.315605 248.448 
L 121.088 251.728884 
" style="fill:none;stroke:#000000;"/>
   </g>
   <g id="LineCollection_10">
    <path clip-path="url(#p955c9618ba)" d="M 152.832 260.922674 
L 184.576 266.534642 
L 216.32 266.534642 
L 248.064 260.922674 
L 274.100451 248.448 
L 279.808 244.746386 
L 299.55904 218.88 
L 311.158922 189.312 
L 311.552 187.747028 
L 316.681844 159.744 
L 319.138594 130.176 
L 318.266217 100.608 
L 311.552 78.453207 
L 307.992388 71.04 
L 279.808 58.756213 
L 248.064 54.300813 
L 216.32 52.753469 
L 184.576 52.753469 
L 152.832 54.300813 
L 121.088 58.756213 
L 92.903612 71.04 
L 89.344 78.453207 
L 82.629783 100.608 
L 81.757406 130.176 
L 84.214156 159.744 
L 89.344 187.747028 
L 89.737078 189.312 
L 101.33696 218.88 
L 121.088 244.746386 
L 126.795549 248.448 
L 152.832 260.922674 
" style="fill:none;stroke:#000000;"/>
   </g>
   <g id="LineCollection_11">
    <path clip-path="url(#p955c9618ba)" d="M 152.832 255.752892 
L 184.576 261.988412 
L 216.32 261.988412 
L 248.064 255.752892 
L 263.310367 248.448 
L 279.808 237.74851 
L 294.215606 218.88 
L 307.104364 189.312 
L 311.552 171.60452 
L 313.724716 159.744 
L 316.454438 130.176 
L 315.485129 100.608 
L 311.552 87.629916 
L 303.585993 71.04 
L 279.808 60.676681 
L 248.064 55.726237 
L 216.32 54.006966 
L 184.576 54.006966 
L 152.832 55.726237 
L 121.088 60.676681 
L 97.310007 71.04 
L 89.344 87.629916 
L 85.410871 100.608 
L 84.441562 130.176 
L 87.171284 159.744 
L 89.344 171.60452 
L 93.791636 189.312 
L 106.680394 218.88 
L 121.088 237.74851 
L 137.585633 248.448 
L 152.832 255.752892 
" style="fill:none;stroke:#000000;"/>
   </g>
   <g id="LineCollection_12">
    <path clip-path="url(#p955c9618ba)" d="M 152.832 250.58311 
L 184.576 257.442182 
L 216.32 257.442182 
L 248.064 250.58311 
L 252.520283 248.448 
L 279.808 230.750635 
L 288.872172 218.88 
L 303.049806 189.312 
L 310.659999 159.744 
L 311.552 152.559538 
L 313.770282 130.176 
L 312.704042 100.608 
L 311.552 96.806624 
L 299.179598 71.04 
L 279.808 62.59715 
L 248.064 57.151661 
L 216.32 55.260462 
L 184.576 55.260462 
L 152.832 57.151661 
L 121.088 62.59715 
L 101.716402 71.04 
L 89.344 96.806624 
L 88.191958 100.608 
L 87.125718 130.176 
L 89.344 152.559538 
L 90.236001 159.744 
L 97.846194 189.312 
L 112.023828 218.88 
L 121.088 230.750635 
L 148.375717 248.448 
L 152.832 250.58311 
" style="fill:none;stroke:#000000;"/>
   </g>
   <g id="LineCollection_13">
    <path clip-path="url(#p955c9618ba)" d="M 184.576 252.895952 
L 216.32 252.895952 
L 236.160348 248.448 
L 248.064 245.399103 
L 279.808 223.752759 
L 283.528738 218.88 
L 298.995247 189.312 
L 307.297276 159.744 
L 311.022227 130.176 
L 309.699519 100.608 
L 294.773202 71.04 
L 279.808 64.517618 
L 248.064 58.577084 
L 216.32 56.513959 
L 184.576 56.513959 
L 152.832 58.577084 
L 121.088 64.517618 
L 106.122798 71.04 
L 91.196481 100.608 
L 89.873773 130.176 
L 93.598724 159.744 
L 101.900753 189.312 
L 117.367262 218.88 
L 121.088 223.752759 
L 152.832 245.399103 
L 164.735652 248.448 
L 184.576 252.895952 
" style="fill:none;stroke:#000000;"/>
   </g>
   <g id="LineCollection_14">
    <path clip-path="url(#p955c9618ba)" d="M 152.832 240.20509 
L 184.576 248.349261 
L 216.32 248.349261 
L 248.064 240.20509 
L 277.621748 218.88 
L 279.808 216.655188 
L 294.940689 189.312 
L 303.934554 159.744 
L 307.969917 130.176 
L 306.536983 100.608 
L 290.366807 71.04 
L 279.808 66.438086 
L 248.064 60.002508 
L 216.32 57.767455 
L 184.576 57.767455 
L 152.832 60.002508 
L 121.088 66.438086 
L 110.529193 71.04 
L 94.359017 100.608 
L 92.926083 130.176 
L 96.961446 159.744 
L 105.955311 189.312 
L 121.088 216.655188 
L 123.274252 218.88 
L 152.832 240.20509 
" style="fill:none;stroke:#000000;"/>
   </g>
   <g id="LineCollection_15">
    <path clip-path="url(#p955c9618ba)" d="M 152.832 235.011076 
L 184.576 243.781722 
L 216.32 243.781722 
L 248.064 235.011076 
L 270.422559 218.88 
L 279.808 209.329026 
L 290.886131 189.312 
L 300.571832 159.744 
L 304.917608 130.176 
L 303.374448 100.608 
L 285.960412 71.04 
L 279.808 68.358554 
L 248.064 61.427932 
L 216.32 59.020952 
L 184.576 59.020952 
L 152.832 61.427932 
L 121.088 68.358554 
L 114.935588 71.04 
L 97.521552 100.608 
L 95.978392 130.176 
L 100.324168 159.744 
L 110.009869 189.312 
L 121.088 209.329026 
L 130.473441 218.88 
L 152.832 235.011076 
" style="fill:none;stroke:#000000;"/>
   </g>
   <g id="LineCollection_16">
    <path clip-path="url(#p955c9618ba)" d="M 152.832 229.817062 
L 184.576 239.214183 
L 216.32 239.214183 
L 248.064 229.817062 
L 263.22337 218.88 
L 279.808 202.002863 
L 286.831573 189.312 
L 297.209109 159.744 
L 301.865298 130.176 
L 300.211912 100.608 
L 281.554017 71.04 
L 279.808 70.279022 
L 248.064 62.853355 
L 216.32 60.274448 
L 184.576 60.274448 
L 152.832 62.853355 
L 121.088 70.279022 
L 119.341983 71.04 
L 100.684088 100.608 
L 99.030702 130.176 
L 103.686891 159.744 
L 114.064427 189.312 
L 121.088 202.002863 
L 137.67263 218.88 
L 152.832 229.817062 
" style="fill:none;stroke:#000000;"/>
   </g>
   <g id="LineCollection_17">
    <path clip-path="url(#p955c9618ba)" d="M 152.832 224.623048 
L 184.576 234.646644 
L 216.32 234.646644 
L 248.064 224.623048 
L 256.024181 218.88 
L 279.808 194.6767 
L 282.777015 189.312 
L 293.846387 159.744 
L 298.812988 130.176 
L 297.049377 100.608 
L 279.808 73.988025 
L 276.223682 71.04 
L 248.064 64.278779 
L 216.32 61.527945 
L 184.576 61.527945 
L 152.832 64.278779 
L 124.672318 71.04 
L 121.088 73.988025 
L 103.846623 100.608 
L 102.083012 130.176 
L 107.049613 159.744 
L 118.118985 189.312 
L 121.088 194.6767 
L 144.871819 218.88 
L 152.832 224.623048 
" style="fill:none;stroke:#000000;"/>
   </g>
   <g id="LineCollection_18">
    <path clip-path="url(#p955c9618ba)" d="M 152.832 219.429034 
L 184.576 230.079105 
L 216.32 230.079105 
L 248.064 219.429034 
L 248.824992 218.88 
L 278.345452 189.312 
L 279.808 187.012366 
L 290.483665 159.744 
L 295.760678 130.176 
L 293.886841 100.608 
L 279.808 78.870849 
L 270.286962 71.04 
L 248.064 65.704203 
L 216.32 62.781441 
L 184.576 62.781441 
L 152.832 65.704203 
L 130.609038 71.04 
L 121.088 78.870849 
L 107.009159 100.608 
L 105.135322 130.176 
L 110.412335 159.744 
L 121.088 187.012366 
L 122.550548 189.312 
L 152.071008 218.88 
L 152.832 219.429034 
" style="fill:none;stroke:#000000;"/>
   </g>
   <g id="LineCollection_19">
    <path clip-path="url(#p955c9618ba)" d="M 184.576 225.511566 
L 216.32 225.511566 
L 235.964147 218.88 
L 248.064 214.017114 
L 272.88276 189.312 
L 279.808 178.423116 
L 287.120942 159.744 
L 292.708368 130.176 
L 290.724306 100.608 
L 279.808 83.753674 
L 264.350241 71.04 
L 248.064 67.129626 
L 216.32 64.034938 
L 184.576 64.034938 
L 152.832 67.129626 
L 136.545759 71.04 
L 121.088 83.753674 
L 110.171694 100.608 
L 108.187632 130.176 
L 113.775058 159.744 
L 121.088 178.423116 
L 128.01324 189.312 
L 152.832 214.017114 
L 164.931853 218.88 
L 184.576 225.511566 
" style="fill:none;stroke:#000000;"/>
   </g>
   <g id="LineCollection_20">
    <path clip-path="url(#p955c9618ba)" d="M 184.576 220.944026 
L 216.32 220.944026 
L 222.434098 218.88 
L 248.064 208.579436 
L 267.420069 189.312 
L 279.808 169.833867 
L 283.75822 159.744 
L 289.656058 130.176 
L 287.56177 100.608 
L 279.808 88.636498 
L 258.413521 71.04 
L 248.064 68.55505 
L 216.32 65.288435 
L 184.576 65.288435 
L 152.832 68.55505 
L 142.482479 71.04 
L 121.088 88.636498 
L 113.33423 100.608 
L 111.239942 130.176 
L 117.13778 159.744 
L 121.088 169.833867 
L 133.475931 189.312 
L 152.832 208.579436 
L 178.461902 218.88 
L 184.576 220.944026 
" style="fill:none;stroke:#000000;"/>
   </g>
   <g id="LineCollection_21">
    <path clip-path="url(#p955c9618ba)" d="M 152.832 203.141759 
L 184.576 216.259042 
L 216.32 216.259042 
L 248.064 203.141759 
L 261.957377 189.312 
L 279.808 161.244618 
L 280.395497 159.744 
L 286.603749 130.176 
L 284.399235 100.608 
L 279.808 93.519323 
L 252.476801 71.04 
L 248.064 69.980474 
L 216.32 66.541931 
L 184.576 66.541931 
L 152.832 69.980474 
L 148.419199 71.04 
L 121.088 93.519323 
L 116.496765 100.608 
L 114.292251 130.176 
L 120.500503 159.744 
L 121.088 161.244618 
L 138.938623 189.312 
L 152.832 203.141759 
" style="fill:none;stroke:#000000;"/>
   </g>
   <g id="LineCollection_22">
    <path clip-path="url(#p955c9618ba)" d="M 152.832 197.704081 
L 184.576 211.477228 
L 216.32 211.477228 
L 248.064 197.704081 
L 256.494686 189.312 
L 276.06895 159.744 
L 279.808 147.850459 
L 283.551439 130.176 
L 281.236699 100.608 
L 279.808 98.402147 
L 248.064 71.970301 
L 245.199968 71.04 
L 216.32 67.795428 
L 184.576 67.795428 
L 155.696032 71.04 
L 152.832 71.970301 
L 121.088 98.402147 
L 119.659301 100.608 
L 117.344561 130.176 
L 121.088 147.850459 
L 124.82705 159.744 
L 144.401314 189.312 
L 152.832 197.704081 
" style="fill:none;stroke:#000000;"/>
   </g>
   <g id="LineCollection_23">
    <path clip-path="url(#p955c9618ba)" d="M 152.832 192.266404 
L 184.576 206.695415 
L 216.32 206.695415 
L 248.064 192.266404 
L 251.031995 189.312 
L 271.538366 159.744 
L 279.808 133.439131 
L 280.499129 130.176 
L 279.808 121.53358 
L 277.472009 100.608 
L 248.064 75.594466 
L 234.042584 71.04 
L 216.32 69.048924 
L 184.576 69.048924 
L 166.853416 71.04 
L 152.832 75.594466 
L 123.423991 100.608 
L 121.088 121.53358 
L 120.396871 130.176 
L 121.088 133.439131 
L 129.357634 159.744 
L 149.864005 189.312 
L 152.832 192.266404 
" style="fill:none;stroke:#000000;"/>
   </g>
   <g id="LineCollection_24">
    <path clip-path="url(#p955c9618ba)" d="M 184.576 201.913602 
L 216.32 201.913602 
L 243.375504 189.312 
L 248.064 186.400591 
L 267.007782 159.744 
L 276.62679 130.176 
L 273.211136 100.608 
L 248.064 79.218631 
L 222.8852 71.04 
L 216.32 70.302421 
L 184.576 70.302421 
L 178.0108 71.04 
L 152.832 79.218631 
L 127.684864 100.608 
L 124.26921 130.176 
L 133.888218 159.744 
L 152.832 186.400591 
L 157.520496 189.312 
L 184.576 201.913602 
" style="fill:none;stroke:#000000;"/>
   </g>
   <g id="LineCollection_25">
    <path clip-path="url(#p955c9618ba)" d="M 184.576 197.131789 
L 216.32 197.131789 
L 233.109002 189.312 
L 248.064 180.025417 
L 262.477199 159.744 
L 272.514424 130.176 
L 268.950264 100.608 
L 248.064 82.842796 
L 216.32 72.351729 
L 184.576 72.351729 
L 152.832 82.842796 
L 131.945736 100.608 
L 128.381576 130.176 
L 138.418801 159.744 
L 152.832 180.025417 
L 167.786998 189.312 
L 184.576 197.131789 
" style="fill:none;stroke:#000000;"/>
   </g>
   <g id="LineCollection_26">
    <path clip-path="url(#p955c9618ba)" d="M 184.576 192.349975 
L 216.32 192.349975 
L 222.842501 189.312 
L 248.064 173.650243 
L 257.946615 159.744 
L 268.402058 130.176 
L 264.689391 100.608 
L 248.064 86.466961 
L 216.32 75.538766 
L 184.576 75.538766 
L 152.832 86.466961 
L 136.206609 100.608 
L 132.493942 130.176 
L 142.949385 159.744 
L 152.832 173.650243 
L 178.053499 189.312 
L 184.576 192.349975 
" style="fill:none;stroke:#000000;"/>
   </g>
   <g id="LineCollection_27">
    <path clip-path="url(#p955c9618ba)" d="M 152.832 167.275068 
L 184.576 187.267511 
L 216.32 187.267511 
L 248.064 167.275068 
L 253.416032 159.744 
L 264.289692 130.176 
L 260.428519 100.608 
L 248.064 90.091127 
L 216.32 78.725804 
L 184.576 78.725804 
L 152.832 90.091127 
L 140.467481 100.608 
L 136.606308 130.176 
L 147.479968 159.744 
L 152.832 167.275068 
" style="fill:none;stroke:#000000;"/>
   </g>
   <g id="LineCollection_28">
    <path clip-path="url(#p955c9618ba)" d="M 152.832 160.899894 
L 184.576 181.661277 
L 216.32 181.661277 
L 248.064 160.899894 
L 248.885448 159.744 
L 260.177326 130.176 
L 256.167646 100.608 
L 248.064 93.715292 
L 216.32 81.912841 
L 184.576 81.912841 
L 152.832 93.715292 
L 144.728354 100.608 
L 140.718674 130.176 
L 152.010552 159.744 
L 152.832 160.899894 
" style="fill:none;stroke:#000000;"/>
   </g>
   <g id="LineCollection_29">
    <path clip-path="url(#p955c9618ba)" d="M 184.576 176.055043 
L 216.32 176.055043 
L 241.093105 159.744 
L 248.064 150.986918 
L 256.06496 130.176 
L 251.906773 100.608 
L 248.064 97.339457 
L 216.32 85.099878 
L 184.576 85.099878 
L 152.832 97.339457 
L 148.989227 100.608 
L 144.83104 130.176 
L 152.832 150.986918 
L 159.802895 159.744 
L 184.576 176.055043 
" style="fill:none;stroke:#000000;"/>
   </g>
   <g id="LineCollection_30">
    <path clip-path="url(#p955c9618ba)" d="M 184.576 170.448808 
L 216.32 170.448808 
L 232.578393 159.744 
L 248.064 140.290438 
L 251.952594 130.176 
L 248.064 103.387857 
L 247.278231 100.608 
L 216.32 88.286916 
L 184.576 88.286916 
L 153.617769 100.608 
L 152.832 103.387857 
L 148.943406 130.176 
L 152.832 140.290438 
L 168.317607 159.744 
L 184.576 170.448808 
" style="fill:none;stroke:#000000;"/>
   </g>
   <g id="LineCollection_31">
    <path clip-path="url(#p955c9618ba)" d="M 184.576 164.842574 
L 216.32 164.842574 
L 224.063681 159.744 
L 247.643447 130.176 
L 239.27041 100.608 
L 216.32 91.473953 
L 184.576 91.473953 
L 161.62559 100.608 
L 153.252553 130.176 
L 176.832319 159.744 
L 184.576 164.842574 
" style="fill:none;stroke:#000000;"/>
   </g>
   <g id="LineCollection_32">
    <path clip-path="url(#p955c9618ba)" d="M 184.576 158.892231 
L 216.32 158.892231 
L 239.914727 130.176 
L 231.262589 100.608 
L 216.32 94.66099 
L 184.576 94.66099 
L 169.633411 100.608 
L 160.981273 130.176 
L 184.576 158.892231 
" style="fill:none;stroke:#000000;"/>
   </g>
   <g id="LineCollection_33">
    <path clip-path="url(#p955c9618ba)" d="M 184.576 149.485905 
L 216.32 149.485905 
L 232.186008 130.176 
L 223.254768 100.608 
L 216.32 97.848028 
L 184.576 97.848028 
L 177.641232 100.608 
L 168.709992 130.176 
L 184.576 149.485905 
" style="fill:none;stroke:#000000;"/>
   </g>
   <g id="LineCollection_34">
    <path clip-path="url(#p955c9618ba)" d="M 184.576 140.079579 
L 216.32 140.079579 
L 224.457288 130.176 
L 216.32 103.946319 
L 184.576 103.946319 
L 176.438712 130.176 
L 184.576 140.079579 
" style="fill:none;stroke:#000000;"/>
   </g>
   <g id="LineCollection_35">
    <path clip-path="url(#p955c9618ba)" d="M 184.576 130.673252 
L 216.32 130.673252 
L 216.728568 130.176 
L 216.32 128.859024 
L 184.576 128.859024 
L 184.167432 130.176 
L 184.576 130.673252 
" style="fill:none;stroke:#000000;"/>
   </g>
   <g id="LineCollection_36"/>
   <g id="patch_3">
    <path d="M 57.6 307.584 
L 57.6 41.472 
" style="fill:none;stroke:#000000;stroke-linecap:square;stroke-linejoin:miter;stroke-width:0.8;"/>
   </g>
   <g id="patch_4">
    <path d="M 343.296 307.584 
L 343.296 41.472 
" style="fill:none;stroke:#000000;stroke-linecap:square;stroke-linejoin:miter;stroke-width:0.8;"/>
   </g>
   <g id="patch_5">
    <path d="M 57.6 307.584 
L 343.296 307.584 
" style="fill:none;stroke:#000000;stroke-linecap:square;stroke-linejoin:miter;stroke-width:0.8;"/>
   </g>
   <g id="patch_6">
    <path d="M 57.6 41.472 
L 343.296 41.472 
" style="fill:none;stroke:#000000;stroke-linecap:square;stroke-linejoin:miter;stroke-width:0.8;"/>
   </g>
  </g>
  <g id="axes_2">
   <g id="patch_7">
    <path clip-path="url(#p2a23abe7f2)" d="M 361.152 307.584 
L 361.152 299.9808 
L 361.152 49.0752 
L 361.152 41.472 
L 374.4576 41.472 
L 374.4576 49.0752 
L 374.4576 299.9808 
L 374.4576 307.584 
z
" style="fill:#ffffff;stroke:#ffffff;stroke-linejoin:miter;stroke-width:0.01;"/>
   </g>
   <g id="QuadMesh_1">
    <path clip-path="url(#p2a23abe7f2)" d="M 361.152 307.584 
L 374.4576 307.584 
L 374.4576 299.9808 
L 361.152 299.9808 
L 361.152 307.584 
" style="fill:#3e51c5;"/>
    <path clip-path="url(#p2a23abe7f2)" d="M 361.152 299.9808 
L 374.4576 299.9808 
L 374.4576 292.3776 
L 361.152 292.3776 
L 361.152 299.9808 
" style="fill:#465ecf;"/>
    <path clip-path="url(#p2a23abe7f2)" d="M 361.152 292.3776 
L 374.4576 292.3776 
L 374.4576 284.7744 
L 361.152 284.7744 
L 361.152 292.3776 
" style="fill:#506bda;"/>
    <path clip-path="url(#p2a23abe7f2)" d="M 361.152 284.7744 
L 374.4576 284.7744 
L 374.4576 277.1712 
L 361.152 277.1712 
L 361.152 284.7744 
" style="fill:#5977e3;"/>
    <path clip-path="url(#p2a23abe7f2)" d="M 361.152 277.1712 
L 374.4576 277.1712 
L 374.4576 269.568 
L 361.152 269.568 
L 361.152 277.1712 
" style="fill:#6282ea;"/>
    <path clip-path="url(#p2a23abe7f2)" d="M 361.152 269.568 
L 374.4576 269.568 
L 374.4576 261.9648 
L 361.152 261.9648 
L 361.152 269.568 
" style="fill:#6c8ff1;"/>
    <path clip-path="url(#p2a23abe7f2)" d="M 361.152 261.9648 
L 374.4576 261.9648 
L 374.4576 254.3616 
L 361.152 254.3616 
L 361.152 261.9648 
" style="fill:#7699f6;"/>
    <path clip-path="url(#p2a23abe7f2)" d="M 361.152 254.3616 
L 374.4576 254.3616 
L 374.4576 246.7584 
L 361.152 246.7584 
L 361.152 254.3616 
" style="fill:#80a3fa;"/>
    <path clip-path="url(#p2a23abe7f2)" d="M 361.152 246.7584 
L 374.4576 246.7584 
L 374.4576 239.1552 
L 361.152 239.1552 
L 361.152 246.7584 
" style="fill:#8badfd;"/>
    <path clip-path="url(#p2a23abe7f2)" d="M 361.152 239.1552 
L 374.4576 239.1552 
L 374.4576 231.552 
L 361.152 231.552 
L 361.152 239.1552 
" style="fill:#94b6ff;"/>
    <path clip-path="url(#p2a23abe7f2)" d="M 361.152 231.552 
L 374.4576 231.552 
L 374.4576 223.9488 
L 361.152 223.9488 
L 361.152 231.552 
" style="fill:#9ebeff;"/>
    <path clip-path="url(#p2a23abe7f2)" d="M 361.152 223.9488 
L 374.4576 223.9488 
L 374.4576 216.3456 
L 361.152 216.3456 
L 361.152 223.9488 
" style="fill:#a9c6fd;"/>
    <path clip-path="url(#p2a23abe7f2)" d="M 361.152 216.3456 
L 374.4576 216.3456 
L 374.4576 208.7424 
L 361.152 208.7424 
L 361.152 216.3456 
" style="fill:#b2ccfb;"/>
    <path clip-path="url(#p2a23abe7f2)" d="M 361.152 208.7424 
L 374.4576 208.7424 
L 374.4576 201.1392 
L 361.152 201.1392 
L 361.152 208.7424 
" style="fill:#bbd1f8;"/>
    <path clip-path="url(#p2a23abe7f2)" d="M 361.152 201.1392 
L 374.4576 201.1392 
L 374.4576 193.536 
L 361.152 193.536 
L 361.152 201.1392 
" style="fill:#c5d6f2;"/>
    <path clip-path="url(#p2a23abe7f2)" d="M 361.152 193.536 
L 374.4576 193.536 
L 374.4576 185.9328 
L 361.152 185.9328 
L 361.152 193.536 
" style="fill:#cdd9ec;"/>
    <path clip-path="url(#p2a23abe7f2)" d="M 361.152 185.9328 
L 374.4576 185.9328 
L 374.4576 178.3296 
L 361.152 178.3296 
L 361.152 185.9328 
" style="fill:#d5dbe5;"/>
    <path clip-path="url(#p2a23abe7f2)" d="M 361.152 178.3296 
L 374.4576 178.3296 
L 374.4576 170.7264 
L 361.152 170.7264 
L 361.152 178.3296 
" style="fill:#dddcdc;"/>
    <path clip-path="url(#p2a23abe7f2)" d="M 361.152 170.7264 
L 374.4576 170.7264 
L 374.4576 163.1232 
L 361.152 163.1232 
L 361.152 170.7264 
" style="fill:#e4d9d2;"/>
    <path clip-path="url(#p2a23abe7f2)" d="M 361.152 163.1232 
L 374.4576 163.1232 
L 374.4576 155.52 
L 361.152 155.52 
L 361.152 163.1232 
" style="fill:#ead4c8;"/>
    <path clip-path="url(#p2a23abe7f2)" d="M 361.152 155.52 
L 374.4576 155.52 
L 374.4576 147.9168 
L 361.152 147.9168 
L 361.152 155.52 
" style="fill:#efcebd;"/>
    <path clip-path="url(#p2a23abe7f2)" d="M 361.152 147.9168 
L 374.4576 147.9168 
L 374.4576 140.3136 
L 361.152 140.3136 
L 361.152 147.9168 
" style="fill:#f3c7b1;"/>
    <path clip-path="url(#p2a23abe7f2)" d="M 361.152 140.3136 
L 374.4576 140.3136 
L 374.4576 132.7104 
L 361.152 132.7104 
L 361.152 140.3136 
" style="fill:#f6bfa6;"/>
    <path clip-path="url(#p2a23abe7f2)" d="M 361.152 132.7104 
L 374.4576 132.7104 
L 374.4576 125.1072 
L 361.152 125.1072 
L 361.152 132.7104 
" style="fill:#f7b79b;"/>
    <path clip-path="url(#p2a23abe7f2)" d="M 361.152 125.1072 
L 374.4576 125.1072 
L 374.4576 117.504 
L 361.152 117.504 
L 361.152 125.1072 
" style="fill:#f7ac8e;"/>
    <path clip-path="url(#p2a23abe7f2)" d="M 361.152 117.504 
L 374.4576 117.504 
L 374.4576 109.9008 
L 361.152 109.9008 
L 361.152 117.504 
" style="fill:#f6a283;"/>
    <path clip-path="url(#p2a23abe7f2)" d="M 361.152 109.9008 
L 374.4576 109.9008 
L 374.4576 102.2976 
L 361.152 102.2976 
L 361.152 109.9008 
" style="fill:#f39778;"/>
    <path clip-path="url(#p2a23abe7f2)" d="M 361.152 102.2976 
L 374.4576 102.2976 
L 374.4576 94.6944 
L 361.152 94.6944 
L 361.152 102.2976 
" style="fill:#f08a6c;"/>
    <path clip-path="url(#p2a23abe7f2)" d="M 361.152 94.6944 
L 374.4576 94.6944 
L 374.4576 87.0912 
L 361.152 87.0912 
L 361.152 94.6944 
" style="fill:#eb7d62;"/>
    <path clip-path="url(#p2a23abe7f2)" d="M 361.152 87.0912 
L 374.4576 87.0912 
L 374.4576 79.488 
L 361.152 79.488 
L 361.152 87.0912 
" style="fill:#e57058;"/>
    <path clip-path="url(#p2a23abe7f2)" d="M 361.152 79.488 
L 374.4576 79.488 
L 374.4576 71.8848 
L 361.152 71.8848 
L 361.152 79.488 
" style="fill:#de614d;"/>
    <path clip-path="url(#p2a23abe7f2)" d="M 361.152 71.8848 
L 374.4576 71.8848 
L 374.4576 64.2816 
L 361.152 64.2816 
L 361.152 71.8848 
" style="fill:#d65244;"/>
    <path clip-path="url(#p2a23abe7f2)" d="M 361.152 64.2816 
L 374.4576 64.2816 
L 374.4576 56.6784 
L 361.152 56.6784 
L 361.152 64.2816 
" style="fill:#cd423b;"/>
    <path clip-path="url(#p2a23abe7f2)" d="M 361.152 56.6784 
L 374.4576 56.6784 
L 374.4576 49.0752 
L 361.152 49.0752 
L 361.152 56.6784 
" style="fill:#c32e31;"/>
    <path clip-path="url(#p2a23abe7f2)" d="M 361.152 49.0752 
L 374.4576 49.0752 
L 374.4576 41.472 
L 361.152 41.472 
L 361.152 49.0752 
" style="fill:#b8122a;"/>
   </g>
   <g id="matplotlib.axis_3"/>
   <g id="matplotlib.axis_4">
    <g id="ytick_7">
     <g id="line2d_13">
      <defs>
       <path d="M 0 0 
L 3.5 0 
" id="m50a31155f7" style="stroke:#000000;stroke-width:0.8;"/>
      </defs>
      <g>
       <use style="stroke:#000000;stroke-width:0.8;" x="374.4576" xlink:href="#m50a31155f7" y="307.584"/>
      </g>
     </g>
     <g id="text_15">
      <!-- 0.0000 -->
      <g transform="translate(381.4576 311.383219)scale(0.1 -0.1)">
       <use xlink:href="#DejaVuSans-48"/>
       <use x="63.623047" xlink:href="#DejaVuSans-46"/>
       <use x="95.410156" xlink:href="#DejaVuSans-48"/>
       <use x="159.033203" xlink:href="#DejaVuSans-48"/>
       <use x="222.65625" xlink:href="#DejaVuSans-48"/>
       <use x="286.279297" xlink:href="#DejaVuSans-48"/>
      </g>
     </g>
    </g>
    <g id="ytick_8">
     <g id="line2d_14">
      <g>
       <use style="stroke:#000000;stroke-width:0.8;" x="374.4576" xlink:href="#m50a31155f7" y="277.1712"/>
      </g>
     </g>
     <g id="text_16">
      <!-- 0.0004 -->
      <g transform="translate(381.4576 280.970419)scale(0.1 -0.1)">
       <use xlink:href="#DejaVuSans-48"/>
       <use x="63.623047" xlink:href="#DejaVuSans-46"/>
       <use x="95.410156" xlink:href="#DejaVuSans-48"/>
       <use x="159.033203" xlink:href="#DejaVuSans-48"/>
       <use x="222.65625" xlink:href="#DejaVuSans-48"/>
       <use x="286.279297" xlink:href="#DejaVuSans-52"/>
      </g>
     </g>
    </g>
    <g id="ytick_9">
     <g id="line2d_15">
      <g>
       <use style="stroke:#000000;stroke-width:0.8;" x="374.4576" xlink:href="#m50a31155f7" y="246.7584"/>
      </g>
     </g>
     <g id="text_17">
      <!-- 0.0008 -->
      <g transform="translate(381.4576 250.557619)scale(0.1 -0.1)">
       <use xlink:href="#DejaVuSans-48"/>
       <use x="63.623047" xlink:href="#DejaVuSans-46"/>
       <use x="95.410156" xlink:href="#DejaVuSans-48"/>
       <use x="159.033203" xlink:href="#DejaVuSans-48"/>
       <use x="222.65625" xlink:href="#DejaVuSans-48"/>
       <use x="286.279297" xlink:href="#DejaVuSans-56"/>
      </g>
     </g>
    </g>
    <g id="ytick_10">
     <g id="line2d_16">
      <g>
       <use style="stroke:#000000;stroke-width:0.8;" x="374.4576" xlink:href="#m50a31155f7" y="216.3456"/>
      </g>
     </g>
     <g id="text_18">
      <!-- 0.0012 -->
      <g transform="translate(381.4576 220.144819)scale(0.1 -0.1)">
       <use xlink:href="#DejaVuSans-48"/>
       <use x="63.623047" xlink:href="#DejaVuSans-46"/>
       <use x="95.410156" xlink:href="#DejaVuSans-48"/>
       <use x="159.033203" xlink:href="#DejaVuSans-48"/>
       <use x="222.65625" xlink:href="#DejaVuSans-49"/>
       <use x="286.279297" xlink:href="#DejaVuSans-50"/>
      </g>
     </g>
    </g>
    <g id="ytick_11">
     <g id="line2d_17">
      <g>
       <use style="stroke:#000000;stroke-width:0.8;" x="374.4576" xlink:href="#m50a31155f7" y="185.9328"/>
      </g>
     </g>
     <g id="text_19">
      <!-- 0.0016 -->
      <g transform="translate(381.4576 189.732019)scale(0.1 -0.1)">
       <use xlink:href="#DejaVuSans-48"/>
       <use x="63.623047" xlink:href="#DejaVuSans-46"/>
       <use x="95.410156" xlink:href="#DejaVuSans-48"/>
       <use x="159.033203" xlink:href="#DejaVuSans-48"/>
       <use x="222.65625" xlink:href="#DejaVuSans-49"/>
       <use x="286.279297" xlink:href="#DejaVuSans-54"/>
      </g>
     </g>
    </g>
    <g id="ytick_12">
     <g id="line2d_18">
      <g>
       <use style="stroke:#000000;stroke-width:0.8;" x="374.4576" xlink:href="#m50a31155f7" y="155.52"/>
      </g>
     </g>
     <g id="text_20">
      <!-- 0.0020 -->
      <g transform="translate(381.4576 159.319219)scale(0.1 -0.1)">
       <use xlink:href="#DejaVuSans-48"/>
       <use x="63.623047" xlink:href="#DejaVuSans-46"/>
       <use x="95.410156" xlink:href="#DejaVuSans-48"/>
       <use x="159.033203" xlink:href="#DejaVuSans-48"/>
       <use x="222.65625" xlink:href="#DejaVuSans-50"/>
       <use x="286.279297" xlink:href="#DejaVuSans-48"/>
      </g>
     </g>
    </g>
    <g id="ytick_13">
     <g id="line2d_19">
      <g>
       <use style="stroke:#000000;stroke-width:0.8;" x="374.4576" xlink:href="#m50a31155f7" y="125.1072"/>
      </g>
     </g>
     <g id="text_21">
      <!-- 0.0024 -->
      <g transform="translate(381.4576 128.906419)scale(0.1 -0.1)">
       <use xlink:href="#DejaVuSans-48"/>
       <use x="63.623047" xlink:href="#DejaVuSans-46"/>
       <use x="95.410156" xlink:href="#DejaVuSans-48"/>
       <use x="159.033203" xlink:href="#DejaVuSans-48"/>
       <use x="222.65625" xlink:href="#DejaVuSans-50"/>
       <use x="286.279297" xlink:href="#DejaVuSans-52"/>
      </g>
     </g>
    </g>
    <g id="ytick_14">
     <g id="line2d_20">
      <g>
       <use style="stroke:#000000;stroke-width:0.8;" x="374.4576" xlink:href="#m50a31155f7" y="94.6944"/>
      </g>
     </g>
     <g id="text_22">
      <!-- 0.0028 -->
      <g transform="translate(381.4576 98.493619)scale(0.1 -0.1)">
       <use xlink:href="#DejaVuSans-48"/>
       <use x="63.623047" xlink:href="#DejaVuSans-46"/>
       <use x="95.410156" xlink:href="#DejaVuSans-48"/>
       <use x="159.033203" xlink:href="#DejaVuSans-48"/>
       <use x="222.65625" xlink:href="#DejaVuSans-50"/>
       <use x="286.279297" xlink:href="#DejaVuSans-56"/>
      </g>
     </g>
    </g>
    <g id="ytick_15">
     <g id="line2d_21">
      <g>
       <use style="stroke:#000000;stroke-width:0.8;" x="374.4576" xlink:href="#m50a31155f7" y="64.2816"/>
      </g>
     </g>
     <g id="text_23">
      <!-- 0.0032 -->
      <defs>
       <path d="M 40.578125 39.3125 
Q 47.65625 37.796875 51.625 33 
Q 55.609375 28.21875 55.609375 21.1875 
Q 55.609375 10.40625 48.1875 4.484375 
Q 40.765625 -1.421875 27.09375 -1.421875 
Q 22.515625 -1.421875 17.65625 -0.515625 
Q 12.796875 0.390625 7.625 2.203125 
L 7.625 11.71875 
Q 11.71875 9.328125 16.59375 8.109375 
Q 21.484375 6.890625 26.8125 6.890625 
Q 36.078125 6.890625 40.9375 10.546875 
Q 45.796875 14.203125 45.796875 21.1875 
Q 45.796875 27.640625 41.28125 31.265625 
Q 36.765625 34.90625 28.71875 34.90625 
L 20.21875 34.90625 
L 20.21875 43.015625 
L 29.109375 43.015625 
Q 36.375 43.015625 40.234375 45.921875 
Q 44.09375 48.828125 44.09375 54.296875 
Q 44.09375 59.90625 40.109375 62.90625 
Q 36.140625 65.921875 28.71875 65.921875 
Q 24.65625 65.921875 20.015625 65.03125 
Q 15.375 64.15625 9.8125 62.3125 
L 9.8125 71.09375 
Q 15.4375 72.65625 20.34375 73.4375 
Q 25.25 74.21875 29.59375 74.21875 
Q 40.828125 74.21875 47.359375 69.109375 
Q 53.90625 64.015625 53.90625 55.328125 
Q 53.90625 49.265625 50.4375 45.09375 
Q 46.96875 40.921875 40.578125 39.3125 
z
" id="DejaVuSans-51"/>
      </defs>
      <g transform="translate(381.4576 68.080819)scale(0.1 -0.1)">
       <use xlink:href="#DejaVuSans-48"/>
       <use x="63.623047" xlink:href="#DejaVuSans-46"/>
       <use x="95.410156" xlink:href="#DejaVuSans-48"/>
       <use x="159.033203" xlink:href="#DejaVuSans-48"/>
       <use x="222.65625" xlink:href="#DejaVuSans-51"/>
       <use x="286.279297" xlink:href="#DejaVuSans-50"/>
      </g>
     </g>
    </g>
   </g>
   <g id="patch_8">
    <path d="M 361.152 307.584 
L 361.152 299.9808 
L 361.152 49.0752 
L 361.152 41.472 
L 374.4576 41.472 
L 374.4576 49.0752 
L 374.4576 299.9808 
L 374.4576 307.584 
z
" style="fill:none;stroke:#000000;stroke-linejoin:miter;stroke-width:0.8;"/>
   </g>
  </g>
 </g>
 <defs>
  <clipPath id="p955c9618ba">
   <rect height="266.112" width="285.696" x="57.6" y="41.472"/>
  </clipPath>
  <clipPath id="p2a23abe7f2">
   <rect height="266.112" width="13.3056" x="361.152" y="41.472"/>
  </clipPath>
 </defs>
</svg>
