<?xml version="1.0" encoding="utf-8" standalone="no"?>
<!DOCTYPE svg PUBLIC "-//W3C//DTD SVG 1.1//EN"
  "http://www.w3.org/Graphics/SVG/1.1/DTD/svg11.dtd">
<!-- Created with matplotlib (https://matplotlib.org/) -->
<svg height="345.6pt" version="1.1" viewBox="0 0 460.8 345.6" width="460.8pt" xmlns="http://www.w3.org/2000/svg" xmlns:xlink="http://www.w3.org/1999/xlink">
 <defs>
  <style type="text/css">
*{stroke-linecap:butt;stroke-linejoin:round;}
  </style>
 </defs>
 <g id="figure_1">
  <g id="patch_1">
   <path d="M 0 345.6 
L 460.8 345.6 
L 460.8 0 
L 0 0 
z
" style="fill:#ffffff;"/>
  </g>
  <g id="axes_1">
   <g id="patch_2">
    <path d="M 57.6 307.584 
L 343.296 307.584 
L 343.296 41.472 
L 57.6 41.472 
z
" style="fill:#ffffff;"/>
   </g>
   <g id="PathCollection_1">
    <path clip-path="url(#p023c0eb830)" d="M 89.344 307.584 
L 89.537049 307.584 
L 121.088 307.584 
L 131.607209 307.584 
L 152.832 307.584 
L 163.891815 307.584 
L 184.576 307.584 
L 216.32 307.584 
L 219.865903 307.584 
L 248.064 307.584 
L 275.392666 307.584 
L 279.808 307.584 
L 308.020639 307.584 
L 311.552 307.584 
L 343.296 307.584 
L 343.296 278.016 
L 343.296 248.448 
L 343.296 218.88 
L 343.296 210.570427 
L 343.296 189.312 
L 343.296 165.812862 
L 343.296 159.744 
L 343.296 130.176 
L 343.296 127.332409 
L 343.296 100.608 
L 343.296 71.04 
L 343.296 41.472 
L 340.975669 41.472 
L 340.011315 71.04 
L 338.636901 100.608 
L 336.660845 130.176 
L 333.769389 159.744 
L 329.385216 189.312 
L 322.232204 218.88 
L 311.552 244.155173 
L 308.150391 248.448 
L 279.808 271.823752 
L 258.357167 278.016 
L 248.064 280.487419 
L 216.32 283.755667 
L 184.576 283.755667 
L 152.832 280.487419 
L 142.538833 278.016 
L 121.088 271.823752 
L 92.745609 248.448 
L 89.344 244.155173 
L 78.663796 218.88 
L 71.510784 189.312 
L 67.126611 159.744 
L 64.235155 130.176 
L 62.259099 100.608 
L 60.884685 71.04 
L 59.920331 41.472 
L 57.6 41.472 
L 57.6 71.04 
L 57.6 97.675359 
L 57.6 100.608 
L 57.6 130.176 
L 57.6 159.744 
L 57.6 189.312 
L 57.6 218.88 
L 57.6 248.448 
L 57.6 278.016 
L 57.6 307.584 
z
" style="fill:#3e51c5;"/>
   </g>
   <g id="PathCollection_2">
    <path clip-path="url(#p023c0eb830)" d="M 152.832 280.487419 
L 184.576 283.755667 
L 216.32 283.755667 
L 248.064 280.487419 
L 258.357167 278.016 
L 279.808 271.823752 
L 308.150391 248.448 
L 311.552 244.155173 
L 322.232204 218.88 
L 329.385216 189.312 
L 333.769389 159.744 
L 336.660845 130.176 
L 338.636901 100.608 
L 340.011315 71.04 
L 340.975669 41.472 
L 338.655338 41.472 
L 336.72663 71.04 
L 333.977803 100.608 
L 330.025691 130.176 
L 324.242777 159.744 
L 315.474432 189.312 
L 311.552 200.070789 
L 299.744214 218.88 
L 279.808 240.956013 
L 264.775996 248.448 
L 248.064 256.04131 
L 216.32 261.874265 
L 184.576 261.874265 
L 152.832 256.04131 
L 136.120004 248.448 
L 121.088 240.956013 
L 101.151786 218.88 
L 89.344 200.070789 
L 85.421568 189.312 
L 76.653223 159.744 
L 70.870309 130.176 
L 66.918197 100.608 
L 64.16937 71.04 
L 62.240662 41.472 
L 59.920331 41.472 
L 60.884685 71.04 
L 62.259099 100.608 
L 64.235155 130.176 
L 67.126611 159.744 
L 71.510784 189.312 
L 78.663796 218.88 
L 89.344 244.155173 
L 92.745609 248.448 
L 121.088 271.823752 
L 142.538833 278.016 
z
" style="fill:#455cce;"/>
   </g>
   <g id="PathCollection_3">
    <path clip-path="url(#p023c0eb830)" d="M 152.832 256.04131 
L 184.576 261.874265 
L 216.32 261.874265 
L 248.064 256.04131 
L 264.775996 248.448 
L 279.808 240.956013 
L 299.744214 218.88 
L 311.552 200.070789 
L 315.474432 189.312 
L 324.242777 159.744 
L 330.025691 130.176 
L 333.977803 100.608 
L 336.72663 71.04 
L 338.655338 41.472 
L 336.335006 41.472 
L 333.441945 71.04 
L 329.318704 100.608 
L 323.390536 130.176 
L 314.716166 159.744 
L 311.552 169.095548 
L 300.193665 189.312 
L 279.808 215.475523 
L 274.396381 218.88 
L 248.064 234.94356 
L 216.32 242.06707 
L 184.576 242.06707 
L 152.832 234.94356 
L 126.499619 218.88 
L 121.088 215.475523 
L 100.702335 189.312 
L 89.344 169.095548 
L 86.179834 159.744 
L 77.505464 130.176 
L 71.577296 100.608 
L 67.454055 71.04 
L 64.560994 41.472 
L 62.240662 41.472 
L 64.16937 71.04 
L 66.918197 100.608 
L 70.870309 130.176 
L 76.653223 159.744 
L 85.421568 189.312 
L 89.344 200.070789 
L 101.151786 218.88 
L 121.088 240.956013 
L 136.120004 248.448 
z
" style="fill:#4e68d8;"/>
   </g>
   <g id="PathCollection_4">
    <path clip-path="url(#p023c0eb830)" d="M 152.832 234.94356 
L 184.576 242.06707 
L 216.32 242.06707 
L 248.064 234.94356 
L 274.396381 218.88 
L 279.808 215.475523 
L 300.193665 189.312 
L 311.552 169.095548 
L 314.716166 159.744 
L 323.390536 130.176 
L 329.318704 100.608 
L 333.441945 71.04 
L 336.335006 41.472 
L 334.014675 41.472 
L 330.15726 71.04 
L 324.659606 100.608 
L 316.755382 130.176 
L 311.552 146.144632 
L 304.316894 159.744 
L 284.374905 189.312 
L 279.808 195.173291 
L 248.064 216.106744 
L 236.901904 218.88 
L 216.32 224.754901 
L 184.576 224.754901 
L 163.994096 218.88 
L 152.832 216.106744 
L 121.088 195.173291 
L 116.521095 189.312 
L 96.579106 159.744 
L 89.344 146.144632 
L 84.140618 130.176 
L 76.236394 100.608 
L 70.73874 71.04 
L 66.881325 41.472 
L 64.560994 41.472 
L 67.454055 71.04 
L 71.577296 100.608 
L 77.505464 130.176 
L 86.179834 159.744 
L 89.344 169.095548 
L 100.702335 189.312 
L 121.088 215.475523 
L 126.499619 218.88 
z
" style="fill:#5572df;"/>
   </g>
   <g id="PathCollection_5">
    <path clip-path="url(#p023c0eb830)" d="M 184.576 224.754901 
L 216.32 224.754901 
L 236.901904 218.88 
L 248.064 216.106744 
L 279.808 195.173291 
L 284.374905 189.312 
L 304.316894 159.744 
L 311.552 146.144632 
L 316.755382 130.176 
L 324.659606 100.608 
L 330.15726 71.04 
L 334.014675 41.472 
L 331.694344 41.472 
L 326.872576 71.04 
L 320.000507 100.608 
L 311.552 127.031605 
L 309.923848 130.176 
L 293.483631 159.744 
L 279.808 178.655893 
L 264.648417 189.312 
L 248.064 201.037875 
L 216.32 210.125515 
L 184.576 210.125515 
L 152.832 201.037875 
L 136.247583 189.312 
L 121.088 178.655893 
L 107.412369 159.744 
L 90.972152 130.176 
L 89.344 127.031605 
L 80.895493 100.608 
L 74.023424 71.04 
L 69.201656 41.472 
L 66.881325 41.472 
L 70.73874 71.04 
L 76.236394 100.608 
L 84.140618 130.176 
L 89.344 146.144632 
L 96.579106 159.744 
L 116.521095 189.312 
L 121.088 195.173291 
L 152.832 216.106744 
L 163.994096 218.88 
z
" style="fill:#5d7ce6;"/>
   </g>
   <g id="PathCollection_6">
    <path clip-path="url(#p023c0eb830)" d="M 152.832 201.037875 
L 184.576 210.125515 
L 216.32 210.125515 
L 248.064 201.037875 
L 264.648417 189.312 
L 279.808 178.655893 
L 293.483631 159.744 
L 309.923848 130.176 
L 311.552 127.031605 
L 320.000507 100.608 
L 326.872576 71.04 
L 331.694344 41.472 
L 329.374013 41.472 
L 323.587891 71.04 
L 315.341409 100.608 
L 311.552 112.459779 
L 302.378628 130.176 
L 282.650368 159.744 
L 279.808 163.674683 
L 248.064 186.845173 
L 239.178001 189.312 
L 216.32 196.874174 
L 184.576 196.874174 
L 161.717999 189.312 
L 152.832 186.845173 
L 121.088 163.674683 
L 118.245632 159.744 
L 98.517372 130.176 
L 89.344 112.459779 
L 85.554591 100.608 
L 77.308109 71.04 
L 71.521987 41.472 
L 69.201656 41.472 
L 74.023424 71.04 
L 80.895493 100.608 
L 89.344 127.031605 
L 90.972152 130.176 
L 107.412369 159.744 
L 121.088 178.655893 
L 136.247583 189.312 
z
" style="fill:#6687ed;"/>
   </g>
   <g id="PathCollection_7">
    <path clip-path="url(#p023c0eb830)" d="M 184.576 196.874174 
L 216.32 196.874174 
L 239.178001 189.312 
L 248.064 186.845173 
L 279.808 163.674683 
L 282.650368 159.744 
L 302.378628 130.176 
L 311.552 112.459779 
L 315.341409 100.608 
L 323.587891 71.04 
L 329.374013 41.472 
L 327.053682 41.472 
L 320.303206 71.04 
L 311.552 98.67202 
L 310.563026 100.608 
L 294.833409 130.176 
L 279.808 151.752038 
L 269.041897 159.744 
L 248.064 175.725712 
L 216.32 185.11391 
L 184.576 185.11391 
L 152.832 175.725712 
L 131.854103 159.744 
L 121.088 151.752038 
L 106.062591 130.176 
L 90.332974 100.608 
L 89.344 98.67202 
L 80.592794 71.04 
L 73.842318 41.472 
L 71.521987 41.472 
L 77.308109 71.04 
L 85.554591 100.608 
L 89.344 112.459779 
L 98.517372 130.176 
L 118.245632 159.744 
L 121.088 163.674683 
L 152.832 186.845173 
L 161.717999 189.312 
z
" style="fill:#6e90f2;"/>
   </g>
   <g id="PathCollection_8">
    <path clip-path="url(#p023c0eb830)" d="M 152.832 175.725712 
L 184.576 185.11391 
L 216.32 185.11391 
L 248.064 175.725712 
L 269.041897 159.744 
L 279.808 151.752038 
L 294.833409 130.176 
L 310.563026 100.608 
L 311.552 98.67202 
L 320.303206 71.04 
L 327.053682 41.472 
L 324.733351 41.472 
L 317.018521 71.04 
L 311.552 88.300595 
L 305.264894 100.608 
L 287.288189 130.176 
L 279.808 140.917329 
L 254.446282 159.744 
L 248.064 164.60625 
L 216.32 175.33562 
L 184.576 175.33562 
L 152.832 164.60625 
L 146.449718 159.744 
L 121.088 140.917329 
L 113.607811 130.176 
L 95.631106 100.608 
L 89.344 88.300595 
L 83.877479 71.04 
L 76.162649 41.472 
L 73.842318 41.472 
L 80.592794 71.04 
L 89.344 98.67202 
L 90.332974 100.608 
L 106.062591 130.176 
L 121.088 151.752038 
L 131.854103 159.744 
z
" style="fill:#7699f6;"/>
   </g>
   <g id="PathCollection_9">
    <path clip-path="url(#p023c0eb830)" d="M 152.832 164.60625 
L 184.576 175.33562 
L 216.32 175.33562 
L 248.064 164.60625 
L 254.446282 159.744 
L 279.808 140.917329 
L 287.288189 130.176 
L 305.264894 100.608 
L 311.552 88.300595 
L 317.018521 71.04 
L 324.733351 41.472 
L 322.413019 41.472 
L 313.733836 71.04 
L 311.552 77.929169 
L 299.966763 100.608 
L 279.808 130.109175 
L 279.720385 130.176 
L 248.064 155.21866 
L 232.627982 159.744 
L 216.32 165.557329 
L 184.576 165.557329 
L 168.268018 159.744 
L 152.832 155.21866 
L 121.175615 130.176 
L 121.088 130.109175 
L 100.929237 100.608 
L 89.344 77.929169 
L 87.162164 71.04 
L 78.482981 41.472 
L 76.162649 41.472 
L 83.877479 71.04 
L 89.344 88.300595 
L 95.631106 100.608 
L 113.607811 130.176 
L 121.088 140.917329 
L 146.449718 159.744 
z
" style="fill:#80a3fa;"/>
   </g>
   <g id="PathCollection_10">
    <path clip-path="url(#p023c0eb830)" d="M 184.576 165.557329 
L 216.32 165.557329 
L 232.627982 159.744 
L 248.064 155.21866 
L 279.720385 130.176 
L 279.808 130.109175 
L 299.966763 100.608 
L 311.552 77.929169 
L 313.733836 71.04 
L 322.413019 41.472 
L 320.092688 41.472 
L 311.552 68.568333 
L 310.297887 71.04 
L 294.668631 100.608 
L 279.808 122.355668 
L 269.554739 130.176 
L 248.064 147.176844 
L 216.32 156.876461 
L 184.576 156.876461 
L 152.832 147.176844 
L 131.341261 130.176 
L 121.088 122.355668 
L 106.227369 100.608 
L 90.598113 71.04 
L 89.344 68.568333 
L 80.803312 41.472 
L 78.482981 41.472 
L 87.162164 71.04 
L 89.344 77.929169 
L 100.929237 100.608 
L 121.088 130.109175 
L 121.175615 130.176 
L 152.832 155.21866 
L 168.268018 159.744 
z
" style="fill:#88abfd;"/>
   </g>
   <g id="PathCollection_11">
    <path clip-path="url(#p023c0eb830)" d="M 152.832 147.176844 
L 184.576 156.876461 
L 216.32 156.876461 
L 248.064 147.176844 
L 269.554739 130.176 
L 279.808 122.355668 
L 294.668631 100.608 
L 310.297887 71.04 
L 311.552 68.568333 
L 320.092688 41.472 
L 317.772357 41.472 
L 311.552 61.206811 
L 306.562681 71.04 
L 289.3705 100.608 
L 279.808 114.602162 
L 259.389092 130.176 
L 248.064 139.135028 
L 216.32 149.804607 
L 184.576 149.804607 
L 152.832 139.135028 
L 141.506908 130.176 
L 121.088 114.602162 
L 111.5255 100.608 
L 94.333319 71.04 
L 89.344 61.206811 
L 83.123643 41.472 
L 80.803312 41.472 
L 89.344 68.568333 
L 90.598113 71.04 
L 106.227369 100.608 
L 121.088 122.355668 
L 131.341261 130.176 
z
" style="fill:#92b4fe;"/>
   </g>
   <g id="PathCollection_12">
    <path clip-path="url(#p023c0eb830)" d="M 152.832 139.135028 
L 184.576 149.804607 
L 216.32 149.804607 
L 248.064 139.135028 
L 259.389092 130.176 
L 279.808 114.602162 
L 289.3705 100.608 
L 306.562681 71.04 
L 311.552 61.206811 
L 317.772357 41.472 
L 315.452026 41.472 
L 311.552 53.845289 
L 302.827475 71.04 
L 284.072369 100.608 
L 279.808 106.848655 
L 249.223445 130.176 
L 248.064 131.093211 
L 216.32 142.732752 
L 184.576 142.732752 
L 152.832 131.093211 
L 151.672555 130.176 
L 121.088 106.848655 
L 116.823631 100.608 
L 98.068525 71.04 
L 89.344 53.845289 
L 85.443974 41.472 
L 83.123643 41.472 
L 89.344 61.206811 
L 94.333319 71.04 
L 111.5255 100.608 
L 121.088 114.602162 
L 141.506908 130.176 
z
" style="fill:#9abbff;"/>
   </g>
   <g id="PathCollection_13">
    <path clip-path="url(#p023c0eb830)" d="M 152.832 131.093211 
L 184.576 142.732752 
L 216.32 142.732752 
L 248.064 131.093211 
L 249.223445 130.176 
L 279.808 106.848655 
L 284.072369 100.608 
L 302.827475 71.04 
L 311.552 53.845289 
L 315.452026 41.472 
L 313.131695 41.472 
L 311.552 46.483767 
L 299.092269 71.04 
L 279.808 99.531236 
L 278.415215 100.608 
L 248.064 125.077509 
L 231.137878 130.176 
L 216.32 135.660897 
L 184.576 135.660897 
L 169.758122 130.176 
L 152.832 125.077509 
L 122.480785 100.608 
L 121.088 99.531236 
L 101.803731 71.04 
L 89.344 46.483767 
L 87.764305 41.472 
L 85.443974 41.472 
L 89.344 53.845289 
L 98.068525 71.04 
L 116.823631 100.608 
L 121.088 106.848655 
L 151.672555 130.176 
z
" style="fill:#a2c1ff;"/>
   </g>
   <g id="PathCollection_14">
    <path clip-path="url(#p023c0eb830)" d="M 184.576 135.660897 
L 216.32 135.660897 
L 231.137878 130.176 
L 248.064 125.077509 
L 278.415215 100.608 
L 279.808 99.531236 
L 299.092269 71.04 
L 311.552 46.483767 
L 313.131695 41.472 
L 311.552 41.472 
L 310.709779 41.472 
L 295.357063 71.04 
L 279.808 94.012715 
L 271.277062 100.608 
L 248.064 119.322645 
L 216.32 129.040346 
L 184.576 129.040346 
L 152.832 119.322645 
L 129.618938 100.608 
L 121.088 94.012715 
L 105.538937 71.04 
L 90.186221 41.472 
L 89.344 41.472 
L 87.764305 41.472 
L 89.344 46.483767 
L 101.803731 71.04 
L 121.088 99.531236 
L 122.480785 100.608 
L 152.832 125.077509 
L 169.758122 130.176 
z
" style="fill:#abc8fd;"/>
   </g>
   <g id="PathCollection_15">
    <path clip-path="url(#p023c0eb830)" d="M 152.832 119.322645 
L 184.576 129.040346 
L 216.32 129.040346 
L 248.064 119.322645 
L 271.277062 100.608 
L 279.808 94.012715 
L 295.357063 71.04 
L 310.709779 41.472 
L 308.071196 41.472 
L 291.621858 71.04 
L 279.808 88.494195 
L 264.138909 100.608 
L 248.064 113.567782 
L 216.32 123.979604 
L 184.576 123.979604 
L 152.832 113.567782 
L 136.757091 100.608 
L 121.088 88.494195 
L 109.274142 71.04 
L 92.824804 41.472 
L 90.186221 41.472 
L 105.538937 71.04 
L 121.088 94.012715 
L 129.618938 100.608 
z
" style="fill:#b3cdfb;"/>
   </g>
   <g id="PathCollection_16">
    <path clip-path="url(#p023c0eb830)" d="M 152.832 113.567782 
L 184.576 123.979604 
L 216.32 123.979604 
L 248.064 113.567782 
L 264.138909 100.608 
L 279.808 88.494195 
L 291.621858 71.04 
L 308.071196 41.472 
L 305.432613 41.472 
L 287.886652 71.04 
L 279.808 82.975675 
L 257.000756 100.608 
L 248.064 107.812919 
L 216.32 118.918862 
L 184.576 118.918862 
L 152.832 107.812919 
L 143.895244 100.608 
L 121.088 82.975675 
L 113.009348 71.04 
L 95.463387 41.472 
L 92.824804 41.472 
L 109.274142 71.04 
L 121.088 88.494195 
L 136.757091 100.608 
z
" style="fill:#bcd2f7;"/>
   </g>
   <g id="PathCollection_17">
    <path clip-path="url(#p023c0eb830)" d="M 152.832 107.812919 
L 184.576 118.918862 
L 216.32 118.918862 
L 248.064 107.812919 
L 257.000756 100.608 
L 279.808 82.975675 
L 287.886652 71.04 
L 305.432613 41.472 
L 302.79403 41.472 
L 284.151446 71.04 
L 279.808 77.457155 
L 249.862603 100.608 
L 248.064 102.058055 
L 216.32 113.85812 
L 184.576 113.85812 
L 152.832 102.058055 
L 151.033397 100.608 
L 121.088 77.457155 
L 116.744554 71.04 
L 98.10197 41.472 
L 95.463387 41.472 
L 113.009348 71.04 
L 121.088 82.975675 
L 143.895244 100.608 
z
" style="fill:#c4d5f3;"/>
   </g>
   <g id="PathCollection_18">
    <path clip-path="url(#p023c0eb830)" d="M 152.832 102.058055 
L 184.576 113.85812 
L 216.32 113.85812 
L 248.064 102.058055 
L 249.862603 100.608 
L 279.808 77.457155 
L 284.151446 71.04 
L 302.79403 41.472 
L 300.155446 41.472 
L 280.41624 71.04 
L 279.808 71.938635 
L 248.064 97.544074 
L 238.028929 100.608 
L 216.32 108.797378 
L 184.576 108.797378 
L 162.867071 100.608 
L 152.832 97.544074 
L 121.088 71.938635 
L 120.47976 71.04 
L 100.740554 41.472 
L 98.10197 41.472 
L 116.744554 71.04 
L 121.088 77.457155 
L 151.033397 100.608 
z
" style="fill:#cbd8ee;"/>
   </g>
   <g id="PathCollection_19">
    <path clip-path="url(#p023c0eb830)" d="M 184.576 108.797378 
L 216.32 108.797378 
L 238.028929 100.608 
L 248.064 97.544074 
L 279.808 71.938635 
L 280.41624 71.04 
L 300.155446 41.472 
L 297.516863 41.472 
L 279.808 67.760857 
L 275.59505 71.04 
L 248.064 93.448078 
L 224.61359 100.608 
L 216.32 103.736636 
L 184.576 103.736636 
L 176.28241 100.608 
L 152.832 93.448078 
L 125.30095 71.04 
L 121.088 67.760857 
L 103.379137 41.472 
L 100.740554 41.472 
L 120.47976 71.04 
L 121.088 71.938635 
L 152.832 97.544074 
L 162.867071 100.608 
z
" style="fill:#d3dbe7;"/>
   </g>
   <g id="PathCollection_20">
    <path clip-path="url(#p023c0eb830)" d="M 184.576 103.736636 
L 216.32 103.736636 
L 224.61359 100.608 
L 248.064 93.448078 
L 275.59505 71.04 
L 279.808 67.760857 
L 297.516863 41.472 
L 294.87828 41.472 
L 279.808 63.843872 
L 270.562621 71.04 
L 248.064 89.352082 
L 216.32 99.232833 
L 184.576 99.232833 
L 152.832 89.352082 
L 130.333379 71.04 
L 121.088 63.843872 
L 106.01772 41.472 
L 103.379137 41.472 
L 121.088 67.760857 
L 125.30095 71.04 
L 152.832 93.448078 
L 176.28241 100.608 
z
" style="fill:#d9dce1;"/>
   </g>
   <g id="PathCollection_21">
    <path clip-path="url(#p023c0eb830)" d="M 152.832 89.352082 
L 184.576 99.232833 
L 216.32 99.232833 
L 248.064 89.352082 
L 270.562621 71.04 
L 279.808 63.843872 
L 294.87828 41.472 
L 292.239697 41.472 
L 279.808 59.926888 
L 265.530192 71.04 
L 248.064 85.256087 
L 216.32 95.630875 
L 184.576 95.630875 
L 152.832 85.256087 
L 135.365808 71.04 
L 121.088 59.926888 
L 108.656303 41.472 
L 106.01772 41.472 
L 121.088 63.843872 
L 130.333379 71.04 
z
" style="fill:#e0dbd8;"/>
   </g>
   <g id="PathCollection_22">
    <path clip-path="url(#p023c0eb830)" d="M 152.832 85.256087 
L 184.576 95.630875 
L 216.32 95.630875 
L 248.064 85.256087 
L 265.530192 71.04 
L 279.808 59.926888 
L 292.239697 41.472 
L 289.601113 41.472 
L 279.808 56.009904 
L 260.497763 71.04 
L 248.064 81.160091 
L 216.32 92.028917 
L 184.576 92.028917 
L 152.832 81.160091 
L 140.398237 71.04 
L 121.088 56.009904 
L 111.294887 41.472 
L 108.656303 41.472 
L 121.088 59.926888 
L 135.365808 71.04 
z
" style="fill:#e6d7cf;"/>
   </g>
   <g id="PathCollection_23">
    <path clip-path="url(#p023c0eb830)" d="M 152.832 81.160091 
L 184.576 92.028917 
L 216.32 92.028917 
L 248.064 81.160091 
L 260.497763 71.04 
L 279.808 56.009904 
L 289.601113 41.472 
L 286.96253 41.472 
L 279.808 52.09292 
L 255.465334 71.04 
L 248.064 77.064095 
L 216.32 88.426958 
L 184.576 88.426958 
L 152.832 77.064095 
L 145.430666 71.04 
L 121.088 52.09292 
L 113.93347 41.472 
L 111.294887 41.472 
L 121.088 56.009904 
L 140.398237 71.04 
z
" style="fill:#ebd3c6;"/>
   </g>
   <g id="PathCollection_24">
    <path clip-path="url(#p023c0eb830)" d="M 152.832 77.064095 
L 184.576 88.426958 
L 216.32 88.426958 
L 248.064 77.064095 
L 255.465334 71.04 
L 279.808 52.09292 
L 286.96253 41.472 
L 284.323947 41.472 
L 279.808 48.175936 
L 250.432904 71.04 
L 248.064 72.968099 
L 216.32 84.825 
L 184.576 84.825 
L 152.832 72.968099 
L 150.463096 71.04 
L 121.088 48.175936 
L 116.572053 41.472 
L 113.93347 41.472 
L 121.088 52.09292 
L 145.430666 71.04 
z
" style="fill:#f0cdbb;"/>
   </g>
   <g id="PathCollection_25">
    <path clip-path="url(#p023c0eb830)" d="M 152.832 72.968099 
L 184.576 84.825 
L 216.32 84.825 
L 248.064 72.968099 
L 250.432904 71.04 
L 279.808 48.175936 
L 284.323947 41.472 
L 281.685364 41.472 
L 279.808 44.258951 
L 248.064 69.501251 
L 243.058211 71.04 
L 216.32 81.223042 
L 184.576 81.223042 
L 157.837789 71.04 
L 152.832 69.501251 
L 121.088 44.258951 
L 119.210636 41.472 
L 116.572053 41.472 
L 121.088 48.175936 
L 150.463096 71.04 
z
" style="fill:#f3c8b2;"/>
   </g>
   <g id="PathCollection_26">
    <path clip-path="url(#p023c0eb830)" d="M 184.576 81.223042 
L 216.32 81.223042 
L 243.058211 71.04 
L 248.064 69.501251 
L 279.808 44.258951 
L 281.685364 41.472 
L 279.808 41.472 
L 278.782411 41.472 
L 248.064 66.593959 
L 233.600338 71.04 
L 216.32 77.621084 
L 184.576 77.621084 
L 167.295662 71.04 
L 152.832 66.593959 
L 122.113589 41.472 
L 121.088 41.472 
L 119.210636 41.472 
L 121.088 44.258951 
L 152.832 69.501251 
L 157.837789 71.04 
z
" style="fill:#f5c0a7;"/>
   </g>
   <g id="PathCollection_27">
    <path clip-path="url(#p023c0eb830)" d="M 184.576 77.621084 
L 216.32 77.621084 
L 233.600338 71.04 
L 248.064 66.593959 
L 278.782411 41.472 
L 275.227458 41.472 
L 248.064 63.686667 
L 224.142464 71.04 
L 216.32 74.019125 
L 184.576 74.019125 
L 176.753536 71.04 
L 152.832 63.686667 
L 125.668542 41.472 
L 122.113589 41.472 
L 152.832 66.593959 
L 167.295662 71.04 
z
" style="fill:#f7b99e;"/>
   </g>
   <g id="PathCollection_28">
    <path clip-path="url(#p023c0eb830)" d="M 184.576 74.019125 
L 216.32 74.019125 
L 224.142464 71.04 
L 248.064 63.686667 
L 275.227458 41.472 
L 271.672504 41.472 
L 248.064 60.779374 
L 216.32 70.59792 
L 184.576 70.59792 
L 152.832 60.779374 
L 129.223496 41.472 
L 125.668542 41.472 
L 152.832 63.686667 
L 176.753536 71.04 
z
" style="fill:#f7b194;"/>
   </g>
   <g id="PathCollection_29">
    <path clip-path="url(#p023c0eb830)" d="M 152.832 60.779374 
L 184.576 70.59792 
L 216.32 70.59792 
L 248.064 60.779374 
L 271.672504 41.472 
L 268.117551 41.472 
L 248.064 57.872082 
L 216.32 68.04129 
L 184.576 68.04129 
L 152.832 57.872082 
L 132.778449 41.472 
L 129.223496 41.472 
z
" style="fill:#f7a889;"/>
   </g>
   <g id="PathCollection_30">
    <path clip-path="url(#p023c0eb830)" d="M 152.832 57.872082 
L 184.576 68.04129 
L 216.32 68.04129 
L 248.064 57.872082 
L 268.117551 41.472 
L 264.562597 41.472 
L 248.064 54.96479 
L 216.32 65.48466 
L 184.576 65.48466 
L 152.832 54.96479 
L 136.333403 41.472 
L 132.778449 41.472 
z
" style="fill:#f59f80;"/>
   </g>
   <g id="PathCollection_31">
    <path clip-path="url(#p023c0eb830)" d="M 152.832 54.96479 
L 184.576 65.48466 
L 216.32 65.48466 
L 248.064 54.96479 
L 264.562597 41.472 
L 261.007643 41.472 
L 248.064 52.057498 
L 216.32 62.928031 
L 184.576 62.928031 
L 152.832 52.057498 
L 139.888357 41.472 
L 136.333403 41.472 
z
" style="fill:#f39475;"/>
   </g>
   <g id="PathCollection_32">
    <path clip-path="url(#p023c0eb830)" d="M 152.832 52.057498 
L 184.576 62.928031 
L 216.32 62.928031 
L 248.064 52.057498 
L 261.007643 41.472 
L 257.45269 41.472 
L 248.064 49.150206 
L 216.32 60.371401 
L 184.576 60.371401 
L 152.832 49.150206 
L 143.44331 41.472 
L 139.888357 41.472 
z
" style="fill:#f08a6c;"/>
   </g>
   <g id="PathCollection_33">
    <path clip-path="url(#p023c0eb830)" d="M 152.832 49.150206 
L 184.576 60.371401 
L 216.32 60.371401 
L 248.064 49.150206 
L 257.45269 41.472 
L 253.897736 41.472 
L 248.064 46.242913 
L 216.32 57.814771 
L 184.576 57.814771 
L 152.832 46.242913 
L 146.998264 41.472 
L 143.44331 41.472 
z
" style="fill:#ec7f63;"/>
   </g>
   <g id="PathCollection_34">
    <path clip-path="url(#p023c0eb830)" d="M 152.832 46.242913 
L 184.576 57.814771 
L 216.32 57.814771 
L 248.064 46.242913 
L 253.897736 41.472 
L 250.342783 41.472 
L 248.064 43.335621 
L 216.32 55.258141 
L 184.576 55.258141 
L 152.832 43.335621 
L 150.553217 41.472 
L 146.998264 41.472 
z
" style="fill:#e67259;"/>
   </g>
   <g id="PathCollection_35">
    <path clip-path="url(#p023c0eb830)" d="M 152.832 43.335621 
L 184.576 55.258141 
L 216.32 55.258141 
L 248.064 43.335621 
L 250.342783 41.472 
L 248.064 41.472 
L 245.665583 41.472 
L 216.32 52.701511 
L 184.576 52.701511 
L 155.230417 41.472 
L 152.832 41.472 
L 150.553217 41.472 
z
" style="fill:#e16751;"/>
   </g>
   <g id="PathCollection_36">
    <path clip-path="url(#p023c0eb830)" d="M 184.576 52.701511 
L 216.32 52.701511 
L 245.665583 41.472 
L 238.984456 41.472 
L 216.32 50.144881 
L 184.576 50.144881 
L 161.911544 41.472 
L 155.230417 41.472 
z
" style="fill:#d95847;"/>
   </g>
   <g id="PathCollection_37">
    <path clip-path="url(#p023c0eb830)" d="M 184.576 50.144881 
L 216.32 50.144881 
L 238.984456 41.472 
L 232.303329 41.472 
L 216.32 47.588251 
L 184.576 47.588251 
L 168.592671 41.472 
L 161.911544 41.472 
z
" style="fill:#d24b40;"/>
   </g>
   <g id="PathCollection_38">
    <path clip-path="url(#p023c0eb830)" d="M 184.576 47.588251 
L 216.32 47.588251 
L 232.303329 41.472 
L 225.622201 41.472 
L 216.32 45.031622 
L 184.576 45.031622 
L 175.273799 41.472 
L 168.592671 41.472 
z
" style="fill:#cb3e38;"/>
   </g>
   <g id="PathCollection_39">
    <path clip-path="url(#p023c0eb830)" d="M 184.576 45.031622 
L 216.32 45.031622 
L 225.622201 41.472 
L 218.941074 41.472 
L 216.32 42.474992 
L 184.576 42.474992 
L 181.954926 41.472 
L 175.273799 41.472 
z
" style="fill:#c12b30;"/>
   </g>
   <g id="PathCollection_40">
    <path clip-path="url(#p023c0eb830)" d="M 184.576 42.474992 
L 216.32 42.474992 
L 218.941074 41.472 
L 216.32 41.472 
L 184.576 41.472 
L 181.954926 41.472 
z
" style="fill:#b8122a;"/>
   </g>
   <g id="matplotlib.axis_1">
    <g id="xtick_1">
     <g id="line2d_1">
      <defs>
       <path d="M 0 0 
L 0 3.5 
" id="m4d05030bcd" style="stroke:#000000;stroke-width:0.8;"/>
      </defs>
      <g>
       <use style="stroke:#000000;stroke-width:0.8;" x="57.6" xlink:href="#m4d05030bcd" y="307.584"/>
      </g>
     </g>
     <g id="text_1">
      <!-- 0.0 -->
      <defs>
       <path d="M 31.78125 66.40625 
Q 24.171875 66.40625 20.328125 58.90625 
Q 16.5 51.421875 16.5 36.375 
Q 16.5 21.390625 20.328125 13.890625 
Q 24.171875 6.390625 31.78125 6.390625 
Q 39.453125 6.390625 43.28125 13.890625 
Q 47.125 21.390625 47.125 36.375 
Q 47.125 51.421875 43.28125 58.90625 
Q 39.453125 66.40625 31.78125 66.40625 
z
M 31.78125 74.21875 
Q 44.046875 74.21875 50.515625 64.515625 
Q 56.984375 54.828125 56.984375 36.375 
Q 56.984375 17.96875 50.515625 8.265625 
Q 44.046875 -1.421875 31.78125 -1.421875 
Q 19.53125 -1.421875 13.0625 8.265625 
Q 6.59375 17.96875 6.59375 36.375 
Q 6.59375 54.828125 13.0625 64.515625 
Q 19.53125 74.21875 31.78125 74.21875 
z
" id="DejaVuSans-48"/>
       <path d="M 10.6875 12.40625 
L 21 12.40625 
L 21 0 
L 10.6875 0 
z
" id="DejaVuSans-46"/>
      </defs>
      <g transform="translate(49.648438 322.182437)scale(0.1 -0.1)">
       <use xlink:href="#DejaVuSans-48"/>
       <use x="63.623047" xlink:href="#DejaVuSans-46"/>
       <use x="95.410156" xlink:href="#DejaVuSans-48"/>
      </g>
     </g>
    </g>
    <g id="xtick_2">
     <g id="line2d_2">
      <g>
       <use style="stroke:#000000;stroke-width:0.8;" x="114.7392" xlink:href="#m4d05030bcd" y="307.584"/>
      </g>
     </g>
     <g id="text_2">
      <!-- 0.2 -->
      <defs>
       <path d="M 19.1875 8.296875 
L 53.609375 8.296875 
L 53.609375 0 
L 7.328125 0 
L 7.328125 8.296875 
Q 12.9375 14.109375 22.625 23.890625 
Q 32.328125 33.6875 34.8125 36.53125 
Q 39.546875 41.84375 41.421875 45.53125 
Q 43.3125 49.21875 43.3125 52.78125 
Q 43.3125 58.59375 39.234375 62.25 
Q 35.15625 65.921875 28.609375 65.921875 
Q 23.96875 65.921875 18.8125 64.3125 
Q 13.671875 62.703125 7.8125 59.421875 
L 7.8125 69.390625 
Q 13.765625 71.78125 18.9375 73 
Q 24.125 74.21875 28.421875 74.21875 
Q 39.75 74.21875 46.484375 68.546875 
Q 53.21875 62.890625 53.21875 53.421875 
Q 53.21875 48.921875 51.53125 44.890625 
Q 49.859375 40.875 45.40625 35.40625 
Q 44.1875 33.984375 37.640625 27.21875 
Q 31.109375 20.453125 19.1875 8.296875 
z
" id="DejaVuSans-50"/>
      </defs>
      <g transform="translate(106.787638 322.182437)scale(0.1 -0.1)">
       <use xlink:href="#DejaVuSans-48"/>
       <use x="63.623047" xlink:href="#DejaVuSans-46"/>
       <use x="95.410156" xlink:href="#DejaVuSans-50"/>
      </g>
     </g>
    </g>
    <g id="xtick_3">
     <g id="line2d_3">
      <g>
       <use style="stroke:#000000;stroke-width:0.8;" x="171.8784" xlink:href="#m4d05030bcd" y="307.584"/>
      </g>
     </g>
     <g id="text_3">
      <!-- 0.4 -->
      <defs>
       <path d="M 37.796875 64.3125 
L 12.890625 25.390625 
L 37.796875 25.390625 
z
M 35.203125 72.90625 
L 47.609375 72.90625 
L 47.609375 25.390625 
L 58.015625 25.390625 
L 58.015625 17.1875 
L 47.609375 17.1875 
L 47.609375 0 
L 37.796875 0 
L 37.796875 17.1875 
L 4.890625 17.1875 
L 4.890625 26.703125 
z
" id="DejaVuSans-52"/>
      </defs>
      <g transform="translate(163.926838 322.182437)scale(0.1 -0.1)">
       <use xlink:href="#DejaVuSans-48"/>
       <use x="63.623047" xlink:href="#DejaVuSans-46"/>
       <use x="95.410156" xlink:href="#DejaVuSans-52"/>
      </g>
     </g>
    </g>
    <g id="xtick_4">
     <g id="line2d_4">
      <g>
       <use style="stroke:#000000;stroke-width:0.8;" x="229.0176" xlink:href="#m4d05030bcd" y="307.584"/>
      </g>
     </g>
     <g id="text_4">
      <!-- 0.6 -->
      <defs>
       <path d="M 33.015625 40.375 
Q 26.375 40.375 22.484375 35.828125 
Q 18.609375 31.296875 18.609375 23.390625 
Q 18.609375 15.53125 22.484375 10.953125 
Q 26.375 6.390625 33.015625 6.390625 
Q 39.65625 6.390625 43.53125 10.953125 
Q 47.40625 15.53125 47.40625 23.390625 
Q 47.40625 31.296875 43.53125 35.828125 
Q 39.65625 40.375 33.015625 40.375 
z
M 52.59375 71.296875 
L 52.59375 62.3125 
Q 48.875 64.0625 45.09375 64.984375 
Q 41.3125 65.921875 37.59375 65.921875 
Q 27.828125 65.921875 22.671875 59.328125 
Q 17.53125 52.734375 16.796875 39.40625 
Q 19.671875 43.65625 24.015625 45.921875 
Q 28.375 48.1875 33.59375 48.1875 
Q 44.578125 48.1875 50.953125 41.515625 
Q 57.328125 34.859375 57.328125 23.390625 
Q 57.328125 12.15625 50.6875 5.359375 
Q 44.046875 -1.421875 33.015625 -1.421875 
Q 20.359375 -1.421875 13.671875 8.265625 
Q 6.984375 17.96875 6.984375 36.375 
Q 6.984375 53.65625 15.1875 63.9375 
Q 23.390625 74.21875 37.203125 74.21875 
Q 40.921875 74.21875 44.703125 73.484375 
Q 48.484375 72.75 52.59375 71.296875 
z
" id="DejaVuSans-54"/>
      </defs>
      <g transform="translate(221.066038 322.182437)scale(0.1 -0.1)">
       <use xlink:href="#DejaVuSans-48"/>
       <use x="63.623047" xlink:href="#DejaVuSans-46"/>
       <use x="95.410156" xlink:href="#DejaVuSans-54"/>
      </g>
     </g>
    </g>
    <g id="xtick_5">
     <g id="line2d_5">
      <g>
       <use style="stroke:#000000;stroke-width:0.8;" x="286.1568" xlink:href="#m4d05030bcd" y="307.584"/>
      </g>
     </g>
     <g id="text_5">
      <!-- 0.8 -->
      <defs>
       <path d="M 31.78125 34.625 
Q 24.75 34.625 20.71875 30.859375 
Q 16.703125 27.09375 16.703125 20.515625 
Q 16.703125 13.921875 20.71875 10.15625 
Q 24.75 6.390625 31.78125 6.390625 
Q 38.8125 6.390625 42.859375 10.171875 
Q 46.921875 13.96875 46.921875 20.515625 
Q 46.921875 27.09375 42.890625 30.859375 
Q 38.875 34.625 31.78125 34.625 
z
M 21.921875 38.8125 
Q 15.578125 40.375 12.03125 44.71875 
Q 8.5 49.078125 8.5 55.328125 
Q 8.5 64.0625 14.71875 69.140625 
Q 20.953125 74.21875 31.78125 74.21875 
Q 42.671875 74.21875 48.875 69.140625 
Q 55.078125 64.0625 55.078125 55.328125 
Q 55.078125 49.078125 51.53125 44.71875 
Q 48 40.375 41.703125 38.8125 
Q 48.828125 37.15625 52.796875 32.3125 
Q 56.78125 27.484375 56.78125 20.515625 
Q 56.78125 9.90625 50.3125 4.234375 
Q 43.84375 -1.421875 31.78125 -1.421875 
Q 19.734375 -1.421875 13.25 4.234375 
Q 6.78125 9.90625 6.78125 20.515625 
Q 6.78125 27.484375 10.78125 32.3125 
Q 14.796875 37.15625 21.921875 38.8125 
z
M 18.3125 54.390625 
Q 18.3125 48.734375 21.84375 45.5625 
Q 25.390625 42.390625 31.78125 42.390625 
Q 38.140625 42.390625 41.71875 45.5625 
Q 45.3125 48.734375 45.3125 54.390625 
Q 45.3125 60.0625 41.71875 63.234375 
Q 38.140625 66.40625 31.78125 66.40625 
Q 25.390625 66.40625 21.84375 63.234375 
Q 18.3125 60.0625 18.3125 54.390625 
z
" id="DejaVuSans-56"/>
      </defs>
      <g transform="translate(278.205238 322.182437)scale(0.1 -0.1)">
       <use xlink:href="#DejaVuSans-48"/>
       <use x="63.623047" xlink:href="#DejaVuSans-46"/>
       <use x="95.410156" xlink:href="#DejaVuSans-56"/>
      </g>
     </g>
    </g>
    <g id="xtick_6">
     <g id="line2d_6">
      <g>
       <use style="stroke:#000000;stroke-width:0.8;" x="343.296" xlink:href="#m4d05030bcd" y="307.584"/>
      </g>
     </g>
     <g id="text_6">
      <!-- 1.0 -->
      <defs>
       <path d="M 12.40625 8.296875 
L 28.515625 8.296875 
L 28.515625 63.921875 
L 10.984375 60.40625 
L 10.984375 69.390625 
L 28.421875 72.90625 
L 38.28125 72.90625 
L 38.28125 8.296875 
L 54.390625 8.296875 
L 54.390625 0 
L 12.40625 0 
z
" id="DejaVuSans-49"/>
      </defs>
      <g transform="translate(335.344438 322.182437)scale(0.1 -0.1)">
       <use xlink:href="#DejaVuSans-49"/>
       <use x="63.623047" xlink:href="#DejaVuSans-46"/>
       <use x="95.410156" xlink:href="#DejaVuSans-48"/>
      </g>
     </g>
    </g>
    <g id="text_7">
     <!-- x -->
     <defs>
      <path d="M 54.890625 54.6875 
L 35.109375 28.078125 
L 55.90625 0 
L 45.3125 0 
L 29.390625 21.484375 
L 13.484375 0 
L 2.875 0 
L 24.125 28.609375 
L 4.6875 54.6875 
L 15.28125 54.6875 
L 29.78125 35.203125 
L 44.28125 54.6875 
z
" id="DejaVuSans-120"/>
     </defs>
     <g transform="translate(197.488625 335.860562)scale(0.1 -0.1)">
      <use xlink:href="#DejaVuSans-120"/>
     </g>
    </g>
   </g>
   <g id="matplotlib.axis_2">
    <g id="ytick_1">
     <g id="line2d_7">
      <defs>
       <path d="M 0 0 
L -3.5 0 
" id="mb247031d57" style="stroke:#000000;stroke-width:0.8;"/>
      </defs>
      <g>
       <use style="stroke:#000000;stroke-width:0.8;" x="57.6" xlink:href="#mb247031d57" y="307.584"/>
      </g>
     </g>
     <g id="text_8">
      <!-- 0.0 -->
      <g transform="translate(34.696875 311.383219)scale(0.1 -0.1)">
       <use xlink:href="#DejaVuSans-48"/>
       <use x="63.623047" xlink:href="#DejaVuSans-46"/>
       <use x="95.410156" xlink:href="#DejaVuSans-48"/>
      </g>
     </g>
    </g>
    <g id="ytick_2">
     <g id="line2d_8">
      <g>
       <use style="stroke:#000000;stroke-width:0.8;" x="57.6" xlink:href="#mb247031d57" y="254.3616"/>
      </g>
     </g>
     <g id="text_9">
      <!-- 0.2 -->
      <g transform="translate(34.696875 258.160819)scale(0.1 -0.1)">
       <use xlink:href="#DejaVuSans-48"/>
       <use x="63.623047" xlink:href="#DejaVuSans-46"/>
       <use x="95.410156" xlink:href="#DejaVuSans-50"/>
      </g>
     </g>
    </g>
    <g id="ytick_3">
     <g id="line2d_9">
      <g>
       <use style="stroke:#000000;stroke-width:0.8;" x="57.6" xlink:href="#mb247031d57" y="201.1392"/>
      </g>
     </g>
     <g id="text_10">
      <!-- 0.4 -->
      <g transform="translate(34.696875 204.938419)scale(0.1 -0.1)">
       <use xlink:href="#DejaVuSans-48"/>
       <use x="63.623047" xlink:href="#DejaVuSans-46"/>
       <use x="95.410156" xlink:href="#DejaVuSans-52"/>
      </g>
     </g>
    </g>
    <g id="ytick_4">
     <g id="line2d_10">
      <g>
       <use style="stroke:#000000;stroke-width:0.8;" x="57.6" xlink:href="#mb247031d57" y="147.9168"/>
      </g>
     </g>
     <g id="text_11">
      <!-- 0.6 -->
      <g transform="translate(34.696875 151.716019)scale(0.1 -0.1)">
       <use xlink:href="#DejaVuSans-48"/>
       <use x="63.623047" xlink:href="#DejaVuSans-46"/>
       <use x="95.410156" xlink:href="#DejaVuSans-54"/>
      </g>
     </g>
    </g>
    <g id="ytick_5">
     <g id="line2d_11">
      <g>
       <use style="stroke:#000000;stroke-width:0.8;" x="57.6" xlink:href="#mb247031d57" y="94.6944"/>
      </g>
     </g>
     <g id="text_12">
      <!-- 0.8 -->
      <g transform="translate(34.696875 98.493619)scale(0.1 -0.1)">
       <use xlink:href="#DejaVuSans-48"/>
       <use x="63.623047" xlink:href="#DejaVuSans-46"/>
       <use x="95.410156" xlink:href="#DejaVuSans-56"/>
      </g>
     </g>
    </g>
    <g id="ytick_6">
     <g id="line2d_12">
      <g>
       <use style="stroke:#000000;stroke-width:0.8;" x="57.6" xlink:href="#mb247031d57" y="41.472"/>
      </g>
     </g>
     <g id="text_13">
      <!-- 1.0 -->
      <g transform="translate(34.696875 45.271219)scale(0.1 -0.1)">
       <use xlink:href="#DejaVuSans-49"/>
       <use x="63.623047" xlink:href="#DejaVuSans-46"/>
       <use x="95.410156" xlink:href="#DejaVuSans-48"/>
      </g>
     </g>
    </g>
    <g id="text_14">
     <!-- y -->
     <defs>
      <path d="M 32.171875 -5.078125 
Q 28.375 -14.84375 24.75 -17.8125 
Q 21.140625 -20.796875 15.09375 -20.796875 
L 7.90625 -20.796875 
L 7.90625 -13.28125 
L 13.1875 -13.28125 
Q 16.890625 -13.28125 18.9375 -11.515625 
Q 21 -9.765625 23.484375 -3.21875 
L 25.09375 0.875 
L 2.984375 54.6875 
L 12.5 54.6875 
L 29.59375 11.921875 
L 46.6875 54.6875 
L 56.203125 54.6875 
z
" id="DejaVuSans-121"/>
     </defs>
     <g transform="translate(28.617188 177.487375)rotate(-90)scale(0.1 -0.1)">
      <use xlink:href="#DejaVuSans-121"/>
     </g>
    </g>
   </g>
   <g id="LineCollection_1">
    <path clip-path="url(#p023c0eb830)" d="M 89.537049 307.584 
L 121.088 307.584 
L 131.607209 307.584 
" style="fill:none;stroke:#000000;"/>
    <path clip-path="url(#p023c0eb830)" d="M 163.891815 307.584 
L 184.576 307.584 
L 216.32 307.584 
L 219.865903 307.584 
" style="fill:none;stroke:#000000;"/>
    <path clip-path="url(#p023c0eb830)" d="M 275.392666 307.584 
L 279.808 307.584 
L 308.020639 307.584 
" style="fill:none;stroke:#000000;"/>
    <path clip-path="url(#p023c0eb830)" d="M 343.296 307.584 
L 343.296 278.016 
" style="fill:none;stroke:#000000;"/>
    <path clip-path="url(#p023c0eb830)" d="M 343.296 210.570427 
L 343.296 189.312 
L 343.296 165.812862 
" style="fill:none;stroke:#000000;"/>
    <path clip-path="url(#p023c0eb830)" d="M 343.296 127.332409 
L 343.296 100.608 
L 343.296 71.04 
L 343.296 41.472 
" style="fill:none;stroke:#000000;"/>
    <path clip-path="url(#p023c0eb830)" d="M 57.6 97.675359 
L 57.6 100.608 
L 57.6 130.176 
L 57.6 159.744 
L 57.6 189.312 
L 57.6 218.88 
L 57.6 248.448 
L 57.6 278.016 
L 57.6 307.584 
" style="fill:none;stroke:#000000;"/>
    <path clip-path="url(#p023c0eb830)" d="M 57.6 41.472 
" style="fill:none;stroke:#000000;"/>
   </g>
   <g id="LineCollection_2">
    <path clip-path="url(#p023c0eb830)" d="M 59.920331 41.472 
L 60.884685 71.04 
L 62.259099 100.608 
L 64.235155 130.176 
L 67.126611 159.744 
L 71.510784 189.312 
L 78.663796 218.88 
L 89.344 244.155173 
L 92.745609 248.448 
L 121.088 271.823752 
L 142.538833 278.016 
L 152.832 280.487419 
L 184.576 283.755667 
L 216.32 283.755667 
L 248.064 280.487419 
L 258.357167 278.016 
L 279.808 271.823752 
L 308.150391 248.448 
L 311.552 244.155173 
L 322.232204 218.88 
L 329.385216 189.312 
L 333.769389 159.744 
L 336.660845 130.176 
L 338.636901 100.608 
L 340.011315 71.04 
L 340.975669 41.472 
" style="fill:none;stroke:#000000;"/>
   </g>
   <g id="LineCollection_3">
    <path clip-path="url(#p023c0eb830)" d="M 62.240662 41.472 
L 64.16937 71.04 
L 66.918197 100.608 
L 70.870309 130.176 
L 76.653223 159.744 
L 85.421568 189.312 
L 89.344 200.070789 
L 101.151786 218.88 
L 121.088 240.956013 
L 136.120004 248.448 
L 152.832 256.04131 
L 184.576 261.874265 
L 216.32 261.874265 
L 248.064 256.04131 
L 264.775996 248.448 
L 279.808 240.956013 
L 299.744214 218.88 
L 311.552 200.070789 
L 315.474432 189.312 
L 324.242777 159.744 
L 330.025691 130.176 
L 333.977803 100.608 
L 336.72663 71.04 
L 338.655338 41.472 
" style="fill:none;stroke:#000000;"/>
   </g>
   <g id="LineCollection_4">
    <path clip-path="url(#p023c0eb830)" d="M 64.560994 41.472 
L 67.454055 71.04 
L 71.577296 100.608 
L 77.505464 130.176 
L 86.179834 159.744 
L 89.344 169.095548 
L 100.702335 189.312 
L 121.088 215.475523 
L 126.499619 218.88 
L 152.832 234.94356 
L 184.576 242.06707 
L 216.32 242.06707 
L 248.064 234.94356 
L 274.396381 218.88 
L 279.808 215.475523 
L 300.193665 189.312 
L 311.552 169.095548 
L 314.716166 159.744 
L 323.390536 130.176 
L 329.318704 100.608 
L 333.441945 71.04 
L 336.335006 41.472 
" style="fill:none;stroke:#000000;"/>
   </g>
   <g id="LineCollection_5">
    <path clip-path="url(#p023c0eb830)" d="M 66.881325 41.472 
L 70.73874 71.04 
L 76.236394 100.608 
L 84.140618 130.176 
L 89.344 146.144632 
L 96.579106 159.744 
L 116.521095 189.312 
L 121.088 195.173291 
L 152.832 216.106744 
L 163.994096 218.88 
L 184.576 224.754901 
L 216.32 224.754901 
L 236.901904 218.88 
L 248.064 216.106744 
L 279.808 195.173291 
L 284.374905 189.312 
L 304.316894 159.744 
L 311.552 146.144632 
L 316.755382 130.176 
L 324.659606 100.608 
L 330.15726 71.04 
L 334.014675 41.472 
" style="fill:none;stroke:#000000;"/>
   </g>
   <g id="LineCollection_6">
    <path clip-path="url(#p023c0eb830)" d="M 69.201656 41.472 
L 74.023424 71.04 
L 80.895493 100.608 
L 89.344 127.031605 
L 90.972152 130.176 
L 107.412369 159.744 
L 121.088 178.655893 
L 136.247583 189.312 
L 152.832 201.037875 
L 184.576 210.125515 
L 216.32 210.125515 
L 248.064 201.037875 
L 264.648417 189.312 
L 279.808 178.655893 
L 293.483631 159.744 
L 309.923848 130.176 
L 311.552 127.031605 
L 320.000507 100.608 
L 326.872576 71.04 
L 331.694344 41.472 
" style="fill:none;stroke:#000000;"/>
   </g>
   <g id="LineCollection_7">
    <path clip-path="url(#p023c0eb830)" d="M 71.521987 41.472 
L 77.308109 71.04 
L 85.554591 100.608 
L 89.344 112.459779 
L 98.517372 130.176 
L 118.245632 159.744 
L 121.088 163.674683 
L 152.832 186.845173 
L 161.717999 189.312 
L 184.576 196.874174 
L 216.32 196.874174 
L 239.178001 189.312 
L 248.064 186.845173 
L 279.808 163.674683 
L 282.650368 159.744 
L 302.378628 130.176 
L 311.552 112.459779 
L 315.341409 100.608 
L 323.587891 71.04 
L 329.374013 41.472 
" style="fill:none;stroke:#000000;"/>
   </g>
   <g id="LineCollection_8">
    <path clip-path="url(#p023c0eb830)" d="M 73.842318 41.472 
L 80.592794 71.04 
L 89.344 98.67202 
L 90.332974 100.608 
L 106.062591 130.176 
L 121.088 151.752038 
L 131.854103 159.744 
L 152.832 175.725712 
L 184.576 185.11391 
L 216.32 185.11391 
L 248.064 175.725712 
L 269.041897 159.744 
L 279.808 151.752038 
L 294.833409 130.176 
L 310.563026 100.608 
L 311.552 98.67202 
L 320.303206 71.04 
L 327.053682 41.472 
" style="fill:none;stroke:#000000;"/>
   </g>
   <g id="LineCollection_9">
    <path clip-path="url(#p023c0eb830)" d="M 76.162649 41.472 
L 83.877479 71.04 
L 89.344 88.300595 
L 95.631106 100.608 
L 113.607811 130.176 
L 121.088 140.917329 
L 146.449718 159.744 
L 152.832 164.60625 
L 184.576 175.33562 
L 216.32 175.33562 
L 248.064 164.60625 
L 254.446282 159.744 
L 279.808 140.917329 
L 287.288189 130.176 
L 305.264894 100.608 
L 311.552 88.300595 
L 317.018521 71.04 
L 324.733351 41.472 
" style="fill:none;stroke:#000000;"/>
   </g>
   <g id="LineCollection_10">
    <path clip-path="url(#p023c0eb830)" d="M 78.482981 41.472 
L 87.162164 71.04 
L 89.344 77.929169 
L 100.929237 100.608 
L 121.088 130.109175 
L 121.175615 130.176 
L 152.832 155.21866 
L 168.268018 159.744 
L 184.576 165.557329 
L 216.32 165.557329 
L 232.627982 159.744 
L 248.064 155.21866 
L 279.720385 130.176 
L 279.808 130.109175 
L 299.966763 100.608 
L 311.552 77.929169 
L 313.733836 71.04 
L 322.413019 41.472 
" style="fill:none;stroke:#000000;"/>
   </g>
   <g id="LineCollection_11">
    <path clip-path="url(#p023c0eb830)" d="M 80.803312 41.472 
L 89.344 68.568333 
L 90.598113 71.04 
L 106.227369 100.608 
L 121.088 122.355668 
L 131.341261 130.176 
L 152.832 147.176844 
L 184.576 156.876461 
L 216.32 156.876461 
L 248.064 147.176844 
L 269.554739 130.176 
L 279.808 122.355668 
L 294.668631 100.608 
L 310.297887 71.04 
L 311.552 68.568333 
L 320.092688 41.472 
" style="fill:none;stroke:#000000;"/>
   </g>
   <g id="LineCollection_12">
    <path clip-path="url(#p023c0eb830)" d="M 83.123643 41.472 
L 89.344 61.206811 
L 94.333319 71.04 
L 111.5255 100.608 
L 121.088 114.602162 
L 141.506908 130.176 
L 152.832 139.135028 
L 184.576 149.804607 
L 216.32 149.804607 
L 248.064 139.135028 
L 259.389092 130.176 
L 279.808 114.602162 
L 289.3705 100.608 
L 306.562681 71.04 
L 311.552 61.206811 
L 317.772357 41.472 
" style="fill:none;stroke:#000000;"/>
   </g>
   <g id="LineCollection_13">
    <path clip-path="url(#p023c0eb830)" d="M 85.443974 41.472 
L 89.344 53.845289 
L 98.068525 71.04 
L 116.823631 100.608 
L 121.088 106.848655 
L 151.672555 130.176 
L 152.832 131.093211 
L 184.576 142.732752 
L 216.32 142.732752 
L 248.064 131.093211 
L 249.223445 130.176 
L 279.808 106.848655 
L 284.072369 100.608 
L 302.827475 71.04 
L 311.552 53.845289 
L 315.452026 41.472 
" style="fill:none;stroke:#000000;"/>
   </g>
   <g id="LineCollection_14">
    <path clip-path="url(#p023c0eb830)" d="M 87.764305 41.472 
L 89.344 46.483767 
L 101.803731 71.04 
L 121.088 99.531236 
L 122.480785 100.608 
L 152.832 125.077509 
L 169.758122 130.176 
L 184.576 135.660897 
L 216.32 135.660897 
L 231.137878 130.176 
L 248.064 125.077509 
L 278.415215 100.608 
L 279.808 99.531236 
L 299.092269 71.04 
L 311.552 46.483767 
L 313.131695 41.472 
" style="fill:none;stroke:#000000;"/>
   </g>
   <g id="LineCollection_15">
    <path clip-path="url(#p023c0eb830)" d="M 90.186221 41.472 
L 105.538937 71.04 
L 121.088 94.012715 
L 129.618938 100.608 
L 152.832 119.322645 
L 184.576 129.040346 
L 216.32 129.040346 
L 248.064 119.322645 
L 271.277062 100.608 
L 279.808 94.012715 
L 295.357063 71.04 
L 310.709779 41.472 
" style="fill:none;stroke:#000000;"/>
   </g>
   <g id="LineCollection_16">
    <path clip-path="url(#p023c0eb830)" d="M 92.824804 41.472 
L 109.274142 71.04 
L 121.088 88.494195 
L 136.757091 100.608 
L 152.832 113.567782 
L 184.576 123.979604 
L 216.32 123.979604 
L 248.064 113.567782 
L 264.138909 100.608 
L 279.808 88.494195 
L 291.621858 71.04 
L 308.071196 41.472 
" style="fill:none;stroke:#000000;"/>
   </g>
   <g id="LineCollection_17">
    <path clip-path="url(#p023c0eb830)" d="M 95.463387 41.472 
L 113.009348 71.04 
L 121.088 82.975675 
L 143.895244 100.608 
L 152.832 107.812919 
L 184.576 118.918862 
L 216.32 118.918862 
L 248.064 107.812919 
L 257.000756 100.608 
L 279.808 82.975675 
L 287.886652 71.04 
L 305.432613 41.472 
" style="fill:none;stroke:#000000;"/>
   </g>
   <g id="LineCollection_18">
    <path clip-path="url(#p023c0eb830)" d="M 98.10197 41.472 
L 116.744554 71.04 
L 121.088 77.457155 
L 151.033397 100.608 
L 152.832 102.058055 
L 184.576 113.85812 
L 216.32 113.85812 
L 248.064 102.058055 
L 249.862603 100.608 
L 279.808 77.457155 
L 284.151446 71.04 
L 302.79403 41.472 
" style="fill:none;stroke:#000000;"/>
   </g>
   <g id="LineCollection_19">
    <path clip-path="url(#p023c0eb830)" d="M 100.740554 41.472 
L 120.47976 71.04 
L 121.088 71.938635 
L 152.832 97.544074 
L 162.867071 100.608 
L 184.576 108.797378 
L 216.32 108.797378 
L 238.028929 100.608 
L 248.064 97.544074 
L 279.808 71.938635 
L 280.41624 71.04 
L 300.155446 41.472 
" style="fill:none;stroke:#000000;"/>
   </g>
   <g id="LineCollection_20">
    <path clip-path="url(#p023c0eb830)" d="M 103.379137 41.472 
L 121.088 67.760857 
L 125.30095 71.04 
L 152.832 93.448078 
L 176.28241 100.608 
L 184.576 103.736636 
L 216.32 103.736636 
L 224.61359 100.608 
L 248.064 93.448078 
L 275.59505 71.04 
L 279.808 67.760857 
L 297.516863 41.472 
" style="fill:none;stroke:#000000;"/>
   </g>
   <g id="LineCollection_21">
    <path clip-path="url(#p023c0eb830)" d="M 106.01772 41.472 
L 121.088 63.843872 
L 130.333379 71.04 
L 152.832 89.352082 
L 184.576 99.232833 
L 216.32 99.232833 
L 248.064 89.352082 
L 270.562621 71.04 
L 279.808 63.843872 
L 294.87828 41.472 
" style="fill:none;stroke:#000000;"/>
   </g>
   <g id="LineCollection_22">
    <path clip-path="url(#p023c0eb830)" d="M 108.656303 41.472 
L 121.088 59.926888 
L 135.365808 71.04 
L 152.832 85.256087 
L 184.576 95.630875 
L 216.32 95.630875 
L 248.064 85.256087 
L 265.530192 71.04 
L 279.808 59.926888 
L 292.239697 41.472 
" style="fill:none;stroke:#000000;"/>
   </g>
   <g id="LineCollection_23">
    <path clip-path="url(#p023c0eb830)" d="M 111.294887 41.472 
L 121.088 56.009904 
L 140.398237 71.04 
L 152.832 81.160091 
L 184.576 92.028917 
L 216.32 92.028917 
L 248.064 81.160091 
L 260.497763 71.04 
L 279.808 56.009904 
L 289.601113 41.472 
" style="fill:none;stroke:#000000;"/>
   </g>
   <g id="LineCollection_24">
    <path clip-path="url(#p023c0eb830)" d="M 113.93347 41.472 
L 121.088 52.09292 
L 145.430666 71.04 
L 152.832 77.064095 
L 184.576 88.426958 
L 216.32 88.426958 
L 248.064 77.064095 
L 255.465334 71.04 
L 279.808 52.09292 
L 286.96253 41.472 
" style="fill:none;stroke:#000000;"/>
   </g>
   <g id="LineCollection_25">
    <path clip-path="url(#p023c0eb830)" d="M 116.572053 41.472 
L 121.088 48.175936 
L 150.463096 71.04 
L 152.832 72.968099 
L 184.576 84.825 
L 216.32 84.825 
L 248.064 72.968099 
L 250.432904 71.04 
L 279.808 48.175936 
L 284.323947 41.472 
" style="fill:none;stroke:#000000;"/>
   </g>
   <g id="LineCollection_26">
    <path clip-path="url(#p023c0eb830)" d="M 119.210636 41.472 
L 121.088 44.258951 
L 152.832 69.501251 
L 157.837789 71.04 
L 184.576 81.223042 
L 216.32 81.223042 
L 243.058211 71.04 
L 248.064 69.501251 
L 279.808 44.258951 
L 281.685364 41.472 
" style="fill:none;stroke:#000000;"/>
   </g>
   <g id="LineCollection_27">
    <path clip-path="url(#p023c0eb830)" d="M 122.113589 41.472 
L 152.832 66.593959 
L 167.295662 71.04 
L 184.576 77.621084 
L 216.32 77.621084 
L 233.600338 71.04 
L 248.064 66.593959 
L 278.782411 41.472 
" style="fill:none;stroke:#000000;"/>
   </g>
   <g id="LineCollection_28">
    <path clip-path="url(#p023c0eb830)" d="M 125.668542 41.472 
L 152.832 63.686667 
L 176.753536 71.04 
L 184.576 74.019125 
L 216.32 74.019125 
L 224.142464 71.04 
L 248.064 63.686667 
L 275.227458 41.472 
" style="fill:none;stroke:#000000;"/>
   </g>
   <g id="LineCollection_29">
    <path clip-path="url(#p023c0eb830)" d="M 129.223496 41.472 
L 152.832 60.779374 
L 184.576 70.59792 
L 216.32 70.59792 
L 248.064 60.779374 
L 271.672504 41.472 
" style="fill:none;stroke:#000000;"/>
   </g>
   <g id="LineCollection_30">
    <path clip-path="url(#p023c0eb830)" d="M 132.778449 41.472 
L 152.832 57.872082 
L 184.576 68.04129 
L 216.32 68.04129 
L 248.064 57.872082 
L 268.117551 41.472 
" style="fill:none;stroke:#000000;"/>
   </g>
   <g id="LineCollection_31">
    <path clip-path="url(#p023c0eb830)" d="M 136.333403 41.472 
L 152.832 54.96479 
L 184.576 65.48466 
L 216.32 65.48466 
L 248.064 54.96479 
L 264.562597 41.472 
" style="fill:none;stroke:#000000;"/>
   </g>
   <g id="LineCollection_32">
    <path clip-path="url(#p023c0eb830)" d="M 139.888357 41.472 
L 152.832 52.057498 
L 184.576 62.928031 
L 216.32 62.928031 
L 248.064 52.057498 
L 261.007643 41.472 
" style="fill:none;stroke:#000000;"/>
   </g>
   <g id="LineCollection_33">
    <path clip-path="url(#p023c0eb830)" d="M 143.44331 41.472 
L 152.832 49.150206 
L 184.576 60.371401 
L 216.32 60.371401 
L 248.064 49.150206 
L 257.45269 41.472 
" style="fill:none;stroke:#000000;"/>
   </g>
   <g id="LineCollection_34">
    <path clip-path="url(#p023c0eb830)" d="M 146.998264 41.472 
L 152.832 46.242913 
L 184.576 57.814771 
L 216.32 57.814771 
L 248.064 46.242913 
L 253.897736 41.472 
" style="fill:none;stroke:#000000;"/>
   </g>
   <g id="LineCollection_35">
    <path clip-path="url(#p023c0eb830)" d="M 150.553217 41.472 
L 152.832 43.335621 
L 184.576 55.258141 
L 216.32 55.258141 
L 248.064 43.335621 
L 250.342783 41.472 
" style="fill:none;stroke:#000000;"/>
   </g>
   <g id="LineCollection_36">
    <path clip-path="url(#p023c0eb830)" d="M 155.230417 41.472 
L 184.576 52.701511 
L 216.32 52.701511 
L 245.665583 41.472 
" style="fill:none;stroke:#000000;"/>
   </g>
   <g id="LineCollection_37">
    <path clip-path="url(#p023c0eb830)" d="M 161.911544 41.472 
L 184.576 50.144881 
L 216.32 50.144881 
L 238.984456 41.472 
" style="fill:none;stroke:#000000;"/>
   </g>
   <g id="LineCollection_38">
    <path clip-path="url(#p023c0eb830)" d="M 168.592671 41.472 
L 184.576 47.588251 
L 216.32 47.588251 
L 232.303329 41.472 
" style="fill:none;stroke:#000000;"/>
   </g>
   <g id="LineCollection_39">
    <path clip-path="url(#p023c0eb830)" d="M 175.273799 41.472 
L 184.576 45.031622 
L 216.32 45.031622 
L 225.622201 41.472 
" style="fill:none;stroke:#000000;"/>
   </g>
   <g id="LineCollection_40">
    <path clip-path="url(#p023c0eb830)" d="M 181.954926 41.472 
L 184.576 42.474992 
L 216.32 42.474992 
L 218.941074 41.472 
" style="fill:none;stroke:#000000;"/>
   </g>
   <g id="LineCollection_41"/>
   <g id="patch_3">
    <path d="M 57.6 307.584 
L 57.6 41.472 
" style="fill:none;stroke:#000000;stroke-linecap:square;stroke-linejoin:miter;stroke-width:0.8;"/>
   </g>
   <g id="patch_4">
    <path d="M 343.296 307.584 
L 343.296 41.472 
" style="fill:none;stroke:#000000;stroke-linecap:square;stroke-linejoin:miter;stroke-width:0.8;"/>
   </g>
   <g id="patch_5">
    <path d="M 57.6 307.584 
L 343.296 307.584 
" style="fill:none;stroke:#000000;stroke-linecap:square;stroke-linejoin:miter;stroke-width:0.8;"/>
   </g>
   <g id="patch_6">
    <path d="M 57.6 41.472 
L 343.296 41.472 
" style="fill:none;stroke:#000000;stroke-linecap:square;stroke-linejoin:miter;stroke-width:0.8;"/>
   </g>
  </g>
  <g id="axes_2">
   <g id="patch_7">
    <path clip-path="url(#p165047533b)" d="M 361.152 307.584 
L 361.152 300.9312 
L 361.152 48.1248 
L 361.152 41.472 
L 374.4576 41.472 
L 374.4576 48.1248 
L 374.4576 300.9312 
L 374.4576 307.584 
z
" style="fill:#ffffff;stroke:#ffffff;stroke-linejoin:miter;stroke-width:0.01;"/>
   </g>
   <g id="QuadMesh_1">
    <path clip-path="url(#p165047533b)" d="M 361.152 307.584 
L 374.4576 307.584 
L 374.4576 300.9312 
L 361.152 300.9312 
L 361.152 307.584 
" style="fill:#3e51c5;"/>
    <path clip-path="url(#p165047533b)" d="M 361.152 300.9312 
L 374.4576 300.9312 
L 374.4576 294.2784 
L 361.152 294.2784 
L 361.152 300.9312 
" style="fill:#455cce;"/>
    <path clip-path="url(#p165047533b)" d="M 361.152 294.2784 
L 374.4576 294.2784 
L 374.4576 287.6256 
L 361.152 287.6256 
L 361.152 294.2784 
" style="fill:#4e68d8;"/>
    <path clip-path="url(#p165047533b)" d="M 361.152 287.6256 
L 374.4576 287.6256 
L 374.4576 280.9728 
L 361.152 280.9728 
L 361.152 287.6256 
" style="fill:#5572df;"/>
    <path clip-path="url(#p165047533b)" d="M 361.152 280.9728 
L 374.4576 280.9728 
L 374.4576 274.32 
L 361.152 274.32 
L 361.152 280.9728 
" style="fill:#5d7ce6;"/>
    <path clip-path="url(#p165047533b)" d="M 361.152 274.32 
L 374.4576 274.32 
L 374.4576 267.6672 
L 361.152 267.6672 
L 361.152 274.32 
" style="fill:#6687ed;"/>
    <path clip-path="url(#p165047533b)" d="M 361.152 267.6672 
L 374.4576 267.6672 
L 374.4576 261.0144 
L 361.152 261.0144 
L 361.152 267.6672 
" style="fill:#6e90f2;"/>
    <path clip-path="url(#p165047533b)" d="M 361.152 261.0144 
L 374.4576 261.0144 
L 374.4576 254.3616 
L 361.152 254.3616 
L 361.152 261.0144 
" style="fill:#7699f6;"/>
    <path clip-path="url(#p165047533b)" d="M 361.152 254.3616 
L 374.4576 254.3616 
L 374.4576 247.7088 
L 361.152 247.7088 
L 361.152 254.3616 
" style="fill:#80a3fa;"/>
    <path clip-path="url(#p165047533b)" d="M 361.152 247.7088 
L 374.4576 247.7088 
L 374.4576 241.056 
L 361.152 241.056 
L 361.152 247.7088 
" style="fill:#88abfd;"/>
    <path clip-path="url(#p165047533b)" d="M 361.152 241.056 
L 374.4576 241.056 
L 374.4576 234.4032 
L 361.152 234.4032 
L 361.152 241.056 
" style="fill:#92b4fe;"/>
    <path clip-path="url(#p165047533b)" d="M 361.152 234.4032 
L 374.4576 234.4032 
L 374.4576 227.7504 
L 361.152 227.7504 
L 361.152 234.4032 
" style="fill:#9abbff;"/>
    <path clip-path="url(#p165047533b)" d="M 361.152 227.7504 
L 374.4576 227.7504 
L 374.4576 221.0976 
L 361.152 221.0976 
L 361.152 227.7504 
" style="fill:#a2c1ff;"/>
    <path clip-path="url(#p165047533b)" d="M 361.152 221.0976 
L 374.4576 221.0976 
L 374.4576 214.4448 
L 361.152 214.4448 
L 361.152 221.0976 
" style="fill:#abc8fd;"/>
    <path clip-path="url(#p165047533b)" d="M 361.152 214.4448 
L 374.4576 214.4448 
L 374.4576 207.792 
L 361.152 207.792 
L 361.152 214.4448 
" style="fill:#b3cdfb;"/>
    <path clip-path="url(#p165047533b)" d="M 361.152 207.792 
L 374.4576 207.792 
L 374.4576 201.1392 
L 361.152 201.1392 
L 361.152 207.792 
" style="fill:#bcd2f7;"/>
    <path clip-path="url(#p165047533b)" d="M 361.152 201.1392 
L 374.4576 201.1392 
L 374.4576 194.4864 
L 361.152 194.4864 
L 361.152 201.1392 
" style="fill:#c4d5f3;"/>
    <path clip-path="url(#p165047533b)" d="M 361.152 194.4864 
L 374.4576 194.4864 
L 374.4576 187.8336 
L 361.152 187.8336 
L 361.152 194.4864 
" style="fill:#cbd8ee;"/>
    <path clip-path="url(#p165047533b)" d="M 361.152 187.8336 
L 374.4576 187.8336 
L 374.4576 181.1808 
L 361.152 181.1808 
L 361.152 187.8336 
" style="fill:#d3dbe7;"/>
    <path clip-path="url(#p165047533b)" d="M 361.152 181.1808 
L 374.4576 181.1808 
L 374.4576 174.528 
L 361.152 174.528 
L 361.152 181.1808 
" style="fill:#d9dce1;"/>
    <path clip-path="url(#p165047533b)" d="M 361.152 174.528 
L 374.4576 174.528 
L 374.4576 167.8752 
L 361.152 167.8752 
L 361.152 174.528 
" style="fill:#e0dbd8;"/>
    <path clip-path="url(#p165047533b)" d="M 361.152 167.8752 
L 374.4576 167.8752 
L 374.4576 161.2224 
L 361.152 161.2224 
L 361.152 167.8752 
" style="fill:#e6d7cf;"/>
    <path clip-path="url(#p165047533b)" d="M 361.152 161.2224 
L 374.4576 161.2224 
L 374.4576 154.5696 
L 361.152 154.5696 
L 361.152 161.2224 
" style="fill:#ebd3c6;"/>
    <path clip-path="url(#p165047533b)" d="M 361.152 154.5696 
L 374.4576 154.5696 
L 374.4576 147.9168 
L 361.152 147.9168 
L 361.152 154.5696 
" style="fill:#f0cdbb;"/>
    <path clip-path="url(#p165047533b)" d="M 361.152 147.9168 
L 374.4576 147.9168 
L 374.4576 141.264 
L 361.152 141.264 
L 361.152 147.9168 
" style="fill:#f3c8b2;"/>
    <path clip-path="url(#p165047533b)" d="M 361.152 141.264 
L 374.4576 141.264 
L 374.4576 134.6112 
L 361.152 134.6112 
L 361.152 141.264 
" style="fill:#f5c0a7;"/>
    <path clip-path="url(#p165047533b)" d="M 361.152 134.6112 
L 374.4576 134.6112 
L 374.4576 127.9584 
L 361.152 127.9584 
L 361.152 134.6112 
" style="fill:#f7b99e;"/>
    <path clip-path="url(#p165047533b)" d="M 361.152 127.9584 
L 374.4576 127.9584 
L 374.4576 121.3056 
L 361.152 121.3056 
L 361.152 127.9584 
" style="fill:#f7b194;"/>
    <path clip-path="url(#p165047533b)" d="M 361.152 121.3056 
L 374.4576 121.3056 
L 374.4576 114.6528 
L 361.152 114.6528 
L 361.152 121.3056 
" style="fill:#f7a889;"/>
    <path clip-path="url(#p165047533b)" d="M 361.152 114.6528 
L 374.4576 114.6528 
L 374.4576 108 
L 361.152 108 
L 361.152 114.6528 
" style="fill:#f59f80;"/>
    <path clip-path="url(#p165047533b)" d="M 361.152 108 
L 374.4576 108 
L 374.4576 101.3472 
L 361.152 101.3472 
L 361.152 108 
" style="fill:#f39475;"/>
    <path clip-path="url(#p165047533b)" d="M 361.152 101.3472 
L 374.4576 101.3472 
L 374.4576 94.6944 
L 361.152 94.6944 
L 361.152 101.3472 
" style="fill:#f08a6c;"/>
    <path clip-path="url(#p165047533b)" d="M 361.152 94.6944 
L 374.4576 94.6944 
L 374.4576 88.0416 
L 361.152 88.0416 
L 361.152 94.6944 
" style="fill:#ec7f63;"/>
    <path clip-path="url(#p165047533b)" d="M 361.152 88.0416 
L 374.4576 88.0416 
L 374.4576 81.3888 
L 361.152 81.3888 
L 361.152 88.0416 
" style="fill:#e67259;"/>
    <path clip-path="url(#p165047533b)" d="M 361.152 81.3888 
L 374.4576 81.3888 
L 374.4576 74.736 
L 361.152 74.736 
L 361.152 81.3888 
" style="fill:#e16751;"/>
    <path clip-path="url(#p165047533b)" d="M 361.152 74.736 
L 374.4576 74.736 
L 374.4576 68.0832 
L 361.152 68.0832 
L 361.152 74.736 
" style="fill:#d95847;"/>
    <path clip-path="url(#p165047533b)" d="M 361.152 68.0832 
L 374.4576 68.0832 
L 374.4576 61.4304 
L 361.152 61.4304 
L 361.152 68.0832 
" style="fill:#d24b40;"/>
    <path clip-path="url(#p165047533b)" d="M 361.152 61.4304 
L 374.4576 61.4304 
L 374.4576 54.7776 
L 361.152 54.7776 
L 361.152 61.4304 
" style="fill:#cb3e38;"/>
    <path clip-path="url(#p165047533b)" d="M 361.152 54.7776 
L 374.4576 54.7776 
L 374.4576 48.1248 
L 361.152 48.1248 
L 361.152 54.7776 
" style="fill:#c12b30;"/>
    <path clip-path="url(#p165047533b)" d="M 361.152 48.1248 
L 374.4576 48.1248 
L 374.4576 41.472 
L 361.152 41.472 
L 361.152 48.1248 
" style="fill:#b8122a;"/>
   </g>
   <g id="matplotlib.axis_3"/>
   <g id="matplotlib.axis_4">
    <g id="ytick_7">
     <g id="line2d_13">
      <defs>
       <path d="M 0 0 
L 3.5 0 
" id="me6062f2a03" style="stroke:#000000;stroke-width:0.8;"/>
      </defs>
      <g>
       <use style="stroke:#000000;stroke-width:0.8;" x="374.4576" xlink:href="#me6062f2a03" y="307.584"/>
      </g>
     </g>
     <g id="text_15">
      <!-- 0.000 -->
      <g transform="translate(381.4576 311.383219)scale(0.1 -0.1)">
       <use xlink:href="#DejaVuSans-48"/>
       <use x="63.623047" xlink:href="#DejaVuSans-46"/>
       <use x="95.410156" xlink:href="#DejaVuSans-48"/>
       <use x="159.033203" xlink:href="#DejaVuSans-48"/>
       <use x="222.65625" xlink:href="#DejaVuSans-48"/>
      </g>
     </g>
    </g>
    <g id="ytick_8">
     <g id="line2d_14">
      <g>
       <use style="stroke:#000000;stroke-width:0.8;" x="374.4576" xlink:href="#me6062f2a03" y="274.32"/>
      </g>
     </g>
     <g id="text_16">
      <!-- 0.125 -->
      <defs>
       <path d="M 10.796875 72.90625 
L 49.515625 72.90625 
L 49.515625 64.59375 
L 19.828125 64.59375 
L 19.828125 46.734375 
Q 21.96875 47.46875 24.109375 47.828125 
Q 26.265625 48.1875 28.421875 48.1875 
Q 40.625 48.1875 47.75 41.5 
Q 54.890625 34.8125 54.890625 23.390625 
Q 54.890625 11.625 47.5625 5.09375 
Q 40.234375 -1.421875 26.90625 -1.421875 
Q 22.3125 -1.421875 17.546875 -0.640625 
Q 12.796875 0.140625 7.71875 1.703125 
L 7.71875 11.625 
Q 12.109375 9.234375 16.796875 8.0625 
Q 21.484375 6.890625 26.703125 6.890625 
Q 35.15625 6.890625 40.078125 11.328125 
Q 45.015625 15.765625 45.015625 23.390625 
Q 45.015625 31 40.078125 35.4375 
Q 35.15625 39.890625 26.703125 39.890625 
Q 22.75 39.890625 18.8125 39.015625 
Q 14.890625 38.140625 10.796875 36.28125 
z
" id="DejaVuSans-53"/>
      </defs>
      <g transform="translate(381.4576 278.119219)scale(0.1 -0.1)">
       <use xlink:href="#DejaVuSans-48"/>
       <use x="63.623047" xlink:href="#DejaVuSans-46"/>
       <use x="95.410156" xlink:href="#DejaVuSans-49"/>
       <use x="159.033203" xlink:href="#DejaVuSans-50"/>
       <use x="222.65625" xlink:href="#DejaVuSans-53"/>
      </g>
     </g>
    </g>
    <g id="ytick_9">
     <g id="line2d_15">
      <g>
       <use style="stroke:#000000;stroke-width:0.8;" x="374.4576" xlink:href="#me6062f2a03" y="241.056"/>
      </g>
     </g>
     <g id="text_17">
      <!-- 0.250 -->
      <g transform="translate(381.4576 244.855219)scale(0.1 -0.1)">
       <use xlink:href="#DejaVuSans-48"/>
       <use x="63.623047" xlink:href="#DejaVuSans-46"/>
       <use x="95.410156" xlink:href="#DejaVuSans-50"/>
       <use x="159.033203" xlink:href="#DejaVuSans-53"/>
       <use x="222.65625" xlink:href="#DejaVuSans-48"/>
      </g>
     </g>
    </g>
    <g id="ytick_10">
     <g id="line2d_16">
      <g>
       <use style="stroke:#000000;stroke-width:0.8;" x="374.4576" xlink:href="#me6062f2a03" y="207.792"/>
      </g>
     </g>
     <g id="text_18">
      <!-- 0.375 -->
      <defs>
       <path d="M 40.578125 39.3125 
Q 47.65625 37.796875 51.625 33 
Q 55.609375 28.21875 55.609375 21.1875 
Q 55.609375 10.40625 48.1875 4.484375 
Q 40.765625 -1.421875 27.09375 -1.421875 
Q 22.515625 -1.421875 17.65625 -0.515625 
Q 12.796875 0.390625 7.625 2.203125 
L 7.625 11.71875 
Q 11.71875 9.328125 16.59375 8.109375 
Q 21.484375 6.890625 26.8125 6.890625 
Q 36.078125 6.890625 40.9375 10.546875 
Q 45.796875 14.203125 45.796875 21.1875 
Q 45.796875 27.640625 41.28125 31.265625 
Q 36.765625 34.90625 28.71875 34.90625 
L 20.21875 34.90625 
L 20.21875 43.015625 
L 29.109375 43.015625 
Q 36.375 43.015625 40.234375 45.921875 
Q 44.09375 48.828125 44.09375 54.296875 
Q 44.09375 59.90625 40.109375 62.90625 
Q 36.140625 65.921875 28.71875 65.921875 
Q 24.65625 65.921875 20.015625 65.03125 
Q 15.375 64.15625 9.8125 62.3125 
L 9.8125 71.09375 
Q 15.4375 72.65625 20.34375 73.4375 
Q 25.25 74.21875 29.59375 74.21875 
Q 40.828125 74.21875 47.359375 69.109375 
Q 53.90625 64.015625 53.90625 55.328125 
Q 53.90625 49.265625 50.4375 45.09375 
Q 46.96875 40.921875 40.578125 39.3125 
z
" id="DejaVuSans-51"/>
       <path d="M 8.203125 72.90625 
L 55.078125 72.90625 
L 55.078125 68.703125 
L 28.609375 0 
L 18.3125 0 
L 43.21875 64.59375 
L 8.203125 64.59375 
z
" id="DejaVuSans-55"/>
      </defs>
      <g transform="translate(381.4576 211.591219)scale(0.1 -0.1)">
       <use xlink:href="#DejaVuSans-48"/>
       <use x="63.623047" xlink:href="#DejaVuSans-46"/>
       <use x="95.410156" xlink:href="#DejaVuSans-51"/>
       <use x="159.033203" xlink:href="#DejaVuSans-55"/>
       <use x="222.65625" xlink:href="#DejaVuSans-53"/>
      </g>
     </g>
    </g>
    <g id="ytick_11">
     <g id="line2d_17">
      <g>
       <use style="stroke:#000000;stroke-width:0.8;" x="374.4576" xlink:href="#me6062f2a03" y="174.528"/>
      </g>
     </g>
     <g id="text_19">
      <!-- 0.500 -->
      <g transform="translate(381.4576 178.327219)scale(0.1 -0.1)">
       <use xlink:href="#DejaVuSans-48"/>
       <use x="63.623047" xlink:href="#DejaVuSans-46"/>
       <use x="95.410156" xlink:href="#DejaVuSans-53"/>
       <use x="159.033203" xlink:href="#DejaVuSans-48"/>
       <use x="222.65625" xlink:href="#DejaVuSans-48"/>
      </g>
     </g>
    </g>
    <g id="ytick_12">
     <g id="line2d_18">
      <g>
       <use style="stroke:#000000;stroke-width:0.8;" x="374.4576" xlink:href="#me6062f2a03" y="141.264"/>
      </g>
     </g>
     <g id="text_20">
      <!-- 0.625 -->
      <g transform="translate(381.4576 145.063219)scale(0.1 -0.1)">
       <use xlink:href="#DejaVuSans-48"/>
       <use x="63.623047" xlink:href="#DejaVuSans-46"/>
       <use x="95.410156" xlink:href="#DejaVuSans-54"/>
       <use x="159.033203" xlink:href="#DejaVuSans-50"/>
       <use x="222.65625" xlink:href="#DejaVuSans-53"/>
      </g>
     </g>
    </g>
    <g id="ytick_13">
     <g id="line2d_19">
      <g>
       <use style="stroke:#000000;stroke-width:0.8;" x="374.4576" xlink:href="#me6062f2a03" y="108"/>
      </g>
     </g>
     <g id="text_21">
      <!-- 0.750 -->
      <g transform="translate(381.4576 111.799219)scale(0.1 -0.1)">
       <use xlink:href="#DejaVuSans-48"/>
       <use x="63.623047" xlink:href="#DejaVuSans-46"/>
       <use x="95.410156" xlink:href="#DejaVuSans-55"/>
       <use x="159.033203" xlink:href="#DejaVuSans-53"/>
       <use x="222.65625" xlink:href="#DejaVuSans-48"/>
      </g>
     </g>
    </g>
    <g id="ytick_14">
     <g id="line2d_20">
      <g>
       <use style="stroke:#000000;stroke-width:0.8;" x="374.4576" xlink:href="#me6062f2a03" y="74.736"/>
      </g>
     </g>
     <g id="text_22">
      <!-- 0.875 -->
      <g transform="translate(381.4576 78.535219)scale(0.1 -0.1)">
       <use xlink:href="#DejaVuSans-48"/>
       <use x="63.623047" xlink:href="#DejaVuSans-46"/>
       <use x="95.410156" xlink:href="#DejaVuSans-56"/>
       <use x="159.033203" xlink:href="#DejaVuSans-55"/>
       <use x="222.65625" xlink:href="#DejaVuSans-53"/>
      </g>
     </g>
    </g>
    <g id="ytick_15">
     <g id="line2d_21">
      <g>
       <use style="stroke:#000000;stroke-width:0.8;" x="374.4576" xlink:href="#me6062f2a03" y="41.472"/>
      </g>
     </g>
     <g id="text_23">
      <!-- 1.000 -->
      <g transform="translate(381.4576 45.271219)scale(0.1 -0.1)">
       <use xlink:href="#DejaVuSans-49"/>
       <use x="63.623047" xlink:href="#DejaVuSans-46"/>
       <use x="95.410156" xlink:href="#DejaVuSans-48"/>
       <use x="159.033203" xlink:href="#DejaVuSans-48"/>
       <use x="222.65625" xlink:href="#DejaVuSans-48"/>
      </g>
     </g>
    </g>
   </g>
   <g id="patch_8">
    <path d="M 361.152 307.584 
L 361.152 300.9312 
L 361.152 48.1248 
L 361.152 41.472 
L 374.4576 41.472 
L 374.4576 48.1248 
L 374.4576 300.9312 
L 374.4576 307.584 
z
" style="fill:none;stroke:#000000;stroke-linejoin:miter;stroke-width:0.8;"/>
   </g>
  </g>
 </g>
 <defs>
  <clipPath id="p023c0eb830">
   <rect height="266.112" width="285.696" x="57.6" y="41.472"/>
  </clipPath>
  <clipPath id="p165047533b">
   <rect height="266.112" width="13.3056" x="361.152" y="41.472"/>
  </clipPath>
 </defs>
</svg>
