<?xml version="1.0" encoding="utf-8" standalone="no"?>
<!DOCTYPE svg PUBLIC "-//W3C//DTD SVG 1.1//EN"
  "http://www.w3.org/Graphics/SVG/1.1/DTD/svg11.dtd">
<!-- Created with matplotlib (https://matplotlib.org/) -->
<svg height="345.6pt" version="1.1" viewBox="0 0 460.8 345.6" width="460.8pt" xmlns="http://www.w3.org/2000/svg" xmlns:xlink="http://www.w3.org/1999/xlink">
 <defs>
  <style type="text/css">
*{stroke-linecap:butt;stroke-linejoin:round;}
  </style>
 </defs>
 <g id="figure_1">
  <g id="patch_1">
   <path d="M 0 345.6 
L 460.8 345.6 
L 460.8 0 
L 0 0 
z
" style="fill:#ffffff;"/>
  </g>
  <g id="axes_1">
   <g id="patch_2">
    <path d="M 57.6 307.584 
L 343.296 307.584 
L 343.296 41.472 
L 57.6 41.472 
z
" style="fill:#ffffff;"/>
   </g>
   <g id="PathCollection_1">
    <path clip-path="url(#pb52e043a1d)" d="M 60.485818 307.584 
L 63.371636 307.584 
L 66.257455 307.584 
L 69.143273 307.584 
L 72.029091 307.584 
L 74.914909 307.584 
L 77.800727 307.584 
L 80.686545 307.584 
L 83.572364 307.584 
L 86.458182 307.584 
L 89.344 307.584 
L 92.229818 307.584 
L 95.115636 307.584 
L 98.001455 307.584 
L 100.887273 307.584 
L 103.773091 307.584 
L 106.658909 307.584 
L 109.544727 307.584 
L 112.430545 307.584 
L 115.316364 307.584 
L 118.202182 307.584 
L 121.088 307.584 
L 123.973818 307.584 
L 126.859636 307.584 
L 129.745455 307.584 
L 132.631273 307.584 
L 135.517091 307.584 
L 138.402909 307.584 
L 141.288727 307.584 
L 144.174545 307.584 
L 147.060364 307.584 
L 149.946182 307.584 
L 152.832 307.584 
L 155.717818 307.584 
L 158.603636 307.584 
L 161.489455 307.584 
L 164.375273 307.584 
L 167.261091 307.584 
L 170.146909 307.584 
L 173.032727 307.584 
L 175.918545 307.584 
L 178.804364 307.584 
L 181.690182 307.584 
L 184.576 307.584 
L 187.461818 307.584 
L 190.347636 307.584 
L 193.233455 307.584 
L 196.119273 307.584 
L 199.005091 307.584 
L 201.890909 307.584 
L 204.776727 307.584 
L 207.662545 307.584 
L 210.548364 307.584 
L 213.434182 307.584 
L 216.32 307.584 
L 219.205818 307.584 
L 222.091636 307.584 
L 224.977455 307.584 
L 227.863273 307.584 
L 230.749091 307.584 
L 233.634909 307.584 
L 236.520727 307.584 
L 239.406545 307.584 
L 242.292364 307.584 
L 245.178182 307.584 
L 248.064 307.584 
L 250.949818 307.584 
L 253.835636 307.584 
L 256.721455 307.584 
L 259.607273 307.584 
L 262.493091 307.584 
L 265.378909 307.584 
L 268.264727 307.584 
L 271.150545 307.584 
L 274.036364 307.584 
L 276.922182 307.584 
L 279.808 307.584 
L 282.693818 307.584 
L 285.579636 307.584 
L 288.465455 307.584 
L 291.351273 307.584 
L 294.237091 307.584 
L 297.122909 307.584 
L 300.008727 307.584 
L 302.894545 307.584 
L 305.780364 307.584 
L 308.666182 307.584 
L 311.552 307.584 
L 314.437818 307.584 
L 317.323636 307.584 
L 320.209455 307.584 
L 323.095273 307.584 
L 325.981091 307.584 
L 328.866909 307.584 
L 331.752727 307.584 
L 334.638545 307.584 
L 337.524364 307.584 
L 340.410182 307.584 
L 343.296 307.584 
L 343.296 289.8432 
L 343.296 272.1024 
L 343.296 263.232 
L 343.296 245.4912 
L 343.296 227.7504 
L 343.296 210.0096 
L 343.296 192.2688 
L 343.296 183.3984 
L 343.296 165.6576 
L 343.296 147.9168 
L 343.296 130.176 
L 343.296 112.4352 
L 343.296 103.5648 
L 343.296 85.824 
L 343.296 68.0832 
L 343.296 50.3424 
L 343.296 41.472 
L 340.410182 41.472 
L 337.524364 41.472 
L 334.638545 41.472 
L 331.752727 41.472 
L 328.866909 41.472 
L 325.981091 41.472 
L 323.095273 41.472 
L 320.209455 41.472 
L 317.323636 41.472 
L 314.437818 41.472 
L 311.552 41.472 
L 308.666182 41.472 
L 305.780364 41.472 
L 302.894545 41.472 
L 300.008727 41.472 
L 297.122909 41.472 
L 294.237091 41.472 
L 291.351273 41.472 
L 288.465455 41.472 
L 285.579636 41.472 
L 282.693818 41.472 
L 279.808 41.472 
L 276.922182 41.472 
L 274.036364 41.472 
L 271.150545 41.472 
L 268.264727 41.472 
L 265.378909 41.472 
L 262.493091 41.472 
L 259.607273 41.472 
L 256.721455 41.472 
L 253.835636 41.472 
L 250.949818 41.472 
L 248.064 41.472 
L 245.178182 41.472 
L 242.292364 41.472 
L 239.406545 41.472 
L 236.520727 41.472 
L 233.634909 41.472 
L 230.749091 41.472 
L 227.863273 41.472 
L 224.977455 41.472 
L 222.091636 41.472 
L 219.205818 41.472 
L 216.32 41.472 
L 213.434182 41.472 
L 210.548364 41.472 
L 207.662545 41.472 
L 204.776727 41.472 
L 201.890909 41.472 
L 199.005091 41.472 
L 196.119273 41.472 
L 193.233455 41.472 
L 190.347636 41.472 
L 187.461818 41.472 
L 184.576 41.472 
L 181.690182 41.472 
L 178.804364 41.472 
L 175.918545 41.472 
L 173.032727 41.472 
L 170.146909 41.472 
L 167.261091 41.472 
L 164.375273 41.472 
L 161.489455 41.472 
L 158.603636 41.472 
L 155.717818 41.472 
L 152.832 41.472 
L 149.946182 41.472 
L 147.060364 41.472 
L 144.174545 41.472 
L 141.288727 41.472 
L 138.402909 41.472 
L 135.517091 41.472 
L 132.631273 41.472 
L 129.745455 41.472 
L 126.859636 41.472 
L 123.973818 41.472 
L 121.088 41.472 
L 118.202182 41.472 
L 115.316364 41.472 
L 112.430545 41.472 
L 109.544727 41.472 
L 106.658909 41.472 
L 103.773091 41.472 
L 100.887273 41.472 
L 100.208468 41.472 
L 98.964251 50.3424 
L 98.001455 54.892431 
L 95.45925 68.0832 
L 95.115636 69.747602 
L 92.229818 85.306276 
L 92.141799 85.824 
L 89.344 101.60906 
L 89.013674 103.5648 
L 88.802286 112.4352 
L 86.458182 124.36155 
L 85.408824 130.176 
L 83.572364 139.692299 
L 82.110112 147.9168 
L 80.686545 155.417104 
L 78.890237 165.6576 
L 77.800727 171.48543 
L 75.736294 183.3984 
L 74.914909 191.974129 
L 74.887413 192.2688 
L 72.029091 207.890653 
L 71.668827 210.0096 
L 69.143273 223.988051 
L 68.509626 227.7504 
L 66.257455 240.361915 
L 65.400923 245.4912 
L 63.371636 256.978439 
L 62.335339 263.232 
L 61.513631 272.1024 
L 60.485818 277.054728 
L 58.13776 289.8432 
L 57.6 292.503601 
L 57.6 307.584 
z
" style="fill:#4257c9;"/>
   </g>
   <g id="PathCollection_2">
    <path clip-path="url(#pb52e043a1d)" d="M 58.13776 289.8432 
L 60.485818 277.054728 
L 61.513631 272.1024 
L 62.335339 263.232 
L 63.371636 256.978439 
L 65.400923 245.4912 
L 66.257455 240.361915 
L 68.509626 227.7504 
L 69.143273 223.988051 
L 71.668827 210.0096 
L 72.029091 207.890653 
L 74.887413 192.2688 
L 74.914909 191.974129 
L 75.736294 183.3984 
L 77.800727 171.48543 
L 78.890237 165.6576 
L 80.686545 155.417104 
L 82.110112 147.9168 
L 83.572364 139.692299 
L 85.408824 130.176 
L 86.458182 124.36155 
L 88.802286 112.4352 
L 89.013674 103.5648 
L 89.344 101.60906 
L 92.141799 85.824 
L 92.229818 85.306276 
L 95.115636 69.747602 
L 95.45925 68.0832 
L 98.001455 54.892431 
L 98.964251 50.3424 
L 100.208468 41.472 
L 98.001455 41.472 
L 97.672546 41.472 
L 96.314 50.3424 
L 95.115636 56.972878 
L 93.213003 68.0832 
L 92.229818 73.578347 
L 90.147908 85.824 
L 89.344 90.359615 
L 87.113635 103.5648 
L 86.458182 108.89643 
L 86.02509 112.4352 
L 83.572364 126.472262 
L 82.953162 130.176 
L 80.686545 143.254394 
L 79.910963 147.9168 
L 77.800727 160.186956 
L 76.89474 165.6576 
L 74.914909 177.253603 
L 73.901268 183.3984 
L 72.740927 192.2688 
L 72.029091 196.159266 
L 69.674254 210.0096 
L 69.143273 212.948476 
L 66.650366 227.7504 
L 66.257455 229.950589 
L 63.662351 245.4912 
L 63.371636 247.136858 
L 60.70446 263.232 
L 60.485818 264.654882 
L 59.371101 272.1024 
L 57.6 282.305813 
L 57.6 289.8432 
L 57.6 292.503601 
z
" style="fill:#516ddb;"/>
   </g>
   <g id="PathCollection_3">
    <path clip-path="url(#pb52e043a1d)" d="M 59.371101 272.1024 
L 60.485818 264.654882 
L 60.70446 263.232 
L 63.371636 247.136858 
L 63.662351 245.4912 
L 66.257455 229.950589 
L 66.650366 227.7504 
L 69.143273 212.948476 
L 69.674254 210.0096 
L 72.029091 196.159266 
L 72.740927 192.2688 
L 73.901268 183.3984 
L 74.914909 177.253603 
L 76.89474 165.6576 
L 77.800727 160.186956 
L 79.910963 147.9168 
L 80.686545 143.254394 
L 82.953162 130.176 
L 83.572364 126.472262 
L 86.02509 112.4352 
L 86.458182 108.89643 
L 87.113635 103.5648 
L 89.344 90.359615 
L 90.147908 85.824 
L 92.229818 73.578347 
L 93.213003 68.0832 
L 95.115636 56.972878 
L 96.314 50.3424 
L 97.672546 41.472 
L 95.784407 41.472 
L 95.115636 45.336181 
L 94.317104 50.3424 
L 92.229818 62.636161 
L 91.329684 68.0832 
L 89.344 79.83933 
L 88.357769 85.824 
L 86.458182 97.125119 
L 85.399575 103.5648 
L 84.133583 112.4352 
L 83.572364 115.647084 
L 81.143376 130.176 
L 80.686545 132.811916 
L 78.173877 147.9168 
L 77.800727 150.086511 
L 75.222016 165.6576 
L 74.914909 167.456344 
L 72.28512 183.3984 
L 72.029091 185.098035 
L 70.944912 192.2688 
L 69.143273 202.951711 
L 67.986116 210.0096 
L 66.257455 220.327231 
L 65.04353 227.7504 
L 63.371636 237.792239 
L 62.115226 245.4912 
L 60.485818 255.337469 
L 59.199536 263.232 
L 57.782518 272.1024 
L 57.6 273.153895 
L 57.6 282.305813 
z
" style="fill:#6282ea;"/>
   </g>
   <g id="PathCollection_4">
    <path clip-path="url(#pb52e043a1d)" d="M 57.782518 272.1024 
L 59.199536 263.232 
L 60.485818 255.337469 
L 62.115226 245.4912 
L 63.371636 237.792239 
L 65.04353 227.7504 
L 66.257455 220.327231 
L 67.986116 210.0096 
L 69.143273 202.951711 
L 70.944912 192.2688 
L 72.029091 185.098035 
L 72.28512 183.3984 
L 74.914909 167.456344 
L 75.222016 165.6576 
L 77.800727 150.086511 
L 78.173877 147.9168 
L 80.686545 132.811916 
L 81.143376 130.176 
L 83.572364 115.647084 
L 84.133583 112.4352 
L 85.399575 103.5648 
L 86.458182 97.125119 
L 88.357769 85.824 
L 89.344 79.83933 
L 91.329684 68.0832 
L 92.229818 62.636161 
L 94.317104 50.3424 
L 95.115636 45.336181 
L 95.784407 41.472 
L 95.115636 41.472 
L 94.03765 41.472 
L 92.576913 50.3424 
L 92.229818 52.386728 
L 89.635944 68.0832 
L 89.344 69.811637 
L 86.705276 85.824 
L 86.458182 87.294023 
L 83.783461 103.5648 
L 83.572364 104.954215 
L 82.419075 112.4352 
L 80.686545 122.824638 
L 79.482654 130.176 
L 77.800727 140.303237 
L 76.555955 147.9168 
L 74.914909 157.835172 
L 73.637756 165.6576 
L 72.029091 175.413842 
L 70.726939 183.3984 
L 69.322792 192.2688 
L 69.143273 193.33327 
L 66.409151 210.0096 
L 66.257455 210.915011 
L 63.504332 227.7504 
L 63.371636 228.547406 
L 60.606541 245.4912 
L 60.485818 246.22071 
L 57.714113 263.232 
L 57.6 263.940408 
L 57.6 272.1024 
L 57.6 273.153895 
z
" style="fill:#7295f4;"/>
   </g>
   <g id="PathCollection_5">
    <path clip-path="url(#pb52e043a1d)" d="M 57.714113 263.232 
L 60.485818 246.22071 
L 60.606541 245.4912 
L 63.371636 228.547406 
L 63.504332 227.7504 
L 66.257455 210.915011 
L 66.409151 210.0096 
L 69.143273 193.33327 
L 69.322792 192.2688 
L 70.726939 183.3984 
L 72.029091 175.413842 
L 73.637756 165.6576 
L 74.914909 157.835172 
L 76.555955 147.9168 
L 77.800727 140.303237 
L 79.482654 130.176 
L 80.686545 122.824638 
L 82.419075 112.4352 
L 83.572364 104.954215 
L 83.783461 103.5648 
L 86.458182 87.294023 
L 86.705276 85.824 
L 89.344 69.811637 
L 89.635944 68.0832 
L 92.229818 52.386728 
L 92.576913 50.3424 
L 94.03765 41.472 
L 92.368435 41.472 
L 92.229818 42.305676 
L 90.914436 50.3424 
L 89.344 59.850121 
L 87.998981 68.0832 
L 86.458182 77.435105 
L 85.089046 85.824 
L 83.572364 95.050609 
L 82.183916 103.5648 
L 80.77924 112.4352 
L 80.686545 112.99106 
L 77.872264 130.176 
L 77.800727 130.606736 
L 74.970634 147.9168 
L 74.914909 148.253599 
L 72.073391 165.6576 
L 72.029091 165.92627 
L 69.17967 183.3984 
L 69.143273 183.626985 
L 67.7338 192.2688 
L 66.257455 201.273175 
L 64.83487 210.0096 
L 63.371636 218.956225 
L 61.940353 227.7504 
L 60.485818 236.662318 
L 59.049337 245.4912 
L 57.6 254.385733 
L 57.6 263.232 
L 57.6 263.940408 
z
" style="fill:#84a7fc;"/>
   </g>
   <g id="PathCollection_6">
    <path clip-path="url(#pb52e043a1d)" d="M 59.049337 245.4912 
L 60.485818 236.662318 
L 61.940353 227.7504 
L 63.371636 218.956225 
L 64.83487 210.0096 
L 66.257455 201.273175 
L 67.7338 192.2688 
L 69.143273 183.626985 
L 69.17967 183.3984 
L 72.029091 165.92627 
L 72.073391 165.6576 
L 74.914909 148.253599 
L 74.970634 147.9168 
L 77.800727 130.606736 
L 77.872264 130.176 
L 80.686545 112.99106 
L 80.77924 112.4352 
L 82.183916 103.5648 
L 83.572364 95.050609 
L 85.089046 85.824 
L 86.458182 77.435105 
L 87.998981 68.0832 
L 89.344 59.850121 
L 90.914436 50.3424 
L 92.229818 42.305676 
L 92.368435 41.472 
L 92.229818 41.472 
L 90.709645 41.472 
L 89.344 49.890362 
L 89.269418 50.3424 
L 86.458182 67.547651 
L 86.370982 68.0832 
L 83.572364 85.228247 
L 83.475388 85.824 
L 80.686545 102.923538 
L 80.582184 103.5648 
L 79.138962 112.4352 
L 77.800727 120.60589 
L 76.241913 130.176 
L 74.914909 138.291334 
L 73.347763 147.9168 
L 72.029091 155.992387 
L 70.455991 165.6576 
L 69.143273 173.705992 
L 67.566118 183.3984 
L 66.257455 191.577563 
L 66.143297 192.2688 
L 63.371636 209.289175 
L 63.254438 210.0096 
L 60.485818 227.020137 
L 60.367026 227.7504 
L 57.6 244.756809 
L 57.6 245.4912 
L 57.6 254.385733 
z
" style="fill:#96b7ff;"/>
   </g>
   <g id="PathCollection_7">
    <path clip-path="url(#pb52e043a1d)" d="M 60.367026 227.7504 
L 60.485818 227.020137 
L 63.254438 210.0096 
L 63.371636 209.289175 
L 66.143297 192.2688 
L 66.257455 191.577563 
L 67.566118 183.3984 
L 69.143273 173.705992 
L 70.455991 165.6576 
L 72.029091 155.992387 
L 73.347763 147.9168 
L 74.914909 138.291334 
L 76.241913 130.176 
L 77.800727 120.60589 
L 79.138962 112.4352 
L 80.582184 103.5648 
L 80.686545 102.923538 
L 83.475388 85.824 
L 83.572364 85.228247 
L 86.370982 68.0832 
L 86.458182 67.547651 
L 89.269418 50.3424 
L 89.344 49.890362 
L 90.709645 41.472 
L 89.344 41.472 
L 89.038537 41.472 
L 87.583281 50.3424 
L 86.458182 57.228201 
L 84.690728 68.0832 
L 83.572364 74.934582 
L 81.799802 85.824 
L 80.686545 92.649833 
L 78.91021 103.5648 
L 77.800727 110.508265 
L 77.482758 112.4352 
L 74.914909 128.198895 
L 74.593237 130.176 
L 72.029091 145.924198 
L 71.704925 147.9168 
L 69.143273 163.655148 
L 68.817522 165.6576 
L 66.257455 181.390149 
L 65.930771 183.3984 
L 64.476158 192.2688 
L 63.371636 199.051513 
L 61.588982 210.0096 
L 60.485818 216.787493 
L 58.702477 227.7504 
L 57.6 234.526329 
L 57.6 244.756809 
z
" style="fill:#a7c5fe;"/>
   </g>
   <g id="PathCollection_8">
    <path clip-path="url(#pb52e043a1d)" d="M 58.702477 227.7504 
L 60.485818 216.787493 
L 61.588982 210.0096 
L 63.371636 199.051513 
L 64.476158 192.2688 
L 65.930771 183.3984 
L 66.257455 181.390149 
L 68.817522 165.6576 
L 69.143273 163.655148 
L 71.704925 147.9168 
L 72.029091 145.924198 
L 74.593237 130.176 
L 74.914909 128.198895 
L 77.482758 112.4352 
L 77.800727 110.508265 
L 78.91021 103.5648 
L 80.686545 92.649833 
L 81.799802 85.824 
L 83.572364 74.934582 
L 84.690728 68.0832 
L 86.458182 57.228201 
L 87.583281 50.3424 
L 89.038537 41.472 
L 87.305446 41.472 
L 86.458182 46.750066 
L 85.864056 50.3424 
L 83.572364 64.4162 
L 82.975764 68.0832 
L 80.686545 82.145977 
L 80.08819 85.824 
L 77.800727 99.879224 
L 77.201169 103.5648 
L 75.75611 112.4352 
L 74.914909 117.599228 
L 72.868687 130.176 
L 72.029091 135.332543 
L 69.981824 147.9168 
L 69.143273 153.068712 
L 67.095364 165.6576 
L 66.257455 170.806862 
L 64.209183 183.3984 
L 63.371636 188.635742 
L 62.770549 192.2688 
L 60.485818 206.313103 
L 59.884523 210.0096 
L 57.6 224.05344 
L 57.6 227.7504 
L 57.6 234.526329 
z
" style="fill:#b9d0f9;"/>
   </g>
   <g id="PathCollection_9">
    <path clip-path="url(#pb52e043a1d)" d="M 59.884523 210.0096 
L 60.485818 206.313103 
L 62.770549 192.2688 
L 63.371636 188.635742 
L 64.209183 183.3984 
L 66.257455 170.806862 
L 67.095364 165.6576 
L 69.143273 153.068712 
L 69.981824 147.9168 
L 72.029091 135.332543 
L 72.868687 130.176 
L 74.914909 117.599228 
L 75.75611 112.4352 
L 77.201169 103.5648 
L 77.800727 99.879224 
L 80.08819 85.824 
L 80.686545 82.145977 
L 82.975764 68.0832 
L 83.572364 64.4162 
L 85.864056 50.3424 
L 86.458182 46.750066 
L 87.305446 41.472 
L 86.458182 41.472 
L 85.514559 41.472 
L 84.078476 50.3424 
L 83.572364 53.45055 
L 81.191715 68.0832 
L 80.686545 71.186482 
L 78.305254 85.824 
L 77.800727 88.924044 
L 75.419013 103.5648 
L 74.914909 106.718226 
L 73.969029 112.4352 
L 72.029091 124.358551 
L 71.082771 130.176 
L 69.143273 142.097716 
L 68.196697 147.9168 
L 66.257455 159.837647 
L 65.310744 165.6576 
L 63.371636 177.578036 
L 62.424862 183.3984 
L 60.989416 192.2688 
L 60.485818 195.364432 
L 58.103544 210.0096 
L 57.6 213.105077 
L 57.6 224.05344 
z
" style="fill:#c7d7f0;"/>
   </g>
   <g id="PathCollection_10">
    <path clip-path="url(#pb52e043a1d)" d="M 58.103544 210.0096 
L 60.485818 195.364432 
L 60.989416 192.2688 
L 62.424862 183.3984 
L 63.371636 177.578036 
L 65.310744 165.6576 
L 66.257455 159.837647 
L 68.196697 147.9168 
L 69.143273 142.097716 
L 71.082771 130.176 
L 72.029091 124.358551 
L 73.969029 112.4352 
L 74.914909 106.718226 
L 75.419013 103.5648 
L 77.800727 88.924044 
L 78.305254 85.824 
L 80.686545 71.186482 
L 81.191715 68.0832 
L 83.572364 53.45055 
L 84.078476 50.3424 
L 85.514559 41.472 
L 83.668392 41.472 
L 83.572364 42.072327 
L 82.203408 50.3424 
L 80.686545 59.665675 
L 79.317269 68.0832 
L 77.800727 77.405127 
L 76.431246 85.824 
L 74.914909 95.145106 
L 73.545304 103.5648 
L 72.124534 112.4352 
L 72.029091 113.021816 
L 69.238632 130.176 
L 69.143273 130.762156 
L 66.352771 147.9168 
L 66.257455 148.502727 
L 63.466933 165.6576 
L 63.371636 166.243427 
L 60.581107 183.3984 
L 60.485818 183.994598 
L 59.116082 192.2688 
L 57.6 201.588996 
L 57.6 210.0096 
L 57.6 213.105077 
z
" style="fill:#d6dce4;"/>
   </g>
   <g id="PathCollection_11">
    <path clip-path="url(#pb52e043a1d)" d="M 59.116082 192.2688 
L 60.485818 183.994598 
L 60.581107 183.3984 
L 63.371636 166.243427 
L 63.466933 165.6576 
L 66.257455 148.502727 
L 66.352771 147.9168 
L 69.143273 130.762156 
L 69.238632 130.176 
L 72.029091 113.021816 
L 72.124534 112.4352 
L 73.545304 103.5648 
L 74.914909 95.145106 
L 76.431246 85.824 
L 77.800727 77.405127 
L 79.317269 68.0832 
L 80.686545 59.665675 
L 82.203408 50.3424 
L 83.572364 42.072327 
L 83.668392 41.472 
L 83.572364 41.472 
L 81.695986 41.472 
L 80.686545 47.790046 
L 80.263824 50.3424 
L 77.800727 65.484076 
L 77.377938 68.0832 
L 74.914909 83.224632 
L 74.492081 85.824 
L 72.029091 100.9653 
L 71.606241 103.5648 
L 70.152483 112.4352 
L 69.143273 118.639254 
L 67.266637 130.176 
L 66.257455 136.379959 
L 64.380806 147.9168 
L 63.371636 154.120719 
L 61.494982 165.6576 
L 60.485818 171.861505 
L 58.609162 183.3984 
L 57.6 189.715588 
L 57.6 192.2688 
L 57.6 201.588996 
z
" style="fill:#e3d9d3;"/>
   </g>
   <g id="PathCollection_12">
    <path clip-path="url(#pb52e043a1d)" d="M 58.609162 183.3984 
L 60.485818 171.861505 
L 61.494982 165.6576 
L 63.371636 154.120719 
L 64.380806 147.9168 
L 66.257455 136.379959 
L 67.266637 130.176 
L 69.143273 118.639254 
L 70.152483 112.4352 
L 71.606241 103.5648 
L 72.029091 100.9653 
L 74.492081 85.824 
L 74.914909 83.224632 
L 77.377938 68.0832 
L 77.800727 65.484076 
L 80.263824 50.3424 
L 80.686545 47.790046 
L 81.695986 41.472 
L 80.686545 41.472 
L 79.643714 41.472 
L 78.21203 50.3424 
L 77.800727 52.870849 
L 75.326194 68.0832 
L 74.914909 70.611566 
L 72.440365 85.824 
L 72.029091 88.352322 
L 69.554542 103.5648 
L 69.143273 106.139904 
L 68.100393 112.4352 
L 66.257455 123.764792 
L 65.214571 130.176 
L 63.371636 141.505583 
L 62.328752 147.9168 
L 60.485818 159.24638 
L 59.442933 165.6576 
L 57.6 176.987179 
L 57.6 183.3984 
L 57.6 189.715588 
z
" style="fill:#eed0c0;"/>
   </g>
   <g id="PathCollection_13">
    <path clip-path="url(#pb52e043a1d)" d="M 59.442933 165.6576 
L 60.485818 159.24638 
L 62.328752 147.9168 
L 63.371636 141.505583 
L 65.214571 130.176 
L 66.257455 123.764792 
L 68.100393 112.4352 
L 69.143273 106.139904 
L 69.554542 103.5648 
L 72.029091 88.352322 
L 72.440365 85.824 
L 74.914909 70.611566 
L 75.326194 68.0832 
L 77.800727 52.870849 
L 78.21203 50.3424 
L 79.643714 41.472 
L 77.800727 41.472 
L 77.493446 41.472 
L 76.034949 50.3424 
L 74.914909 57.227912 
L 73.149127 68.0832 
L 72.029091 74.968699 
L 70.263306 85.824 
L 69.143273 92.709493 
L 67.377487 103.5648 
L 66.257455 110.58114 
L 65.950167 112.4352 
L 63.371636 128.286922 
L 63.064348 130.176 
L 60.485818 146.027721 
L 60.17853 147.9168 
L 57.6 163.768521 
L 57.6 165.6576 
L 57.6 176.987179 
z
" style="fill:#f5c4ac;"/>
   </g>
   <g id="PathCollection_14">
    <path clip-path="url(#pb52e043a1d)" d="M 60.17853 147.9168 
L 60.485818 146.027721 
L 63.064348 130.176 
L 63.371636 128.286922 
L 65.950167 112.4352 
L 66.257455 110.58114 
L 67.377487 103.5648 
L 69.143273 92.709493 
L 70.263306 85.824 
L 72.029091 74.968699 
L 73.149127 68.0832 
L 74.914909 57.227912 
L 76.034949 50.3424 
L 77.493446 41.472 
L 75.200486 41.472 
L 74.914909 43.261402 
L 73.741047 50.3424 
L 72.029091 60.866787 
L 70.855229 68.0832 
L 69.143273 78.607586 
L 67.96941 85.824 
L 66.257455 96.348385 
L 65.083592 103.5648 
L 63.657212 112.4352 
L 63.371636 114.190802 
L 60.771394 130.176 
L 60.485818 131.931602 
L 57.885576 147.9168 
L 57.6 149.672402 
L 57.6 163.768521 
z
" style="fill:#f7b599;"/>
   </g>
   <g id="PathCollection_15">
    <path clip-path="url(#pb52e043a1d)" d="M 57.885576 147.9168 
L 60.485818 131.931602 
L 60.771394 130.176 
L 63.371636 114.190802 
L 63.657212 112.4352 
L 65.083592 103.5648 
L 66.257455 96.348385 
L 67.96941 85.824 
L 69.143273 78.607586 
L 70.855229 68.0832 
L 72.029091 60.866787 
L 73.741047 50.3424 
L 74.914909 43.261402 
L 75.200486 41.472 
L 74.914909 41.472 
L 72.747955 41.472 
L 72.029091 45.97852 
L 71.305328 50.3424 
L 69.143273 63.63381 
L 68.41951 68.0832 
L 66.257455 81.37461 
L 65.533692 85.824 
L 63.371636 99.11541 
L 62.647874 103.5648 
L 61.204682 112.4352 
L 60.485818 116.854476 
L 58.318864 130.176 
L 57.6 134.595276 
L 57.6 147.9168 
L 57.6 149.672402 
z
" style="fill:#f6a385;"/>
   </g>
   <g id="PathCollection_16">
    <path clip-path="url(#pb52e043a1d)" d="M 58.318864 130.176 
L 60.485818 116.854476 
L 61.204682 112.4352 
L 62.647874 103.5648 
L 63.371636 99.11541 
L 65.533692 85.824 
L 66.257455 81.37461 
L 68.41951 68.0832 
L 69.143273 63.63381 
L 71.305328 50.3424 
L 72.029091 45.97852 
L 72.747955 41.472 
L 72.029091 41.472 
L 70.12952 41.472 
L 69.143273 47.657698 
L 68.697802 50.3424 
L 66.257455 65.344631 
L 65.811984 68.0832 
L 63.371636 83.085431 
L 62.926165 85.824 
L 60.485818 100.826231 
L 60.040347 103.5648 
L 58.586247 112.4352 
L 57.6 118.498236 
L 57.6 130.176 
L 57.6 134.595276 
z
" style="fill:#f18f71;"/>
   </g>
   <g id="PathCollection_17">
    <path clip-path="url(#pb52e043a1d)" d="M 58.586247 112.4352 
L 60.040347 103.5648 
L 60.485818 100.826231 
L 62.926165 85.824 
L 63.371636 83.085431 
L 65.811984 68.0832 
L 66.257455 65.344631 
L 68.697802 50.3424 
L 69.143273 47.657698 
L 70.12952 41.472 
L 69.143273 41.472 
L 67.31118 41.472 
L 66.257455 48.084071 
L 65.88256 50.3424 
L 63.371636 65.778505 
L 62.996742 68.0832 
L 60.485818 83.519305 
L 60.110924 85.824 
L 57.6 101.260105 
L 57.6 103.5648 
L 57.6 112.4352 
L 57.6 118.498236 
z
" style="fill:#e9785d;"/>
   </g>
   <g id="PathCollection_18">
    <path clip-path="url(#pb52e043a1d)" d="M 60.110924 85.824 
L 60.485818 83.519305 
L 62.996742 68.0832 
L 63.371636 65.778505 
L 65.88256 50.3424 
L 66.257455 48.084071 
L 67.31118 41.472 
L 66.257455 41.472 
L 64.252329 41.472 
L 63.371636 47.00093 
L 62.816682 50.3424 
L 60.485818 64.671572 
L 59.930864 68.0832 
L 57.6 82.412372 
L 57.6 85.824 
L 57.6 101.260105 
z
" style="fill:#dd5f4b;"/>
   </g>
   <g id="PathCollection_19">
    <path clip-path="url(#pb52e043a1d)" d="M 59.930864 68.0832 
L 60.485818 64.671572 
L 62.816682 50.3424 
L 63.371636 47.00093 
L 64.252329 41.472 
L 63.371636 41.472 
L 60.904547 41.472 
L 60.485818 44.102 
L 59.448937 50.3424 
L 57.6 61.708888 
L 57.6 68.0832 
L 57.6 82.412372 
z
" style="fill:#cf453c;"/>
   </g>
   <g id="PathCollection_20">
    <path clip-path="url(#pb52e043a1d)" d="M 59.448937 50.3424 
L 60.485818 44.102 
L 60.904547 41.472 
L 60.485818 41.472 
L 57.6 41.472 
L 57.6 50.3424 
L 57.6 61.708888 
z
" style="fill:#bd1f2d;"/>
   </g>
   <g id="matplotlib.axis_1">
    <g id="xtick_1">
     <g id="line2d_1">
      <defs>
       <path d="M 0 0 
L 0 3.5 
" id="m338fca3ebb" style="stroke:#000000;stroke-width:0.8;"/>
      </defs>
      <g>
       <use style="stroke:#000000;stroke-width:0.8;" x="92.229818" xlink:href="#m338fca3ebb" y="307.584"/>
      </g>
     </g>
     <g id="text_1">
      <!-- −0.75 -->
      <defs>
       <path d="M 10.59375 35.5 
L 73.1875 35.5 
L 73.1875 27.203125 
L 10.59375 27.203125 
z
" id="DejaVuSans-8722"/>
       <path d="M 31.78125 66.40625 
Q 24.171875 66.40625 20.328125 58.90625 
Q 16.5 51.421875 16.5 36.375 
Q 16.5 21.390625 20.328125 13.890625 
Q 24.171875 6.390625 31.78125 6.390625 
Q 39.453125 6.390625 43.28125 13.890625 
Q 47.125 21.390625 47.125 36.375 
Q 47.125 51.421875 43.28125 58.90625 
Q 39.453125 66.40625 31.78125 66.40625 
z
M 31.78125 74.21875 
Q 44.046875 74.21875 50.515625 64.515625 
Q 56.984375 54.828125 56.984375 36.375 
Q 56.984375 17.96875 50.515625 8.265625 
Q 44.046875 -1.421875 31.78125 -1.421875 
Q 19.53125 -1.421875 13.0625 8.265625 
Q 6.59375 17.96875 6.59375 36.375 
Q 6.59375 54.828125 13.0625 64.515625 
Q 19.53125 74.21875 31.78125 74.21875 
z
" id="DejaVuSans-48"/>
       <path d="M 10.6875 12.40625 
L 21 12.40625 
L 21 0 
L 10.6875 0 
z
" id="DejaVuSans-46"/>
       <path d="M 8.203125 72.90625 
L 55.078125 72.90625 
L 55.078125 68.703125 
L 28.609375 0 
L 18.3125 0 
L 43.21875 64.59375 
L 8.203125 64.59375 
z
" id="DejaVuSans-55"/>
       <path d="M 10.796875 72.90625 
L 49.515625 72.90625 
L 49.515625 64.59375 
L 19.828125 64.59375 
L 19.828125 46.734375 
Q 21.96875 47.46875 24.109375 47.828125 
Q 26.265625 48.1875 28.421875 48.1875 
Q 40.625 48.1875 47.75 41.5 
Q 54.890625 34.8125 54.890625 23.390625 
Q 54.890625 11.625 47.5625 5.09375 
Q 40.234375 -1.421875 26.90625 -1.421875 
Q 22.3125 -1.421875 17.546875 -0.640625 
Q 12.796875 0.140625 7.71875 1.703125 
L 7.71875 11.625 
Q 12.109375 9.234375 16.796875 8.0625 
Q 21.484375 6.890625 26.703125 6.890625 
Q 35.15625 6.890625 40.078125 11.328125 
Q 45.015625 15.765625 45.015625 23.390625 
Q 45.015625 31 40.078125 35.4375 
Q 35.15625 39.890625 26.703125 39.890625 
Q 22.75 39.890625 18.8125 39.015625 
Q 14.890625 38.140625 10.796875 36.28125 
z
" id="DejaVuSans-53"/>
      </defs>
      <g transform="translate(76.907162 322.182437)scale(0.1 -0.1)">
       <use xlink:href="#DejaVuSans-8722"/>
       <use x="83.789062" xlink:href="#DejaVuSans-48"/>
       <use x="147.412109" xlink:href="#DejaVuSans-46"/>
       <use x="179.199219" xlink:href="#DejaVuSans-55"/>
       <use x="242.822266" xlink:href="#DejaVuSans-53"/>
      </g>
     </g>
    </g>
    <g id="xtick_2">
     <g id="line2d_2">
      <g>
       <use style="stroke:#000000;stroke-width:0.8;" x="128.302545" xlink:href="#m338fca3ebb" y="307.584"/>
      </g>
     </g>
     <g id="text_2">
      <!-- −0.50 -->
      <g transform="translate(112.979889 322.182437)scale(0.1 -0.1)">
       <use xlink:href="#DejaVuSans-8722"/>
       <use x="83.789062" xlink:href="#DejaVuSans-48"/>
       <use x="147.412109" xlink:href="#DejaVuSans-46"/>
       <use x="179.199219" xlink:href="#DejaVuSans-53"/>
       <use x="242.822266" xlink:href="#DejaVuSans-48"/>
      </g>
     </g>
    </g>
    <g id="xtick_3">
     <g id="line2d_3">
      <g>
       <use style="stroke:#000000;stroke-width:0.8;" x="164.375273" xlink:href="#m338fca3ebb" y="307.584"/>
      </g>
     </g>
     <g id="text_3">
      <!-- −0.25 -->
      <defs>
       <path d="M 19.1875 8.296875 
L 53.609375 8.296875 
L 53.609375 0 
L 7.328125 0 
L 7.328125 8.296875 
Q 12.9375 14.109375 22.625 23.890625 
Q 32.328125 33.6875 34.8125 36.53125 
Q 39.546875 41.84375 41.421875 45.53125 
Q 43.3125 49.21875 43.3125 52.78125 
Q 43.3125 58.59375 39.234375 62.25 
Q 35.15625 65.921875 28.609375 65.921875 
Q 23.96875 65.921875 18.8125 64.3125 
Q 13.671875 62.703125 7.8125 59.421875 
L 7.8125 69.390625 
Q 13.765625 71.78125 18.9375 73 
Q 24.125 74.21875 28.421875 74.21875 
Q 39.75 74.21875 46.484375 68.546875 
Q 53.21875 62.890625 53.21875 53.421875 
Q 53.21875 48.921875 51.53125 44.890625 
Q 49.859375 40.875 45.40625 35.40625 
Q 44.1875 33.984375 37.640625 27.21875 
Q 31.109375 20.453125 19.1875 8.296875 
z
" id="DejaVuSans-50"/>
      </defs>
      <g transform="translate(149.052616 322.182437)scale(0.1 -0.1)">
       <use xlink:href="#DejaVuSans-8722"/>
       <use x="83.789062" xlink:href="#DejaVuSans-48"/>
       <use x="147.412109" xlink:href="#DejaVuSans-46"/>
       <use x="179.199219" xlink:href="#DejaVuSans-50"/>
       <use x="242.822266" xlink:href="#DejaVuSans-53"/>
      </g>
     </g>
    </g>
    <g id="xtick_4">
     <g id="line2d_4">
      <g>
       <use style="stroke:#000000;stroke-width:0.8;" x="200.448" xlink:href="#m338fca3ebb" y="307.584"/>
      </g>
     </g>
     <g id="text_4">
      <!-- 0.00 -->
      <g transform="translate(189.315188 322.182437)scale(0.1 -0.1)">
       <use xlink:href="#DejaVuSans-48"/>
       <use x="63.623047" xlink:href="#DejaVuSans-46"/>
       <use x="95.410156" xlink:href="#DejaVuSans-48"/>
       <use x="159.033203" xlink:href="#DejaVuSans-48"/>
      </g>
     </g>
    </g>
    <g id="xtick_5">
     <g id="line2d_5">
      <g>
       <use style="stroke:#000000;stroke-width:0.8;" x="236.520727" xlink:href="#m338fca3ebb" y="307.584"/>
      </g>
     </g>
     <g id="text_5">
      <!-- 0.25 -->
      <g transform="translate(225.387915 322.182437)scale(0.1 -0.1)">
       <use xlink:href="#DejaVuSans-48"/>
       <use x="63.623047" xlink:href="#DejaVuSans-46"/>
       <use x="95.410156" xlink:href="#DejaVuSans-50"/>
       <use x="159.033203" xlink:href="#DejaVuSans-53"/>
      </g>
     </g>
    </g>
    <g id="xtick_6">
     <g id="line2d_6">
      <g>
       <use style="stroke:#000000;stroke-width:0.8;" x="272.593455" xlink:href="#m338fca3ebb" y="307.584"/>
      </g>
     </g>
     <g id="text_6">
      <!-- 0.50 -->
      <g transform="translate(261.460642 322.182437)scale(0.1 -0.1)">
       <use xlink:href="#DejaVuSans-48"/>
       <use x="63.623047" xlink:href="#DejaVuSans-46"/>
       <use x="95.410156" xlink:href="#DejaVuSans-53"/>
       <use x="159.033203" xlink:href="#DejaVuSans-48"/>
      </g>
     </g>
    </g>
    <g id="xtick_7">
     <g id="line2d_7">
      <g>
       <use style="stroke:#000000;stroke-width:0.8;" x="308.666182" xlink:href="#m338fca3ebb" y="307.584"/>
      </g>
     </g>
     <g id="text_7">
      <!-- 0.75 -->
      <g transform="translate(297.533369 322.182437)scale(0.1 -0.1)">
       <use xlink:href="#DejaVuSans-48"/>
       <use x="63.623047" xlink:href="#DejaVuSans-46"/>
       <use x="95.410156" xlink:href="#DejaVuSans-55"/>
       <use x="159.033203" xlink:href="#DejaVuSans-53"/>
      </g>
     </g>
    </g>
    <g id="text_8">
     <!-- x -->
     <defs>
      <path d="M 54.890625 54.6875 
L 35.109375 28.078125 
L 55.90625 0 
L 45.3125 0 
L 29.390625 21.484375 
L 13.484375 0 
L 2.875 0 
L 24.125 28.609375 
L 4.6875 54.6875 
L 15.28125 54.6875 
L 29.78125 35.203125 
L 44.28125 54.6875 
z
" id="DejaVuSans-120"/>
     </defs>
     <g transform="translate(197.488625 335.860562)scale(0.1 -0.1)">
      <use xlink:href="#DejaVuSans-120"/>
     </g>
    </g>
   </g>
   <g id="matplotlib.axis_2">
    <g id="ytick_1">
     <g id="line2d_8">
      <defs>
       <path d="M 0 0 
L -3.5 0 
" id="maa080a2f21" style="stroke:#000000;stroke-width:0.8;"/>
      </defs>
      <g>
       <use style="stroke:#000000;stroke-width:0.8;" x="57.6" xlink:href="#maa080a2f21" y="307.584"/>
      </g>
     </g>
     <g id="text_9">
      <!-- 0.00 -->
      <g transform="translate(28.334375 311.383219)scale(0.1 -0.1)">
       <use xlink:href="#DejaVuSans-48"/>
       <use x="63.623047" xlink:href="#DejaVuSans-46"/>
       <use x="95.410156" xlink:href="#DejaVuSans-48"/>
       <use x="159.033203" xlink:href="#DejaVuSans-48"/>
      </g>
     </g>
    </g>
    <g id="ytick_2">
     <g id="line2d_9">
      <g>
       <use style="stroke:#000000;stroke-width:0.8;" x="57.6" xlink:href="#maa080a2f21" y="263.232"/>
      </g>
     </g>
     <g id="text_10">
      <!-- 0.05 -->
      <g transform="translate(28.334375 267.031219)scale(0.1 -0.1)">
       <use xlink:href="#DejaVuSans-48"/>
       <use x="63.623047" xlink:href="#DejaVuSans-46"/>
       <use x="95.410156" xlink:href="#DejaVuSans-48"/>
       <use x="159.033203" xlink:href="#DejaVuSans-53"/>
      </g>
     </g>
    </g>
    <g id="ytick_3">
     <g id="line2d_10">
      <g>
       <use style="stroke:#000000;stroke-width:0.8;" x="57.6" xlink:href="#maa080a2f21" y="218.88"/>
      </g>
     </g>
     <g id="text_11">
      <!-- 0.10 -->
      <defs>
       <path d="M 12.40625 8.296875 
L 28.515625 8.296875 
L 28.515625 63.921875 
L 10.984375 60.40625 
L 10.984375 69.390625 
L 28.421875 72.90625 
L 38.28125 72.90625 
L 38.28125 8.296875 
L 54.390625 8.296875 
L 54.390625 0 
L 12.40625 0 
z
" id="DejaVuSans-49"/>
      </defs>
      <g transform="translate(28.334375 222.679219)scale(0.1 -0.1)">
       <use xlink:href="#DejaVuSans-48"/>
       <use x="63.623047" xlink:href="#DejaVuSans-46"/>
       <use x="95.410156" xlink:href="#DejaVuSans-49"/>
       <use x="159.033203" xlink:href="#DejaVuSans-48"/>
      </g>
     </g>
    </g>
    <g id="ytick_4">
     <g id="line2d_11">
      <g>
       <use style="stroke:#000000;stroke-width:0.8;" x="57.6" xlink:href="#maa080a2f21" y="174.528"/>
      </g>
     </g>
     <g id="text_12">
      <!-- 0.15 -->
      <g transform="translate(28.334375 178.327219)scale(0.1 -0.1)">
       <use xlink:href="#DejaVuSans-48"/>
       <use x="63.623047" xlink:href="#DejaVuSans-46"/>
       <use x="95.410156" xlink:href="#DejaVuSans-49"/>
       <use x="159.033203" xlink:href="#DejaVuSans-53"/>
      </g>
     </g>
    </g>
    <g id="ytick_5">
     <g id="line2d_12">
      <g>
       <use style="stroke:#000000;stroke-width:0.8;" x="57.6" xlink:href="#maa080a2f21" y="130.176"/>
      </g>
     </g>
     <g id="text_13">
      <!-- 0.20 -->
      <g transform="translate(28.334375 133.975219)scale(0.1 -0.1)">
       <use xlink:href="#DejaVuSans-48"/>
       <use x="63.623047" xlink:href="#DejaVuSans-46"/>
       <use x="95.410156" xlink:href="#DejaVuSans-50"/>
       <use x="159.033203" xlink:href="#DejaVuSans-48"/>
      </g>
     </g>
    </g>
    <g id="ytick_6">
     <g id="line2d_13">
      <g>
       <use style="stroke:#000000;stroke-width:0.8;" x="57.6" xlink:href="#maa080a2f21" y="85.824"/>
      </g>
     </g>
     <g id="text_14">
      <!-- 0.25 -->
      <g transform="translate(28.334375 89.623219)scale(0.1 -0.1)">
       <use xlink:href="#DejaVuSans-48"/>
       <use x="63.623047" xlink:href="#DejaVuSans-46"/>
       <use x="95.410156" xlink:href="#DejaVuSans-50"/>
       <use x="159.033203" xlink:href="#DejaVuSans-53"/>
      </g>
     </g>
    </g>
    <g id="ytick_7">
     <g id="line2d_14">
      <g>
       <use style="stroke:#000000;stroke-width:0.8;" x="57.6" xlink:href="#maa080a2f21" y="41.472"/>
      </g>
     </g>
     <g id="text_15">
      <!-- 0.30 -->
      <defs>
       <path d="M 40.578125 39.3125 
Q 47.65625 37.796875 51.625 33 
Q 55.609375 28.21875 55.609375 21.1875 
Q 55.609375 10.40625 48.1875 4.484375 
Q 40.765625 -1.421875 27.09375 -1.421875 
Q 22.515625 -1.421875 17.65625 -0.515625 
Q 12.796875 0.390625 7.625 2.203125 
L 7.625 11.71875 
Q 11.71875 9.328125 16.59375 8.109375 
Q 21.484375 6.890625 26.8125 6.890625 
Q 36.078125 6.890625 40.9375 10.546875 
Q 45.796875 14.203125 45.796875 21.1875 
Q 45.796875 27.640625 41.28125 31.265625 
Q 36.765625 34.90625 28.71875 34.90625 
L 20.21875 34.90625 
L 20.21875 43.015625 
L 29.109375 43.015625 
Q 36.375 43.015625 40.234375 45.921875 
Q 44.09375 48.828125 44.09375 54.296875 
Q 44.09375 59.90625 40.109375 62.90625 
Q 36.140625 65.921875 28.71875 65.921875 
Q 24.65625 65.921875 20.015625 65.03125 
Q 15.375 64.15625 9.8125 62.3125 
L 9.8125 71.09375 
Q 15.4375 72.65625 20.34375 73.4375 
Q 25.25 74.21875 29.59375 74.21875 
Q 40.828125 74.21875 47.359375 69.109375 
Q 53.90625 64.015625 53.90625 55.328125 
Q 53.90625 49.265625 50.4375 45.09375 
Q 46.96875 40.921875 40.578125 39.3125 
z
" id="DejaVuSans-51"/>
      </defs>
      <g transform="translate(28.334375 45.271219)scale(0.1 -0.1)">
       <use xlink:href="#DejaVuSans-48"/>
       <use x="63.623047" xlink:href="#DejaVuSans-46"/>
       <use x="95.410156" xlink:href="#DejaVuSans-51"/>
       <use x="159.033203" xlink:href="#DejaVuSans-48"/>
      </g>
     </g>
    </g>
    <g id="text_16">
     <!-- t -->
     <defs>
      <path d="M 18.3125 70.21875 
L 18.3125 54.6875 
L 36.8125 54.6875 
L 36.8125 47.703125 
L 18.3125 47.703125 
L 18.3125 18.015625 
Q 18.3125 11.328125 20.140625 9.421875 
Q 21.96875 7.515625 27.59375 7.515625 
L 36.8125 7.515625 
L 36.8125 0 
L 27.59375 0 
Q 17.1875 0 13.234375 3.875 
Q 9.28125 7.765625 9.28125 18.015625 
L 9.28125 47.703125 
L 2.6875 47.703125 
L 2.6875 54.6875 
L 9.28125 54.6875 
L 9.28125 70.21875 
z
" id="DejaVuSans-116"/>
     </defs>
     <g transform="translate(22.254688 176.488156)rotate(-90)scale(0.1 -0.1)">
      <use xlink:href="#DejaVuSans-116"/>
     </g>
    </g>
   </g>
   <g id="LineCollection_1">
    <path clip-path="url(#pb52e043a1d)" d="M 57.6 307.584 
L 60.485818 307.584 
L 63.371636 307.584 
L 66.257455 307.584 
L 69.143273 307.584 
L 72.029091 307.584 
L 74.914909 307.584 
L 77.800727 307.584 
L 80.686545 307.584 
L 83.572364 307.584 
L 86.458182 307.584 
L 89.344 307.584 
L 92.229818 307.584 
L 95.115636 307.584 
L 98.001455 307.584 
L 100.887273 307.584 
L 103.773091 307.584 
L 106.658909 307.584 
L 109.544727 307.584 
L 112.430545 307.584 
L 115.316364 307.584 
L 118.202182 307.584 
L 121.088 307.584 
L 123.973818 307.584 
L 126.859636 307.584 
L 129.745455 307.584 
L 132.631273 307.584 
L 135.517091 307.584 
L 138.402909 307.584 
L 141.288727 307.584 
L 144.174545 307.584 
L 147.060364 307.584 
L 149.946182 307.584 
L 152.832 307.584 
L 155.717818 307.584 
L 158.603636 307.584 
L 161.489455 307.584 
L 164.375273 307.584 
L 167.261091 307.584 
L 170.146909 307.584 
L 173.032727 307.584 
L 175.918545 307.584 
L 178.804364 307.584 
L 181.690182 307.584 
L 184.576 307.584 
L 187.461818 307.584 
L 190.347636 307.584 
L 193.233455 307.584 
L 196.119273 307.584 
L 199.005091 307.584 
L 201.890909 289.8432 
L 204.776727 307.584 
L 207.662545 307.584 
L 210.548364 307.584 
L 213.434182 307.584 
L 216.32 307.584 
L 219.205818 307.584 
L 222.091636 307.584 
L 224.977455 307.584 
L 227.863273 307.584 
L 230.749091 307.584 
L 233.634909 307.584 
L 236.520727 307.584 
L 239.406545 307.584 
L 242.292364 307.584 
L 245.178182 307.584 
L 248.064 307.584 
L 250.949818 307.584 
L 253.835636 307.584 
L 256.721455 307.584 
L 259.607273 307.584 
L 262.493091 307.584 
L 265.378909 307.584 
L 268.264727 307.584 
L 271.150545 307.584 
L 274.036364 307.584 
L 276.922182 307.584 
L 279.808 307.584 
L 282.693818 307.584 
L 285.579636 307.584 
L 288.465455 307.584 
L 291.351273 307.584 
L 294.237091 307.584 
L 297.122909 307.584 
L 300.008727 307.584 
L 302.894545 307.584 
L 305.780364 307.584 
L 308.666182 307.584 
L 311.552 307.584 
L 314.437818 307.584 
L 317.323636 307.584 
L 320.209455 307.584 
L 323.095273 307.584 
L 325.981091 307.584 
L 328.866909 307.584 
L 331.752727 307.584 
L 334.638545 307.584 
L 337.524364 307.584 
L 340.410182 307.584 
L 343.296 307.584 
" style="fill:none;stroke:#000000;"/>
   </g>
   <g id="LineCollection_2">
    <path clip-path="url(#pb52e043a1d)" d="M 57.6 292.503601 
L 58.13776 289.8432 
L 60.485818 277.054728 
L 61.513631 272.1024 
L 62.335339 263.232 
L 63.371636 256.978439 
L 65.400923 245.4912 
L 66.257455 240.361915 
L 68.509626 227.7504 
L 69.143273 223.988051 
L 71.668827 210.0096 
L 72.029091 207.890653 
L 74.887413 192.2688 
L 74.914909 191.974129 
L 75.736294 183.3984 
L 77.800727 171.48543 
L 78.890237 165.6576 
L 80.686545 155.417104 
L 82.110112 147.9168 
L 83.572364 139.692299 
L 85.408824 130.176 
L 86.458182 124.36155 
L 88.802286 112.4352 
L 89.013674 103.5648 
L 89.344 101.60906 
L 92.141799 85.824 
L 92.229818 85.306276 
L 95.115636 69.747602 
L 95.45925 68.0832 
L 98.001455 54.892431 
L 98.964251 50.3424 
L 100.208468 41.472 
" style="fill:none;stroke:#000000;"/>
   </g>
   <g id="LineCollection_3">
    <path clip-path="url(#pb52e043a1d)" d="M 57.6 282.305813 
L 59.371101 272.1024 
L 60.485818 264.654882 
L 60.70446 263.232 
L 63.371636 247.136858 
L 63.662351 245.4912 
L 66.257455 229.950589 
L 66.650366 227.7504 
L 69.143273 212.948476 
L 69.674254 210.0096 
L 72.029091 196.159266 
L 72.740927 192.2688 
L 73.901268 183.3984 
L 74.914909 177.253603 
L 76.89474 165.6576 
L 77.800727 160.186956 
L 79.910963 147.9168 
L 80.686545 143.254394 
L 82.953162 130.176 
L 83.572364 126.472262 
L 86.02509 112.4352 
L 86.458182 108.89643 
L 87.113635 103.5648 
L 89.344 90.359615 
L 90.147908 85.824 
L 92.229818 73.578347 
L 93.213003 68.0832 
L 95.115636 56.972878 
L 96.314 50.3424 
L 97.672546 41.472 
" style="fill:none;stroke:#000000;"/>
   </g>
   <g id="LineCollection_4">
    <path clip-path="url(#pb52e043a1d)" d="M 57.6 273.153895 
L 57.782518 272.1024 
L 59.199536 263.232 
L 60.485818 255.337469 
L 62.115226 245.4912 
L 63.371636 237.792239 
L 65.04353 227.7504 
L 66.257455 220.327231 
L 67.986116 210.0096 
L 69.143273 202.951711 
L 70.944912 192.2688 
L 72.029091 185.098035 
L 72.28512 183.3984 
L 74.914909 167.456344 
L 75.222016 165.6576 
L 77.800727 150.086511 
L 78.173877 147.9168 
L 80.686545 132.811916 
L 81.143376 130.176 
L 83.572364 115.647084 
L 84.133583 112.4352 
L 85.399575 103.5648 
L 86.458182 97.125119 
L 88.357769 85.824 
L 89.344 79.83933 
L 91.329684 68.0832 
L 92.229818 62.636161 
L 94.317104 50.3424 
L 95.115636 45.336181 
L 95.784407 41.472 
" style="fill:none;stroke:#000000;"/>
   </g>
   <g id="LineCollection_5">
    <path clip-path="url(#pb52e043a1d)" d="M 57.6 263.940408 
L 57.714113 263.232 
L 60.485818 246.22071 
L 60.606541 245.4912 
L 63.371636 228.547406 
L 63.504332 227.7504 
L 66.257455 210.915011 
L 66.409151 210.0096 
L 69.143273 193.33327 
L 69.322792 192.2688 
L 70.726939 183.3984 
L 72.029091 175.413842 
L 73.637756 165.6576 
L 74.914909 157.835172 
L 76.555955 147.9168 
L 77.800727 140.303237 
L 79.482654 130.176 
L 80.686545 122.824638 
L 82.419075 112.4352 
L 83.572364 104.954215 
L 83.783461 103.5648 
L 86.458182 87.294023 
L 86.705276 85.824 
L 89.344 69.811637 
L 89.635944 68.0832 
L 92.229818 52.386728 
L 92.576913 50.3424 
L 94.03765 41.472 
" style="fill:none;stroke:#000000;"/>
   </g>
   <g id="LineCollection_6">
    <path clip-path="url(#pb52e043a1d)" d="M 57.6 254.385733 
L 59.049337 245.4912 
L 60.485818 236.662318 
L 61.940353 227.7504 
L 63.371636 218.956225 
L 64.83487 210.0096 
L 66.257455 201.273175 
L 67.7338 192.2688 
L 69.143273 183.626985 
L 69.17967 183.3984 
L 72.029091 165.92627 
L 72.073391 165.6576 
L 74.914909 148.253599 
L 74.970634 147.9168 
L 77.800727 130.606736 
L 77.872264 130.176 
L 80.686545 112.99106 
L 80.77924 112.4352 
L 82.183916 103.5648 
L 83.572364 95.050609 
L 85.089046 85.824 
L 86.458182 77.435105 
L 87.998981 68.0832 
L 89.344 59.850121 
L 90.914436 50.3424 
L 92.229818 42.305676 
L 92.368435 41.472 
" style="fill:none;stroke:#000000;"/>
   </g>
   <g id="LineCollection_7">
    <path clip-path="url(#pb52e043a1d)" d="M 57.6 244.756809 
L 60.367026 227.7504 
L 60.485818 227.020137 
L 63.254438 210.0096 
L 63.371636 209.289175 
L 66.143297 192.2688 
L 66.257455 191.577563 
L 67.566118 183.3984 
L 69.143273 173.705992 
L 70.455991 165.6576 
L 72.029091 155.992387 
L 73.347763 147.9168 
L 74.914909 138.291334 
L 76.241913 130.176 
L 77.800727 120.60589 
L 79.138962 112.4352 
L 80.582184 103.5648 
L 80.686545 102.923538 
L 83.475388 85.824 
L 83.572364 85.228247 
L 86.370982 68.0832 
L 86.458182 67.547651 
L 89.269418 50.3424 
L 89.344 49.890362 
L 90.709645 41.472 
" style="fill:none;stroke:#000000;"/>
   </g>
   <g id="LineCollection_8">
    <path clip-path="url(#pb52e043a1d)" d="M 57.6 234.526329 
L 58.702477 227.7504 
L 60.485818 216.787493 
L 61.588982 210.0096 
L 63.371636 199.051513 
L 64.476158 192.2688 
L 65.930771 183.3984 
L 66.257455 181.390149 
L 68.817522 165.6576 
L 69.143273 163.655148 
L 71.704925 147.9168 
L 72.029091 145.924198 
L 74.593237 130.176 
L 74.914909 128.198895 
L 77.482758 112.4352 
L 77.800727 110.508265 
L 78.91021 103.5648 
L 80.686545 92.649833 
L 81.799802 85.824 
L 83.572364 74.934582 
L 84.690728 68.0832 
L 86.458182 57.228201 
L 87.583281 50.3424 
L 89.038537 41.472 
" style="fill:none;stroke:#000000;"/>
   </g>
   <g id="LineCollection_9">
    <path clip-path="url(#pb52e043a1d)" d="M 57.6 224.05344 
L 59.884523 210.0096 
L 60.485818 206.313103 
L 62.770549 192.2688 
L 63.371636 188.635742 
L 64.209183 183.3984 
L 66.257455 170.806862 
L 67.095364 165.6576 
L 69.143273 153.068712 
L 69.981824 147.9168 
L 72.029091 135.332543 
L 72.868687 130.176 
L 74.914909 117.599228 
L 75.75611 112.4352 
L 77.201169 103.5648 
L 77.800727 99.879224 
L 80.08819 85.824 
L 80.686545 82.145977 
L 82.975764 68.0832 
L 83.572364 64.4162 
L 85.864056 50.3424 
L 86.458182 46.750066 
L 87.305446 41.472 
" style="fill:none;stroke:#000000;"/>
   </g>
   <g id="LineCollection_10">
    <path clip-path="url(#pb52e043a1d)" d="M 57.6 213.105077 
L 58.103544 210.0096 
L 60.485818 195.364432 
L 60.989416 192.2688 
L 62.424862 183.3984 
L 63.371636 177.578036 
L 65.310744 165.6576 
L 66.257455 159.837647 
L 68.196697 147.9168 
L 69.143273 142.097716 
L 71.082771 130.176 
L 72.029091 124.358551 
L 73.969029 112.4352 
L 74.914909 106.718226 
L 75.419013 103.5648 
L 77.800727 88.924044 
L 78.305254 85.824 
L 80.686545 71.186482 
L 81.191715 68.0832 
L 83.572364 53.45055 
L 84.078476 50.3424 
L 85.514559 41.472 
" style="fill:none;stroke:#000000;"/>
   </g>
   <g id="LineCollection_11">
    <path clip-path="url(#pb52e043a1d)" d="M 57.6 201.588996 
L 59.116082 192.2688 
L 60.485818 183.994598 
L 60.581107 183.3984 
L 63.371636 166.243427 
L 63.466933 165.6576 
L 66.257455 148.502727 
L 66.352771 147.9168 
L 69.143273 130.762156 
L 69.238632 130.176 
L 72.029091 113.021816 
L 72.124534 112.4352 
L 73.545304 103.5648 
L 74.914909 95.145106 
L 76.431246 85.824 
L 77.800727 77.405127 
L 79.317269 68.0832 
L 80.686545 59.665675 
L 82.203408 50.3424 
L 83.572364 42.072327 
L 83.668392 41.472 
" style="fill:none;stroke:#000000;"/>
   </g>
   <g id="LineCollection_12">
    <path clip-path="url(#pb52e043a1d)" d="M 57.6 189.715588 
L 58.609162 183.3984 
L 60.485818 171.861505 
L 61.494982 165.6576 
L 63.371636 154.120719 
L 64.380806 147.9168 
L 66.257455 136.379959 
L 67.266637 130.176 
L 69.143273 118.639254 
L 70.152483 112.4352 
L 71.606241 103.5648 
L 72.029091 100.9653 
L 74.492081 85.824 
L 74.914909 83.224632 
L 77.377938 68.0832 
L 77.800727 65.484076 
L 80.263824 50.3424 
L 80.686545 47.790046 
L 81.695986 41.472 
" style="fill:none;stroke:#000000;"/>
   </g>
   <g id="LineCollection_13">
    <path clip-path="url(#pb52e043a1d)" d="M 57.6 176.987179 
L 59.442933 165.6576 
L 60.485818 159.24638 
L 62.328752 147.9168 
L 63.371636 141.505583 
L 65.214571 130.176 
L 66.257455 123.764792 
L 68.100393 112.4352 
L 69.143273 106.139904 
L 69.554542 103.5648 
L 72.029091 88.352322 
L 72.440365 85.824 
L 74.914909 70.611566 
L 75.326194 68.0832 
L 77.800727 52.870849 
L 78.21203 50.3424 
L 79.643714 41.472 
" style="fill:none;stroke:#000000;"/>
   </g>
   <g id="LineCollection_14">
    <path clip-path="url(#pb52e043a1d)" d="M 57.6 163.768521 
L 60.17853 147.9168 
L 60.485818 146.027721 
L 63.064348 130.176 
L 63.371636 128.286922 
L 65.950167 112.4352 
L 66.257455 110.58114 
L 67.377487 103.5648 
L 69.143273 92.709493 
L 70.263306 85.824 
L 72.029091 74.968699 
L 73.149127 68.0832 
L 74.914909 57.227912 
L 76.034949 50.3424 
L 77.493446 41.472 
" style="fill:none;stroke:#000000;"/>
   </g>
   <g id="LineCollection_15">
    <path clip-path="url(#pb52e043a1d)" d="M 57.6 149.672402 
L 57.885576 147.9168 
L 60.485818 131.931602 
L 60.771394 130.176 
L 63.371636 114.190802 
L 63.657212 112.4352 
L 65.083592 103.5648 
L 66.257455 96.348385 
L 67.96941 85.824 
L 69.143273 78.607586 
L 70.855229 68.0832 
L 72.029091 60.866787 
L 73.741047 50.3424 
L 74.914909 43.261402 
L 75.200486 41.472 
" style="fill:none;stroke:#000000;"/>
   </g>
   <g id="LineCollection_16">
    <path clip-path="url(#pb52e043a1d)" d="M 57.6 134.595276 
L 58.318864 130.176 
L 60.485818 116.854476 
L 61.204682 112.4352 
L 62.647874 103.5648 
L 63.371636 99.11541 
L 65.533692 85.824 
L 66.257455 81.37461 
L 68.41951 68.0832 
L 69.143273 63.63381 
L 71.305328 50.3424 
L 72.029091 45.97852 
L 72.747955 41.472 
" style="fill:none;stroke:#000000;"/>
   </g>
   <g id="LineCollection_17">
    <path clip-path="url(#pb52e043a1d)" d="M 57.6 118.498236 
L 58.586247 112.4352 
L 60.040347 103.5648 
L 60.485818 100.826231 
L 62.926165 85.824 
L 63.371636 83.085431 
L 65.811984 68.0832 
L 66.257455 65.344631 
L 68.697802 50.3424 
L 69.143273 47.657698 
L 70.12952 41.472 
" style="fill:none;stroke:#000000;"/>
   </g>
   <g id="LineCollection_18">
    <path clip-path="url(#pb52e043a1d)" d="M 57.6 101.260105 
L 60.110924 85.824 
L 60.485818 83.519305 
L 62.996742 68.0832 
L 63.371636 65.778505 
L 65.88256 50.3424 
L 66.257455 48.084071 
L 67.31118 41.472 
" style="fill:none;stroke:#000000;"/>
   </g>
   <g id="LineCollection_19">
    <path clip-path="url(#pb52e043a1d)" d="M 57.6 82.412372 
L 59.930864 68.0832 
L 60.485818 64.671572 
L 62.816682 50.3424 
L 63.371636 47.00093 
L 64.252329 41.472 
" style="fill:none;stroke:#000000;"/>
   </g>
   <g id="LineCollection_20">
    <path clip-path="url(#pb52e043a1d)" d="M 57.6 61.708888 
L 59.448937 50.3424 
L 60.485818 44.102 
L 60.904547 41.472 
" style="fill:none;stroke:#000000;"/>
   </g>
   <g id="LineCollection_21"/>
   <g id="patch_3">
    <path d="M 57.6 307.584 
L 57.6 41.472 
" style="fill:none;stroke:#000000;stroke-linecap:square;stroke-linejoin:miter;stroke-width:0.8;"/>
   </g>
   <g id="patch_4">
    <path d="M 343.296 307.584 
L 343.296 41.472 
" style="fill:none;stroke:#000000;stroke-linecap:square;stroke-linejoin:miter;stroke-width:0.8;"/>
   </g>
   <g id="patch_5">
    <path d="M 57.6 307.584 
L 343.296 307.584 
" style="fill:none;stroke:#000000;stroke-linecap:square;stroke-linejoin:miter;stroke-width:0.8;"/>
   </g>
   <g id="patch_6">
    <path d="M 57.6 41.472 
L 343.296 41.472 
" style="fill:none;stroke:#000000;stroke-linecap:square;stroke-linejoin:miter;stroke-width:0.8;"/>
   </g>
  </g>
  <g id="axes_2">
   <g id="patch_7">
    <path clip-path="url(#p2b36c1802f)" d="M 361.152 307.584 
L 361.152 294.2784 
L 361.152 54.7776 
L 361.152 41.472 
L 374.4576 41.472 
L 374.4576 54.7776 
L 374.4576 294.2784 
L 374.4576 307.584 
z
" style="fill:#ffffff;stroke:#ffffff;stroke-linejoin:miter;stroke-width:0.01;"/>
   </g>
   <g id="QuadMesh_1">
    <path clip-path="url(#p2b36c1802f)" d="M 361.152 307.584 
L 374.4576 307.584 
L 374.4576 294.2784 
L 361.152 294.2784 
L 361.152 307.584 
" style="fill:#4257c9;"/>
    <path clip-path="url(#p2b36c1802f)" d="M 361.152 294.2784 
L 374.4576 294.2784 
L 374.4576 280.9728 
L 361.152 280.9728 
L 361.152 294.2784 
" style="fill:#516ddb;"/>
    <path clip-path="url(#p2b36c1802f)" d="M 361.152 280.9728 
L 374.4576 280.9728 
L 374.4576 267.6672 
L 361.152 267.6672 
L 361.152 280.9728 
" style="fill:#6282ea;"/>
    <path clip-path="url(#p2b36c1802f)" d="M 361.152 267.6672 
L 374.4576 267.6672 
L 374.4576 254.3616 
L 361.152 254.3616 
L 361.152 267.6672 
" style="fill:#7295f4;"/>
    <path clip-path="url(#p2b36c1802f)" d="M 361.152 254.3616 
L 374.4576 254.3616 
L 374.4576 241.056 
L 361.152 241.056 
L 361.152 254.3616 
" style="fill:#84a7fc;"/>
    <path clip-path="url(#p2b36c1802f)" d="M 361.152 241.056 
L 374.4576 241.056 
L 374.4576 227.7504 
L 361.152 227.7504 
L 361.152 241.056 
" style="fill:#96b7ff;"/>
    <path clip-path="url(#p2b36c1802f)" d="M 361.152 227.7504 
L 374.4576 227.7504 
L 374.4576 214.4448 
L 361.152 214.4448 
L 361.152 227.7504 
" style="fill:#a7c5fe;"/>
    <path clip-path="url(#p2b36c1802f)" d="M 361.152 214.4448 
L 374.4576 214.4448 
L 374.4576 201.1392 
L 361.152 201.1392 
L 361.152 214.4448 
" style="fill:#b9d0f9;"/>
    <path clip-path="url(#p2b36c1802f)" d="M 361.152 201.1392 
L 374.4576 201.1392 
L 374.4576 187.8336 
L 361.152 187.8336 
L 361.152 201.1392 
" style="fill:#c7d7f0;"/>
    <path clip-path="url(#p2b36c1802f)" d="M 361.152 187.8336 
L 374.4576 187.8336 
L 374.4576 174.528 
L 361.152 174.528 
L 361.152 187.8336 
" style="fill:#d6dce4;"/>
    <path clip-path="url(#p2b36c1802f)" d="M 361.152 174.528 
L 374.4576 174.528 
L 374.4576 161.2224 
L 361.152 161.2224 
L 361.152 174.528 
" style="fill:#e3d9d3;"/>
    <path clip-path="url(#p2b36c1802f)" d="M 361.152 161.2224 
L 374.4576 161.2224 
L 374.4576 147.9168 
L 361.152 147.9168 
L 361.152 161.2224 
" style="fill:#eed0c0;"/>
    <path clip-path="url(#p2b36c1802f)" d="M 361.152 147.9168 
L 374.4576 147.9168 
L 374.4576 134.6112 
L 361.152 134.6112 
L 361.152 147.9168 
" style="fill:#f5c4ac;"/>
    <path clip-path="url(#p2b36c1802f)" d="M 361.152 134.6112 
L 374.4576 134.6112 
L 374.4576 121.3056 
L 361.152 121.3056 
L 361.152 134.6112 
" style="fill:#f7b599;"/>
    <path clip-path="url(#p2b36c1802f)" d="M 361.152 121.3056 
L 374.4576 121.3056 
L 374.4576 108 
L 361.152 108 
L 361.152 121.3056 
" style="fill:#f6a385;"/>
    <path clip-path="url(#p2b36c1802f)" d="M 361.152 108 
L 374.4576 108 
L 374.4576 94.6944 
L 361.152 94.6944 
L 361.152 108 
" style="fill:#f18f71;"/>
    <path clip-path="url(#p2b36c1802f)" d="M 361.152 94.6944 
L 374.4576 94.6944 
L 374.4576 81.3888 
L 361.152 81.3888 
L 361.152 94.6944 
" style="fill:#e9785d;"/>
    <path clip-path="url(#p2b36c1802f)" d="M 361.152 81.3888 
L 374.4576 81.3888 
L 374.4576 68.0832 
L 361.152 68.0832 
L 361.152 81.3888 
" style="fill:#dd5f4b;"/>
    <path clip-path="url(#p2b36c1802f)" d="M 361.152 68.0832 
L 374.4576 68.0832 
L 374.4576 54.7776 
L 361.152 54.7776 
L 361.152 68.0832 
" style="fill:#cf453c;"/>
    <path clip-path="url(#p2b36c1802f)" d="M 361.152 54.7776 
L 374.4576 54.7776 
L 374.4576 41.472 
L 361.152 41.472 
L 361.152 54.7776 
" style="fill:#bd1f2d;"/>
   </g>
   <g id="matplotlib.axis_3"/>
   <g id="matplotlib.axis_4">
    <g id="ytick_8">
     <g id="line2d_15">
      <defs>
       <path d="M 0 0 
L 3.5 0 
" id="mc485f4b46b" style="stroke:#000000;stroke-width:0.8;"/>
      </defs>
      <g>
       <use style="stroke:#000000;stroke-width:0.8;" x="374.4576" xlink:href="#mc485f4b46b" y="307.584"/>
      </g>
     </g>
     <g id="text_17">
      <!-- 0.0000 -->
      <g transform="translate(381.4576 311.383219)scale(0.1 -0.1)">
       <use xlink:href="#DejaVuSans-48"/>
       <use x="63.623047" xlink:href="#DejaVuSans-46"/>
       <use x="95.410156" xlink:href="#DejaVuSans-48"/>
       <use x="159.033203" xlink:href="#DejaVuSans-48"/>
       <use x="222.65625" xlink:href="#DejaVuSans-48"/>
       <use x="286.279297" xlink:href="#DejaVuSans-48"/>
      </g>
     </g>
    </g>
    <g id="ytick_9">
     <g id="line2d_16">
      <g>
       <use style="stroke:#000000;stroke-width:0.8;" x="374.4576" xlink:href="#mc485f4b46b" y="267.6672"/>
      </g>
     </g>
     <g id="text_18">
      <!-- 0.0015 -->
      <g transform="translate(381.4576 271.466419)scale(0.1 -0.1)">
       <use xlink:href="#DejaVuSans-48"/>
       <use x="63.623047" xlink:href="#DejaVuSans-46"/>
       <use x="95.410156" xlink:href="#DejaVuSans-48"/>
       <use x="159.033203" xlink:href="#DejaVuSans-48"/>
       <use x="222.65625" xlink:href="#DejaVuSans-49"/>
       <use x="286.279297" xlink:href="#DejaVuSans-53"/>
      </g>
     </g>
    </g>
    <g id="ytick_10">
     <g id="line2d_17">
      <g>
       <use style="stroke:#000000;stroke-width:0.8;" x="374.4576" xlink:href="#mc485f4b46b" y="227.7504"/>
      </g>
     </g>
     <g id="text_19">
      <!-- 0.0030 -->
      <g transform="translate(381.4576 231.549619)scale(0.1 -0.1)">
       <use xlink:href="#DejaVuSans-48"/>
       <use x="63.623047" xlink:href="#DejaVuSans-46"/>
       <use x="95.410156" xlink:href="#DejaVuSans-48"/>
       <use x="159.033203" xlink:href="#DejaVuSans-48"/>
       <use x="222.65625" xlink:href="#DejaVuSans-51"/>
       <use x="286.279297" xlink:href="#DejaVuSans-48"/>
      </g>
     </g>
    </g>
    <g id="ytick_11">
     <g id="line2d_18">
      <g>
       <use style="stroke:#000000;stroke-width:0.8;" x="374.4576" xlink:href="#mc485f4b46b" y="187.8336"/>
      </g>
     </g>
     <g id="text_20">
      <!-- 0.0045 -->
      <defs>
       <path d="M 37.796875 64.3125 
L 12.890625 25.390625 
L 37.796875 25.390625 
z
M 35.203125 72.90625 
L 47.609375 72.90625 
L 47.609375 25.390625 
L 58.015625 25.390625 
L 58.015625 17.1875 
L 47.609375 17.1875 
L 47.609375 0 
L 37.796875 0 
L 37.796875 17.1875 
L 4.890625 17.1875 
L 4.890625 26.703125 
z
" id="DejaVuSans-52"/>
      </defs>
      <g transform="translate(381.4576 191.632819)scale(0.1 -0.1)">
       <use xlink:href="#DejaVuSans-48"/>
       <use x="63.623047" xlink:href="#DejaVuSans-46"/>
       <use x="95.410156" xlink:href="#DejaVuSans-48"/>
       <use x="159.033203" xlink:href="#DejaVuSans-48"/>
       <use x="222.65625" xlink:href="#DejaVuSans-52"/>
       <use x="286.279297" xlink:href="#DejaVuSans-53"/>
      </g>
     </g>
    </g>
    <g id="ytick_12">
     <g id="line2d_19">
      <g>
       <use style="stroke:#000000;stroke-width:0.8;" x="374.4576" xlink:href="#mc485f4b46b" y="147.9168"/>
      </g>
     </g>
     <g id="text_21">
      <!-- 0.0060 -->
      <defs>
       <path d="M 33.015625 40.375 
Q 26.375 40.375 22.484375 35.828125 
Q 18.609375 31.296875 18.609375 23.390625 
Q 18.609375 15.53125 22.484375 10.953125 
Q 26.375 6.390625 33.015625 6.390625 
Q 39.65625 6.390625 43.53125 10.953125 
Q 47.40625 15.53125 47.40625 23.390625 
Q 47.40625 31.296875 43.53125 35.828125 
Q 39.65625 40.375 33.015625 40.375 
z
M 52.59375 71.296875 
L 52.59375 62.3125 
Q 48.875 64.0625 45.09375 64.984375 
Q 41.3125 65.921875 37.59375 65.921875 
Q 27.828125 65.921875 22.671875 59.328125 
Q 17.53125 52.734375 16.796875 39.40625 
Q 19.671875 43.65625 24.015625 45.921875 
Q 28.375 48.1875 33.59375 48.1875 
Q 44.578125 48.1875 50.953125 41.515625 
Q 57.328125 34.859375 57.328125 23.390625 
Q 57.328125 12.15625 50.6875 5.359375 
Q 44.046875 -1.421875 33.015625 -1.421875 
Q 20.359375 -1.421875 13.671875 8.265625 
Q 6.984375 17.96875 6.984375 36.375 
Q 6.984375 53.65625 15.1875 63.9375 
Q 23.390625 74.21875 37.203125 74.21875 
Q 40.921875 74.21875 44.703125 73.484375 
Q 48.484375 72.75 52.59375 71.296875 
z
" id="DejaVuSans-54"/>
      </defs>
      <g transform="translate(381.4576 151.716019)scale(0.1 -0.1)">
       <use xlink:href="#DejaVuSans-48"/>
       <use x="63.623047" xlink:href="#DejaVuSans-46"/>
       <use x="95.410156" xlink:href="#DejaVuSans-48"/>
       <use x="159.033203" xlink:href="#DejaVuSans-48"/>
       <use x="222.65625" xlink:href="#DejaVuSans-54"/>
       <use x="286.279297" xlink:href="#DejaVuSans-48"/>
      </g>
     </g>
    </g>
    <g id="ytick_13">
     <g id="line2d_20">
      <g>
       <use style="stroke:#000000;stroke-width:0.8;" x="374.4576" xlink:href="#mc485f4b46b" y="108"/>
      </g>
     </g>
     <g id="text_22">
      <!-- 0.0075 -->
      <g transform="translate(381.4576 111.799219)scale(0.1 -0.1)">
       <use xlink:href="#DejaVuSans-48"/>
       <use x="63.623047" xlink:href="#DejaVuSans-46"/>
       <use x="95.410156" xlink:href="#DejaVuSans-48"/>
       <use x="159.033203" xlink:href="#DejaVuSans-48"/>
       <use x="222.65625" xlink:href="#DejaVuSans-55"/>
       <use x="286.279297" xlink:href="#DejaVuSans-53"/>
      </g>
     </g>
    </g>
    <g id="ytick_14">
     <g id="line2d_21">
      <g>
       <use style="stroke:#000000;stroke-width:0.8;" x="374.4576" xlink:href="#mc485f4b46b" y="68.0832"/>
      </g>
     </g>
     <g id="text_23">
      <!-- 0.0090 -->
      <defs>
       <path d="M 10.984375 1.515625 
L 10.984375 10.5 
Q 14.703125 8.734375 18.5 7.8125 
Q 22.3125 6.890625 25.984375 6.890625 
Q 35.75 6.890625 40.890625 13.453125 
Q 46.046875 20.015625 46.78125 33.40625 
Q 43.953125 29.203125 39.59375 26.953125 
Q 35.25 24.703125 29.984375 24.703125 
Q 19.046875 24.703125 12.671875 31.3125 
Q 6.296875 37.9375 6.296875 49.421875 
Q 6.296875 60.640625 12.9375 67.421875 
Q 19.578125 74.21875 30.609375 74.21875 
Q 43.265625 74.21875 49.921875 64.515625 
Q 56.59375 54.828125 56.59375 36.375 
Q 56.59375 19.140625 48.40625 8.859375 
Q 40.234375 -1.421875 26.421875 -1.421875 
Q 22.703125 -1.421875 18.890625 -0.6875 
Q 15.09375 0.046875 10.984375 1.515625 
z
M 30.609375 32.421875 
Q 37.25 32.421875 41.125 36.953125 
Q 45.015625 41.5 45.015625 49.421875 
Q 45.015625 57.28125 41.125 61.84375 
Q 37.25 66.40625 30.609375 66.40625 
Q 23.96875 66.40625 20.09375 61.84375 
Q 16.21875 57.28125 16.21875 49.421875 
Q 16.21875 41.5 20.09375 36.953125 
Q 23.96875 32.421875 30.609375 32.421875 
z
" id="DejaVuSans-57"/>
      </defs>
      <g transform="translate(381.4576 71.882419)scale(0.1 -0.1)">
       <use xlink:href="#DejaVuSans-48"/>
       <use x="63.623047" xlink:href="#DejaVuSans-46"/>
       <use x="95.410156" xlink:href="#DejaVuSans-48"/>
       <use x="159.033203" xlink:href="#DejaVuSans-48"/>
       <use x="222.65625" xlink:href="#DejaVuSans-57"/>
       <use x="286.279297" xlink:href="#DejaVuSans-48"/>
      </g>
     </g>
    </g>
   </g>
   <g id="patch_8">
    <path d="M 361.152 307.584 
L 361.152 294.2784 
L 361.152 54.7776 
L 361.152 41.472 
L 374.4576 41.472 
L 374.4576 54.7776 
L 374.4576 294.2784 
L 374.4576 307.584 
z
" style="fill:none;stroke:#000000;stroke-linejoin:miter;stroke-width:0.8;"/>
   </g>
  </g>
 </g>
 <defs>
  <clipPath id="pb52e043a1d">
   <rect height="266.112" width="285.696" x="57.6" y="41.472"/>
  </clipPath>
  <clipPath id="p2b36c1802f">
   <rect height="266.112" width="13.3056" x="361.152" y="41.472"/>
  </clipPath>
 </defs>
</svg>
